<svg  xmlns="http://www.w3.org/2000/svg" viewBox="0 0 704 343">
  <g fill="none">
    <path
      fill="#8F88C0"
      d="M356.382 246.063h.099c1.649-.384 3.297-.762 4.946-1.135a.428.428 0 00.322-.51.429.429 0 00-.512-.32l-4.954 1.142a.427.427 0 00.1.823zm17.583-3.807l5.012-.979a.427.427 0 00-.156-.822l-5.02.979a.427.427 0 00.082.822h.082zm-34.952 8.107h.107c1.649-.439 3.298-.87 4.946-1.291a.427.427 0 00-.214-.822c-1.649.422-3.297.852-4.946 1.29a.427.427 0 00.107.823zm-17.22 4.867h.123l4.897-1.447a.428.428 0 10-.24-.822l-4.904 1.447a.427.427 0 00.123.822zm69.772-16.205c1.682-.285 3.364-.56 5.045-.823a.427.427 0 00-.132-.822l-5.053.822a.427.427 0 00.074.823h.066zm71.19-7.548l5.112-.206a.43.43 0 00.412-.444.461.461 0 00-.445-.41l-5.12.213a.428.428 0 000 .822l.042.025zm-17.88 1.077l5.104-.362a.43.43 0 00.417-.689.43.43 0 00-.475-.133l-5.111.362a.428.428 0 000 .822h.066zm35.794-1.62l5.12-.057a.428.428 0 000-.822l-5.128.057a.428.428 0 000 .822h.008zm-71.405 5.394l5.07-.674a.429.429 0 00.368-.712.43.43 0 00-.475-.11l-5.078.674a.428.428 0 00.057.822h.058zm17.748-2.154l5.086-.518a.429.429 0 00.388-.469.445.445 0 00-.47-.386l-5.095.518a.428.428 0 00.042.822l.05.033zm-204.248 62.14a.421.421 0 00.206-.048 2027.25 2027.25 0 004.5-2.467.428.428 0 10-.403-.756 239.515 239.515 0 00-4.51 2.466.427.427 0 00.207.822v-.016zm-15.342 8.84a388.026 388.026 0 014.41-2.607.427.427 0 10-.428-.74 444.21 444.21 0 00-4.419 2.606.427.427 0 00.223.823.421.421 0 00.214-.083zm-15.184 9.504a480.326 480.326 0 014.295-2.78.427.427 0 10-.462-.714c-1.44.92-2.874 1.847-4.303 2.779a.427.427 0 10.47.715zm112.507-54.002h.14c1.61-.548 3.226-1.082 4.847-1.603a.431.431 0 10-.264-.822 451.694 451.694 0 00-4.855 1.644.427.427 0 00.14.823l-.008-.042zM163.13 335.5c1.341-1.052 2.69-2.093 4.048-3.124a.427.427 0 00.044-.57.43.43 0 00-.564-.104 115.943 115.943 0 00-4.055 3.157.427.427 0 00-.075.6.43.43 0 00.602.074v-.033zm14.336-10.73a380.372 380.372 0 014.179-2.95.427.427 0 00-.486-.7 573.078 573.078 0 00-4.188 2.96.427.427 0 00.495.69zm93.744-51.575c.055.01.11.01.165 0a709.218 709.218 0 014.724-1.924.44.44 0 10-.322-.822c-1.582.636-3.16 1.277-4.731 1.924a.427.427 0 00.164.822zm-32.561 14.8a.421.421 0 00.19-.042 508.252 508.252 0 014.59-2.26.428.428 0 10-.37-.765 357.57 357.57 0 00-4.6 2.269.427.427 0 00.19.822v-.025zm49.238-21.378c.049.01.1.01.148 0 1.594-.592 3.19-1.178 4.79-1.76a.435.435 0 10-.289-.821 453.17 453.17 0 00-4.797 1.767.427.427 0 00.148.823v-.009zm-33.048 13.673a.43.43 0 00.173 0 597.036 597.036 0 014.65-2.088.428.428 0 10-.347-.781c-1.56.69-3.113 1.387-4.657 2.088a.427.427 0 00.18.822v-.04zm266.784-48.542a.428.428 0 000-.822l-5.12-.255a.413.413 0 00-.445.403c-.01.233.17.43.404.444l5.16.23zm174.275 38.265c.054.01.11.01.165 0a.428.428 0 00.165-.822 390.9 390.9 0 00-4.757-1.908.44.44 0 10-.313.822c1.583.653 3.163 1.289 4.74 1.908zm-192.221-38.972a.428.428 0 000-.822l-5.128-.099a.428.428 0 000 .823l5.128.098zm89.112 9.102h.074a.428.428 0 00.074-.822l-5.053-.897a.421.421 0 00-.495.346.428.428 0 00.346.493l5.054.88zm86.4 23.408c.049.008.099.008.148 0a.428.428 0 00.148-.823 505.118 505.118 0 00-4.822-1.734.435.435 0 10-.289.822c1.61.57 3.215 1.148 4.814 1.735zm-104.083-26.352h.066a.428.428 0 00.066-.822l-5.078-.74a.43.43 0 00-.542.589c.08.159.25.252.427.233l5.061.74zm-35.603-4.193a.428.428 0 000-.822l-5.111-.42a.428.428 0 00-.066.823l5.177.42zm17.839 1.817h.049a.428.428 0 00.05-.822 402.162 402.162 0 00-5.095-.575.421.421 0 00-.47.378.428.428 0 00.38.468l5.086.551zm53.03 8.83h.09a.428.428 0 00.091-.822 333.523 333.523 0 00-5.02-1.06.421.421 0 00-.503.329.428.428 0 00.33.501l5.012 1.053zm34.746 8.773h.116a.428.428 0 00.115-.822 834.704 834.704 0 00-4.946-1.398.427.427 0 00-.23.822c1.659.456 3.307.921 4.945 1.398zm17.13 5.262h.132a.428.428 0 00.132-.822 261.56 261.56 0 00-4.88-1.57.43.43 0 10-.256.822c1.627.515 3.25 1.039 4.872 1.57zm-34.433-9.981h.107a.428.428 0 00.107-.822 814.33 814.33 0 00-4.946-1.234.429.429 0 00-.198.823 179.8 179.8 0 004.93 1.233zM348.09 215.962l5.02-.97a.427.427 0 00-.157-.822l-5.029.97a.427.427 0 00.083.822h.082zm-17.609 3.733h.082l4.988-1.11a.429.429 0 10-.182-.822l-4.995 1.11a.427.427 0 00.09.822h.017zm35.216-6.964l5.045-.822a.429.429 0 00.332-.724.43.43 0 00-.472-.098l-5.053.822a.427.427 0 00.074.822h.074zm-52.618 11.132h.107l4.946-1.25a.428.428 0 10-.206-.821l-4.946 1.25a.427.427 0 00.107.821h-.008zm-17.278 4.728h.115l4.946-1.39a.428.428 0 10-.23-.822l-4.947 1.39a.427.427 0 00.116.822zm141.054-23.975l5.11-.288a.43.43 0 00.405-.452.41.41 0 00-.454-.403l-5.119.288a.428.428 0 000 .822l.058.033zm17.896-.83l5.12-.148a.428.428 0 000-.823l-5.128.148a.428.428 0 000 .823h.008zm-193.045 35.7a.43.43 0 00.14 0c1.605-.55 3.212-1.097 4.822-1.645a.434.434 0 10-.28-.823l-4.83 1.645a.427.427 0 00.14.822h.008zm139.446-31.77l5.087-.56a.427.427 0 00-.091-.822l-5.095.56a.428.428 0 00.05.822h.05zm17.831-1.793l5.103-.427a.429.429 0 00.395-.46.419.419 0 00-.461-.395l-5.103.427a.428.428 0 000 .822l.066.033zm-35.595 4.062l5.07-.699c.234-.03.4-.243.37-.477a.42.42 0 00-.478-.362l-5.078.7a.428.428 0 00.058.821l.058.017zm-203.49 65.734a.421.421 0 00.206-.05c1.5-.816 3.003-1.638 4.509-2.466a.428.428 0 10-.404-.756 258.715 258.715 0 00-4.518 2.466.427.427 0 00.206.822v-.016zm-60.046 38.651a400.92 400.92 0 014.122-3.058.429.429 0 00-.511-.682 445.38 445.38 0 00-4.122 3.066.428.428 0 10.52.682l-.01-.008zm14.517-10.507a442.223 442.223 0 014.22-2.903.427.427 0 00-.478-.707 1149.5 1149.5 0 00-4.229 2.903.427.427 0 00.487.698v.009zm14.887-9.949c1.435-.92 2.877-1.833 4.328-2.738a.427.427 0 00-.453-.723c-1.451.91-2.896 1.825-4.336 2.746a.427.427 0 00.461.715zm-43.492 31.531a196.761 196.761 0 013.981-3.223.427.427 0 00.05-.586.43.43 0 00-.585-.08 568.12 568.12 0 00-3.99 3.223.427.427 0 00-.034.58.43.43 0 00.578.078v.008zm-13.577 11.593c1.27-1.13 2.544-2.253 3.825-3.371a.427.427 0 00-.123-.758.43.43 0 00-.438.117 166.887 166.887 0 00-3.833 3.37.427.427 0 000 .572.43.43 0 00.569.062v.008zm152.735-91.362c.052.01.105.01.157 0 1.588-.614 3.176-1.22 4.764-1.817a.439.439 0 10-.305-.822 713.32 713.32 0 00-4.773 1.825.427.427 0 00.157.822v-.008zm-80.407 38.84c1.467-.866 2.94-1.726 4.419-2.581a.427.427 0 10-.43-.74c-1.483.855-2.958 1.718-4.426 2.59a.427.427 0 00.215.822.421.421 0 00.222-.09zm47.45-24.887a.43.43 0 00.18 0c1.55-.713 3.103-1.42 4.658-2.122a.429.429 0 10-.354-.78l-4.666 2.129a.427.427 0 00.182.822v-.05zm16.38-7.236c.054.011.11.011.164 0l4.707-1.965a.442.442 0 10-.33-.822l-4.715 1.973a.427.427 0 00.165.823l.008-.009zm-32.546 15.047a.413.413 0 00.19-.05 397.007 397.007 0 014.591-2.277.427.427 0 00-.379-.765c-1.539.751-3.072 1.51-4.6 2.278a.427.427 0 00.19.822l.008-.008zm276.882-64.008h5.103a.405.405 0 00.428-.428.427.427 0 00-.428-.427h-5.103a.428.428 0 000 .822v.033zM278.63 233.787h.131l4.872-1.529a.43.43 0 10-.255-.822l-4.88 1.537a.427.427 0 00.132.823v-.009zm427.135 11.799c.052.01.105.01.157 0a.428.428 0 00.157-.822 858.345 858.345 0 00-4.782-1.859.44.44 0 00-.585.485.439.439 0 00.28.338c1.589.613 3.18 1.233 4.773 1.858zM602.598 215.55h.083a.428.428 0 00.082-.822 388.6 388.6 0 00-5.037-.97.437.437 0 00-.502.337.428.428 0 00.337.501l5.037.954zm86.375 23.729c.05.008.1.008.149 0a.428.428 0 00.148-.823 721.594 721.594 0 00-4.839-1.71.436.436 0 00-.567.496c.03.152.14.276.287.326 1.61.565 3.218 1.135 4.822 1.71zM567.21 209.623h.058a.428.428 0 00.057-.822l-5.086-.683a.428.428 0 00-.107.823l5.078.682zm-35.653-3.946a.428.428 0 000-.823l-5.12-.402a.421.421 0 00-.46.394.427.427 0 00.395.46l5.185.37zm53.385 6.676h.074a.428.428 0 00.074-.822l-5.061-.823a.428.428 0 00-.132.823l5.045.822zm-71.282-7.918a.428.428 0 000-.822l-5.036-.304a.43.43 0 00-.468.658.43.43 0 00.468.164l5.036.304zm35.752 2.985h.05a.428.428 0 00.05-.823l-5.103-.542a.421.421 0 00-.47.378.428.428 0 00.379.469l5.094.518zm122.59 26.08h.131a.428.428 0 00.132-.823l-4.888-1.554a.432.432 0 00-.55.507.43.43 0 00.294.316L672 233.5zm-17.147-5.254h.115a.428.428 0 00.115-.822l-4.946-1.406a.427.427 0 00-.23.822l4.946 1.406zm-159.116-24.56a.428.428 0 000-.821l-5.127-.124a.461.461 0 00-.437.42.427.427 0 00.42.435l5.144.09zm141.82 19.816h.108a.428.428 0 00.107-.823l-4.946-1.266a.429.429 0 00-.206.823c1.638.416 3.284.838 4.938 1.266zm-17.426-4.226h.1a.428.428 0 00.09-.823l-5.012-1.167a.43.43 0 00-.565.548c.062.16.212.267.383.274l5.004 1.168zM634.426 174.392a.428.428 0 00-.181.822l5.012 1.086h.09a.428.428 0 00.091-.822l-5.012-1.086zm-17.616-3.519a.428.428 0 00-.157.822l5.037.962h.083a.428.428 0 00.082-.822l-5.045-.962zm35.142 7.482a.429.429 0 00-.198.822l4.946 1.209h.107a.428.428 0 00.1-.822l-4.955-1.209zm51.884 14.512a.434.434 0 00-.554.503c.032.15.143.272.29.319l4.873 1.587h.131a.428.428 0 00.132-.822l-4.872-1.587zM599.12 167.782a.421.421 0 00-.495.353.428.428 0 00.354.485l5.062.823h.074a.428.428 0 00.074-.823l-5.07-.838zm87.562 19.806a.43.43 0 00-.537.514c.037.148.15.266.298.309l4.946 1.463h.123a.428.428 0 00.124-.822l-4.954-1.464zm-17.312-4.834a.429.429 0 00-.222.822l4.946 1.332h.115a.428.428 0 00.116-.822l-4.955-1.332zm-88.015-17.636a.43.43 0 00-.543.589c.08.158.25.251.427.233l5.078.715h.058a.428.428 0 00.058-.822l-5.078-.715zm-53.6-5.435a.421.421 0 00-.453.395.428.428 0 00.396.452l5.111.354a.428.428 0 000-.823l-5.053-.378zm-18.382-.567a.427.427 0 00.412.444l5.12.23a.429.429 0 00.189-.822h-5.647a.353.353 0 00-.074.148zm36.288 1.957a.43.43 0 00-.52.614c.09.156.268.24.445.208l5.103.477h.041a.428.428 0 000-.822l-5.07-.477zm17.871 1.809a.428.428 0 00-.099.822l5.095.592h.05a.428.428 0 00.049-.822l-5.095-.592zm-143.428-2.812a.428.428 0 000 .822l5.111-.354a.428.428 0 00-.058-.822l-5.053.354zM72.724 278.309a807.885 807.885 0 00-4.171 2.984.427.427 0 10.503.691A1256 1256 0 0173.177 279a.427.427 0 10-.494-.7l.041.009zm14.805-10.146c-1.429.943-2.85 1.894-4.262 2.853a.427.427 0 00.478.707 479.008 479.008 0 014.262-2.845.427.427 0 10-.47-.715h-.008zM44.16 300.056a1246.775 1246.775 0 00-3.94 3.289.428.428 0 00-.054.604.43.43 0 00.606.053 274.098 274.098 0 013.932-3.247.427.427 0 00.034-.581.43.43 0 00-.578-.077v-.041zm14.097-11.116a117.958 117.958 0 00-4.064 3.165.427.427 0 00.263.765.421.421 0 00.264-.09 567.615 567.615 0 014.056-3.125.427.427 0 00.044-.57.43.43 0 00-.563-.104v-.041zm75.502-48.378l-4.51 2.467a.427.427 0 00.413.748c1.494-.822 2.995-1.644 4.5-2.467a.427.427 0 00-.403-.748zm-31.103 17.932a580.06 580.06 0 00-4.353 2.713.427.427 0 00.231.823.421.421 0 00.231-.066c1.445-.91 2.894-1.815 4.344-2.713a.427.427 0 10-.453-.724v-.033zm15.415-9.2a585.063 585.063 0 00-4.435 2.581.427.427 0 10.437.732l4.427-2.573a.427.427 0 00-.429-.74zm31.63-16.995l-4.616 2.319a.427.427 0 00.388.756l4.575-2.31a.428.428 0 10-.388-.765h.042zM1.254 340.573a.43.43 0 00.305-.131 554.127 554.127 0 013.553-3.659.427.427 0 00-.192-.725.43.43 0 00-.418.125A561.09 561.09 0 00.94 339.85a.427.427 0 00.305.723h.008zm29.248-28.957a153.94 153.94 0 00-3.825 3.387.427.427 0 000 .571.43.43 0 00.569.062 372.715 372.715 0 013.816-3.379.427.427 0 00-.122-.757.43.43 0 00-.438.116zm371.723-150.033a.428.428 0 000 .822h.058l5.094-.477a.429.429 0 00.402-.697.43.43 0 00-.476-.125l-5.078.477zM17.311 323.66a446.2 446.2 0 00-3.693 3.527.427.427 0 00-.004.597.43.43 0 00.598.02 375.482 375.482 0 013.693-3.52.427.427 0 00-.018-.567.43.43 0 00-.567-.049l-.009-.008zm313.937-151.916a.427.427 0 00.082.822h.083l5.028-.946a.428.428 0 00.346-.493.437.437 0 00-.494-.345l-5.045.962zm-12.555 2.507l-5.012 1.102a.427.427 0 00.09.822h.091l5.004-1.06a.428.428 0 00.33-.502.42.42 0 00-.503-.362zm-17.501 3.873l-4.946 1.184a.427.427 0 00.099.822h.099l4.946-1.184a.428.428 0 00.321-.51.42.42 0 00-.519-.312zm47.697-9.546a.427.427 0 00.074.823h.074l5.045-.823a.428.428 0 00.355-.485.429.429 0 00-.487-.353l-5.061.838zm35.504-5.073a.428.428 0 00.05.823h.05l5.086-.592a.427.427 0 00-.1-.823l-5.086.592zm-100.595 18.91l-4.946 1.3a.427.427 0 00.107.822h.107l4.947-1.299a.427.427 0 00-.215-.822zm82.814-16.583a.428.428 0 00.058.822h.058l5.07-.707a.428.428 0 00.362-.477.42.42 0 00-.478-.361l-5.07.723zm-134.278 32.008l-4.83 1.644a.427.427 0 00.14.823.422.422 0 00.14 0l4.83-1.645a.435.435 0 10-.28-.822zm-16.866 6.002l-4.79 1.792a.427.427 0 00.149.823c.05.008.1.008.148 0l4.782-1.793a.437.437 0 10-.297-.822h.008zm-16.701 6.438l-4.74 1.916a.441.441 0 10.321.822l4.732-1.916a.441.441 0 10-.321-.822h.008zm-16.528 6.873l-4.683 2.048a.427.427 0 00.173.822.421.421 0 00.174 0l4.674-2.04a.444.444 0 10-.338-.821v-.009zm84.273-30.018l-4.946 1.423a.427.427 0 00.123.822h.124l4.946-1.423a.429.429 0 10-.24-.822h-.007zm-17.155 5.139l-4.872 1.546a.427.427 0 00.132.822h.132l4.872-1.546a.43.43 0 10-.256-.822h-.008zm-83.482 32.222l-4.64 2.187a.428.428 0 10.37.772c1.539-.734 3.083-1.46 4.633-2.178a.427.427 0 00-.363-.773v-.008zm272.142-65.587a.428.428 0 000 .823l5.12-.206a.428.428 0 000-.822l-5.12.205zm17.847-.616a.428.428 0 000 .822l5.12-.115a.43.43 0 00.467-.658.43.43 0 00-.467-.164l-5.12.115zm36.107-.09a.428.428 0 000 .821l5.119.066a.428.428 0 000-.822l-5.12-.066zm-17.328-.461a.428.428 0 000 .822l5.12.066a.43.43 0 00.467-.658.43.43 0 00-.468-.164l-5.119-.066z"
    />
    <path
      fill="#F6C018"
      d="M636.52 234.725l-1.006-2.533a.517.517 0 01.775-.616l2.26 1.529a.52.52 0 00.485.05l2.54-1.004a.52.52 0 01.618.773l-1.534 2.253a.517.517 0 00-.05.485l1.007 2.532a.517.517 0 01-.775.617l-2.259-1.53a.52.52 0 00-.486-.049l-2.523 1.003a.52.52 0 01-.618-.773l1.533-2.252a.517.517 0 00.033-.485zm-303.203-88.772l1.475-4.769a.948.948 0 011.822 0l1.476 4.769a.947.947 0 00.626.625l4.781 1.471a.946.946 0 010 1.817l-4.78 1.472a.947.947 0 00-.627.625l-1.476 4.769a.948.948 0 01-1.822 0l-1.475-4.77a.947.947 0 00-.627-.624l-4.78-1.472a.946.946 0 010-1.817l4.78-1.471a.947.947 0 00.627-.625z"
    />
    <path
      fill="#F8DE89"
      d="M691.183 202.79l.255-4.513a.825.825 0 011.6-.395l2.332 3.873c.142.25.404.41.693.42l4.525.254a.822.822 0 01.396 1.595l-3.883 2.327a.822.822 0 00-.42.69l-.255 4.514a.825.825 0 01-1.6.395l-2.374-3.873a.825.825 0 00-.692-.419l-4.526-.255a.822.822 0 01-.396-1.595l3.883-2.327a.822.822 0 00.462-.69zm-430.508 14.06l-1.492-3.765a.772.772 0 01.239-.883.777.777 0 01.915-.038l3.364 2.269c.21.143.479.174.717.082l3.775-1.488a.776.776 0 01.885.238.771.771 0 01.039.913l-2.276 3.355a.771.771 0 00-.082.715l1.492 3.766a.772.772 0 01-.239.882.777.777 0 01-.915.038l-3.363-2.269a.777.777 0 00-.718-.082l-3.775 1.488a.776.776 0 01-.885-.238.771.771 0 01-.038-.913l2.275-3.355a.771.771 0 00.082-.715z"
    />
    <g fill="#F6C018" transform="translate(201.965 149.044)">
      <ellipse
        cx="154.824"
        cy="3.134"
        rx="1.687"
        ry="1.688"
        transform="rotate(-49.26 154.824 3.134)"
      />
      <path d="M1.649 170.605a1.641 1.641 0 01-1.46-1.817 1.647 1.647 0 011.715-1.554 1.641 1.641 0 011.46 1.817 1.647 1.647 0 01-1.715 1.554z" />
      <ellipse
        cx="466.353"
        cy="9.943"
        rx="1.69"
        ry="1.686"
        transform="rotate(-10.52 466.353 9.943)"
      />
      <ellipse
        cx="75.955"
        cy="52.706"
        rx="1.69"
        ry="1.686"
        transform="rotate(-10.52 75.955 52.706)"
      />
      <ellipse
        cx="67.287"
        cy="113.36"
        rx="1.69"
        ry="1.686"
        transform="rotate(-10.52 67.287 113.36)"
      />
    </g>
    <path
      fill="#FFF"
      d="M212.871 323.644c-10.1 5.98-19.743 12.216-28.926 18.705l606.72.346C634.228 231.847 386.57 220.83 212.871 323.645z"
    />
    <path
      fill="#B6B7D8"
      d="M476.242 253.882c-92.327.945-183.73 23.021-260.32 67.641-11.327 6.578-22.555 13.903-32.727 21.163h577.983c-81.38-53.738-182.947-84.217-284.936-88.804z"
    />
    <path
      fill="#6B66AE"
      d="M652.2 325.544c-28.713-32.296-74.522-55.613-126.53-64.419-78.832-13.336-165.743 6.578-238.533 39.276a590.283 590.283 0 00-77.918 42.285l455.865-.345a144.032 144.032 0 00-12.885-16.797z"
      opacity="0.3"
    />
    <path
      fill="#B6B7D8"
      d="M384.146 339.266c-6.298-13.525-14.706-28.078-30.79-34.293-16.082-6.216-33.913-3.445-49.081 1.833-15.794 5.492-27.203 16.838-34.367 32.065-.602 1.283-1.13 2.557-1.649 3.832h117.412a55.953 55.953 0 00-1.525-3.437z"
    />
    <path
      fill="#D3D3E3"
      d="M707.958 325.174c-6.85-4.152-14.517-3.445-18.68 3.387a11.708 11.708 0 00.668 13.78h23.304c3.702-6.66 1.369-13.122-5.292-17.167z"
    />
    <path
      fill="#B6B7D8"
      d="M569.08 300.253c-.354 9.67-6.29 18.845-15.984 18.491-9.694-.353-16.14-9.99-15.786-19.658.354-9.67 7.353-14.907 17.047-14.545 9.695.362 15.078 6.043 14.723 15.712zm-101.345 11.585a33.307 33.307 0 0120.452-7.4h.775a25.2 25.2 0 0119.314 9.34c6.455 8.025 7.098 19.026 2.655 28.514h.915a31.365 31.365 0 002.357-7.4 26.398 26.398 0 00-5.25-21.673 26.042 26.042 0 00-19.966-9.603 33.854 33.854 0 00-21.78 7.548c-6.232 4.982-9.892 11.33-10.518 18.334a25.683 25.683 0 002.184 12.818h.948c-4.946-10.803-2.168-22.388 7.914-30.478z"
    />
    <path
      fill="#110C56"
      d="M213.201 324.17c46.081-27.271 98.032-47.078 154.4-58.86a581.386 581.386 0 01118.97-12.218c16.042 0 32.13.653 48.266 1.957 56.517 4.572 110.462 16.929 160.245 36.744a458.411 458.411 0 0194.693 50.885h2.192a458.455 458.455 0 00-96.448-52.07c-49.89-19.88-103.926-32.213-160.575-36.817a587.509 587.509 0 00-167.606 10.286c-56.51 11.806-108.592 31.662-154.796 59.017a446.334 446.334 0 00-30.23 19.6h2.235a456.236 456.236 0 0128.654-18.523z"
    />
    <g>
      <path
        fill="#B6B7D8"
        d="M520.506 80.594l-2.296-2.54c3.651-3.297 5.295-6.462 4.89-9.421-.693-4.946-7.005-8.194-7.063-8.243l1.512-3.05c.322.164 7.997 4.014 8.947 10.823.57 4.146-1.446 8.334-5.99 12.43zM474 71.344c-2.123.561-3.701 2.334-4.908 4.164-6.857 10.444-5.254 24.465-10.848 35.635-1.132 2.258-2.701 4.5-5.064 5.416a11.947 11.947 0 01-3.982.585c-3.305.093-6.61.071-9.915-.066a6.771 6.771 0 01-3.156-.66c-2.115-1.228-2.313-4.121-3.56-6.264a7.791 7.791 0 00-5.123-3.487 11.707 11.707 0 00-6.28.577 5.932 5.932 0 00-3.114 2.135 2.7 2.7 0 00.33 3.487c.926.733 2.297.552 3.305 1.112 1.9 1.023 1.777 3.76 2.81 5.655a9.452 9.452 0 003.486 3.15 68.92 68.92 0 0011.244 6.149 24.224 24.224 0 0012.567 1.78 26.003 26.003 0 008.724-3.297 19.902 19.902 0 006.32-5.16 22.908 22.908 0 003.157-6.958c1.718-5.498 3.04-11.111 4.354-16.725 1.545-6.595 3.098-13.494 1.553-20.097-.173-.734 1.272-1.203.826-1.789-.446-.585.72-2.324-.165-2.473 0 0-1.52-4.731-2.478-2.885m6.212-8.639H507.7v8.656h-27.405z"
      />
      <path
        fill="#FFF"
        d="M537.377 259.438c-.347-2.844-.479-5.952-1.834-8.474-1.355-2.523-4.916-4.295-7.783-4.204a518.449 518.449 0 00-4.717-54.315c-.694-4.946-1.058-9.95-1.363-14.978a102.052 102.052 0 01-.157-3.89c.71.756 1.493 1.441 2.338 2.044a5.221 5.221 0 003.305 1.08c1.867-.083 3.139-1.814 3.734-3.578a7.32 7.32 0 00.347-4.121c-.636-6.67-3.578-12.48-2.727-19.116a168.754 168.754 0 00-4.66-66.094c-.941-3.421-2.023-6.883-4.13-9.752-2.107-2.868-5.37-5.094-8.931-5.053a45.83 45.83 0 00-4.867-.51c-6.874-.553-13.731.757-20.655.329-6.056-.38-12.665 1.648-16.036 6.677-2.644 3.957-2.867 8.985-3.007 13.733l-.463 15.926c-.114 2.43-.1 4.866.041 7.295.356 4.682.827 9.842 1.38 14.5 1.768 13.873 1.81 27.02 2.057 40.87.075 4.039-.388 7.962-.38 12.001l.083 36.106c0 10.238.082 20.204-.174 30.433a24.325 24.325 0 00-14.83 1.237c-2.842 1.228-5.444 4.122-6.965 6.792-1.842 3.298-1.214 7.328-.528 11.021-.215.124.099.256.338.24 6.651-.47 13.45-.198 20.118-.38 6.825-.181 13.31-.775 20.184-1.005-.512-17.649 0-36.443.768-54.076.72-15.76.637-31.802.546-47.571-.05-8.458.38-17.78 1.024-26.213 1.231.37 2.892.634 3.561.824.975.313 1.834.52 2.81.824a193.68 193.68 0 003.23 23.081c.561 2.655 1.23 5.292 1.76 7.955 1.445 7.32 1.8 14.838 2.998 22.174 2.28 14.013 2.62 28.373 3.123 42.576.405 11.54.728 21.185 1.033 32.148 8.41-.115 15.863-.379 24.266-.865 2.362-.14 4.188-.181 5.568-.363-.173-1.574-.231-3.676-.405-5.308z"
      />
      <path
        fill="#363884"
        d="M488.36 194.926c-4.958-.12-9.893-.23-14.806-.33-1.463 0-3.024-.14-4.627-.263 0 7.199.017 14.398.05 21.597 0 10.238.082 20.204-.174 30.434a24.325 24.325 0 00-14.871 1.228c-2.842 1.228-5.445 4.122-6.965 6.793-1.843 3.297-1.264 7.047-.579 10.716l.397.519c6.65-.47 13.45-.198 20.118-.38 6.824-.18 13.31-.774 20.184-1.005-.512-17.64 0-36.443.768-54.075.265-5.037.413-10.131.504-15.234zm49.447 69.886c-.198-1.648-.256-3.742-.455-5.374-.347-2.844-.479-5.952-1.834-8.474-1.355-2.523-4.916-4.295-7.782-4.204-.562-16.94-2.016-33.954-4.247-50.77-3.916-.14-7.84-.289-11.757-.412l-7.336-.215c1.743 12.744 2.082 25.71 2.536 38.562.405 11.54.727 21.185 1.033 32.148 8.41-.115 15.863-.379 24.265-.865 2.371-.173 4.197-.214 5.577-.396zM528.48 149.91c-.827 6.265 2.139 11.788 2.726 17.921a13.3 13.3 0 01-.29 5.548c-.603 1.764-2.131 3.347-3.998 3.437a5.378 5.378 0 01-3.305-1.187c-3.768-2.728-4.957-5.82-5.982-10.353a11.137 11.137 0 01-2.553 2.852.91.91 0 01-.826.288c-.273-.107-.388-.428-.446-.717-.413-1.995 0-4.064.33-6.075.648-3.941.99-7.926 1.025-11.92m-72.73-32.568c-1.066 0-2.123 0-3.19-.075a6.771 6.771 0 01-3.155-.66c-2.115-1.227-2.314-4.12-3.561-6.264a7.791 7.791 0 00-5.122-3.487 11.707 11.707 0 00-6.28.577 5.932 5.932 0 00-3.114 2.135 2.7 2.7 0 00.33 3.487c.091.07.188.134.29.19-.323.14-.645.28-.967.428a3.774 3.774 0 00-1.735 1.36 3.678 3.678 0 00-.356 1.798c-.066 5.077 2.405 11.87 8.667 10.345a17.774 17.774 0 006.048-2.778 57.664 57.664 0 008.972 4.723h.067c4.61-3.89 3.544-10.015 3.106-11.78z"
      />
      <path
        fill="#110C56"
        d="M429.592 124.637l33.576 120.705-3.304.915-33.387-120.013m-4.04-14.516L391.612.915 394.917 0l30.841 110.87"
      />
      <path fill="#F6C018" d="M391.306 2.069l18.292 64.742-96.83 11.615z" />
      <path
        fill="#FFF"
        d="M312.768 78.426l13.88-1.649c18.59-18.193 52.604-51.462 67.211-65.657l-2.553-9.067-78.538 76.373z"
      />
      <path
        fill="#110C56"
        d="M385.994 54.809a4.44 4.44 0 004.32 1.929c1.653-.215 2.636-1.195 2.48-2.341-.183-1.385-1.347-1.731-3.306-2.292l-1.065-.305c-3.074-.824-5.214-2.16-5.643-5.44-.397-3.026 1.652-5.622 5.221-6.092a6.03 6.03 0 016.164 2.473l-2.884 2.423a2.77 2.77 0 00-2.825-1.393 1.778 1.778 0 00-1.291.614 1.77 1.77 0 00-.42 1.365c.157 1.211.975 1.599 2.801 2.126l1.066.297c3.627 1.022 5.783 2.267 6.197 5.63.47 3.627-2.124 5.985-5.957 6.488-3.834.502-6.403-.94-7.89-3.158l3.032-2.324zm-14.227 2.2c.784 1.04 1.478 1.913 2.866 1.732 1.389-.181 2.099-.824 1.835-2.811l-1.793-13.7 4.04-.528 1.801 13.758c.545 4.171-1.652 6.389-5.238 6.858a6.326 6.326 0 01-6.544-2.893l3.033-2.415z"
      />
      <path
        fill="#110C56"
        d="M311 79.291L391.637.824l18.787 66.506-.743.091L311 79.291zm79.984-75.994l-76.407 74.271 94.187-11.301-17.78-62.97z"
      />
      <path
        fill="#FFF"
        d="M518.193 49.929c-.041-3.058 0-6.356 0-9.422-.074-6.99-3.115-14.566-8.592-19.05a34.256 34.256 0 00-8.708-5.053 28.972 28.972 0 00-6.792-1.566 20.086 20.086 0 00-7.931.898 34.332 34.332 0 00-8.064 3.223 23.605 23.605 0 00-11.087 14.838 45.632 45.632 0 00-.868 9.793l-.157 9.48c0 2.102-.496 7.113.892 8.861 2.917 3.693 9.51 2.745 13.88 3.676a56.358 56.358 0 0033.238-2.959 23.974 23.974 0 003.916-2.242c.17-1.368.263-2.744.281-4.122-.058-2.357.042-2.95-.008-6.355z"
      />
      <path
        fill="#363884"
        d="M509.667 56.515a1.72 1.72 0 001.082-.634c.123-.257.177-.541.157-.825.174-6.949 1.206-14.895-2.38-20.896a26.638 26.638 0 00-5.494-6.133c-4.676-3.924-11.145-5.523-17.267-6.232-4.478-.52-8.419.223-12.492 1.245a23.363 23.363 0 00-5.949 10.716 45.632 45.632 0 00-.867 9.793l-.132 9.488c0 .898-.14 1.896-.174 2.868A67.76 67.76 0 00474 58.667c11.616 3.157 24.067 1.129 35.667-2.152z"
      />
      <path
        fill="#B6B7D8"
        d="M488.88 27.112c-.488.907.198 1.995.983 2.662 1.313 1.105 2.966 1.74 4.395 2.688 2 1.319 3.528 3.206 5.47 4.608.21.173.455.3.718.37 4.065.825 1.157-4.731-2.049-6.643-.983-.602-8.542-5.482-9.517-3.685zm16.953 13.61a1.564 1.564 0 00-1.537-.512 2.132 2.132 0 00-1.478.933 2.123 2.123 0 00-.281 1.722 2.07 2.07 0 002.99.99 2.11 2.11 0 00.306-3.1"
      />
      <path
        fill="#363884"
        d="M521.787 44.9a2.919 2.919 0 00-2-2.744v-1.509c0-2.473-2.552-1.904-4.8-1.904a1.174 1.174 0 00-.917.387 4.664 4.664 0 00-.24 1.542 62.712 62.712 0 00.24 9.331c-.039.579.204 1.14.653 1.509.259.12.541.178.826.173l2.05.099c.398.05.803.004 1.18-.132.827-.388.984-1.509.984-2.473v-1.583a2.919 2.919 0 002.024-2.695z"
      />
      <path
        fill="#9999C6"
        d="M518.82 46.516a1.747 1.747 0 01-.544-.09 1.497 1.497 0 01-.826-2.316 1.702 1.702 0 011.214-.825 1.34 1.34 0 011.264.429c.323.375.473.869.413 1.36a1.648 1.648 0 01-.677 1.129 1.48 1.48 0 01-.843.313zm.125-2.572h-.215a1.05 1.05 0 00-.744.495.946.946 0 00.165 1.15.952.952 0 001.157.128.98.98 0 00.405-.685 1.12 1.12 0 00-.256-.824.653.653 0 00-.512-.264z"
      />
      <g>
        <path
          fill="#8584BC"
          d="M487.046 260.855l-.034-.643-41.02 2.004.033.643 4.081-.207v2.803h.645v-2.827l4.973-.248v2.968h.645v-3l4.767-.231v3.223h.644v-3.256l4.454-.215.38 3.438.644-.074-.388-3.397 4.453-.214.487 3.479.637-.091-.48-3.42 3.826-.182v3.429h.636v-3.462l3.346-.165.28 3.396.637-.05-.273-3.38 2.975-.14v3.372h.644v-3.404zm50.505.998l-.025-.643-29.669 1.006.025.643 3.388-.116v2.902h.644v-2.927l3.677-.123v3.05h.644v-3.067l2.644-.09.272 3.19.645-.058-.273-3.157 2.892-.1.372 3.323.636-.074-.364-3.265 3.528-.123.38 3.256.636-.074-.371-3.207 3.147-.099v2.96h.645v-2.985l2.718-.09v2.852h.644v-2.877zm-49.688-58.172a691.836 691.836 0 01-18.779-1.542l-.058.635c3.255.313 6.552.602 9.857.866-.446 3.478-.9 7.146-1.347 10.815a1715.19 1715.19 0 01-1.322 10.633 65.415 65.415 0 01-6.766-.486l-.083.635a65.92 65.92 0 007.13.494h.29v-.28c.454-3.512.908-7.221 1.362-10.922.455-3.701.9-7.353 1.355-10.848 2.754.225 5.522.434 8.304.626l.057-.626zm-29.933 53.226v-.387a11.789 11.789 0 00-3.304-9.01l.462-.445a12.456 12.456 0 013.47 9.117 40.893 40.893 0 004.131-.75l-.38-2.902a12.112 12.112 0 00-1.057-4.171 5.666 5.666 0 00-1.752-2.119l.372-.527a6.235 6.235 0 011.95 2.34 12.762 12.762 0 011.132 4.386l.454 3.47-.28.066c-1.61.386-3.24.677-4.884.874l-.314.058zm8.576-.997v-.371c.34-3.428-.49-6.87-2.354-9.769l.537-.346a15.914 15.914 0 012.478 9.81l3.479-.182a11.183 11.183 0 00-2.149-8.482l.496-.404a11.875 11.875 0 012.289 9.24l-.042.256-4.734.248zm55.67-2.935a.679.679 0 01-.24-.041.949.949 0 01-.471-.495 45.42 45.42 0 01-1.496-3.215l.595-.247a40.796 40.796 0 001.48 3.165c0 .042.09.174.131.19a.662.662 0 00.265-.099 13.24 13.24 0 015.064-1.649 7.499 7.499 0 014.784 1.154l1.04-3.017.612.207-1.33 3.866-.355-.289a6.67 6.67 0 00-4.693-1.278 12.603 12.603 0 00-4.817 1.558c-.17.11-.367.176-.57.19z"
        />
        <path
          fill="#C6C6DD"
          d="M468.862 148.269l19.498-.989v.004l-19.498.99zm28.123.01v-.644c5.08-.04 11.112-.354 17.92-.915l.05.643c-6.833.56-12.873.874-17.97.915zm-8.626 43.045h-10.74c-.05-12.678.082-26.592.388-39.254 3.536-.239 7.064-.552 10.567-.948l-.074-.635a226.68 226.68 0 01-19.333 1.377v.643c2.718-.074 5.444-.214 8.179-.387a1409.896 1409.896 0 00-.388 39.212h-8.097v.643h19.449l.05-.65zm34.866 2.11l-10.254-.61-2.437-40.589 4.503-.165-.025-.643-17.127.618.025.643 11.98-.428 2.437 40.523-8.295-.494-.041.634 19.192 1.154z"
        />
        <path
          fill="#8584BC"
          d="M452.188 122.304a1.11 1.11 0 01-.363-.058c-.628-.214-.826-.94-.884-1.286-.058-.346-.29-1.187-.471-1.904a93.382 93.382 0 01-.463-1.887l.62-.116.463 1.88c.173.709.355 1.434.47 1.904.116.47.207.742.463.824.17.046.35.046.52 0a14.297 14.297 0 0010.072-9.389 1.34 1.34 0 00.083-.767 1.428 1.428 0 00-.612-.618c-.339-.23-.9-.569-1.462-.898a28.574 28.574 0 01-1.496-.923l.364-.528c.339.23.9.569 1.462.907.562.338 1.14.684 1.496.923.372.217.662.55.826.948.098.386.069.794-.083 1.162a14.949 14.949 0 01-10.534 9.818c-.156.02-.314.022-.47.008zm-10.145 7.831l-.339-.544c5.99-3.66 3.8-12.225 3.776-12.315l.62-.165c.032.09 2.346 9.117-4.057 13.024z"
        />
        <path
          fill="#C6C6DD"
          d="M517.45 138.345a7.981 7.981 0 01-2.297-.338l.181-.618a7.352 7.352 0 004.561-.107c.24-3.833.347-7.724.306-11.54 0-.545-.058-1.13-.43-1.369a1.54 1.54 0 00-.62-.173 32.643 32.643 0 00-3.759-.09v-.644a32.783 32.783 0 013.859.1c.311.022.613.115.884.271.544.471.814 1.184.718 1.896 0 3.932-.066 7.905-.322 11.82v.207l-.19.074a7.989 7.989 0 01-2.892.511z"
        />
        <path
          fill="#C6C6DD"
          d="M524.158 147.042c.24-2.028.504-4.212.769-6.405.289-2.333.57-4.674.826-6.825.413-3.529.826-7.18.925-10.79.174-7.172-.975-14.344-2.09-21.285l-2.322-14.516a138.63 138.63 0 00-.669-3.915l1.975-.223-.075-.635-2.024.231c-.107-.544-.231-1.08-.355-1.649l1.751-.197-.074-.635c-.611.074-1.223.124-1.834.198-.29-1.12-.645-2.22-1.066-3.298a15.167 15.167 0 00-6.386-7.65l-.34.545a14.549 14.549 0 016.123 7.336c.4 1.035.74 2.092 1.016 3.166a259.501 259.501 0 01-24.373 1.541c0-4.435-.115-8.861-.314-13.247h-.644c.198 4.386.29 8.804.314 13.239h-2.784a704.579 704.579 0 00-.463-13.272h-.644a703.5 703.5 0 01.462 13.239c-8.311 0-16.623-.388-24.885-1.195l-.066.634a255.54 255.54 0 0024.968 1.22c0 .619 0 1.245.05 1.863-8.33.112-16.66-.23-24.952-1.022l-.066.635c1.52.148 3.065.272 4.619.396a757.579 757.579 0 00-.273 19.84c-.063.708.09 1.418.438 2.037.644.923 1.834 1.055 3.032 1.072l7.13.066h.1a1.58 1.58 0 00.933-.223c.406-.371.611-.913.553-1.46l.446-20.73h-.057c1.743 0 3.494.057 5.262.057h2.86c.22 9.969.22 19.951 0 29.947l-25.836-.337v.642l8.741.116.612 5.877c-.015.89.32 1.752.933 2.4a3.484 3.484 0 002.115.6c4.396.223 8.79.43 13.178.627-.132 3.891-.29 7.782-.487 11.664h.644c.198-3.882.355-7.773.487-11.664l1.57.074c-.058 1.047-.107 2.102-.165 3.15-.16 2.967-.317 5.929-.471 8.886h.644c.155-2.952.312-5.914.471-8.887.058-1.047.108-2.102.166-3.157l12.012.52h.24c.352.021.7-.08.983-.289a1.77 1.77 0 00.504-1.278c.116-1.294.223-2.761.339-4.228.116-1.468.207-2.704.306-3.924l5.94.074v-.643l-19.829-.264c.488-9.974.827-20.047.876-30.063a283.8 283.8 0 0015.219-.824v21.432a2.74 2.74 0 01-.496 1.954c-.32.263-.7.441-1.107.52a16.56 16.56 0 01-7.502.247 1.29 1.29 0 01-.826-.371 1.39 1.39 0 01-.149-.825l.09-22.256h-.644l-.09 22.256c-.04.415.055.831.272 1.187.31.351.74.572 1.206.619 2.583.51 5.248.422 7.791-.256.515-.104.993-.34 1.389-.684.544-.68.791-1.551.685-2.415V84.179h-.314c3.129-.252 6.285-.56 9.468-.923.257 1.319.471 2.638.678 3.94l2.322 14.517c1.107 6.907 2.255 14.054 2.082 21.168-.083 3.586-.513 7.221-.926 10.716a863.324 863.324 0 01-.826 6.817c-.29 2.333-.537 4.427-.785 6.48h-8.328v.642h13.649v-.643l-4.627.149zm-41.367-41.134c0 .396-.05.825-.281.948-.203.098-.43.135-.653.108l-7.13-.066c-1.025 0-2.032-.116-2.479-.825a2.912 2.912 0 01-.322-1.648c0-6.595.091-13.19.273-19.784 3.624.264 7.312.44 11.063.528l-.471 20.74zm9.732-23.188h2.776v1.83l-2.726.05c-.025-.643-.042-1.261-.058-1.88h.008zm-13.97 41.1a2.085 2.085 0 01-1.892-.547 2.074 2.074 0 01-.587-1.876l-.603-5.77 16.44.214c-.06 2.88-.14 5.76-.239 8.64-4.346-.232-8.74-.438-13.128-.66h.008zm13.805.66c.1-2.885.179-5.77.24-8.655h1.792c-.143 2.913-.292 5.814-.446 8.705l-1.586-.05zm15.937-8.449a488.06 488.06 0 00-.305 3.883c-.116 1.459-.224 2.926-.33 4.22.011.299-.086.591-.274.824a1.233 1.233 0 01-.826.132 3535.04 3535.04 0 01-12.004-.52c.154-2.895.303-5.805.446-8.729l13.293.19zm-13.88-.824h-1.81c.205-9.986.205-19.974 0-29.964l2.702-.058c-.066 9.99-.413 20.056-.892 30.022zm1.529-30.698v-1.822a256.617 256.617 0 0024.53-1.558c.132.536.247 1.08.363 1.649-8.532.945-16.832 1.522-24.902 1.731h.009zM515.219 51.8c0 3.734-.042 7.765-.124 10.18h.322l.33-.18c.083-2.474.124-6.365.124-10.008m-.801-13.502c-1.504-6.883-6.7-13.19-13.764-16.948 2.14-.47 4.296-.882 6.469-1.262l-.777-.519c-2.214.396-4.42.824-6.61 1.319-.38-.181-.751-.363-1.14-.536a37.42 37.42 0 00-10.616-2.778 28.47 28.47 0 016.717-2.514l-1.248-.214h-.512a28.679 28.679 0 00-6.13 2.621 48.64 48.64 0 00-5.85-.165c-.562.223-1.115.454-1.652.717a41.171 41.171 0 0119.002 2.927c7.923 3.454 13.839 10.155 15.45 17.492"
        />
        <path
          fill="#8584BC"
          d="M526.901 224.66l-7.204.7c-.116-3.19-.24-6.594-.356-9.966-.115-3.371-.24-6.875-.363-10.106h5.271v-.643c-6.18.083-12.459.041-18.655-.123v.643c4.13.107 8.311.164 12.467.164h.306c.123 3.24.24 6.686.363 10.123.124 3.437.248 7.015.372 10.312v.338l7.89-.766-.09-.676z"
        />
      </g>
      <path
        fill="#363884"
        d="M511.765 74.535c-.231.494-.446.948-.628 1.343a9.69 9.69 0 01-1.404 2.325c-.8.87-1.722 1.623-2.735 2.234a24.055 24.055 0 01-7.75 3.297c-4.395.973-9.46.536-14.665-1.277a15.824 15.824 0 01-5.783-3.182c-2.61-2.473-4.635-5.3-5.296-7.296-1.272 1.056-2.677 1.88-3.627 3.421a32.467 32.467 0 006.354 8.524 20.122 20.122 0 007.262 4.08 33.645 33.645 0 0011.013 1.979c1.853.006 3.7-.19 5.51-.586a27.71 27.71 0 008.948-3.833 16.02 16.02 0 003.735-3.124 15.384 15.384 0 002.239-3.668c.165-.371.363-.824.578-1.245a47.653 47.653 0 002.198-5.185 14.225 14.225 0 00-3.85-2.852 36.66 36.66 0 01-2.099 5.045z"
      />
      <g fill="#110C56">
        <path d="M538.443 264.73c-.1-.825-.165-1.748-.223-2.655-.058-.906-.124-1.887-.231-2.72-.058-.453-.108-.915-.157-1.376-.273-2.473-.554-5.095-1.752-7.32-1.33-2.473-4.627-4.386-7.725-4.542a520.102 520.102 0 00-4.7-53.77c-.662-4.732-1.025-9.39-1.364-14.929-.041-.7-.074-1.41-.1-2.11.331.272.67.552 1.042.824a6.064 6.064 0 003.511 1.319h.198c2.289-.107 3.95-2.02 4.578-3.866.513-1.88.623-3.846.322-5.77a43.972 43.972 0 00-1.48-7.329c-.891-3.38-1.742-6.594-1.238-10.452a170.342 170.342 0 00-4.685-66.35c-.934-3.395-2.032-6.956-4.214-9.957a14.724 14.724 0 00-10.426-5.515l-1.43-.132v-2.827a45.222 45.222 0 005.875-1.987 24.313 24.313 0 004.04-2.308l.231-.165v-.28c.176-1.403.273-2.815.29-4.229v-3.981c.072-.018.144-.04.214-.066 1.355-.61 1.355-2.358 1.355-3.017v-1.154a3.511 3.511 0 002.005-3.17c0-1.353-.78-2.586-2.005-3.169v-1.072a2.218 2.218 0 00-1.727-2.415c-.652-6.85-3.866-13.32-8.7-17.31a34.644 34.644 0 00-8.856-5.144 27.78 27.78 0 00-6.973-1.591 20.7 20.7 0 00-8.188.915 34.456 34.456 0 00-8.204 3.297 23.952 23.952 0 00-5.139 4.014l-.132.132-.339.371-.182.198a24.091 24.091 0 00-4.783 8.078l-.083.231c-.116.33-.223.66-.322.99l-.058.197c-.09.33-.19.66-.273.998a46.274 46.274 0 00-.884 9.892v.906l-.14 8.573c0 .346 0 .783-.05 1.27-.157 3.396-.198 6.594 1.1 8.028 1.47 1.65 5.931 2.935 13.26 3.776v2.423a19.253 19.253 0 00-6.263 2.275 11.632 11.632 0 00-4.833 4.37c-3.784 5.77-5.056 12.66-6.28 19.33-1.024 5.572-2.081 11.334-4.61 16.37-1.37 2.737-2.916 4.402-4.717 5.103-1.216.393-2.49.577-3.767.544-2.9.083-5.842.058-8.75 0l-1.165-.05a6.2 6.2 0 01-2.858-.568c-1.182-.684-1.694-2.077-2.24-3.553a15.133 15.133 0 00-1.09-2.473 8.37 8.37 0 00-5.544-3.783 12.337 12.337 0 00-6.61.601 6.37 6.37 0 00-3.436 2.39 3.76 3.76 0 00-.57 1.963c-.03.669.162 1.329.545 1.88h-.066c-.84.323-1.56.899-2.057 1.648a4.245 4.245 0 00-.438 2.11c0 3.165.917 7.65 3.734 9.892a5.999 5.999 0 003.825 1.327 7.998 7.998 0 001.9-.24 18.337 18.337 0 005.891-2.62 57.756 57.756 0 008.733 4.566 26.664 26.664 0 009.832 2.053 19.873 19.873 0 003.065-.231 26.475 26.475 0 008.948-3.38 23.476 23.476 0 005.387-4.022c.115 1.038.231 2.069.363 3.074 1.578 12.365 1.777 24.103 1.975 36.501l.074 4.295c0 2.118-.074 4.262-.182 6.33-.099 1.847-.198 3.751-.198 5.664l.091 39.056c0 9.109.05 17.731-.165 26.683a24.954 24.954 0 00-14.459 1.434c-3.205 1.385-5.85 4.559-7.262 7.073-1.85 3.297-1.38 7.172-.644 11.203a.707.707 0 000 .42.975.975 0 00.975.593h.09c4.131-.288 8.353-.296 12.46-.305 2.478 0 5.097 0 7.634-.074 3.585-.099 7.138-.313 10.567-.52 3.123-.189 6.353-.378 9.616-.485h.637v-.635c-.446-15.3-.19-32.973.768-54.034.231-5.053.372-10.172.463-15.267.198-11.144.14-22.207.082-32.33-.058-9.405.48-18.868.967-25.388.496.123 1.008.239 1.479.338.47.099 1.033.214 1.305.305.438.14.826.263 1.28.379l1.124.338a193.433 193.433 0 003.206 22.776c.24 1.146.504 2.283.768 3.429.34 1.475.694 3.009.992 4.517.826 4.122 1.289 8.359 1.743 12.464.355 3.182.727 6.47 1.248 9.686 2.09 12.892 2.553 26.254 2.999 39.171l.115 3.297c.438 12.307.744 21.91 1.033 32.149v.635h.636c8.535-.116 16.02-.388 24.29-.866l1.942-.099c1.495-.074 2.677-.132 3.677-.264l.628-.082-.14-.717zm-9.328-103.988a43.01 43.01 0 011.446 7.122 12.782 12.782 0 01-.256 5.276c-.47 1.393-1.743 2.926-3.42 3a4.749 4.749 0 01-2.892-1.071c-3.495-2.523-4.635-5.185-5.635-9.53a.825.825 0 00-1.503-.263 10.5 10.5 0 01-2.066 2.357.306.306 0 01-.314.1.23.23 0 01-.157-.207 18.177 18.177 0 01.364-5.341l.082-.495c.63-3.857.97-7.756 1.017-11.664l11.996.494c-.314 3.809.463 6.925 1.338 10.222zm-9.964-120.111v1.978l.438.148a2.243 2.243 0 011.574 2.14c0 .979-.637 1.845-1.574 2.139l-.438.148v2.036c0 1.063-.198 1.649-.603 1.847a2.128 2.128 0 01-.884.074l-2.049-.1a1.449 1.449 0 01-.562-.09c-.23-.132-.297-.61-.33-1.006a62.836 62.836 0 01-.231-9.314c.008-.371.047-.74.115-1.105a.455.455 0 01.347-.14h1.124c1.157-.041 2.346-.083 2.817.37.208.242.3.56.256.875zm-9.98 15.266c-14.425 4.122-25.662 4.765-35.345 2.151a65.303 65.303 0 01-7.295-2.547c0-.412 0-.824.05-1.154 0-.503.041-.948.05-1.302l.156-9.48c-.07-3.238.206-6.474.826-9.653.083-.357.177-.711.281-1.063v-.041c.1-.33.207-.651.314-.981l.058-.173a23.072 23.072 0 014.668-7.65l.149-.165.248-.255c4.255-1.055 7.948-1.649 12.062-1.179 7.8.907 13.442 2.893 17.243 6.083a26.001 26.001 0 015.354 6.043c2.809 4.707 2.478 10.716 2.156 16.536a132.846 132.846 0 00-.182 4.014c.01.165-.012.33-.066.486-.116.157-.512.272-.727.33zm-42.665.98a63.897 63.897 0 006.99 2.416 48.569 48.569 0 0012.657 1.583c8.766 0 17.094-1.978 23.34-3.743a2.297 2.297 0 001.463-.923c.174-.341.257-.722.24-1.104 0-1.295.107-2.597.18-3.974.331-6.009.678-12.216-2.337-17.26a26.925 26.925 0 00-5.627-6.365c-3.998-3.354-9.856-5.44-17.92-6.38a30.736 30.736 0 00-10.36.717 22.366 22.366 0 013.305-2.316 33.257 33.257 0 017.906-3.132 22.966 22.966 0 016.031-.99c.553 0 1.105.035 1.653.108 2.258.214 4.479.716 6.61 1.492a33.545 33.545 0 018.559 4.946c4.428 3.618 7.502 9.751 8.204 16.107h-2.545c-.46.018-.893.216-1.206.552-.273.247-.38.692-.446 1.97a63.674 63.674 0 00.215 9.472c-.09.597.098 1.202.509 1.644a1.994 1.994 0 001.606.63l2.016.1v3.882a33.853 33.853 0 01-.248 3.76 22.569 22.569 0 01-3.561 2.01c-10.03 4.196-20.424 4.18-32.932 2.853-7.296-.775-12.203-2.037-13.467-3.463-.686-.8-.843-2.736-.835-4.591zm14.442 9.365c4.225.475 8.472.731 12.724.767a58.134 58.134 0 0013.4-1.418v2.35l-1.098-.083a76.762 76.762 0 00-10.74.14 81.316 81.316 0 01-9.915.19 23.285 23.285 0 00-4.387.14l.016-2.086zm-56.9 60.11a5.123 5.123 0 01-4.618-.825c-2.479-1.945-3.305-5.993-3.255-8.861a3.134 3.134 0 01.264-1.484 3.23 3.23 0 011.487-1.105 33.817 33.817 0 016.354-2.267 8.437 8.437 0 011.982-.305c.318-.004.635.035.942.116a5.14 5.14 0 011.958 1.212 13.7 13.7 0 013.553 5.152c.35.733.465 1.556.33 2.357a4.122 4.122 0 01-1.206 1.723 17.047 17.047 0 01-7.8 4.286h.01zm7.329-2.201c.47-.38.933-.767 1.371-1.187a5.234 5.234 0 001.545-2.309 5.092 5.092 0 00-.372-3.157 14.977 14.977 0 00-3.891-5.638 6.331 6.331 0 00-2.479-1.5 7.038 7.038 0 00-3.577.181 35.094 35.094 0 00-5.288 1.772 1.647 1.647 0 01-.52-1.195c-.012-.486.12-.965.38-1.377a5.197 5.197 0 012.792-1.879 11.028 11.028 0 015.932-.552 7.18 7.18 0 014.701 3.182c.397.728.729 1.489.992 2.275.595 1.648 1.214 3.297 2.8 4.212a7.293 7.293 0 003.454.742c.892 0 1.801.041 2.702.066.421 2.077.933 7.04-2.776 10.42a54.292 54.292 0 01-7.775-4.056h.009zm28.817 2.72a25.259 25.259 0 01-8.51 3.223c-3.799.496-7.662.023-11.228-1.377 3.553-3.635 3.214-8.548 2.785-10.897h5.981c1.425.032 2.845-.18 4.197-.627 2.115-.824 3.884-2.687 5.404-5.72 2.602-5.202 3.685-11.055 4.726-16.718a97.228 97.228 0 012.33-10.452c-.166 1.715-.224 3.396-.265 4.946l-.463 15.926a70.064 70.064 0 00.05 7.37c.231 3.033.504 6.396.826 9.718a20.4 20.4 0 01-5.841 4.6l.008.008zm27.066 83.256c-.95 20.797-1.214 38.306-.826 53.49-3.065.107-6.08.288-9.014.47-3.42.206-6.964.412-10.525.51-2.479.067-5.098.075-7.601.075-4.024 0-8.188 0-12.27.28-.685-3.767-1.123-7.419.513-10.287 1.314-2.325 3.75-5.26 6.659-6.52a23.663 23.663 0 0114.425-1.196l.769.182v-.825c.231-9.257.206-18.135.181-27.499l-.057-23.905 18.176.56a530.657 530.657 0 01-.438 14.698l.008-.033zm14.203-41.109a153.12 153.12 0 00-1-4.558c-.264-1.138-.52-2.267-.76-3.405a194.255 194.255 0 01-3.214-23.08v-.421l-.397-.132c-.545-.181-1.057-.33-1.57-.478-.512-.148-.826-.23-1.247-.371-.421-.14-.826-.214-1.43-.338-.602-.124-1.495-.313-2.147-.511l-5.015-1.6a.643.643 0 00-.388 1.22l4.535 1.443c-.496 6.595-1.05 16.19-.991 25.76.057 9.892.124 20.74-.066 31.646l-18.177-.56v-13.89c0-1.88.1-3.768.199-5.598.107-2.093.223-4.253.19-6.421l-.075-4.295c-.206-12.43-.396-24.169-1.99-36.64-.604-4.724-1.034-9.958-1.38-14.467a69.168 69.168 0 01-.042-7.23l.463-15.926c.124-4.22.272-9.48 2.9-13.395a12.918 12.918 0 014.205-3.923 20.222 20.222 0 0111.244-2.473c3.33.158 6.665.114 9.99-.132 3.511-.293 7.04-.34 10.558-.14l1.115.082c1.423.073 2.84.221 4.247.445h.09a13.29 13.29 0 017.891 4.806c2.057 2.827 3.115 6.265 4.015 9.546a169.067 169.067 0 014.71 65.26l-12.112-.494c0-2.563-.14-5.119-.405-7.65v-1.764c.058-.931.115-1.59.165-2.184.074-.923.14-1.715.19-3.165.19-5.284.397-10.716.198-16.149a111.946 111.946 0 00-2.016-17.475.653.653 0 00-.751-.503.643.643 0 00-.504.75 110.63 110.63 0 011.99 17.31c.19 5.342 0 10.791-.198 16.05-.05 1.418-.115 2.168-.19 3.108-.05.593-.099 1.261-.165 2.234v1.87a76.892 76.892 0 01-.62 20.362l-.082.486a15.8 15.8 0 00-.248 5.82c.055.51.366.957.826 1.187.531.158 1.106.005 1.487-.396a14.534 14.534 0 001.835-1.805c.735 2.934 1.652 5.193 3.478 7.196.058 1.113.157 2.877.198 3.512.339 5.564.702 10.246 1.372 15.027.132.931.247 1.863.371 2.786l-17.796-.585c-.165-1.17-.322-2.333-.512-3.495-.52-3.19-.884-6.455-1.24-9.62-.446-4.171-.925-8.441-1.75-12.604l.016-.033zm32.7 95.382l-1.95.099c-8.047.47-15.35.734-23.604.824-.28-9.974-.586-19.437-1.016-31.489l-.116-3.297c-.388-11.367-.826-23.08-2.313-34.547l17.78.585c2.18 16.577 3.577 33.212 4.13 49.542a15.709 15.709 0 00-10.533 5.514l1 .825a14.627 14.627 0 0110.046-5.07h.182c2.776-.107 6.006 1.649 7.196 3.866 1.074 2.011 1.346 4.476 1.603 6.858.05.47.099.932.157 1.394.099.824.165 1.739.223 2.654.05.7.099 1.418.157 2.085-.827.083-1.793.132-2.958.19l.016-.033z" />
      </g>
      <g>
        <path fill="#3C3A9B" d="M506.75 77.074l5.024 3.371-3.04 28.274-6.47 7.296z" />
        <path
          fill="#5C47D3"
          d="M502.264 116.015c-10.782-1.303-21.11-3.01-31.784-5.02a528.516 528.516 0 014.272-34.193 258.93 258.93 0 0131.998.28c-.768 12.967-1.859 26.205-4.486 38.933z"
        />
        <path fill="#5C47D3" d="M477.247 81.35l25.953 3.129-3.136 25.893-25.953-3.13z" />
        <path
          fill="#FFF"
          d="M489.929 100.336l9.443-2.572.108-2.275-5.99 1.649c.098-.247.178-.5.24-.759l2.478-9.413-1.909-1.237-1.586 6.001c-.14-.18-.292-.35-.454-.511l-7.015-6.932-2.024 1.046 4.412 4.361c-.28.036-.556.094-.826.173l-9.41 2.556-.108 2.266 5.99-1.648a5.39 5.39 0 00-.24.758l-2.478 9.414 1.917 1.228 1.586-6c.14.179.292.35.454.51l7.015 6.933 2.024-1.047-4.412-4.36c.265-.028.527-.075.785-.141zm-1.132-8.425a3.2 3.2 0 012.796 3.56 3.204 3.204 0 01-3.565 2.79 3.2 3.2 0 01-2.8-3.555 3.212 3.212 0 013.569-2.795z"
        />
        <path
          fill="#2D306B"
          d="M513.624 79.588l-6.287-4.212h-.463a261.555 261.555 0 00-32.221-.28l-1.413.074-.223 1.393a521.445 521.445 0 00-4.288 34.308l-.14 1.574 1.56.297c11.931 2.25 22.068 3.85 31.9 5.037l.909.107 7.436-8.392 3.23-29.906zm-11.36 36.427c-10.782-1.303-21.11-3.01-31.784-5.02a528.516 528.516 0 014.272-34.193 258.93 258.93 0 0131.998.28l5.015 3.363-3.04 28.274-6.461 7.296z"
        />
      </g>
    </g>
  </g>
</svg>