<svg class="css-13o7eu2" width="80" height="54" xmlns="http://www.w3.org/2000/svg"><g fill="#3442CD" fill-rule="evenodd" class="css-rgdz7o"><path d="M52.397 36.362a1.737 1.737 0 0 1-.54-3.387c3.303-1.08 5.437-3.975 5.437-7.374 0-4.305-3.502-7.808-7.807-7.808-.3 0-.621.023-1.013.074l-1.697.22-.244-1.695C45.49 9.125 39.159 3.644 31.806 3.644a14.83 14.83 0 0 0-13.785 9.27l-.432 1.06-1.143.021c-5.255.097-9.53 4.449-9.53 9.701 0 3.835 2.225 7.332 5.67 8.909a1.736 1.736 0 0 1-1.444 3.157c-4.677-2.14-7.7-6.877-7.7-12.066 0-6.752 5.203-12.408 11.812-13.103A18.282 18.282 0 0 1 31.806.172c8.53 0 15.944 5.98 17.867 14.15 6.134.1 11.095 5.121 11.095 11.279 0 4.852-3.147 9.142-7.83 10.674a1.74 1.74 0 0 1-.541.087z"/><path d="M25.866 37.17v-.001h-.002v-.001h-.001v-.001h-.002v-.001h-.001v-.001h-.002v-.001h-.001l-.001-.001h-.001l-.001-.001h-.002v-.001h-.002l-.002-.001h-.001l-.001-.001h-.002l-.001-.001h-.001a.294.294 0 0 0-.085-.017h-.012a1.374 1.374 0 0 1-1.371-1.362V20.502h1.17c.18.008.3-.13.3-.294a.294.294 0 0 0-.182-.272l-5.617-3.878a.295.295 0 0 0-.335 0l-5.66 3.908a.295.295 0 0 0 .166.536h1.17l.002 15.28a1.966 1.966 0 0 0 1.97 1.949h8.391a.294.294 0 0 0 .2-.082l.002-.002.001-.002h.001v-.001h.001v-.001l.002-.001v-.001h.001a.294.294 0 0 0 .083-.204v-.003a.297.297 0 0 0-.174-.265zM38.014 37.17l-.001-.001h-.002v-.001h-.001v-.001h-.002v-.001h-.001l-.001-.001h-.001v-.001h-.001l-.001-.001h-.001L38 37.161H38l-.001-.001h-.002l-.002-.001-.002-.001-.002-.001-.001-.001a.294.294 0 0 0-.085-.017H37.892a1.374 1.374 0 0 1-1.37-1.362V23.923h1.182a.294.294 0 0 0 .111-.566l-5.617-3.878a.295.295 0 0 0-.335 0l-5.661 3.908a.295.295 0 0 0 .167.536h1.165l.001 11.86a1.966 1.966 0 0 0 1.97 1.948h8.392a.294.294 0 0 0 .198-.082l.003-.002.001-.002h.001v-.001h.001v-.001h.001c.002 0 .001 0 .001-.001l.001-.001a.294.294 0 0 0 .084-.204v-.003a.297.297 0 0 0-.174-.265zM50.165 37.17v-.001h-.002l-.001-.001-.001-.001h-.001v-.001h-.001l-.002-.001-.001-.001-.001-.001h-.001l-.002-.001h-.001v-.001h-.002l-.002-.001h-.001v-.001h-.002v-.001h-.002v-.001h-.001a.294.294 0 0 0-.086-.017h-.013a1.374 1.374 0 0 1-1.371-1.362v-8.435h1.173c.166-.004.3-.13.3-.294a.294.294 0 0 0-.182-.273L44.344 22.9a.295.295 0 0 0-.334 0l-5.662 3.907a.295.295 0 0 0 .167.537h1.168v8.44a1.966 1.966 0 0 0 1.971 1.948h8.391a.294.294 0 0 0 .2-.082l.002-.003.001-.001.001-.001v-.001h.001l.002-.002.001-.001a.294.294 0 0 0 .083-.203v-.001.001-.003c0-.117-.07-.219-.17-.265z"/></g></svg>