<svg width="232" height="132" xmlns="http://www.w3.org/2000/svg">
  <g fill="none" fillRule="evenodd">
    <path
      d="M196.097425 64.9955969c8.80489 8.3243248 13.121881 18.8070417 12.894005 30.3373992-.126598 6.3110879-4.532208 14.0169259-9.045426 18.8385969-6.91858 7.383973-19.236564 11.044404-29.788506 9.466632-10.551941-1.577772-19.477099-5.711534-28.649123-10.728849-16.856522-9.201566-30.75698-28.8795382-55.6588037-38.3209256 7.032518.9782186 24.9081537-2.6001682 34.9283837.4228429C93.3505018 60.7166793 88.1030154 47.9493486 74 28l52.303957 17.1598478c-4.791734-3.666742-19.116296-11.997378-23.88271-15.6578089 4.595507.3534209 12.507881 2.227814 18.787141 3.4900316 3.842249.7762638 9.830334 3.2438991 19.173265 5.5726905 7.678167 1.8933264 11.545736 3.155544 20.255677 6.3110879 6.526126 2.3603468 11.653344 4.6386495 18.356708 7.4407725 7.228745 2.9977668 11.583715 7.4786391 17.103387 12.6789755z"
      fill="#6E69E2"
    />
    <path
      d="M196.097784 72.2812682c5.974821 6.1415072 9.182551 14.4473689 8.882966 23.000905-.088451 4.8157558-3.15895 10.6526528-6.279992 14.3085928-4.795285 5.61628-14.619618 9.36677-21.923109 8.194348-7.303491-1.172422-15.112414-4.336701-21.480856-8.125011-11.650206-6.93368-24.677713-21.7969666-35.531863-29.9471914 4.864782.7374914 16.015873 1.6577797 22.952926 3.9458939C130.819147 69.1947304 118.246528 55.3084619 105 42l45.040301 16.1050458c-3.297943-2.798685-7.796287-8.8246826-11.087912-11.610761 3.158949.2584371 5.976732.913985 10.317128 1.8910034 2.659836.5799077 3.721243.5925144 10.026506 2.8365052 5.62293 1.9918569 6.526389 2.6537081 12.559983 5.0426758 4.117976 1.6364497 8.112754 3.5660409 11.953465 5.7738638 5.307035 2.9247519 8.465984 6.2844347 12.288313 10.2429352z"
      fill="#B7B7ED"
    />
    <path
      d="M111.653355 56.6987179c-1.886806-2.1902121-3.911696-4.2564306-6.062165-6.1858974C100.728695 46.3397436 94.8132977 43.6410256 89 41c3.0566077 5.8782051 7.427748 10.1923077 12.194524 14.7435897 3.683508 3.5580006 8.002686 6.3853064 12.730548 8.3333334C115.886082 64.906406 117.919877 65.5502235 120 66c-2.424866-3.2948718-5.602717-6.2564103-8.346645-9.3012821z"
      fill="#B7B7ED"
    />
    <circle fill="#FFF" cx="178.5" cy="92.5" r="21.5" />
    <path
      d="M159.017861 92.0423387c-.228031-5.3256129 1.735629-10.5072253 5.41944-14.3005612 3.683811-3.7933359 8.755-5.8557286 13.995808-5.6919295 7.377932-.5231662 14.445507 3.10206 18.415547 9.4460301 3.970041 6.3439702 4.205362 14.3884862.613161 20.9611029-3.5922 6.572618-10.435379 10.61844-17.830852 10.541953-5.468966.006744-10.715844-2.199011-14.58299-6.130598s-6.036747-9.265898-6.030114-14.8259973z"
      fill="#FF6652"
    />
    <path
      d="M179.564643 72.0000318c-5.400699-.0093062-10.604559 2.0220354-14.564643 5.6853508l.500264.7201444c1.6781 2.4067985 3.267546 4.927304 4.059103 7.7447112.918205 3.2659182.721899 6.7782015 1.728759 10.0125344 2.069523 6.6596534 8.743583 10.7783444 15.641161 9.6524624 5.002638-.8149 9.226385-4.301916 12.170976-8.4206364.691038-.9560445 1.325368-1.9516317 1.899736-2.9816506v-1.0107291c.003499-11.8141471-9.592414-21.3952114-21.435356-21.4021871z"
      fill="#EF3C2E"
    />
    <path
      d="M179.0904 90.8875015c1.591383-.3289017 2.990782-1.3001841 3.88904-2.6992716.898259-1.3990875 1.221451-3.1108346.898177-4.7570823-.665066-3.4294031-3.764522-4.9622424-7.077302-4.2672687-3.312779.6949738-5.339347 3.2865114-4.674281 6.7159146.665065 3.4294031 3.651586 5.6572162 6.964366 5.007708z"
      fill="#E02319"
    />
    <path
      d="M166.632326 97.6058536c-.733262.7858703-.899043 2.1467678-.121148 2.8879134.906967.72073 2.204108.666345 3.047821-.127783.681412-.8620396.560275-2.1097546-.274176-2.8240223-.353222-.357652-.837993-.5535254-1.340004-.5414332-.502011.0120921-.976829.2310796-1.312493.6053251zM163.092213 93.0220814c.128161.3683033.39643.6695577.745182.8368065.348753.1672488.749093.1866345 1.11204.0538484.783593-.2674391 1.219663-1.112105.98891-1.9155181-.320765-.7818648-1.183416-1.1809779-1.97782-.9150564-.764034.2987626-1.150383 1.1619159-.868312 1.9399196z"
      fill="#EF3C2E"
    />
    <path
      d="M187.317582 99.9935778c-.174204.0085632-.348815.0085632-.523019 0-1.295924-.1129827-2.512055-.603492-3.455899-1.3938877-.942962-.7705381-1.431247-1.8803058-1.324099-3.0093978.26482-2.4028525 3.138115-3.7792437 5.660524-3.5692857 1.244602.0584647 2.408045.5623794 3.220613 1.3949238.812568.8325444 1.203695 1.9214186 1.082709 3.0141938-.239634 2.0866041-2.28203 3.6481258-4.660829 3.5634536zm-.178753-7.4360119c-2.078836 0-4.27022 1.1664332-4.475455 3.0618872-.084519.9567706.33545 1.8945812 1.138725 2.5428245.834699.7061322 1.913897 1.1455454 3.065289 1.2480836 1.424139.1876165 2.849522-.3326344 3.705722-1.3525524.856199-1.019918 1.003347-2.3728895.382555-3.5174657-.620792-1.1445763-1.908111-1.8937794-3.346781-1.9477842-.158892-.0116644-.315577-.0174965-.470055-.0174965v-.0174965z"
      fill="#E02319"
      fillRule="nonzero"
    />
    <path
      d="M179 115c-12.150264 0-22-9.849736-22-22 0-12.1502645 9.849736-22 22-22s22 9.8497355 22 22c-.013907 12.144499-9.855501 21.986093-22 22zm0-42.7381703c-11.453375 0-20.73817 9.2847951-20.73817 20.7381703 0 11.453375 9.284795 20.73817 20.73817 20.73817S199.73817 104.453375 199.73817 93C199.724265 81.5523895 190.44761 72.2757351 179 72.2618297z"
      fill="#0F0B56"
      fillRule="nonzero"
    />
    <path
      d="M225.206274 84.6099012l-.436496-1.416892C224.73051 83.0776116 224.622028 83 224.5 83c-.122028 0-.23051.0776116-.269778.1930092l-.436496 1.416892c-.026845.0902791-.097547.1608956-.187935.1877079l-1.412548.4359668c-.115537.0392209-.193243.147571-.193243.2694516 0 .1218807.077706.2302308.193243.2694517l1.412548.4359668c.089515.0246594.160325.0931023.187935.1816528l.436496 1.416892C224.26949 87.9223884 224.377972 88 224.5 88c.122028 0 .23051-.0776116.269778-.1930092l.436496-1.416892c.02948-.0873857.099524-.1550885.187935-.1816528l1.412548-.4359668c.115537-.0392209.193243-.147571.193243-.2694517 0-.1218806-.077706-.2302307-.193243-.2694516l-1.412548-.4359668c-.089265-.0286723-.159228-.0985504-.187935-.1877079zM198.202391 128.607324l-.435967-1.410127C197.730684 127.080045 197.622539 127 197.5 127c-.122539 0-.230684.080045-.266424.197197l-.442022 1.410127c-.026564.088259-.094267.158183-.181653.187613l-1.416892.435747c-.115397.039201-.193009.147497-.193009.269316 0 .121819.077612.230115.193009.269316l1.416892.435747c.088551.027563.156994.098252.181653.187613l.442022 1.410127c.03574.117152.143885.197197.266424.197197.122539 0 .230684-.080045.266424-.197197l.435967-1.410127c.028672-.089112.09855-.158955.187708-.187613l1.416892-.435747c.115397-.039201.193009-.147497.193009-.269316 0-.121819-.077612-.230115-.193009-.269316l-1.416892-.435747c-.088127-.030325-.157367-.099531-.187708-.187613z"
      fill="#FEDE89"
    />
    <path
      d="M229.48946 94.2541346l-.611427-1.9723464C228.828198 92.1145982 228.674459 92 228.5 92s-.328198.1145982-.378033.2817882l-.604853 1.9723464c-.038012.1248363-.137221.2215654-.262979.256405l-1.972347.6114274C225.114598 95.1718016 225 95.3255409 225 95.5s.114598.3281984.281788.378033l1.972347.6048529c.125464.0392589.22372.1375155.262979.2629795l.604853 1.9723464c.049835.16719.203574.2817882.378033.2817882s.328198-.1145982.378033-.2817882l.611427-1.9723464c.036956-.1245297.132851-.2228832.256405-.2629795l1.972347-.6048529C231.885402 95.8281984 232 95.6744591 232 95.5s-.114598-.3281984-.281788-.378033l-1.972347-.6114274c-.123881-.0356758-.220729-.1325231-.256405-.256405z"
      fill="#FCC01A"
    />
    <path
      d="M88.3893802 22.9999919c-.1036227.0005447-.205715-.0262722-.2969027-.0779884l-16.7688176-9.7030578c-.1446582-.0824317-.2520901-.222032-.2985244-.3879117-.0464342-.1658798-.0280426-.344363.0511055-.4959569.0795131-.1508747.2128403-.2623568.370621-.3098964.1577807-.0475396.3270756-.027238.4706033.056434l16.7688176 9.7030578c.2431136.1447063.3637092.4426919.2942399.727052-.0694692.2843602-.3117517.4844788-.5911426.4882674zM66.3586388 10.9819319c-.1094032-.0003163-.2168754-.0272589-.3120561-.0782305L55.3156729 5.10862276c-.2944145-.16254603-.4010986-.5153749-.2420027-.80035873.0829545-.14029862.2218527-.24341421.3857434-.28636921.1638907-.042955.3391557-.02218013.48674.05769529l10.7309098 5.79507862c.2523278.13510907.3761793.41424947.3012645.67899917s-.3296725.4482332-.6196891.4463172v-.0180532zM54.3722412 14.9999238c-.1043455.0003522-.2068569-.0288014-.2967716-.0844003L37.3140553 5.22247613c-.2987805-.17928073-.4025846-.57895399-.2318529-.89269524.1707318-.31374125.5513466-.42274306.8501271-.24346236l16.7428661 9.69304737c.2507608.1420403.3766155.4456325.3047557.7351449-.0718598.2895125-.3228253.489973-.6077101.485413zM74.3589087 56c-.1093571-.0003163-.2167841-.0272558-.3119247-.0782216L63.3205909 50.127362c-.3058695-.1661561-.4113221-.5352237-.2355351-.8243354.1757871-.2891117.5662468-.3887869.8721163-.2226307l10.7200272 5.7763652c.2522216.1350936.376021.414202.3011377.6789215-.0748832.2647195-.3295337.448182-.6194283.4462663V56zM58.371433 46.9705537c-.1093395.0008906-.216959-.0321109-.3120841-.0957006l-3.7450094-2.4955769c-.2999051-.2032845-.4033015-.6548219-.2309422-1.0085369.1723593-.3537151.5552053-.4756631.8551105-.2723786l3.7450093 2.5250232c.24628.1646123.3677954.5040924.2960421.8270586-.0717533.3229663-.3188069.5485414-.6018845.5495575l-.0062417-.0294463zM50.3713097 41.9999749c-.1074295-.0026152-.2124526-.0379758-.3048387-.1026371l-3.7327187-2.5146079c-.2024866-.1248235-.3306022-.3704182-.3336951-.6396855-.0030928-.2692672.1193352-.5188582.3188807-.6500943.1995454-.131236.4440838-.1229896.6369342.021479l3.7327186 2.5146079c.2962139.2013215.3990204.6466288.2301844.9970457-.1110607.2328543-.320803.3760981-.5474654.3738922zM56.3786291 31.9999916c-.1061977-.0003413-.210521-.0294103-.302913-.0844049l-16.7591247-9.6870883c-.194355-.1159807-.3150332-.3320511-.3165764-.5668198-.0015432-.2347686.1162831-.4525684.3090949-.5713564.1928117-.1187879.4313163-.1205173.6256713-.0045366l16.740579 9.693581c.249641.1415068.3755431.443303.3053657.7319828-.0701773.2886798-.3184216.4901468-.6020968.4886422zM35.3822511 22c-.1076984-.0026152-.2129844-.037976-.3056017-.1026377l-3.7420617-2.5146238c-.2029934-.1248242-.3314298-.3704204-.3345303-.6396894-.0031006-.269269.1196338-.5188615.3196788-.6500984.2000449-.1312368.4451954-.1229904.6385284.0214791l3.7420617 2.5146237c.2837779.202889.3824989.6316131.2245237.9750582-.1053122.2390604-.3136157.3910417-.5425989.3958883zM24.3460777 14.9993096c-.1043943-.0012021-.2070508-.0265336-.2997366-.073963L.31719294 2.16057403c-.30176555-.17020254-.40660668-.5496377-.23416923-.84749214.17243746-.29785445.55685495-.40133677.8586205-.23113423L24.6707924 13.8405567c.257043.1361732.3843123.4298658.306542.7073911-.0777702.2775252-.3398536.4649203-.6312567.4513618zM33.3713063 3.99998182c-.1072424-.0003869-.2125919-.03333938-.3058927-.09568079l-3.7456251-2.52450092c-.1455437-.09587052-.2525143-.25639503-.2970751-.44580337-.0445609-.18940833-.0230094-.39196186.0598522-.56252498.0823733-.17034104.2189936-.2948879.3795544-.3460124.1605608-.0511245.3317874-.0245998.4756967.07369015l3.745625 2.52450091c.247344.1652467.3687494.50665261.2953143.83045784-.0734352.32380524-.3231612.54821694-.6074497.54587356z"
      fill="#6E69E2"
    />
  </g>
</svg>