<svg class="css-13o7eu2" width="46" height="54" xmlns="http://www.w3.org/2000/svg"><g fill="none" fill-rule="evenodd"><path fill="#264DE4" d="m45.86 0-4.178 48.594L22.902 54 4.174 48.602 0 0z"/><path fill="#2965F1" d="m37.78 45.431 3.494-41.97H22.93v46.385z"/><path fill="#EBEBEB" d="m9.827 21.462.505 6.23H22.93v-6.23zM22.93 9.692H8.517l.522 6.231H22.93zm0 33.916v-6.4l-.025.008-6.321-1.85-.404-4.904h-5.698l.795 9.656 11.627 3.497z"/><path fill="#FFF" d="m30.015 27.81-.668 7.769-6.417 1.803v6.233l11.795-3.404.087-1.012 1.352-15.772.14-1.609 1.04-12.126H22.93v5.991h8.108l-.524 6.135H22.93v5.991z"/></g></svg>