<svg class="css-13o7eu2" width="112" height="54" xmlns="http://www.w3.org/2000/svg"><g fill-rule="evenodd"><path d="M34.88 43.098v-24.35h1.322v3.83a5.008 5.008 0 0 0 .431-.54 6.546 6.546 0 0 1 5.971-3.704c3.012-.09 5.458 1.025 6.897 3.705a11.905 11.905 0 0 1 .288 10.916c-1.34 3.003-4.65 4.496-8.192 3.947a6.627 6.627 0 0 1-5.287-3.488v9.684h-1.43zm1.322-15.736c.117 1.187.162 2.032.297 2.86.521 3.255 2.445 5.188 5.467 5.538a6.213 6.213 0 0 0 6.824-3.947c1.175-2.8 1.09-5.97-.233-8.704a6.087 6.087 0 0 0-6.412-3.543 5.926 5.926 0 0 0-5.296 4.38 30.033 30.033 0 0 0-.647 3.416zm41.731 3.31a7.122 7.122 0 0 1-6.96 6.293c-5.539.28-8.137-3.399-8.55-7.643a12.247 12.247 0 0 1 1.078-6.744 7.526 7.526 0 0 1 7.832-4.199 7.193 7.193 0 0 1 6.384 5.476 36.948 36.948 0 0 1 .62 4.047H63.78c-.27 3.848 1.798 6.941 4.73 7.688 3.65.899 6.77-.684 7.903-4.155.252-.89.71-1.016 1.52-.764zM63.78 26.67H76.79c-.08-4.1-2.634-7.068-6.096-7.113-3.92-.063-6.744 2.797-6.915 7.113z" fill-rule="nonzero"/><path d="M80.613 30.761h1.277a5.116 5.116 0 0 0 3.003 4.406 7.85 7.85 0 0 0 6.816-.18 3.066 3.066 0 0 0 1.798-3.012 2.778 2.778 0 0 0-1.87-2.779c-1.403-.521-2.896-.809-4.325-1.267a31.696 31.696 0 0 1-4.352-1.592c-2.302-1.124-2.446-5.503.161-6.888a9.18 9.18 0 0 1 8.776-.135 4.622 4.622 0 0 1 2.338 4.712h-1.097c0-.054-.099-.099-.099-.153-.134-3.498-3.066-4.577-6.213-4.27a8.246 8.246 0 0 0-2.698.817 2.698 2.698 0 0 0-1.564 2.698 2.698 2.698 0 0 0 1.798 2.536c1.385.503 2.833.827 4.253 1.223 1.142.314 2.33.521 3.435.899a4.055 4.055 0 0 1 2.788 3.66 4.325 4.325 0 0 1-2.33 4.495c-3.002 1.7-7.948 1.25-10.15-.899a5.998 5.998 0 0 1-1.745-4.271zm30.41-6.735h-1.196c0-.162-.063-.306-.08-.44a3.911 3.911 0 0 0-3.184-3.76 7.85 7.85 0 0 0-5.044.244 3.066 3.066 0 0 0-2.221 2.922 2.823 2.823 0 0 0 2.158 2.841c1.798.558 3.642.9 5.467 1.403.591.142 1.174.32 1.744.53a4.496 4.496 0 0 1 .243 8.372 10.008 10.008 0 0 1-8.093.081 5.61 5.61 0 0 1-3.38-5.449h1.168a6.555 6.555 0 0 0 9.981 4.172 3.21 3.21 0 0 0 1.727-3.003 2.778 2.778 0 0 0-1.898-2.76c-1.402-.522-2.895-.8-4.325-1.26a31.858 31.858 0 0 1-4.379-1.573c-2.248-1.106-2.427-5.45.135-6.834a9.055 9.055 0 0 1 8.92-.099 4.703 4.703 0 0 1 2.257 4.613zM32.695 36.525a2.06 2.06 0 0 1-2.554-.971c-1.465-2.194-3.084-4.29-4.64-6.43l-.674-.899c-1.852 2.482-3.704 4.865-5.395 7.338a1.978 1.978 0 0 1-2.428.953l6.951-9.325-6.465-8.425a2.15 2.15 0 0 1 2.562.9c1.502 2.193 3.166 4.288 4.82 6.51 1.664-2.204 3.31-4.308 4.847-6.484a1.933 1.933 0 0 1 2.41-.9l-2.51 3.328c-1.123 1.483-2.23 2.976-3.398 4.424a.9.9 0 0 0 0 1.34c2.149 2.85 4.28 5.71 6.474 8.64zm29.511-17.849v1.259a6.52 6.52 0 0 0-6.941 6.735v9.89h-1.286V18.749h1.259v3.65c1.555-2.661 3.956-3.65 6.968-3.722z"/><path d="M.351 27.074c.19-.899.306-1.879.567-2.796 1.555-5.53 7.895-7.832 12.256-4.406 2.553 2.005 3.192 4.846 3.066 8.048H1.853c-.234 5.718 3.893 9.171 9.172 7.409a5.476 5.476 0 0 0 3.48-3.876c.278-.899.728-1.052 1.582-.79a7.301 7.301 0 0 1-3.489 5.331 8.452 8.452 0 0 1-9.846-1.259A8.857 8.857 0 0 1 .54 29.538c0-.306-.117-.611-.18-.9a139.31 139.31 0 0 1-.009-1.564zm1.52-.386h13.011c-.08-4.146-2.697-7.086-6.186-7.113-3.885-.054-6.663 2.824-6.834 7.095l.009.018z" fill-rule="nonzero"/></g></svg>