<svg viewBox="0 0 287 501" xmlns="http://www.w3.org/2000/svg"><g fill="none" fill-rule="evenodd"><g transform="translate(0 4)"><path d="M256.62 412.91a1 1 0 1 1 0-2h2a1 1 0 1 1 0 2h-2zm-8-.15-2-.09a1 1 0 1 1 .05-2l2 .09a1 1 0 1 1 0 2h-.05zm17.92-.15a1 1 0 1 1-.06-2l2-.13a1.002 1.002 0 1 1 .14 2c-.67 0-1.33.09-2 .12l-.08.01zm-27.86-.53h-.09l-2-.2a1.006 1.006 0 1 1 .22-2l2 .2a1.001 1.001 0 1 1-.1 2h-.03zm37.78-.32a1.002 1.002 0 1 1-.11-2l2-.23a1.008 1.008 0 1 1 .25 2l-2 .24-.14-.01zm-47.66-.9h-.15l-2-.31a1.013 1.013 0 1 1 .32-2l2 .31a1 1 0 0 1 .84 1.14 1 1 0 0 1-.98.86h-.03zm57.53-.5a1 1 0 0 1-1-.84 1 1 0 0 1 .82-1.15l1.95-.34a1.016 1.016 0 1 1 .36 2l-2 .35-.13-.02zM219 409.09h-.21l-2-.43a1 1 0 1 1 .44-1.95l1.93.42a1.005 1.005 0 1 1-.2 2l.04-.04zm77.09-.68a1.006 1.006 0 1 1-.22-2c.65-.14 1.29-.29 1.93-.45a1.003 1.003 0 1 1 .47 1.95l-1.95.45a.91.91 0 0 1-.2.05h-.03zm-86.78-1.64a.78.78 0 0 1-.26 0l-1.93-.53a1 1 0 1 1 .54-1.92l1.91.52a1.008 1.008 0 1 1-.26 2v-.07zm96.43-.85a1.01 1.01 0 1 1-.28-2l1.9-.56a1 1 0 0 1 1.25.67 1 1 0 0 1-.67 1.24c-.64.2-1.28.38-1.93.57a.84.84 0 0 1-.24.08h-.03zm-106-2a1.18 1.18 0 0 1-.31-.05l-1.91-.64a1 1 0 0 1 .75-1.85l1.89.63a1.013 1.013 0 1 1-.32 2l-.1-.09zm115.47-1a1 1 0 0 1-.33-1.94l1.87-.67a1 1 0 0 1 .68 1.88l-1.89.67a1 1 0 0 1-.28.03l-.05.03zm-124.81-2.41a.92.92 0 0 1-.36-.07l-1.87-.74a1.003 1.003 0 1 1 .75-1.86l1.85.74a1 1 0 0 1-.37 1.93zm134.17-1.17a1 1 0 0 1-.39-1.93l1.82-.76a1.001 1.001 0 1 1 .79 1.84l-1.84.77c-.12.05-.25.077-.38.08zm-143.35-2.74a.92.92 0 0 1-.42-.1c-.61-.27-1.21-.56-1.82-.85a1 1 0 1 1 .86-1.8l1.8.84a1 1 0 0 1-.42 1.91zm152.41-1.32a1 1 0 0 1-.43-1.9l1.77-.86a1 1 0 1 1 .89 1.79l-1.79.87a1 1 0 0 1-.44.1zm-161.36-3.11a1 1 0 0 1-.46-.11l-1.78-.95a1.012 1.012 0 1 1 1-1.76l1.75.94a1 1 0 0 1-.47 1.88h-.04zm170.2-1.45a1 1 0 0 1-.48-1.87l1.72-1a1.003 1.003 0 0 1 1 1.74l-1.74 1a1 1 0 0 1-.5.13zm-178.88-3.46a1.1 1.1 0 0 1-.52-.14l-1.71-1.05a1 1 0 1 1 1-1.7c.56.35 1.13.69 1.7 1a1 1 0 0 1 .34 1.38 1 1 0 0 1-.81.51zM351 385.68a1 1 0 0 1-.53-1.85l1.67-1.06a1.003 1.003 0 1 1 1.08 1.69l-1.69 1.07a1 1 0 0 1-.53.15zm-195.8-3.81a1 1 0 0 1-.57-.17l-1.63-1.14a1 1 0 0 1-.24-1.39 1 1 0 0 1 1.39-.25l1.63 1.13a1 1 0 0 1-.56 1.82h-.02zm204.12-1.7a1 1 0 0 1-.82-.43 1 1 0 0 1 .24-1.39c.54-.38 1.08-.76 1.61-1.15a1 1 0 1 1 1.17 1.62L359.9 380a1 1 0 0 1-.58.17zM147.12 376a1.06 1.06 0 0 1-.61-.2l-1.58-1.23a1.001 1.001 0 1 1 1.23-1.58c.52.41 1 .82 1.57 1.22a1 1 0 0 1-.61 1.79zm220.17-1.83a1 1 0 0 1-.63-1.78l1.55-1.24a1 1 0 0 1 1.26 1.55l-1.56 1.3a1 1 0 0 1-.62.2v-.03zm-227.91-4.45a1 1 0 0 1-.65-.24c-.51-.43-1-.87-1.51-1.31a1 1 0 0 1 1.31-1.51L140 368a1 1 0 0 1-.65 1.76l.03-.04zm235.53-1.95a1 1 0 0 1-.66-1.75l1.47-1.32a1.002 1.002 0 0 1 1.35 1.48l-1.49 1.34a1 1 0 0 1-.67.28v-.03zM132 363.06a1 1 0 0 1-.69-.28l-1.44-1.4a1 1 0 1 1 1.4-1.42l1.43 1.38a1 1 0 0 1-.7 1.72zM382.18 361a1 1 0 0 1-.71-.3 1 1 0 0 1 0-1.41c.47-.47.94-.93 1.4-1.4a1 1 0 1 1 1.42 1.4c-.46.48-.94 1-1.41 1.42a1 1 0 0 1-.7.29zM125 356a1 1 0 0 1-.73-.32l-1.36-1.47a1 1 0 1 1 1.47-1.35l1.35 1.45a1 1 0 0 1 0 1.42 1 1 0 0 1-.73.27zm264.05-2.19a1 1 0 0 1-.75-1.67c.453-.493.893-.983 1.32-1.47a1 1 0 0 1 1.5 1.32c-.44.5-.88 1-1.33 1.49a1 1 0 0 1-.73.3l-.01.03zm-270.63-5.31a1 1 0 0 1-.77-.36l-1.28-1.54a1 1 0 0 1 1.55-1.26l1.26 1.52a1 1 0 0 1-.76 1.64zm277.11-2.29a1 1 0 0 1-.78-1.63L396 343a1 1 0 0 1 1.56 1.24c-.41.52-.83 1.05-1.25 1.56a1 1 0 0 1-.78.41zm-283.28-5.52a1 1 0 0 1-.8-.4c-.4-.54-.8-1.07-1.19-1.61a1 1 0 0 1 .22-1.4 1 1 0 0 1 1.4.22l1.17 1.59a1 1 0 0 1-.8 1.6zm289.32-2.41a1 1 0 0 1-.81-1.58l1.15-1.62a1 1 0 1 1 1.63 1.15c-.38.55-.77 1.09-1.16 1.64a1 1 0 0 1-.81.41zm-295-5.73a1 1 0 0 1-.84-.45l-1.09-1.67a1.001 1.001 0 1 1 1.68-1.09c.35.56.72 1.11 1.08 1.66a1 1 0 0 1-.28 1.38.94.94 0 0 1-.59.17h.04zm300.6-2.55a1 1 0 0 1-.84-1.54l1.05-1.68a1.002 1.002 0 1 1 1.7 1.06c-.35.57-.71 1.13-1.07 1.7a1 1 0 0 1-.84.46zm-305.9-5.92a1 1 0 0 1-.87-.5l-1-1.73a1.003 1.003 0 1 1 1.74-1c.32.573.653 1.143 1 1.71a1 1 0 0 1-.36 1.37 1 1 0 0 1-.51.18v-.03zm311-2.63a1 1 0 0 1-.87-1.49c.32-.58.65-1.16 1-1.74a1 1 0 0 1 1.36-.39 1 1 0 0 1 .4 1.35c-.32.59-.65 1.18-1 1.76a1 1 0 0 1-.86.54l-.03-.03zm-315.79-6.06a1 1 0 0 1-.89-.54l-.9-1.78a1.002 1.002 0 0 1 1.79-.9l.89 1.77a1 1 0 0 1-.43 1.34 1 1 0 0 1-.46.11zM417 312.65a1 1 0 0 1-.9-1.44c.3-.59.58-1.19.87-1.79a1 1 0 1 1 1.8.86l-.87 1.81a1 1 0 0 1-.9.56zm-324.8-6.22a1 1 0 0 1-.92-.6c-.27-.61-.54-1.21-.8-1.82a1.003 1.003 0 1 1 1.84-.8c.26.61.52 1.21.79 1.81a1 1 0 0 1-.51 1.32 1 1 0 0 1-.4.09zm328.9-2.86a1 1 0 0 1-.92-1.39l.77-1.83a1 1 0 1 1 1.85.76L422 303a1 1 0 0 1-.9.57zm-332.69-6.33a1 1 0 0 1-.93-.64c-.24-.63-.47-1.25-.7-1.88a1.001 1.001 0 1 1 1.88-.69c.22.62.46 1.24.69 1.86a1 1 0 0 1-.58 1.29 1.13 1.13 0 0 1-.36.06zm336.33-3a1 1 0 0 1-.94-1.34l.66-1.87a1 1 0 0 1 1.89.65c-.22.64-.44 1.27-.67 1.9a1 1 0 0 1-.94.69v-.03zm-339.59-6.41a1 1 0 0 1-1-.7c-.2-.63-.4-1.27-.59-1.91a1 1 0 0 1 .67-1.25 1 1 0 0 1 1.24.67c.19.63.39 1.26.59 1.89a1 1 0 0 1-.65 1.26 1.08 1.08 0 0 1-.26.04zm342.69-3a.9.9 0 0 1-.28 0 1 1 0 0 1-.68-1.25c.19-.63.38-1.26.56-1.9a1 1 0 0 1 1.833-.214 1 1 0 0 1 .087.764c-.18.64-.37 1.28-.56 1.92a1 1 0 0 1-.96.65v.03zm-345.43-6.58a1 1 0 0 1-1-.75c-.17-.64-.33-1.29-.49-1.94a1.027 1.027 0 1 1 2-.47c.147.667.307 1.307.48 1.92a1 1 0 0 1-.73 1.21.66.66 0 0 1-.26.03zm348-3.08h-.23a1 1 0 0 1-.74-1.21c.15-.64.3-1.28.44-1.93a1 1 0 0 1 1.95.44c-.14.65-.29 1.3-.45 2a1 1 0 0 1-.97.7zm-350.2-6.63a1 1 0 0 1-1-.81c-.13-.65-.26-1.31-.38-2a1.017 1.017 0 0 1 2-.37l.37 2a1 1 0 0 1-.79 1.17l-.2.01zm352.22-3.12h-.17a1 1 0 0 1-.81-1.16c.11-.65.23-1.3.34-1.95a1.014 1.014 0 1 1 2 .33c-.11.66-.23 1.32-.34 2a1 1 0 0 1-1.02.78zm-353.87-6.7a1 1 0 0 1-1-.86c-.1-.66-.18-1.33-.27-2a1.008 1.008 0 1 1 2-.26l.27 2a1 1 0 0 1-.85 1.13l-.15-.01zm355.35-3.15h-.12a1 1 0 0 1-.87-1.11c.08-.65.15-1.31.23-2a1.006 1.006 0 1 1 2 .22c-.07.67-.15 1.33-.23 2a1 1 0 0 1-1.01.89zm-356.46-6.75a1 1 0 0 1-1-.92c-.06-.66-.11-1.33-.16-2a1.003 1.003 0 1 1 2-.15c0 .66.1 1.32.15 2a1 1 0 0 1-.91 1.08l-.08-.01zm357.39-3.17h-.07a1 1 0 0 1-.93-1.06l.12-2a1 1 0 0 1 1.743-.612 1 1 0 0 1 .257.722l-.12 2a1 1 0 0 1-1 .95zM76.9 238.87a1 1 0 0 1-1-1c0-.66 0-1.33-.05-2a1 1 0 1 1 2 0c0 .66 0 1.32.05 2a1 1 0 0 1-1 1zm358.32-3.17a1 1 0 0 1-1-1v-2.34a1 1 0 1 1 2 0v2.34a1 1 0 0 1-1 1zm-358.33-6.79a1 1 0 0 1-1-1l.06-2a1 1 0 1 1 2 .07l-.06 2a1 1 0 0 1-1 .93zM435 225.4a1 1 0 0 1-1-1c0-.66-.06-1.32-.1-2a1.002 1.002 0 1 1 2-.11c0 .66.07 1.33.1 2a1 1 0 0 1-1 1v.11zM77.43 219h-.09a1 1 0 0 1-.91-1.08c0-.67.11-1.33.17-2a1.005 1.005 0 1 1 2 .19c-.06.65-.12 1.31-.17 2a1 1 0 0 1-1 .89zm356.88-3.5a1 1 0 0 1-1-.9l-.21-2a1 1 0 0 1 1.618-.9 1 1 0 0 1 .372.67l.21 2a1 1 0 0 1-.9 1.09l-.09.04zm-355.8-6.4h-.14a1 1 0 0 1-.85-1.13c.09-.66.18-1.32.28-2a1.01 1.01 0 0 1 2 .29c-.1.66-.19 1.31-.28 2a1 1 0 0 1-1.01.81v.03zM433 205.59a1 1 0 0 1-1-.84c-.1-.66-.21-1.31-.32-2a1.014 1.014 0 1 1 2-.33c.11.66.22 1.31.33 2a1 1 0 0 1-.84 1.14l-.17.03zm-352.9-6.35a.62.62 0 0 1-.19 0 1 1 0 0 1-.79-1.17l.39-2a1.02 1.02 0 1 1 2 .41l-.39 1.94a1 1 0 0 1-.98.82h-.04zm351.07-3.44a1 1 0 0 1-1-.79c-.14-.65-.29-1.29-.43-1.94a1 1 0 0 1 1.95-.44c.15.65.29 1.3.43 2a1 1 0 0 1-.77 1.19l-.18-.02zm-348.85-6.28a1.07 1.07 0 0 1-.25 0 1 1 0 0 1-.72-1.21c.16-.65.33-1.3.5-1.94a1 1 0 0 1 1.23-.71 1 1 0 0 1 .7 1.22c-.17.64-.33 1.28-.49 1.92a1 1 0 0 1-.97.72zm346.52-3.4a1 1 0 0 1-1-.73c-.18-.64-.35-1.28-.54-1.91a1.003 1.003 0 1 1 1.93-.55l.54 1.93a1 1 0 0 1-.7 1.23 1.24 1.24 0 0 1-.23.03zM85 179.94a1 1 0 0 1-.95-1.3c.2-.64.41-1.28.62-1.92a1 1 0 1 1 1.9.63c-.21.62-.41 1.26-.61 1.89a1 1 0 0 1-.96.7zm340.91-3.34a1 1 0 0 1-.95-.69c-.21-.62-.42-1.25-.64-1.87a1 1 0 0 1 1.89-.66c.22.63.43 1.26.65 1.9a1 1 0 0 1-.63 1.26 1 1 0 0 1-.29.06h-.03zm-337.62-6.1a.91.91 0 0 1-.35-.07 1 1 0 0 1-.58-1.29c.23-.62.47-1.25.72-1.87a1 1 0 0 1 1.86.72c-.24.62-.48 1.24-.71 1.86a1 1 0 0 1-.94.65zm334.21-3.25a1 1 0 0 1-.93-.63c-.24-.62-.49-1.23-.74-1.84a1 1 0 0 1 1.85-.76l.75 1.85a1 1 0 0 1-.93 1.38zm-330.42-6a1 1 0 0 1-.41-.09 1 1 0 0 1-.51-1.32c.27-.61.55-1.22.83-1.83a1 1 0 1 1 1.82.83c-.28.6-.55 1.2-.82 1.81a1 1 0 0 1-.91.61v-.01zm326.48-3.14a1 1 0 0 1-.91-.58l-.84-1.78a1 1 0 1 1 1.8-.87c.29.6.57 1.2.85 1.81A1 1 0 0 1 419 158a1.06 1.06 0 0 1-.44.12v-.01zm-322.19-5.86a1 1 0 0 1-.45-.11 1 1 0 0 1-.44-1.35l.92-1.79a1.004 1.004 0 0 1 1.78.93c-.31.58-.62 1.17-.92 1.76a1 1 0 0 1-.89.56zm317.74-3a1 1 0 0 1-.88-.53c-.31-.58-.63-1.16-1-1.73a1.012 1.012 0 1 1 1.76-1c.32.59.64 1.17.95 1.76a1 1 0 0 1-.88 1.47l.05.03zm-313-5.74a1 1 0 0 1-.5-.13 1 1 0 0 1-.36-1.37c.33-.58.67-1.16 1-1.73a1 1 0 1 1 1.71 1c-.34.56-.67 1.13-1 1.71a1 1 0 0 1-.8.5l-.05.02zm308-2.89a1 1 0 0 1-.85-.48c-.34-.56-.69-1.12-1-1.68a1.002 1.002 0 1 1 1.7-1.06l1 1.7a1 1 0 0 1-.34 1.37 1 1 0 0 1-.45.13l-.06.02zM106.42 135a1 1 0 0 1-.55-.16 1 1 0 0 1-.28-1.39l1.12-1.67a1 1 0 0 1 1.65 1.12l-1.1 1.65a1 1 0 0 1-.84.45zm297.34-2.77a1 1 0 0 1-.82-.43c-.37-.55-.75-1.09-1.13-1.62a1 1 0 1 1 1.63-1.16l1.15 1.65a1 1 0 0 1-.26 1.39 1 1 0 0 1-.57.19v-.02zm-291.61-5.39a1 1 0 0 1-.8-1.6l1.2-1.6a1 1 0 0 1 1.41-.19 1 1 0 0 1 .19 1.4c-.41.53-.8 1.06-1.2 1.59a1 1 0 0 1-.8.42v-.02zm285.75-2.65a1 1 0 0 1-.79-.39l-1.22-1.56a1 1 0 0 1 1.57-1.24l1.23 1.58a1 1 0 0 1-.18 1.4 1 1 0 0 1-.61.23v-.02zM118.32 119a1 1 0 0 1-.77-1.64l1.29-1.53a1.004 1.004 0 1 1 1.53 1.3c-.43.5-.86 1-1.28 1.51a1 1 0 0 1-.77.36zm273.27-2.52a1 1 0 0 1-.75-.35c-.43-.5-.87-1-1.31-1.49a1 1 0 0 1 1.5-1.32l1.32 1.5a1 1 0 0 1-.1 1.41 1 1 0 0 1-.66.28v-.03zm-266.68-5a1 1 0 0 1-.68-.27 1 1 0 0 1 0-1.41c.45-.49.91-1 1.37-1.46a1.011 1.011 0 0 1 1.4 1.46l-1.36 1.44a1 1 0 0 1-.73.32v-.08zm260-2.4a1 1 0 0 1-.72-.3l-1.38-1.42a1 1 0 1 1 1.42-1.41l1.4 1.44a1 1 0 0 1 0 1.41 1 1 0 0 1-.76.36l.04-.08zm-253-4.7a1 1 0 0 1-.72-.31 1 1 0 0 1 0-1.41l1.46-1.38a1 1 0 1 1 1.41 1.42l-1.44 1.36a1 1 0 0 1-.72.4l.01-.08zm245.85-2.27a1.05 1.05 0 0 1-.68-.26l-1.46-1.34a1 1 0 0 1-.07-1.42 1 1 0 0 1 1.41-.06c.5.44 1 .89 1.48 1.35a1 1 0 0 1 .06 1.41 1 1 0 0 1-.75.4l.01-.08zm-238.48-4.43a1 1 0 0 1-.65-1.75c.5-.44 1-.87 1.52-1.3a1 1 0 1 1 1.29 1.53c-.51.42-1 .85-1.51 1.28a1 1 0 0 1-.66.32l.01-.08zm231-2.13a1 1 0 0 1-.64-.23l-1.53-1.26a1 1 0 0 1 1.26-1.55l1.55 1.27a1 1 0 0 1 .13 1.41 1 1 0 0 1-.79.44l.02-.08zM147 91.48a1 1 0 0 1-.61-1.79l1.6-1.21a1 1 0 0 1 1.2 1.6l-1.58 1.2a1 1 0 0 1-.61.2zm215.42-2a1 1 0 0 1-.59-.2l-1.61-1.17a1 1 0 0 1-.22-1.4 1 1 0 0 1 1.4-.22c.54.39 1.08.78 1.61 1.18a1 1 0 0 1-.59 1.81zm-207.37-3.83a1 1 0 0 1-.56-1.83l1.66-1.12a1 1 0 0 1 1.1 1.66l-1.63 1.11a1 1 0 0 1-.57.18zm199.18-1.86a1 1 0 0 1-.55-.17L352 82.54a1 1 0 0 1-.31-1.38 1 1 0 0 1 1.38-.3l1.71 1.14a1 1 0 0 1-.55 1.84v-.05zm-190.81-3.53a1 1 0 0 1-.52-1.85l1.72-1a1 1 0 0 1 1 1.72l-1.7 1a1 1 0 0 1-.5.13zm182.32-1.71a1 1 0 0 1-.5-.14l-1.72-1a1 1 0 0 1-.38-1.36 1 1 0 0 1 1.36-.38l1.75 1a1 1 0 0 1 .36 1.37 1 1 0 0 1-.87.51zm-173.67-3.19a1 1 0 0 1-.89-.54 1 1 0 0 1 .42-1.35l1.77-.93a1 1 0 0 1 .91 1.78l-1.75.92a1 1 0 0 1-.46.12zM337 73.79a1.06 1.06 0 0 1-.45-.11l-1.78-.89a1 1 0 0 1 .89-1.79c.6.293 1.2.593 1.8.9a1 1 0 0 1-.46 1.89zm-156-2.85a1 1 0 0 1-.42-1.91l1.82-.83a1 1 0 1 1 .81 1.83l-1.79.82a1.06 1.06 0 0 1-.42.09zm147-1.41a1 1 0 0 1-.4-.09l-1.83-.79a1.001 1.001 0 0 1 .79-1.84l1.84.8a1 1 0 0 1-.4 1.92zM190.1 67a1 1 0 0 1-.37-1.93l1.87-.72a1 1 0 0 1 1.29.57 1 1 0 0 1-.58 1.29l-1.84.72a1 1 0 0 1-.37.07zm128.6-1.25a1 1 0 0 1-.35-.06l-1.87-.69a1 1 0 1 1 .68-1.88l1.89.69a1 1 0 0 1-.35 1.94zm-119.24-2.13a1.012 1.012 0 1 1-.31-2l1.9-.62a1 1 0 1 1 .61 1.9l-1.89.62a1.12 1.12 0 0 1-.31.1zm109.78-1.08a1 1 0 0 1-.29 0l-1.9-.58a1.001 1.001 0 0 1 .57-1.92l1.92.59a1.011 1.011 0 1 1-.3 2v-.09zM209 60.74a1.008 1.008 0 1 1-.26-2l1.94-.52a1 1 0 0 1 1.113 1.48 1 1 0 0 1-.613.46l-1.91.51a1.24 1.24 0 0 1-.27.07zm90.66-.89a1 1 0 0 1-.24 0l-1.93-.47a1 1 0 1 1 .47-1.94l1.94.47a1.007 1.007 0 1 1-.24 2v-.06zm-81-1.44a1 1 0 0 1-.23-1.98l2-.41a1.02 1.02 0 1 1 .4 2l-1.94.4-.23-.01zm71.25-.7h-.19l-1.95-.36a1.015 1.015 0 1 1 .35-2l2 .37a1.004 1.004 0 1 1-.18 2l-.03-.01zm-61.45-1.1a1 1 0 0 1-.17-1.99l2-.29a1.01 1.01 0 1 1 .28 2l-2 .29-.11-.01zm51.61-.5H280l-2-.25a1 1 0 0 1-.87-1.12 1 1 0 0 1 1.12-.87l2 .26a1.002 1.002 0 1 1-.14 2l-.04-.02zm-41.73-.74a1.001 1.001 0 1 1-.1-2l2-.18a1 1 0 0 1 1.08.91 1 1 0 0 1-.91 1.08l-2 .18-.07.01zm31.83-.31h-.08l-2-.15a1 1 0 0 1-.94-1.06 1 1 0 0 1 1.07-.93l2 .14a1 1 0 0 1 .92 1.08 1 1 0 0 1-.95.92h-.02zm-21.9-.39a1 1 0 1 1 0-2l2-.07a1 1 0 0 1 .06 2l-2 .07h-.06zm12-.11h-2a1 1 0 1 1 0-2h2a1 1 0 1 1-.03 2h.03zM258.4 466.8a1 1 0 1 1 0-2h2a1 1 0 1 1 0 2h-2zm-8 0h-2a1 1 0 1 1 0-2h2a1 1 0 1 1 0 2zm18-.31a1 1 0 1 1-.05-2l2-.12a1.002 1.002 0 1 1 .12 2l-2 .12h-.07zm-28-.11h-.06l-2-.13a1.003 1.003 0 1 1 .15-2l2 .14a1 1 0 1 1-.06 2l-.03-.01zm38-.66a1.001 1.001 0 1 1-.09-2l2-.21a1.005 1.005 0 1 1 .21 2l-2 .21h-.12zm-47.92-.18h-.11l-2-.22a1.007 1.007 0 1 1 .23-2l2 .22a1.001 1.001 0 1 1-.1 2h-.02zm57.85-1a1.002 1.002 0 1 1-.14-2l2-.29a1 1 0 0 1 .957 1.584 1 1 0 0 1-.657.396l-2 .29-.16.02zm-67.77-.26h-.15l-2-.31a1.013 1.013 0 1 1 .32-2l2 .3a1.002 1.002 0 1 1-.14 2l-.03.01zm77.64-1.36a1.004 1.004 0 1 1-.18-2l2-.38a1.018 1.018 0 1 1 .38 2l-2 .38h-.2zm-87.5-.34a.62.62 0 0 1-.19 0l-2-.39a1.02 1.02 0 1 1 .4-2l2 .39a1.005 1.005 0 1 1-.19 2h-.02zm97.3-1.75a1.006 1.006 0 1 1-.22-2l1.94-.46a1 1 0 0 1 .47 1.94l-2 .47-.19.05zm-107.07-.41h-.23l-2-.47a1 1 0 0 1 .48-1.94l1.93.47a1.007 1.007 0 1 1-.23 2l.05-.06zm116.77-2.05a1.01 1.01 0 1 1-.27-2l1.92-.54a1 1 0 0 1 .55 1.92l-1.93.55a1.26 1.26 0 0 1-.32.07h.05zm-126.44-.49a1 1 0 0 1-.28 0l-1.93-.56a1.001 1.001 0 0 1 .57-1.92l1.91.56a1 1 0 0 1 .69 1.23 1 1 0 0 1-1.01.69h.05zm136-2.4a1.012 1.012 0 1 1-.31-2c.63-.21 1.26-.41 1.89-.63a1 1 0 0 1 .63 1.9l-1.91.63a1 1 0 0 1-.33.1h.03zm-145.58-.56a1.12 1.12 0 0 1-.31-.05l-1.91-.65a1 1 0 1 1 .65-1.89l1.89.67a1 1 0 0 1 .63 1.26 1 1 0 0 1-.98.66h.03zm155-2.74a1 1 0 0 1-.35-1.93l1.86-.71a1 1 0 0 1 1.29.57 1 1 0 0 1-.57 1.3l-1.88.71a1.12 1.12 0 0 1-.36.06h.01zm-164.46-.64a1.15 1.15 0 0 1-.36-.07l-1.88-.73a1 1 0 1 1 .73-1.86l1.86.72a1 1 0 0 1-.35 1.94zm173.73-3.05a1 1 0 0 1-.39-1.92l1.82-.78a1 1 0 0 1 1.335 1.278 1 1 0 0 1-.535.552l-1.84.79a1.09 1.09 0 0 1-.4.08h.01zm-183-.74a1 1 0 0 1-.4-.09l-1.84-.8a1 1 0 1 1 .81-1.83l1.83.8a1 1 0 0 1-.43 1.92h.03zM355 444.4a1 1 0 0 1-.43-1.9l1.79-.86a1 1 0 1 1 .88 1.79c-.6.3-1.2.59-1.81.87a.91.91 0 0 1-.43.1zm-201.22-.84a1 1 0 0 1-.44-.1l-1.81-.89a1 1 0 0 1 .89-1.79l1.8.88a1 1 0 0 1-.41 1.9h-.03zM364 439.92a1 1 0 0 1-.47-1.88l1.75-.94a1 1 0 1 1 .95 1.76c-.58.32-1.17.63-1.76.94a1 1 0 0 1-.47.12zM144.89 439a1 1 0 0 1-.47-.12l-1.77-1a1.008 1.008 0 0 1 1-1.75l1.75 1a1 1 0 0 1 .4 1.35 1 1 0 0 1-.91.52zm227.78-3.93a1 1 0 0 1-.87-.49 1 1 0 0 1 .36-1.37l1.71-1a1 1 0 1 1 1 1.71l-1.73 1a.93.93 0 0 1-.47.14v.01zm-236.49-1a1 1 0 0 1-.51-.14c-.58-.34-1.15-.69-1.72-1a1 1 0 1 1 1.04-1.71l1.71 1a1 1 0 0 1-.52 1.86v-.01zm245-4.2a1 1 0 0 1-.54-1.84l1.66-1.09a1.004 1.004 0 1 1 1.1 1.68l-1.68 1.09a1 1 0 0 1-.55.12l.01.04zm-253.48-1.16a.94.94 0 0 1-.55-.17l-1.68-1.11a1.001 1.001 0 0 1 1.12-1.66c.55.37 1.1.74 1.66 1.1a1 1 0 0 1-.55 1.84zm261.75-4.47a1 1 0 0 1-.82-.43 1 1 0 0 1 .24-1.39l1.62-1.16a1 1 0 0 1 1.17 1.62l-1.66 1.17a.93.93 0 0 1-.55.19zm-270-1.21a1 1 0 0 1-.58-.19l-1.63-1.18a1.005 1.005 0 1 1 1.19-1.62c.53.4 1.07.79 1.61 1.18a1 1 0 0 1 .23 1.39 1 1 0 0 1-.82.39v.03zm278-4.74a1 1 0 0 1-.61-1.79l1.57-1.23a1.004 1.004 0 1 1 1.24 1.58l-1.58 1.23a1 1 0 0 1-.6.21h-.02zm-286-1.29a1 1 0 0 1-.62-.21c-.52-.42-1-.83-1.57-1.26a1 1 0 0 1 1.25-1.55l1.56 1.24a1 1 0 0 1-.62 1.78zm293.79-5a1 1 0 0 1-.77-.35 1 1 0 0 1 .12-1.41l1.51-1.29a1 1 0 0 1 1.31 1.51l-1.53 1.31a1 1 0 0 1-.63.23h-.01zm-301.51-1.36a1 1 0 0 1-.65-.24l-1.52-1.32a1 1 0 0 1-.1-1.41 1 1 0 0 1 1.42-.1c.49.44 1 .88 1.5 1.31a1 1 0 0 1-.65 1.76zm309-5.25a1 1 0 0 1-.67-1.74l1.45-1.35a1.001 1.001 0 0 1 1.37 1.46l-1.47 1.36a1 1 0 0 1-.67.27h-.01zM96.3 404a1 1 0 0 1-.69-.27l-1.46-1.38a1 1 0 1 1 1.38-1.45l1.47 1.32a1 1 0 0 1 0 1.42 1 1 0 0 1-.7.36zm323.7-5.54a1 1 0 0 1-.71-1.71l1.4-1.41a1 1 0 0 1 1.43 1.4l-1.41 1.42a1 1 0 0 1-.71.3zM89.15 397a1.06 1.06 0 0 1-.72-.3c-.46-.48-.93-1-1.39-1.45a1 1 0 1 1 1.42-1.41l1.38 1.42a1 1 0 0 1 0 1.42 1 1 0 0 1-.69.32zm337.71-5.73a1 1 0 0 1-.67-.27 1 1 0 0 1-.07-1.41c.45-.49.9-1 1.34-1.48a1.002 1.002 0 1 1 1.49 1.34l-1.35 1.49a1 1 0 0 1-.74.29v.04zm-344.55-1.61a1 1 0 0 1-.75-.33l-1.33-1.5a1 1 0 1 1 1.5-1.32l1.32 1.49a1 1 0 0 1-.74 1.67v-.01zm351.14-6a1 1 0 0 1-.64-.23 1 1 0 0 1-.12-1.41l1.27-1.53a1.002 1.002 0 1 1 1.55 1.27l-1.29 1.54a1 1 0 0 1-.77.4v-.04zm-357.66-1.58a1 1 0 0 1-.77-.36c-.43-.51-.86-1-1.28-1.56a1 1 0 0 1 1.56-1.25l1.26 1.54a1 1 0 0 1-.14 1.41 1 1 0 0 1-.63.22zm363.93-6.18a1 1 0 0 1-.79-1.61c.4-.53.81-1.05 1.21-1.59a1 1 0 1 1 1.59 1.21l-1.21 1.6a1 1 0 0 1-.8.39zM69.6 374.24a1 1 0 0 1-.8-.4l-1.2-1.61a1.01 1.01 0 1 1 1.6-1.23l1.2 1.6a1 1 0 0 1-.2 1.4 1 1 0 0 1-.6.24zm376-6.41a1 1 0 0 1-.82-1.57c.39-.55.77-1.09 1.14-1.64a1.003 1.003 0 1 1 1.65 1.14l-1.15 1.65a1 1 0 0 1-.77.42h-.05zm-381.9-1.69a1 1 0 0 1-.82-.44l-1.13-1.65a1 1 0 0 1 .27-1.39 1 1 0 0 1 1.38.27c.38.54.75 1.09 1.13 1.64a1 1 0 0 1-.26 1.39 1 1 0 0 1-.52.18h-.05zm387.48-6.62a1 1 0 0 1-.84-1.54l1.07-1.69a1 1 0 1 1 1.69 1.07l-1.08 1.7a1 1 0 0 1-.79.46h-.05zm-393-1.73a1 1 0 0 1-.85-.47l-1-1.7a1 1 0 0 1 1.7-1.05l1 1.69a1 1 0 0 1-.77 1.53h-.08zM456.45 351a1 1 0 0 1-.5-.14 1 1 0 0 1-.37-1.37c.34-.57.67-1.15 1-1.73a1.003 1.003 0 1 1 1.74 1l-1 1.75a1 1 0 0 1-.87.49zm-403.31-1.77a1 1 0 0 1-.87-.51l-1-1.74A1 1 0 0 1 53 346l1 1.73a1 1 0 0 1-.37 1.37 1.12 1.12 0 0 1-.49.13zm408.15-7a1 1 0 0 1-.46-.12 1 1 0 0 1-.42-1.35l.92-1.77a1 1 0 0 1 1.78.91l-.93 1.79a1 1 0 0 1-.89.51v.03zm-412.91-1.78a1 1 0 0 1-.89-.54l-.9-1.79a1 1 0 1 1 1.78-.9l.9 1.77a1 1 0 0 1-.89 1.46zm417.38-7.23a1.07 1.07 0 0 1-.43-.09 1 1 0 0 1-.48-1.33c.29-.61.57-1.21.85-1.82a1 1 0 0 1 1.32-.49 1 1 0 0 1 .49 1.33c-.28.61-.56 1.22-.85 1.83a1 1 0 0 1-.9.57zM44 331.48a1 1 0 0 1-.91-.58c-.28-.61-.56-1.21-.83-1.82a1 1 0 1 1 1.82-.82l.82 1.8a1 1 0 0 1-.9 1.42zm425.81-7.42a1 1 0 0 1-.92-1.39l.76-1.84a1 1 0 1 1 1.85.75c-.25.63-.51 1.25-.77 1.87a1 1 0 0 1-.9.61h-.02zM40 322.33a1 1 0 0 1-.92-.62c-.26-.62-.51-1.24-.76-1.86a1 1 0 0 1 1.86-.74L41 321a1 1 0 0 1-.55 1.3 1 1 0 0 1-.45.03zm433.46-7.61a.82.82 0 0 1-.34-.06 1 1 0 0 1-.6-1.28l.69-1.88a1 1 0 0 1 1.88.67l-.69 1.9a1 1 0 0 1-.9.65h-.04zM36.45 313a1 1 0 0 1-.94-.66c-.22-.63-.45-1.26-.67-1.9a1.001 1.001 0 0 1 1.89-.66c.22.63.44 1.26.67 1.88a1 1 0 0 1-.61 1.28 1 1 0 0 1-.34.06zm440.32-7.76a1.12 1.12 0 0 1-.31-.05 1 1 0 0 1-.65-1.26c.21-.63.41-1.27.6-1.91a1.004 1.004 0 1 1 1.92.59c-.2.65-.41 1.29-.61 1.93a1 1 0 0 1-.95.7zm-443.49-1.73a1 1 0 0 1-1-.7c-.2-.64-.39-1.28-.59-1.92a1.003 1.003 0 0 1 1.92-.58c.19.64.38 1.27.58 1.91a1 1 0 0 1-.66 1.25 1 1 0 0 1-.25.04zm446.33-7.87a1.26 1.26 0 0 1-.27 0 1 1 0 0 1-.7-1.23c.18-.64.35-1.28.52-1.92a1 1 0 1 1 1.93.51c-.17.65-.34 1.29-.52 1.94a1 1 0 0 1-.96.7zm-449.1-1.74a1 1 0 0 1-1-.74c-.17-.65-.34-1.3-.5-2a1 1 0 0 1 1.94-.49c.16.64.33 1.28.5 1.93a1 1 0 0 1-.71 1.22 1.15 1.15 0 0 1-.23.08zm451.52-8h-.22a1 1 0 0 1-.76-1.2c.15-.65.29-1.3.43-1.95a1.023 1.023 0 1 1 2 .43c-.14.65-.29 1.31-.44 2a1 1 0 0 1-1.04.75l.03-.03zm-453.86-1.72a1 1 0 0 1-1-.79l-.42-2a1.02 1.02 0 1 1 2-.41c.13.65.27 1.3.41 1.94a1 1 0 0 1-.76 1.2l-.23.06zM484 276.13h-.18A1 1 0 0 1 483 275c.12-.65.24-1.31.35-2a1.014 1.014 0 1 1 2 .34c-.11.66-.23 1.32-.35 2a1 1 0 0 1-1 .79zm-457.76-1.77a1 1 0 0 1-1-.82c-.12-.67-.23-1.33-.34-2a1.013 1.013 0 1 1 2-.32c.1.65.21 1.31.33 2a1 1 0 0 1-.82 1.16l-.17-.02zm459.36-8.11h-.14a1 1 0 0 1-.85-1.12c.09-.66.18-1.32.26-2a1.008 1.008 0 1 1 2 .26l-.27 2a1 1 0 0 1-1 .86zm-460.85-1.78a1 1 0 0 1-1-.87c-.09-.66-.17-1.33-.25-2a1.007 1.007 0 1 1 2-.24c.08.66.16 1.32.25 2a1 1 0 0 1-.86 1.12l-.14-.01zm462-8.15h-.1a1 1 0 0 1-.9-1.09l.18-2a1 1 0 0 1 1.08-.91 1 1 0 0 1 .91 1.08c-.05.67-.11 1.33-.18 2a1 1 0 0 1-.99.92zm-463.07-1.79a1 1 0 0 1-1-.92c-.06-.66-.11-1.33-.16-2a1 1 0 0 1 .92-1.07 1 1 0 0 1 1.07.92c0 .66.11 1.32.16 2a1 1 0 0 1-.91 1.09l-.08-.02zm463.79-8.19h-.05a1 1 0 0 1-.95-1.05l.09-2a1 1 0 1 1 2 0l-.09 2a1 1 0 0 1-1 1.05zM23 244.55a1 1 0 0 1-1-1c0-.67-.05-1.33-.07-2a1 1 0 1 1 2-.07c0 .66.05 1.32.08 2a1 1 0 0 1-1 1.05l-.01.02zm464.73-8.21a1 1 0 0 1-1-1v-2.42a1 1 0 1 1 2 0v2.42a1 1 0 0 1-.97 1h-.03zm-464.92-1.79a1 1 0 0 1-1-1v-2a1 1 0 1 1 2 0v1.99a1 1 0 0 1-1 1.01zm464.81-8.63a1 1 0 0 1-1-1c0-.67-.05-1.33-.08-2a1 1 0 0 1 2-.05c0 .67.06 1.34.08 2a1 1 0 0 1-1 1v.05zM23 224.55a1 1 0 0 1-.95-1c0-.667.03-1.333.09-2a1.002 1.002 0 1 1 2 .11c0 .66-.07 1.32-.1 2a1 1 0 0 1-1.04.89zm464-8.61a1 1 0 0 1-1-.92c-.05-.66-.11-1.33-.17-2a1 1 0 0 1 .91-1.08 1 1 0 0 1 1.09.91c.05.67.11 1.34.16 2a1 1 0 0 1-.92 1.08l-.07.01zm-463.36-1.37h-.08a1 1 0 0 1-.91-1.08c.05-.67.11-1.34.17-2a1.004 1.004 0 1 1 2 .18c-.06.66-.12 1.32-.17 2a1 1 0 0 1-1.01.9zM486.06 206a1 1 0 0 1-1-.88c-.08-.66-.17-1.32-.25-2a1.008 1.008 0 1 1 2-.26c.09.67.17 1.33.25 2a1 1 0 0 1-.87 1.11l-.13.03zM24.7 204.63h-.13a1 1 0 0 1-.87-1.12c.09-.67.17-1.33.27-2a1 1 0 1 1 1.98.27c-.09.66-.18 1.31-.26 2a1 1 0 0 1-.99.85zm459.94-8.54a1 1 0 0 1-1-.84l-.33-2a1.015 1.015 0 1 1 2-.35c.11.66.23 1.32.34 2a1 1 0 0 1-.82 1.16l-.19.03zm-458.47-1.36H26a1 1 0 0 1-.81-1.16c.11-.66.23-1.32.34-2a1.015 1.015 0 1 1 2 .35c-.11.65-.23 1.31-.34 2a1 1 0 0 1-1.02.81zm456.62-8.47a1 1 0 0 1-1-.79c-.14-.65-.28-1.31-.42-1.95a1.023 1.023 0 1 1 2-.43l.42 2a1 1 0 0 1-.77 1.19l-.23-.02zm-454.71-1.35a.75.75 0 0 1-.21 0 1 1 0 0 1-.77-1.19c.14-.65.29-1.31.43-2a1.024 1.024 0 1 1 2 .44c-.15.65-.29 1.3-.43 1.95a1 1 0 0 1-1.02.8zm452.44-8.39a1 1 0 0 1-1-.75c-.16-.65-.33-1.29-.5-1.93a1 1 0 0 1 .71-1.23 1 1 0 0 1 1.23.72c.17.64.34 1.29.5 1.94a1 1 0 0 1-1 1.25h.06zm-450.11-1.33a1.15 1.15 0 0 1-.26 0 1 1 0 0 1-.71-1.23c.17-.64.34-1.29.52-1.94a1 1 0 0 1 1.93.53c-.18.64-.35 1.28-.52 1.92a1 1 0 0 1-.96.72zm447.42-8.31a1 1 0 0 1-.95-.71c-.2-.63-.39-1.27-.59-1.9a1.001 1.001 0 1 1 1.91-.6c.2.64.4 1.28.59 1.92a1 1 0 0 1-.96 1.29zm-444.68-1.31a.93.93 0 0 1-.29 0 1 1 0 0 1-.66-1.25l.6-1.92a1 1 0 0 1 1.26-.65 1 1 0 0 1 .65 1.26c-.2.63-.41 1.27-.6 1.91a1 1 0 0 1-.96.65zm441.58-8.2a1 1 0 0 1-.94-.66c-.22-.63-.45-1.26-.67-1.88a1 1 0 0 1 1.88-.68c.23.63.45 1.26.67 1.89a1 1 0 0 1-.61 1.28 1 1 0 0 1-.33.05zm-438.4-1.32A1 1 0 0 1 36 156a1 1 0 0 1-.61-1.28l.69-1.9a1.001 1.001 0 1 1 1.88.69c-.23.63-.46 1.25-.68 1.88a1 1 0 0 1-.95.66zm434.88-8a1 1 0 0 1-.93-.63c-.24-.62-.49-1.23-.74-1.85a1 1 0 1 1 1.85-.75l.75 1.86a1 1 0 0 1-.55 1.3 1 1 0 0 1-.38.02v.05zm-431.3-1.33a1 1 0 0 1-.38-.08 1 1 0 0 1-.55-1.3l.77-1.86a1.002 1.002 0 0 1 1.85.77c-.26.61-.51 1.23-.77 1.84a1 1 0 0 1-.92.59v.04zm427.4-7.85a1 1 0 0 1-.91-.59c-.28-.61-.55-1.21-.83-1.81a1.002 1.002 0 0 1 1.82-.84c.28.61.55 1.22.83 1.82a1 1 0 0 1-.5 1.33 1 1 0 0 1-.41.05v.04zm-423.42-1.4a.85.85 0 0 1-.41-.09 1 1 0 0 1-.5-1.32l.85-1.83a1 1 0 1 1 1.81.85l-.84 1.81a1 1 0 0 1-.91.58zM463 129.83a1 1 0 0 1-.89-.55l-.9-1.77a1 1 0 0 1 .43-1.35 1 1 0 0 1 1.34.43c.31.59.61 1.19.91 1.79a1 1 0 0 1-.89 1.45zm-414.73-1.37a1.11 1.11 0 0 1-.46-.11 1 1 0 0 1-.43-1.35l.93-1.79a1 1 0 0 1 1.77.93c-.31.59-.62 1.18-.92 1.77a1 1 0 0 1-.89.55zM458.33 121a1 1 0 0 1-.88-.51l-1-1.73a1 1 0 1 1 1.73-1l1 1.75a1 1 0 0 1-.38 1.36 1.11 1.11 0 0 1-.47.13zM53 119.64a1 1 0 0 1-.87-1.49c.33-.59.67-1.17 1-1.75a1.003 1.003 0 0 1 1.74 1l-1 1.73a1 1 0 0 1-.87.51zm400.24-7.23a1 1 0 0 1-.85-.48l-1.05-1.68a1 1 0 1 1 1.69-1.07l1.06 1.7a1 1 0 0 1-.33 1.38 1 1 0 0 1-.49.15h-.03zM58.17 111a1 1 0 0 1-.85-1.53l1.08-1.7a1 1 0 1 1 1.68 1.07c-.35.57-.71 1.13-1.06 1.69a1 1 0 0 1-.85.47zm389.67-7a1 1 0 0 1-.83-.43l-1.12-1.65a1 1 0 0 1 1.65-1.13l1.13 1.65a1 1 0 0 1-.83 1.56zm-384.17-1.33a1 1 0 0 1-.82-1.57L64 99.45a1.002 1.002 0 1 1 1.64 1.15l-1.14 1.64a1 1 0 0 1-.83.43zm378.39-6.79a1 1 0 0 1-.8-.41l-1.2-1.59a1 1 0 1 1 1.6-1.2l1.2 1.6a1 1 0 0 1-.8 1.6zM69.52 94.55a1 1 0 0 1-.8-1.6l1.22-1.61a1.002 1.002 0 1 1 1.59 1.22l-1.21 1.59a1 1 0 0 1-.8.4zM435.93 88a1 1 0 0 1-.78-.37l-1.26-1.54a1 1 0 0 1 .14-1.4 1 1 0 0 1 1.41.13l1.27 1.55a1 1 0 0 1-.78 1.63zM75.71 86.69a1 1 0 0 1-.63-.23 1 1 0 0 1-.14-1.41l1.29-1.55a1 1 0 0 1 1.53 1.29l-1.27 1.53a1 1 0 0 1-.78.37zm353.76-6.33a1 1 0 0 1-.75-.34c-.44-.5-.88-1-1.33-1.48a1 1 0 0 1 .08-1.42 1 1 0 0 1 1.41.08c.45.49.89 1 1.34 1.5a1 1 0 0 1-.75 1.66zM82.24 79.1a1 1 0 0 1-.75-1.67l1.35-1.49a1.002 1.002 0 1 1 1.48 1.35L83 78.77a1 1 0 0 1-.76.33zM422.68 73a1 1 0 0 1-.72-.3l-1.38-1.43a1 1 0 1 1 1.42-1.4c.47.48.94 1 1.4 1.44a1 1 0 0 1 0 1.41 1 1 0 0 1-.72.28zm-333.6-1.2a1 1 0 0 1-.7-.29 1 1 0 0 1 0-1.41c.46-.48.93-.95 1.41-1.43a1 1 0 0 1 1.41 1.41l-1.4 1.42a1 1 0 0 1-.72.3zM415.59 66a1 1 0 0 1-.69-.27c-.48-.46-1-.92-1.45-1.37a1.001 1.001 0 1 1 1.37-1.46l1.46 1.38a1 1 0 0 1 0 1.41 1 1 0 0 1-.69.31zM96.22 64.8a1 1 0 0 1-.68-1.73L97 61.7a1.001 1.001 0 0 1 1.36 1.47l-1.46 1.36a1 1 0 0 1-.68.27zm312-5.58a1 1 0 0 1-.66-.25l-1.56-1.3a1.003 1.003 0 0 1 1.31-1.52l1.52 1.32a1 1 0 0 1-.63 1.75h.02zm-304.54-1.1a1 1 0 0 1-.65-1.76l1.52-1.31a1 1 0 0 1 1.41.12 1 1 0 0 1-.11 1.41l-1.52 1.29a1 1 0 0 1-.67.25h.02zm296.84-5.32a1 1 0 0 1-.62-.22l-1.56-1.24a1 1 0 0 1 1.24-1.57l1.57 1.23a1 1 0 0 1 .15 1.4 1 1 0 0 1-.78.4zm-289.15-1a1 1 0 0 1-.78-.38 1 1 0 0 1 .16-1.41l1.58-1.24a1.005 1.005 0 0 1 1.23 1.59c-.53.4-1 .81-1.57 1.22a1 1 0 0 1-.62.18v.04zm281.21-5a1 1 0 0 1-.59-.19l-1.61-1.18a1 1 0 0 1 1.16-1.62l1.63 1.18a1 1 0 0 1-.59 1.81zm-273.24-1a1 1 0 0 1-.58-1.82c.54-.39 1.08-.78 1.63-1.16a1 1 0 1 1 1.16 1.63c-.55.38-1.08.77-1.62 1.16-.18.1-.385.145-.59.13v.06zm265-4.78a1 1 0 0 1-.56-.16l-1.66-1.11a1 1 0 1 1 1.1-1.67l1.67 1.11a1 1 0 0 1 .28 1.39 1 1 0 0 1-.79.42l-.04.02zm-256.81-.9a1 1 0 0 1-.84-.45 1 1 0 0 1 .29-1.38l1.67-1.1a1.001 1.001 0 1 1 1.09 1.68l-1.66 1.09a1 1 0 0 1-.51.1l-.04.06zm248.37-4.48a1 1 0 0 1-.52-.15l-1.71-1a1 1 0 1 1 1-1.72l1.73 1a1 1 0 0 1-.52 1.86l.02.01zM136 34.75a1 1 0 0 1-.51-1.86l1.72-1a1 1 0 1 1 1 1.72l-1.71 1a1 1 0 0 1-.5.14zm231.25-4.19a1 1 0 0 1-.49-.13c-.58-.32-1.16-.64-1.75-1a1 1 0 0 1 .95-1.76l1.77 1a1 1 0 0 1-.48 1.88v.01zm-222.56-.76a1 1 0 0 1-.47-1.87L146 27a1 1 0 0 1 .94 1.76l-1.75.94a.9.9 0 0 1-.5.1zm213.7-3.89a1 1 0 0 1-.45-.1l-1.79-.88a1 1 0 0 1 .87-1.8l1.81.89a1 1 0 0 1-.44 1.89zm-204.82-.67a1 1 0 0 1-.44-1.9l1.8-.87a1.002 1.002 0 1 1 .86 1.81l-1.79.86a1 1 0 0 1-.43.1zm195.74-3.58a.93.93 0 0 1-.4-.09l-1.83-.8a1 1 0 1 1 .79-1.84l1.84.81a1 1 0 0 1-.4 1.92zm-186.69-.59a1 1 0 0 1-.4-1.92l1.84-.79a1 1 0 1 1 .78 1.84L163 21a.93.93 0 0 1-.38.07zm177.43-3.27a.92.92 0 0 1-.36-.07l-1.87-.73a1 1 0 0 1-.57-1.29 1 1 0 0 1 1.29-.58l1.88.73a1 1 0 0 1-.37 1.93v.01zm-168.2-.51a1 1 0 0 1-.94-.64 1 1 0 0 1 .58-1.3l1.88-.71a1 1 0 0 1 1.29.59 1 1 0 0 1-.59 1.28l-1.86.71a.92.92 0 0 1-.36.07zm158.78-2.95a.93.93 0 0 1-.32-.05l-1.9-.64a1.002 1.002 0 0 1 .64-1.9l1.91.65a1 1 0 0 1-.33 1.94zm-149.37-.44a1 1 0 0 1-.32-1.95l1.91-.63a1 1 0 0 1 .62 1.9l-1.89.63a1.19 1.19 0 0 1-.32.05zm139.83-2.6a1 1 0 0 1-.28 0l-1.91-.55a1 1 0 0 1-.21-1.837 1 1 0 0 1 .76-.083l1.93.56a1.01 1.01 0 0 1-.29 2v-.09zm-130.28-.38a1.01 1.01 0 0 1-.28-2l1.93-.55a1 1 0 0 1 1.24.7 1 1 0 0 1-.7 1.23l-1.92.54a.84.84 0 0 1-.27.08zm120.63-2.23a1 1 0 0 1-.24 0l-1.94-.47a1.003 1.003 0 0 1 .47-1.95l1.95.48a1.007 1.007 0 1 1-.24 2v-.06zm-111-.33a1.007 1.007 0 1 1-.24-2l2-.46a1 1 0 1 1 .45 1.94l-1.94.46a.91.91 0 0 1-.23.06h-.04zm101.2-1.87a.62.62 0 0 1-.19 0l-2-.39a1 1 0 0 1-.79-1.17 1 1 0 0 1 1.17-.79l2 .39a1.005 1.005 0 0 1-.2 2l.01-.04zm-91.43-.27a1.005 1.005 0 1 1-.19-2l2-.38a1 1 0 0 1 1.17.8 1 1 0 0 1-.8 1.17l-2 .38-.18.03zm81.59-1.5h-.16l-2-.31a1 1 0 0 1-.84-1.13 1 1 0 0 1 1.2-.86l2 .31a1.003 1.003 0 0 1-.15 2l-.05-.01zm-71.7-.21a1 1 0 0 1-1-.85 1 1 0 0 1 .9-1.14l2-.29a1.01 1.01 0 1 1 .28 2l-2 .29-.18-.01zm61.83-1.14h-.12l-2-.22a1 1 0 0 1 .22-1.99l2 .22a1.002 1.002 0 1 1-.11 2l.01-.01zM230 3.22a1.002 1.002 0 0 1-.11-2c.67-.08 1.33-.15 2-.21a1 1 0 1 1 .2 1.99l-2 .2-.09.02zm42-.77h-.07l-2-.13a1.002 1.002 0 1 1 .12-2l2 .14a1 1 0 0 1 .95 1.06 1 1 0 0 1-1 .93zm-32-.09a1 1 0 1 1-.07-2l2-.12a1 1 0 0 1 .07 2c-.66 0-1.33.07-2 .12zM262 2h-2a1 1 0 1 1 0-2h2a1 1 0 1 1 0 2zm-12 0a1 1 0 1 1 0-2h2a1 1 0 1 1 0 2h-2z" fill="#B7B7ED" fill-rule="nonzero" opacity=".6"/><path d="m4.64 268.54.81-2.61a.52.52 0 0 1 1 0l.81 2.61a.52.52 0 0 0 .34.34l2.61.81a.52.52 0 0 1 0 1l-2.61.81a.52.52 0 0 0-.34.34l-.81 2.61a.52.52 0 0 1-1 0l-.81-2.61a.52.52 0 0 0-.34-.34l-2.61-.81a.52.52 0 0 1 0-1l2.61-.81a.52.52 0 0 0 .34-.34z" fill="#9595DB"/><path d="m97.28 218.82 1.09-3.56a.71.71 0 0 1 1.36 0l1.09 3.56a.73.73 0 0 0 .47.47l3.56 1.09a.71.71 0 0 1 0 1.36l-3.56 1.09a.73.73 0 0 0-.47.47l-1.09 3.55a.71.71 0 0 1-1.36 0l-1.09-3.55a.73.73 0 0 0-.47-.47l-3.55-1.09a.71.71 0 0 1 0-1.36l3.55-1.09a.73.73 0 0 0 .47-.47zm170.16 175.53.67-2.16a.43.43 0 0 1 .82 0l.67 2.16a.43.43 0 0 0 .28.29l2.17.67a.43.43 0 0 1 0 .82l-2.17.67a.43.43 0 0 0-.28.28l-.67 2.17a.43.43 0 0 1-.82 0l-.67-2.17a.43.43 0 0 0-.29-.28l-2.16-.67a.43.43 0 0 1 0-.82l2.16-.67a.42.42 0 0 0 .29-.29z" fill="#FFF"/><path d="m40 391.46 1.83-3a.67.67 0 0 1 1.24.31l.19 3.51a.65.65 0 0 0 .32.54l3 1.83a.67.67 0 0 1-.31 1.24l-3.51.18a.73.73 0 0 0-.54.32l-1.83 3a.67.67 0 0 1-1.24-.31l-.18-3.51a.65.65 0 0 0-.32-.54l-3-1.83a.67.67 0 0 1 .31-1.24l3.52-.18a.68.68 0 0 0 .52-.32zm209.52-7.41-.73-3.65a.71.71 0 0 1 1.18-.65l2.67 2.6a.72.72 0 0 0 .63.19l3.65-.74a.71.71 0 0 1 .64 1.19l-2.56 2.66a.69.69 0 0 0-.19.64l.74 3.64a.71.71 0 0 1-1.19.65l-2.66-2.6a.75.75 0 0 0-.64-.19l-3.64.74a.7.7 0 0 1-.65-1.18l2.6-2.67a.7.7 0 0 0 .15-.63z" fill="#35275E"/><path d="m284.9 490.69-.5-2.69a.52.52 0 0 1 .88-.46l1.92 1.94c.125.12.3.171.47.14l2.68-.5a.52.52 0 0 1 .46.88l-1.94 1.93a.52.52 0 0 0-.14.46l.5 2.69a.52.52 0 0 1-.88.46l-1.93-1.94a.52.52 0 0 0-.46-.14l-2.69.5a.52.52 0 0 1-.46-.88l1.94-1.93a.52.52 0 0 0 .15-.46zM236.44 70.22l.85-2.76a.55.55 0 0 1 1.05 0l.85 2.76a.57.57 0 0 0 .37.37l2.76.85a.55.55 0 0 1 0 1l-2.76.85a.56.56 0 0 0-.37.36l-.85 2.76a.55.55 0 0 1-1.05 0l-.85-2.76a.54.54 0 0 0-.36-.36l-2.76-.85a.55.55 0 0 1 0-1l2.76-.85a.56.56 0 0 0 .36-.37z" fill="#9595DB"/><path d="m287.36 24.09 3.42-1.47a.71.71 0 0 1 .88 1l-2 3.14a.68.68 0 0 0-.05.66l1.47 3.41a.71.71 0 0 1-1 .88l-3.14-2a.73.73 0 0 0-.66 0l-3.41 1.47a.7.7 0 0 1-.88-1L284 27a.73.73 0 0 0 .05-.66l-1.48-3.41a.71.71 0 0 1 1-.88l3.14 2a.68.68 0 0 0 .65.04z" fill="#35275E"/><path d="m87.25 32.73 1-3.37a.67.67 0 0 1 1.28 0l1 3.37a.69.69 0 0 0 .44.44l3.37 1a.67.67 0 0 1 0 1.28l-3.37 1a.68.68 0 0 0-.44.45l-1 3.36a.67.67 0 0 1-1.28 0l-1-3.36a.68.68 0 0 0-.45-.45l-3.36-1a.67.67 0 0 1 0-1.28l3.36-1a.68.68 0 0 0 .45-.44zM61.59 136.11l-1.05-2.69a.55.55 0 0 1 .82-.66l2.38 1.64a.54.54 0 0 0 .51 0l2.69-1a.55.55 0 0 1 .66.82l-1.6 2.39a.54.54 0 0 0 0 .51l1 2.69a.54.54 0 0 1-.82.65l-2.38-1.63a.58.58 0 0 0-.51-.06l-2.69 1a.55.55 0 0 1-.65-.82l1.63-2.38a.58.58 0 0 0 .01-.46z" fill="#9595DB"/><circle fill="#F9F9F9" cx="56.69" cy="405.94" r="1"/><circle fill="#F9F9F9" cx="166.26" cy="415.16" r="1"/><circle fill="#F9F9F9" cx="113.52" cy="208.14" r="1"/><circle fill="#F9F9F9" cx="5.64" cy="217.23" r="1"/><circle fill="#F9F9F9" cx=".84" cy="226.9" r="1"/><circle fill="#F9F9F9" cx="165.37" cy="429.4" r="1"/><circle fill="#F9F9F9" cx="236.84" cy="491.54" r="1"/><circle fill="#F9F9F9" cx="274.96" cy="496.16" r="1"/><circle fill="#35275E" cx="81.5" cy="21.75" r="1"/><circle fill="#35275E" cx="82.97" cy="50.11" r="1"/><circle fill="#35275E" cx="252.15" cy="76.85" r="1"/><circle fill="#35275E" cx="257.77" cy="86.61" r="1"/></g><g transform="translate(245 459)"><circle fill="#B7B7ED" cx="11.77" cy="12.39" r="11.47"/><path d="M20.69 5.19A11.45 11.45 0 0 0 .45 10.67a18.21 18.21 0 0 0 .65 1.74 10.46 10.46 0 0 0 5.48 5.72 7.5 7.5 0 0 0 9.22-3.4c.88-1.6 1.15-3.46 2-5.08a14.29 14.29 0 0 1 3-3.63l.33-.32c-.19-.17-.31-.35-.44-.51z" fill="#6E69E2" opacity=".4"/><path d="M11.49 9.82a3.64 3.64 0 0 1-1.73-4.63 3.27 3.27 0 0 1 4.36-1.6 3.15 3.15 0 0 1 1.77 4.18 3.52 3.52 0 0 1-4.4 2.05z" opacity=".6" fill="#6E69E2"/><path d="M20.23 13.3a1.1 1.1 0 0 1-.32 1.48 1 1 0 0 1-1.39-.42 1.11 1.11 0 0 1 .2-1.5 1.18 1.18 0 0 1 1.51.44z" fill="#D3D3F2"/><path d="M6.87 14.8h-.22a2.66 2.66 0 0 1-1.78-1.09 2.91 2.91 0 0 1-.63-2 2 2 0 0 1 1-1.56 3 3 0 0 1 1.9-.37 3.3 3.3 0 0 1 1.82.76 2 2 0 0 1 .73 1.75 2.83 2.83 0 0 1-1.07 1.84 2.89 2.89 0 0 1-1.75.67zm-.06-4.57a2.56 2.56 0 0 0-1.28.32 1.55 1.55 0 0 0-.79 1.19 2.4 2.4 0 0 0 .52 1.65c.337.484.857.81 1.44.9a2.28 2.28 0 0 0 1.64-.57 2.39 2.39 0 0 0 .89-1.51 1.51 1.51 0 0 0-.56-1.33 2.82 2.82 0 0 0-1.54-.63 1.67 1.67 0 0 0-.32-.02z" opacity=".6" fill="#6E69E2" fill-rule="nonzero"/></g><g transform="translate(185 384)"><circle fill="#0288A3" cx="26.42" cy="26.22" r="26.19"/><path d="m38 40.51-10.35-2.74a11.56 11.56 0 0 0-4.07-.57c-2.23.24-4.1 1.74-6 3a4.23 4.23 0 0 1-2.43 1 4.5 4.5 0 0 1-1.63-.48L8.43 38.5a7 7 0 0 1-2.82-1.81 2.42 2.42 0 0 1-.11-3.09 5.31 5.31 0 0 1 2.44-1 5.53 5.53 0 0 0 3.7-3.7c.25-.86.29-1.78.51-2.65a12.14 12.14 0 0 1 1.2-2.68l2.31-4.25a2.81 2.81 0 0 0 .47-1.54 2.5 2.5 0 0 0-.92-1.47A15.24 15.24 0 0 0 4 12.58l-.21.33a26.18 26.18 0 0 0 .37 27.21c1.65.67 3.31 1.32 5 1.93 3 1.09 6.13 2.17 8.23 4.54 1.37 1.54 2.26 3.57 3.45 5.23a26.29 26.29 0 0 0 20.69-4.25v-1.33c0-1.72 0-3.7-1.36-4.79a5.85 5.85 0 0 0-2.17-.94zM44.42 7.2c-1.4.55-2.86 1-3.66 2.23-.8 1.23-.62 3.11-.23 4.67a37.56 37.56 0 0 0 2.61 7.1c.44.9 1 1.87 2 2.1 1.89.47 3.19-2.07 5.09-2.49a7.09 7.09 0 0 1 2.23 2.64A26.17 26.17 0 0 0 44.42 7.2zM30.38 9a2.73 2.73 0 0 0 .74 2.92 4 4 0 0 0 3.53 1.29 3 3 0 0 0 2.52-2.62 11.52 11.52 0 0 0-.68-3.07c-.22-1 .12-2.38 1.15-2.59a2.34 2.34 0 0 0 3.59.77 5.7 5.7 0 0 0 .56-.64c-.66-.48-1.35-.94-2.06-1.36A26 26 0 0 0 29.07.2a56.86 56.86 0 0 0 1.62 6.81c.134.389.165.806.09 1.21a5.23 5.23 0 0 1-.4.78zm-18.62-.35a1.39 1.39 0 0 0-.06 1.38 2 2 0 0 0 1 .72 57.69 57.69 0 0 0 6 2.2.73.73 0 0 0 .38.05c.33-.09.34-.56.26-.89a10.61 10.61 0 0 0-1.89-4 3.77 3.77 0 0 0-1.48-1.27c-1.54-.65-3.47.47-4.21 1.81z" fill="#7CE0B5"/></g><path d="M79.26 323.93c-.09-.87-.21-1.74-.37-2.6a36.18 36.18 0 0 0-1.27-5c-.11-.33-.22-.66-.34-1-5.85-16.096-22.204-25.867-39.15-23.39a36.43 36.43 0 0 0-6.72 1.65c-1.09.38-2.16.82-3.22 1.3-1.06.48-2.08 1-3.08 1.61A36.09 36.09 0 0 0 8.56 318a35.43 35.43 0 0 0-1.11 5.81 35.8 35.8 0 0 0-.21 3.86 36.18 36.18 0 0 0 .38 5.2c.09.57.18 1.14.29 1.71.23 1.13.5 2.25.83 3.36.17.55.34 1.1.53 1.65a36.76 36.76 0 0 0 2.92 6.31 34.16 34.16 0 0 0 1.91 2.93c.69.95 1.42 1.87 2.21 2.76a35.32 35.32 0 0 0 2.5 2.55c14.619 13.544 37.447 12.68 51-1.93L70 352c.65-.71 1.27-1.46 1.86-2.23.21-.26.41-.53.6-.8a38.86 38.86 0 0 0 1.41-2.07c.12-.19.25-.37.36-.56a36.06 36.06 0 0 0 5.06-15.24c.11-1.16.17-2.32.17-3.49 0-1.17-.07-2.45-.2-3.68z" fill="#FFC194"/><path d="M79.43 329.28v-2.47c0-.54 0-1.07-.07-1.61a2.28 2.28 0 0 1 0-.26v-.22c0-.61-.11-1.22-.2-1.82a1.37 1.37 0 0 0 0-.19 35.66 35.66 0 0 0-.82-4.09l-.06-.24v-.11c-.15-.56-.32-1.12-.5-1.67 0-.12-.07-.23-.11-.34A34.91 34.91 0 0 0 76 312.3a32.17 32.17 0 1 0-38.84 50.95 36.84 36.84 0 0 0 5.34.51 35.79 35.79 0 0 0 5.28-.27h.07a36.69 36.69 0 0 0 5.09-1h.09c.83-.23 1.65-.49 2.46-.79.79-.28 1.56-.6 2.32-.93l.19-.09c.77-.34 1.51-.7 2.25-1.1l.13-.07.11-.06c.68-.37 1.35-.76 2-1.17l.22-.14c.69-.44 1.36-.9 2-1.39h.06l.29-.22c.59-.45 1.18-.92 1.75-1.41l.2-.18c.61-.53 1.19-1.09 1.77-1.66l.29-.3.08-.09c.53-.55 1-1.11 1.55-1.7l.13-.15c.53-.63 1-1.28 1.52-1.95l.35-.49c.48-.68 1-1.38 1.39-2.11.39-.73.72-1.24 1.05-1.86l.13-.26c.06-.11.11-.22.16-.33.23-.44.44-.88.65-1.33l.29-.66c.2-.46.39-.92.56-1.39l.22-.55c.23-.66.46-1.31.65-2v-.1c.19-.62.35-1.25.5-1.88 0-.19.09-.38.13-.57.11-.49.21-1 .29-1.47 0-.21.07-.41.11-.61.08-.527.15-1.057.21-1.59l.06-.43c.07-.69.12-1.38.15-2.08l.18-.1z" fill="#FFD0B0"/><path d="M61.49 320.81a22.81 22.81 0 0 0-11.73 42.36c16.461-3.029 28.713-16.929 29.65-33.64a22.75 22.75 0 0 0-17.92-8.72z" fill="#FFDEC7"/><g fill="#FE977F"><path d="M31.51 299.77a22.91 22.91 0 0 1 11.27 2.86 19 19 0 0 0 9 2.3h19.63a36.36 36.36 0 0 0-4.93-5H51.75a14.09 14.09 0 0 1-6.61-1.71 28 28 0 0 0-13.75-3.45 25.64 25.64 0 0 0-3.69.36 36.08 36.08 0 0 0-12.35 9.74 14.92 14.92 0 0 0 7.24-2.5 16.24 16.24 0 0 1 8.92-2.6zm42.73 46.6.29-.51a14.63 14.63 0 0 0-6.18 2.39 16.25 16.25 0 0 1-8.92 2.59A22.9 22.9 0 0 1 48.16 348a19.05 19.05 0 0 0-9-2.31H12.05a36.9 36.9 0 0 0 3.47 5h23.66a14.1 14.1 0 0 1 6.62 1.71 28.09 28.09 0 0 0 13.2 3.45h.6a22.77 22.77 0 0 0 8.37-1.71 36.1 36.1 0 0 0 6.27-7.77zm-42.08-41.06c-4.51 0-8.16 1.89-8.16 4.22s3.65 4.21 8.16 4.21 8.16-1.88 8.16-4.21-3.65-4.22-8.16-4.22z"/><path d="M58.66 336.85c-4.79 0-8.67 2-8.67 4.48 0 2.48 3.88 4.48 8.67 4.48s8.67-2 8.67-4.48c0-2.48-3.88-4.48-8.67-4.48zm-39.88-10.22h-8a1.5 1.5 0 0 0 0 3h8a1.5 1.5 0 0 0 0-3zm44.33-4.77a1.5 1.5 0 0 0 0 3h16.23c-.08-1.007-.2-2.007-.36-3H63.11zm-25.74 39.36a1.5 1.5 0 0 0-1.5-1.5h-8.34a1.56 1.56 0 0 0-.57.11 36.09 36.09 0 0 0 7.67 2.89h1.24a1.5 1.5 0 0 0 1.5-1.5z"/></g><g fill="#C65846"><path d="M22 305.54a17.19 17.19 0 0 1 9.46-2.77 23.74 23.74 0 0 1 11.76 3 18.09 18.09 0 0 0 8.5 2.18H73.6a34.78 34.78 0 0 0-2.19-3H51.75a15 15 0 0 1-7.08-1.83 27.33 27.33 0 0 0-13.25-3.33 20.27 20.27 0 0 0-11.09 3.29 10.82 10.82 0 0 1-5 1.79c-.79 1-1.54 2-2.24 3.08H14a14.16 14.16 0 0 0 8-2.41z"/><path d="M31.49 296a23.83 23.83 0 0 1 11.76 3 18.08 18.08 0 0 0 8.5 2.19h16.13a35.58 35.58 0 0 0-3.74-3H51.75a15.14 15.14 0 0 1-7.08-1.83A27.73 27.73 0 0 0 33.15 293a36.21 36.21 0 0 0-12.47 6.53 13.29 13.29 0 0 0 1.35-.8 17.27 17.27 0 0 1 9.46-2.73zm-11.16 20.51a20.27 20.27 0 0 0 11.09 3.29H32a27.05 27.05 0 0 0 12.68-3.35 15.14 15.14 0 0 1 7.08-1.83H77c-.39-1-.84-2-1.32-3h-24a18.11 18.11 0 0 0-8.5 2.19 24 24 0 0 1-11.76 3A17.19 17.19 0 0 1 22 314a14.16 14.16 0 0 0-8-2.4h-3c-.49 1-.93 2-1.33 3H14a11.1 11.1 0 0 1 6.33 1.91zm55.61 26.7a14 14 0 0 0-7 2.36 17.13 17.13 0 0 1-9.46 2.77 24 24 0 0 1-11.76-3 18.12 18.12 0 0 0-8.51-2.19H10.75c.48 1 1 2 1.6 3h26.83a15 15 0 0 1 7.09 1.85A27.18 27.18 0 0 0 59 351.35h.57a20.2 20.2 0 0 0 11.08-3.29 10.87 10.87 0 0 1 3.55-1.55l.09-.13a34.46 34.46 0 0 0 1.65-3.17zm-6.18 9.09c-.29.17-.57.35-.85.53a17.13 17.13 0 0 1-9.46 2.77 23.88 23.88 0 0 1-11.76-3 18.12 18.12 0 0 0-8.51-2.19H15.32a35.29 35.29 0 0 0 2.74 3h21.12a15 15 0 0 1 7.09 1.83A27.18 27.18 0 0 0 59 358.61h.57a22.89 22.89 0 0 0 2.86-.25 35.67 35.67 0 0 0 7.33-6.06zm7.18-15.82a11.23 11.23 0 0 1-6.34-1.87 20.2 20.2 0 0 0-11.08-3.29 27.14 27.14 0 0 0-13.25 3.33 15 15 0 0 1-7.09 1.83H8.34c.25 1 .55 2 .89 3h30a18.12 18.12 0 0 0 8.51-2.19 23.72 23.72 0 0 1 11.76-3 17.23 17.23 0 0 1 9.46 2.76 14.12 14.12 0 0 0 8 2.4h.54c.34-.993.64-1.993.9-3l-1.46.03zM15 323.63a1.5 1.5 0 0 0-1.5-1.5H7.67c-.16 1-.26 2-.33 3h6.11a1.5 1.5 0 0 0 1.55-1.5z"/></g><path d="M117.47 109.31a24.42 24.42 0 1 0 18.39 29.23c2.993-13.15-5.24-26.236-18.39-29.23z" fill="#4E4670"/><path d="M127.15 128.08a22.21 22.21 0 0 0-10.89-4.14 16.36 16.36 0 0 0-6.24.1c-2.73.69-5 2.44-7.33 4a95.462 95.462 0 0 1-7.58 4.8 16.72 16.72 0 0 0-5.24 3.88 8.23 8.23 0 0 0-1.34 2.64 24.77 24.77 0 0 0 2.47 5.8 24.41 24.41 0 0 0 42.28-.07 12.37 12.37 0 0 0 .59-3.13 15 15 0 0 0-1-5.8 18.4 18.4 0 0 0-5.72-8.08z" fill="#5F5985"/><path d="M116.27 138.05a18.77 18.77 0 0 0-7.33-2.68c-4.62-.46-9.14 1.8-12.68 4.82a9.5 9.5 0 0 0-3.15 4.18 7.2 7.2 0 0 0 .07 4c7.529 9.192 20.583 11.628 30.92 5.77a11.85 11.85 0 0 0-.67-9.49c-1.58-2.88-4.31-4.96-7.16-6.6z" fill="#716C99"/><g fill="#9491C3"><path d="M122.5 142.65a1 1 0 0 0-1 1v12c.68-.29 1.34-.6 2-.95v-11a1 1 0 0 0-1-1.05zm-30.24-12.44v-11.34a23.2 23.2 0 0 0-2 3.29v8.06a1 1 0 1 0 2-.01zM110 113.1a1 1 0 0 0 2 0v-4.4c-.67 0-1.34 0-2 .08v4.32zm-5.34 5.18a1 1 0 0 0 1-1v-7.73c-.68.18-1.35.4-2 .64v7.09a1 1 0 0 0 1 1zm6.34 5.63a1 1 0 0 0-1 1v9a1 1 0 0 0 2 0v-9a1 1 0 0 0-1-1zm-7 5.09v15.27a1 1 0 0 0 2 0V129a1 1 0 0 0-2 0zm-7.36-14.81v13.91a1 1 0 0 0 2 0v-15.28a.29.29 0 0 0 0-.09c-.7.45-1.36.94-2 1.46zm31.26 8.27a1 1 0 0 0 1-1v-6a23.4 23.4 0 0 0-2-1.71v7.73a1 1 0 0 0 1 .98zm-.01 10.74a1 1 0 0 0-1 1v18.31c.69-.53 1.36-1.1 2-1.7V134.2a1 1 0 0 0-1-1zm5.85-11.3v22.47a24 24 0 0 0 2-5.32v-11.88a25 25 0 0 0-2-5.27z"/><path d="M95.15 135.5a3 3 0 0 0-3.25 4.59 3 3 0 0 0 1.39 1.18.66.66 0 0 0 0 .15v7.28a25.21 25.21 0 0 0 2 2.14v-9.42a3.43 3.43 0 0 0 .84-.36 3 3 0 0 0-.95-5.55l-.03-.01zm.81 3.31a1.55 1.55 0 0 1-.67.95 1.51 1.51 0 0 1-1.15.2 1.47 1.47 0 0 1-1-.68 1.52 1.52 0 0 1 .47-2.1 1.5 1.5 0 0 1 .81-.24 1.86 1.86 0 0 1 .34 0 1.53 1.53 0 0 1 1.24 1.87h-.04zm8.14-12.07a3.21 3.21 0 0 0 .68.07 3 3 0 0 0 1.62-.47 3 3 0 0 0 1-4.19 3 3 0 1 0-3.26 4.59h-.04zm-.81-3.31c.073-.415.32-.78.68-1a1.44 1.44 0 0 1 .8-.24 1.39 1.39 0 0 1 .35 0c.392.092.732.332.95.67.22.344.29.764.19 1.16a1.538 1.538 0 0 1-3-.68l.03.09zm2.39 23.42a3 3 0 0 0-3.26 4.59 3 3 0 0 0 1.68 1.27v3.49c.65.23 1.32.42 2 .59v-4.14a3 3 0 0 0-.42-5.8zm.81 3.31a1.52 1.52 0 0 1-2.78.47 1.51 1.51 0 0 1 .48-2.1 1.47 1.47 0 0 1 .81-.24 2 2 0 0 1 .34 0 1.54 1.54 0 0 1 1.15 1.87zm10.85-37.34v-3.54c-.67-.15-1.33-.26-2-.36v3.93a3.2 3.2 0 0 0-.56.27 3 3 0 0 0 .56 5.42v18.26a1.16 1.16 0 0 0 0 .18 3 3 0 0 0 0 5.92.88.88 0 0 0-.06.28v10a.93.93 0 0 0 0 .29 3 3 0 0 0-2.08 2.23 3 3 0 0 0 .14 1.79c.56 0 1.11-.08 1.66-.15a1.52 1.52 0 0 1-.31-1.31 1.55 1.55 0 0 1 .67-.95 1.58 1.58 0 0 1 .81-.23 1.32 1.32 0 0 1 .34 0 1.52 1.52 0 0 1 1.15 1.82 1.11 1.11 0 0 1-.07.16c.55-.13 1.09-.28 1.63-.45a3 3 0 0 0-2.06-2.91 1 1 0 0 0 .07-.33v-10a1 1 0 0 0-.12-.45 3 3 0 0 0 1.43-4.43 3.08 3.08 0 0 0-1.38-1.17.88.88 0 0 0 .07-.33V118.6a3.08 3.08 0 0 0 .69-.32 3 3 0 0 0-.69-5.46h.11zm0 26.29c.218.341.29.755.2 1.15a1.53 1.53 0 1 1-1.49-1.86 1.32 1.32 0 0 1 .34 0c.402.099.748.355.96.71h-.01zm.54-23.07a1.538 1.538 0 0 1-3-.68c.08-.41.321-.77.67-1a1.58 1.58 0 0 1 .81-.23 1.27 1.27 0 0 1 .34 0 1.52 1.52 0 0 1 1.19 1.87l-.01.04zm10.56 8.57a3.046 3.046 0 0 0-1.35 5.94 3.14 3.14 0 0 0 .68.07 3.019 3.019 0 0 0 .67-6v-.01zm.82 3.31a1.53 1.53 0 1 1-1.49-1.87 2.09 2.09 0 0 1 .34 0 1.54 1.54 0 0 1 1.15 1.87z" fill-rule="nonzero"/></g><g transform="translate(252 40)"><circle fill="#FE7176" cx="15.31" cy="16.05" r="15.16"/><path d="M28.47 8.54a15.11 15.11 0 0 0-3.93-4.49l-14.25 6.44 18.18-1.95zM.31 14a15.61 15.61 0 0 0-.16 2.06 11.4 11.4 0 0 0 .34 3.19l18.28-4.31L.31 14zM28 24.36a15.17 15.17 0 0 0 2.37-6.51l-15.59 7.77L28 24.36z" fill="#FFC194"/></g><g transform="translate(95)"><circle fill="#FEBE5C" cx="53.14" cy="26.04" r="26.04"/><path d="M69.7 6c-9.82-8.14-24.095-7.953-33.7.44a12 12 0 0 0 2.09 5.21 22.75 22.75 0 0 0 5.43 4.66 32 32 0 0 1 7.87 7.16c2.42 3.35 3.66 7.44 6.17 10.72a16.9 16.9 0 0 0 17.28 6.24C82.196 29.33 79.977 14.467 69.7 6z" fill="#FCCE7C"/><path d="M69.7 6a26 26 0 0 0-27-3.75l.13.25c1.94 3.84 5.34 6.64 8.46 9.51 2.6 2.39 5.15 5 6.61 8.19 1.46 3.19 1.75 7 2.67 10.52 1.51 5.77 7.27 8.6 13.82 10.45C82.312 30.036 80.263 14.67 69.7 6z" fill="#FBD991"/><path d="M89.44 28.31c-3.1-1.37-6.59-2.79-10.35-4.21.06.85.08 1.71.06 2.57 3 1.14 5.8 2.28 8.35 3.38 11.61 5.05 13.31 7.44 13.55 7.93-.47.29-3.2 1.36-15.69-.72-2.51-.41-5.21-.93-8.05-1.52-8-1.68-17.23-4-26.68-6.82-8.23-2.43-16.12-5.05-23.08-7.64-3.85-1.43-7.42-2.86-10.6-4.24C5.34 12 3.64 9.61 3.4 9.11c.47-.28 3.2-1.36 15.68.72 3.66.61 7.71 1.42 12 2.39.45-.72 1-1.42 1.48-2.11-5.15-1.17-9.94-2.12-14.18-2.8-16.24-2.58-17 0-17.33 1.11C.72 9.53 0 12.12 15 18.79c3.6 1.59 7.72 3.24 12.2 4.9 6.88 2.55 14.63 5.11 22.75 7.51 9.33 2.76 18.37 5.07 26.33 6.76 3.48.73 6.75 1.35 9.75 1.82a73.75 73.75 0 0 0 11.16 1.11c5.52 0 6-1.46 6.18-2.22.34-1.11 1.11-3.67-13.93-10.36z" fill="#F9EAB0"/></g><g transform="translate(132 105)"><circle fill="#FFF" cx="130.09" cy="130.53" r="129.01"/><path d="M248.55 120.06c-1.73-65.05-17.44-70.64-44.87-94C148.338-14.427 70.88-3.861 28.404 49.969-14.073 103.799-6.336 181.59 45.91 226a126.89 126.89 0 0 0 75.17 24.52c70.37-.01 129.35-60.11 127.47-130.46z" fill="#FFCB64"/><path d="M130.09 1.52C66.43 1.506 12.277 47.934 2.57 110.85A185.91 185.91 0 0 0 10 130.66c12.4 27.86 33.11 53.54 61.61 64.36 39.3 14.92 83.586-1.398 103.81-38.25 9.85-17.93 12.9-38.9 22.24-57.1 8.06-15.7 20.47-28.69 33.22-40.9l3.85-3.67A128.85 128.85 0 0 0 130.09 1.52z" fill="#FFB852"/><path d="M78.58 44.83A4.52 4.52 0 0 0 84.84 46l59.42-40.77a4.5 4.5 0 0 0 1.83-2.72 126.8 126.8 0 0 0-12.41-.94l-53.93 37a4.51 4.51 0 0 0-1.17 6.26zM65.89 48.4 39.42 66.57a4.5 4.5 0 1 0 5.09 7.42L71 55.83a4.503 4.503 0 0 0-5.09-7.43h-.02zM32.26 76.67A4.5 4.5 0 0 0 26 75.5L8.41 87.57a127.65 127.65 0 0 0-4 13.66l26.67-18.3a4.5 4.5 0 0 0 1.18-6.26zM88 62.55 17.33 111a4.5 4.5 0 1 0 5.09 7.42L93.07 70a4.5 4.5 0 0 0-5.09-7.42l.02-.03zM223 99a4.5 4.5 0 0 0-6.26-1.16l-70.64 48.42a4.5 4.5 0 1 0 5.09 7.42l70.65-48.47A4.51 4.51 0 0 0 223 99zM98.06 248.41l63-43.22a4.5 4.5 0 1 0-5.09-7.42l-69.79 47.89c3.88 1.107 7.84 2.023 11.88 2.75zm66.58-207.3L109.46 79a4.5 4.5 0 1 0 5.09 7.42l55.18-37.86a4.5 4.5 0 0 0-5.09-7.42v-.03zm-71.5 48.8-33.43 22.94a4.5 4.5 0 0 0 5.09 7.42l33.43-22.94a4.5 4.5 0 1 0-5.09-7.42zm-41.35 33.56a4.49 4.49 0 0 0-6.25-1.16L2.81 151.62c.533 3.24 1.183 6.433 1.95 9.58l45.87-31.47a4.5 4.5 0 0 0 1.16-6.26zM170 66.57 146.1 83a4.5 4.5 0 1 0 5.09 7.42L175.06 74a4.5 4.5 0 1 0-5.09-7.42l.03-.01zM211.73 69 49.14 180.58a4.5 4.5 0 0 0 2.55 8.21 4.53 4.53 0 0 0 2.55-.79L216.82 76.44a4.5 4.5 0 1 0-5.09-7.42V69zM38.28 192.64a4.51 4.51 0 0 0-6.26-1.17l-10.28 7.06c1.64 2.51 3.37 5 5.19 7.35l10.18-7a4.5 4.5 0 0 0 1.17-6.24zM192 143l-95.59 65.59a4.5 4.5 0 1 0 5.09 7.42l95.59-65.58A4.503 4.503 0 0 0 192 143zM79.63 220.28 59.05 234.4a125.403 125.403 0 0 0 9.16 4.64l16.51-11.34a4.5 4.5 0 1 0-5.09-7.42zM142 248.71 175.18 226a4.5 4.5 0 0 0-5.09-7.42l-46.55 31.94a122.94 122.94 0 0 0 18.46-1.81z" fill="#FF9433"/><path d="M130.09 260.54c-71.797 0-130-58.203-130-130s58.203-130 130-130 130 58.203 130 130c-.083 71.763-58.237 129.917-130 130zm0-258c-70.692 0-128 57.308-128 128s57.308 128 128 128 128-57.308 128-128c-.077-70.664-57.336-127.932-128-128.02v.02z" fill="#090419" fill-rule="nonzero"/></g></g></svg>