<svg class="css-13o7eu2" width="51" height="54" xmlns="http://www.w3.org/2000/svg"><path d="M.342 22.866c0 3.05 1.976 7.232 5.063 8.256v.12c-2.294 1.001-2.928 6.1.122 7.932v.12C2.197 40.38 0 42.465 0 46.07 0 52.276 5.955 54 11.165 54c6.345 0 11.067-2.254 11.067-9.16 0-8.498-12.324-5.365-12.324-9.981 0-1.627.878-2.254 2.404-2.567 5.064-.929 8.236-4.822 8.236-9.909 0-.88-.183-1.711-.488-2.53.817-.182 1.61-.399 2.404-.664v-6.087c-2.099.82-4.356 1.423-6.65 1.423C9.249 10.788.342 14.68.342 22.865zm10.7 19.743c2.075 0 5.028.362 5.028 3.014 0 2.627-2.38 3.17-4.6 3.17-2.111 0-5.284-.326-5.284-3.038.013-2.688 2.697-3.146 4.857-3.146zM10.653 27c-2.684 0-3.819-1.567-3.819-4.074 0-5.943 7.443-5.882 7.443-.06 0 2.447-.976 4.134-3.624 4.134zm40.108 5.967v5.906c-1.623.88-3.722 1.181-5.552 1.181-6.528 0-7.297-5.087-7.297-10.33v-10.57h.061v-.121c-.854 0-.89-.193-2.928.12v-5.725h2.928c0-2.688.037-3.737-.183-4.966h6.919c-.244 1.663-.183 3.314-.183 4.966h6.223v5.725s-2.355-.12-6.223-.12v10.98c0 1.784.402 3.954 2.66 3.954 1.196 0 2.599-.338 3.575-1zM32.945 4.424c0 2.254-1.77 4.363-4.124 4.363-2.416 0-4.21-2.073-4.21-4.363 0-2.327 1.77-4.424 4.21-4.424 2.416 0 4.124 2.17 4.124 4.424zm-.756 8.98c-.22 1.76-.196 24.083 0 26.252h-6.772c.195-2.181.22-24.468 0-26.252h6.772z"/></svg>