<svg class="css-13o7eu2" width="57" height="54" xmlns="http://www.w3.org/2000/svg"><path d="M18.847 43.48c0 .224-.261.403-.59.403-.376.033-.637-.145-.637-.402 0-.224.261-.402.59-.402.342-.034.637.145.637.402zm-3.533-.502c-.08.224.148.48.488.547.296.112.637 0 .705-.223.068-.223-.148-.48-.489-.58-.295-.079-.625.033-.704.256zm5.021-.19c-.33.079-.556.29-.522.548.034.223.33.368.67.29.33-.078.557-.29.522-.514-.034-.212-.34-.357-.67-.324zM27.81 0C12.053 0 0 11.758 0 27.245c0 12.383 7.93 22.98 19.256 26.71 1.454.256 1.965-.626 1.965-1.352 0-.692-.034-4.51-.034-6.856 0 0-7.952 1.675-9.622-3.327 0 0-1.295-3.25-3.158-4.087 0 0-2.602-1.753.181-1.72 0 0 2.83.224 4.386 2.881 2.488 4.31 6.657 3.071 8.281 2.334.262-1.786 1-3.026 1.818-3.763-6.35-.692-12.758-1.597-12.758-12.338 0-3.071.864-4.612 2.681-6.577-.295-.726-1.26-3.718.296-7.582 2.374-.726 7.838 3.015 7.838 3.015a27.127 27.127 0 0 1 7.135-.95c2.42 0 4.862.325 7.134.95 0 0 5.465-3.752 7.839-3.015 1.556 3.875.59 6.856.295 7.582 1.818 1.976 2.931 3.517 2.931 6.577 0 10.775-6.691 11.635-13.042 12.338 1.046.882 1.932 2.557 1.932 5.181 0 3.763-.034 8.42-.034 9.335 0 .726.522 1.608 1.965 1.351 11.36-3.707 19.063-14.304 19.063-26.687C56.348 11.758 43.568 0 27.81 0zM11.042 38.512c-.147.111-.113.368.08.58.182.18.443.257.59.112.148-.112.114-.368-.079-.58-.182-.18-.443-.257-.59-.112zm-1.227-.905c-.08.146.035.324.262.436.181.112.409.078.488-.078.08-.145-.034-.324-.261-.436-.227-.067-.409-.033-.489.078zm3.681 3.975c-.182.146-.113.48.148.693.261.257.59.29.738.111.148-.145.08-.48-.147-.692-.25-.257-.591-.29-.739-.112zm-1.295-1.64c-.182.11-.182.401 0 .658s.489.368.636.257c.182-.145.182-.436 0-.693-.159-.256-.454-.368-.636-.223z"/></svg>