<svg width="10" height="10" xmlns="http://www.w3.org/2000/svg"><path d="M3.442 8.182c0 .041-.046.074-.105.074-.066.006-.113-.027-.113-.074 0-.042.047-.075.105-.075.06-.006.113.027.113.075zm-1.048-.029c-.014.042.027.09.087.102.053.02.113 0 .125-.042.012-.041-.026-.089-.087-.107-.052-.015-.11.006-.125.047zm.926-.05c-.058.014-.099.054-.093.101.007.041.059.068.12.054.058-.015.098-.054.092-.095-.006-.04-.06-.066-.119-.06zM4.935 0C2.14 0 0 2.177 0 5.045 0 7.34 1.407 9.301 3.417 9.992c.258.047.35-.116.35-.25 0-.129-.007-.836-.007-1.27 0 0-1.411.31-1.708-.616 0 0-.23-.602-.56-.757 0 0-.462-.325.032-.319 0 0 .502.042.778.534.442.798 1.182.568 1.47.432.047-.33.178-.56.323-.697-1.127-.128-2.264-.296-2.264-2.285 0-.568.153-.854.475-1.218-.052-.134-.223-.688.053-1.404.421-.134 1.391.559 1.391.559a4.626 4.626 0 0 1 2.532 0s.97-.695 1.391-.559c.277.718.105 1.27.053 1.404.322.366.52.652.52 1.218 0 1.996-1.188 2.155-2.315 2.285.186.163.343.474.343.96 0 .696-.006 1.559-.006 1.728 0 .135.093.298.349.25C8.633 9.301 10 7.34 10 5.045 10 2.177 7.732 0 4.935 0zM1.607 7.209c-.026.02-.02.068.014.107.033.033.079.048.105.02.026-.02.02-.067-.014-.107-.032-.033-.079-.047-.105-.02zm-.007.028c-.014.027.006.06.047.082.032.02.072.014.086-.015.014-.027-.006-.06-.046-.082-.04-.012-.073-.006-.087.015zm.823.87c-.032.027-.02.09.027.129.046.047.105.053.13.02.027-.027.015-.089-.025-.128-.045-.048-.105-.054-.132-.02zm.02-.917c-.032.02-.032.074 0 .122.033.047.087.068.113.047.033-.026.033-.08 0-.128-.028-.047-.08-.068-.112-.041z" fill="#190D33"/></svg>