<svg class="css-13o7eu2" width="47" height="54" xmlns="http://www.w3.org/2000/svg"><g fill="none" fill-rule="evenodd"><path fill="#E44D26" d="M4.277 48.602 0 0h47l-4.282 48.594L23.471 54z"/><path fill="#F16529" d="m23.5 49.709 15.617-4.357L42.79 3.934H23.5z"/><path fill="#EBEBEB" d="M23.5 21.981h-7.774l-.537-6.055H23.5v-5.913H8.769l.14 1.587 1.444 16.294H23.5zm0 15.378-.026.007-6.59-1.81-.421-4.801h-5.94l.828 9.451 12.122 3.423.027-.008z"/><path fill="#FFF" d="M23.5 21.815v5.995h7.246l-.683 7.776-6.563 1.805v6.238l12.064-3.406.089-1.013 1.383-15.785.143-1.61h-1.586zm0-11.802v6.08h14.205l.118-1.367.268-3.082.14-1.63z"/></g></svg>