<svg class="css-13o7eu2" width="55" height="54" xmlns="http://www.w3.org/2000/svg"><g fill="none" fill-rule="evenodd"><path fill="#F7DF1E" d="M.86 0h54v54h-54z"/><path d="M37.382 42.532c1.1 1.798 2.532 3.12 5.064 3.12 2.127 0 3.485-1.064 3.485-2.534 0-1.761-1.396-2.385-3.737-3.41l-1.283-.551c-3.704-1.58-6.165-3.558-6.165-7.74 0-3.853 2.933-6.785 7.518-6.785 3.263 0 5.61 1.136 7.3 4.112l-3.997 2.569c-.88-1.58-1.83-2.201-3.303-2.201-1.504 0-2.457.954-2.457 2.2 0 1.542.954 2.166 3.156 3.12l1.284.55c4.361 1.872 6.824 3.78 6.824 8.07 0 4.625-3.63 7.159-8.506 7.159-4.768 0-7.847-2.274-9.354-5.254l4.171-2.425zm-18.133.445c.806 1.432 1.54 2.643 3.303 2.643 1.687 0 2.75-.66 2.75-3.228V24.925h5.134V42.46c0 5.32-3.116 7.74-7.665 7.74-4.11 0-6.49-2.128-7.7-4.692l4.178-2.532z" fill="#000" fill-rule="nonzero"/></g></svg>