<svg class="css-13o7eu2" width="25" height="54" xmlns="http://www.w3.org/2000/svg"><g fill="none" fill-rule="evenodd"><path d="M23.033 17.622c.71 2.055 1.222 4.153 1.39 6.327.21 2.698.114 5.377-.455 8.03-.015.074-.048.142-.073.213-.178 0-.36-.022-.534.005-1.474.232-2.946.472-4.418.71-1.522.247-3.046.484-4.565.747-.538.093-1.204-.018-1.422.726-.006.02-.068.024-.104.036l.074-4.45-.075-10.734.71-.121c1.159-.19 2.319-.383 3.48-.567 1.384-.22 2.77-.434 4.156-.649.611-.095 1.224-.182 1.836-.273z" fill="#439934"/><path d="M11.388 47.385c-.748-.644-1.522-1.258-2.239-1.935-3.858-3.639-6.68-7.922-8.07-13.086a21.176 21.176 0 0 1-.72-4.334C.3 27.002.218 25.965.29 24.942c.194-2.72.587-5.413 1.384-8.032l.044-.061c.078.103.19.194.229.31.778 2.293 1.551 4.588 2.32 6.884 2.416 7.215 4.828 14.431 7.248 21.644.048.14.17.256.258.383l-.385 1.315z" fill="#45A538"/><path d="M23.033 17.622c-.612.09-1.225.178-1.836.272-1.386.215-2.772.429-4.157.649-1.16.184-2.32.377-3.48.567l-.71.122-.005-.463c-.023-.38-.063-.76-.068-1.14-.03-2.425-.05-4.85-.08-7.274a557.303 557.303 0 0 0-.077-4.553c-.019-.942-.04-1.886-.082-2.827-.023-.506-.104-1.01-.137-1.515-.02-.291.007-.584.012-.876.362.7.716 1.406 1.087 2.102.588 1.1 1.524 1.91 2.366 2.793 3.33 3.493 5.694 7.555 7.167 12.143z" fill="#46A037"/><path d="M12.852 34.415c.036-.011.098-.015.104-.035.217-.745.883-.634 1.422-.726 1.519-.263 3.043-.5 4.564-.747 1.473-.239 2.945-.479 4.418-.71.175-.028.357-.005.535-.005-.275.982-.492 1.986-.841 2.942a32.824 32.824 0 0 1-1.386 3.179 21.752 21.752 0 0 1-2.812 4.32c-.85 1.022-1.796 1.967-2.745 2.9-.525.515-1.143.935-1.719 1.398l-.149-.101-.537-.46-.556-1.218a18.326 18.326 0 0 1-.617-4.355l.01-.248.076-1.074c.025-.367.059-.733.074-1.1.057-1.32.107-2.64.159-3.96z" fill="#409433"/><path d="M12.852 34.415c-.052 1.32-.102 2.64-.158 3.96-.016.368-.05.734-.074 1.1l-.339.128c-.752-2.214-1.504-4.404-2.24-6.6-1.218-3.634-2.42-7.273-3.636-10.908-.981-2.933-1.97-5.864-2.965-8.793-.047-.138-.18-.245-.273-.366l2.167-3.984c.074.129.172.25.22.389 1.002 2.967 2.002 5.934 2.995 8.904 1.29 3.864 2.573 7.732 3.863 11.596.051.155.136.297.217.47l.297-.345-.074 4.45z" fill="#4FAA41"/><path d="M3.167 12.937c.093.12.226.228.273.365.995 2.93 1.984 5.86 2.966 8.794 1.215 3.634 2.418 7.273 3.635 10.907.736 2.196 1.488 4.387 2.24 6.6l.34-.127-.077 1.074-.068.247c-.118 1.176-.217 2.354-.36 3.527-.073.588-.226 1.165-.342 1.747-.088-.127-.21-.243-.258-.383-2.42-7.214-4.833-14.43-7.249-21.645-.769-2.296-1.541-4.59-2.32-6.883-.04-.116-.15-.208-.228-.31l1.448-3.913z" fill="#4AA73C"/><path d="m12.925 29.966-.296.346c-.081-.173-.166-.316-.217-.47-1.29-3.865-2.573-7.732-3.864-11.596-.992-2.97-1.993-5.938-2.995-8.905-.047-.139-.145-.26-.22-.389l2.68-3.525c.085.112.205.213.249.34.744 2.178 1.481 4.359 2.214 6.541.685 2.038 1.36 4.079 2.052 6.114.047.136.208.233.316.348l.006.462.075 10.734z" fill="#57AE47"/><path d="M12.845 18.769c-.108-.115-.27-.212-.316-.348-.692-2.035-1.367-4.076-2.052-6.114-.733-2.182-1.47-4.362-2.214-6.541-.044-.127-.164-.227-.249-.34.872-.854 1.716-1.738 2.623-2.552.806-.723 1.454-1.498 1.483-2.641.002-.048.026-.095.065-.228l.23.578c-.007.293-.033.586-.014.876.034.506.115 1.01.138 1.515.043.942.063 1.885.082 2.828.03 1.517.058 3.035.077 4.552.03 2.425.05 4.85.08 7.274.004.381.043.76.067 1.141z" fill="#60B24F"/><path d="M11.773 46.07c.116-.582.27-1.16.342-1.747.143-1.172.242-2.35.36-3.526l.03-.005.028.005c.034 1.476.234 2.928.617 4.355-.078.102-.188.194-.229.31-.322.907-.625 1.822-.948 2.729-.045.124-.168.22-.255.33l-.33-1.136.385-1.315z" fill="#A9AA88"/><path d="M11.719 48.52c.087-.108.21-.205.254-.329.324-.907.627-1.82.948-2.729.042-.116.151-.207.23-.31l.555 1.219c-.11.156-.26.296-.322.47l-1.064 3.124c-.044.125-.193.214-.293.32l-.308-1.764z" fill="#B6B598"/><path d="M12.027 50.284c.1-.105.25-.194.293-.32l1.064-3.124c.06-.173.212-.314.322-.47l.538.46c-.26.256-.404.553-.317.928l-.164.534c-.074.092-.182.172-.218.277-.372 1.063-.726 2.133-1.1 3.196-.048.135-.179.241-.272.36l-.146-1.84z" fill="#C2C1A7"/><path d="M12.173 52.125c.093-.12.224-.225.272-.36.374-1.063.729-2.132 1.1-3.196.037-.105.144-.185.219-.277l-.225 2.455c-.06.07-.148.13-.177.21-.254.715-.494 1.435-.75 2.15-.052.147-.153.277-.232.415-.07-.092-.195-.18-.2-.276-.023-.372-.008-.747-.007-1.121z" fill="#CECDB7"/><path d="M12.38 53.522c.079-.139.18-.269.232-.416.256-.714.495-1.433.75-2.148.029-.081.116-.141.176-.211l.005 1.61-.539 1.384-.624-.22z" fill="#DBDAC7"/><path fill="#EBE9DC" d="m13.004 53.741.54-1.383.11 1.636-.65-.253z"/><path d="M13.927 47.758c-.087-.375.057-.672.317-.928l.15.102-.467.826z" fill="#CECDB7"/><path fill="#4FAA41" d="m12.533 40.797-.029-.004-.03.004.07-.247-.01.247z"/></g></svg>