    <svg
      preserveAspectRatio="xMaxYMid slice"
      x="150"
      y="0"
      width="100%"
      viewBox="0 0 532 556"
      xmlns="http://www.w3.org/2000/svg"
    >
      <g fill="none" fillRule="evenodd">
        <path
          d="M251.407461 448c-2.852309 0-5.752156 0-8.620311-.174867-.210192-.008266-.408479-.100046-.551157-.25511-.142678-.155064-.218034-.360683-.209459-.571535.033186-.431541.392564-.764339.824-.763057 2.852309.127176 5.73631.174867 8.556927.174867h1.045846c.43758 0 .792308.355867.792308.794851S252.890887 448 252.453307 448h-1.045846zm25.052779-1.589702c-.437579.026339-.813592-.308175-.839846-.747159-.026255-.438984.30719-.816203.744769-.842542 3.169232-.381529 6.338464-.858439 9.507696-1.414835.4316-.06764.838659.221032.919078.651778.067423.432984-.220325.84135-.649693.922027-3.169232.540498-6.338464 1.033306-9.507696 1.430731h-.174308zm-57.584946-1.0651h-.126769c-3.169232-.508704-6.338464-1.112791-9.507696-1.780466-.423724-.0953-.696635-.50949-.618001-.937924.102249-.427357.519954-.699736.95077-.619983 3.169232.667674 6.338464 1.271761 9.507696 1.780466.43758.035118.76393.419454.728923.858438-.035006.438984-.418113.766382-.855692.731263l-.079231-.031794zm90.529113-5.929587c-.437579.065847-.845517-.236639-.911154-.675623-.065637-.438984.235882-.848231.673462-.914079 3.058309-.922027 6.116618-1.939436 9.111542-3.020433.407247-.134834.84751.079873.993379.484449.145868.404577-.055614.85215-.45461 1.009871-3.026616 1.080997-6.100771 2.114303-9.190773 3.052227l-.221846.063588zm-123.188049-2.320964c-.083803.015544-.169736.015544-.253539 0-3.058309-1.065101-6.100771-2.209686-9.064003-3.417859-.406949-.166814-.60205-.633-.43577-1.041255.166281-.408255.630975-.603981 1.037924-.437168 2.931539 1.192277 5.94231 2.336862 8.968926 3.386065.43758.070237.735552.483043.665539.922027-.070013.438984-.481498.737912-.919077.667675v-.079485zm154.468369-10.301267c-.360644-.005345-.672178-.254379-.757901-.605852-.085724-.351474.075998-.716676.39344-.888468 2.567078-1.335349 5.134156-2.734287 7.637849-4.180915l.760616-.461014c.381413-.21856.867-.091478 1.093385.286146.217861.382638.091186.869784-.285231 1.096895l-.776462.445116c-2.519539 1.462526-5.102464 2.87736-7.701234 4.228607-.11256.057755-.238159.085147-.364462.079485zm-185.146535-3.560932c-.134009-.004865-.264705-.043107-.380308-.111279l-1.030001-.58819c-2.424462-1.414834-4.864771-2.909154-7.241695-4.482959-.318606-.257461-.389429-.715941-.163443-1.058069.225986-.342128.674461-.45539 1.034982-.261383 2.345232 1.589702 4.753848 3.03633 7.162464 4.419371l1.014155.588189c.372949.221132.505752.697953.301077 1.080997-.139365.255529-.406887.414118-.697231.413323zm213.558701-14.434491c-.341034 0-.643805-.218926-.75165-.543497-.107844-.324571.003438-.681958.276265-.887235 2.567078-1.939436 5.102463-3.94246 7.542772-5.961381.22079-.181743.521457-.231512.788743-.130559.267285.100952.460582.337288.507077.619983.046495.282695-.060875.568801-.281666.750543-2.456154 2.018921-5.023232 4.037842-7.606157 5.993176-.135402.106484-.303376.162655-.475384.15897zm-240.750712-5.357295c-.194837.004009-.383161-.070418-.522923-.206661-2.361078-2.114303-4.753849-4.37168-7.035696-6.676747-.301982-.309073-.301982-.803719 0-1.112791.148769-.150476.35128-.235116.562539-.235116.211259 0 .41377.08464.562539.235116 2.281847 2.273273 4.627079 4.498855 6.956464 6.613159.153196.144239.240099.345623.240099.556395 0 .210772-.086903.412157-.240099.556396-.133281.154063-.320505.250822-.522923.270249zm265.946106-17.025705c-.201578-.001212-.394785-.081024-.538769-.222558-.149994-.149247-.234363-.352407-.234363-.564344 0-.211937.084369-.415098.234363-.564344 2.202616-2.320965 4.37354-4.769105 6.433541-7.121864.284427-.333628.784594-.372773 1.117154-.087433.332561.285339.371581.787111.087154 1.120739-2.091693 2.432244-4.278463 4.769105-6.496926 7.185452-.154907.167726-.374311.260403-.602154.254352zm-288.938885-7.710053c-.242766.006421-.473407-.106303-.618-.302043-1.964924-2.495832-3.914001-5.102943-5.7996945-7.757745-.1947936-.228218-.2446676-.547122-.1289017-.824223.1157659-.2771.3773846-.465033.6761661-.485722.2987815-.020689.5836571.129403.7362741.387918 1.885694 2.623008 3.818925 5.214222 5.752157 7.694157.26287.350401.207234.845756-.12677 1.128688-.141466.106512-.31439.162473-.491231.15897zm309.887509-18.75848c-.151437-.002912-.299271-.046855-.427846-.127176-.367023-.23743-.473334-.72803-.237693-1.096894 1.69554-2.607111 3.327694-5.27781 4.864772-7.948508l.158461-.286147c.21879-.381916.704768-.513586 1.085462-.294094.380694.219492.511944.707029.293154 1.088945l-.174308.286146c-1.584616 2.670699-3.169232 5.357295-4.896463 7.948509-.124378.256676-.381138.422266-.665539.429219zM86.5123179 350.69436c-.2813573-.001703-.5407088-.152973-.6813849-.397425l-.396154-.683572c-1.489539-2.575316-2.9156935-5.198324-4.2626171-7.821332-.1969862-.395421-.0419164-.876266.3486156-1.080997.389541-.196268.8639519-.039991 1.0616927.349734 1.3310774 2.591214 2.7572319 5.214222 4.2150786 7.757744l.396154.683572c.2163652.377851.0891405.86002-.2852309 1.080997-.1182864.075332-.256073.114036-.396154.111279zm344.1785991-20.745606c-.094477.015155-.190754.015155-.285231 0-.40704-.162541-.610862-.62085-.459538-1.033307 1.172616-2.956845 2.266001-6.009072 3.280155-9.045402.061537-.202777.202788-.37164.391168-.467632.18838-.095992.407619-.110823.60714-.041073.409152.142947.627979.589086.491231 1.001512-1.014154 3.084022-2.123385 6.152146-3.280155 9.124888-.136664.28689-.427879.467152-.74477.461014zm-358.2975278-9.903842c-.3393111.002445-.6409049-.216429-.7447695-.540498-1.0616928-3.036331-2.0600009-6.136249-2.963232-9.236167-.113438-.420384.1244518-.855575.5387694-.985615.4200765-.122916.8599397.119074.982462.540498.9032311 3.068125 1.885693 6.152146 2.9315396 9.156682.1485879.412636-.0641876.868014-.4753848 1.017409l-.2693847.047691zm367.6309168-22.54197h-.158462c-.427905-.080445-.710952-.49218-.633846-.922027.618-3.179403 1.172616-6.358806 1.584616-9.53821.027125-.21078.138923-.40129.309474-.527362.170551-.126073.385045-.176761.593757-.140312.208155.031362.395316.14453.520179.31453.124862.170001.177163.382858.14536.5916-.475385 3.179403-1.030001 6.358806-1.584616 9.53821-.050117.366591-.345759.650001-.713078.683571h-.063384zM64.1533859 287.281161c-.3865114-.002762-.7146283-.284907-.7764619-.667675-.4912309-3.179403-.9190773-6.358807-1.2676928-9.617695-.0463691-.43408.2649153-.824434.6972311-.874336.211216-.026734.4241093.034707.5888774.16995.1647681.135243.266957.332424.2826614.545416.3486155 3.179403.7764618 6.358806 1.2676928 9.53821.0363316.209381-.0141939.424564-.1398632.595662-.1256694.171099-.3155691.283255-.5256755.310468h-.1267693zm379.8324601-23.273233c-.433857-.025548-.769884-.390746-.760616-.826645.126769-3.179403.190154-6.358806.190154-9.633592v-.238455c0-.438984.354728-.794851.792308-.794851.43404.008457.783878.359418.792308.794851v.238455c0 3.179403 0 6.50188-.190154 9.69718-.008239.210866-.099725.40979-.254293.552926-.154568.143136-.359529.218734-.569707.210131zM61.792308 253.595382c-.4375796 0-.792308-.355867-.792308-.794851 0-3.179403.095077-6.50188.2535386-9.69718-.0017614-.215849.0896153-.421914.2505995-.565132.1609842-.143218.3758428-.209591.589247-.182028.2088841.008157.405666.100465.5458371.256045.1401712.155581.2118891.36129.1989324.5706-.1584616 3.179403-.2376924 6.358807-.2535386 9.53821.0224641.224204-.0509844.447437-.202075.61417-.1510907.166733-.3656234.261296-.590233.260166zm381.258614-23.670658c-.41106-.006104-.752048-.32082-.792308-.731263-.301077-3.179403-.681385-6.358806-1.109231-9.53821-.061261-.438984.243805-.844672.681385-.90613.43758-.061457.84197.244588.903231.683572.443693 3.179403.808154 6.358807 1.125077 9.633592.036736.433763-.281165.816469-.713077.858439h-.095077zm-378.4538436-9.983326h-.1267693c-.2084788-.034946-.3943962-.152013-.516406-.325166-.1220097-.173153-.1699958-.388036-.1332866-.596861.5546156-3.179404 1.188462-6.358807 1.9015392-9.53821.0413478-.209335.1664938-.392484.3462051-.506666.1797114-.114183.3982489-.149398.6045645-.097421.4235952.102155.6855078.528241.586308.953821-.6972311 3.099918-1.3310775 6.279322-1.8698469 9.442828-.0688429.385237-.4021842.666142-.792308.667675zm372.7492266-23.305027c-.35659-.002008-.667907-.242751-.760616-.58819-.808154-3.179403-1.695539-6.247527-2.646309-9.252063-.135319-.417009.091592-.865175.507077-1.001512.419465-.125137.862008.107415.998308.524601.966616 3.03633 1.854001 6.168043 2.678001 9.315652.052908.2045.022482.421717-.084556.60367-.107038.181952-.281881.313667-.485905.366048l-.206.031794zm-364.0021462-9.315652c-.0890484.016427-.1803363.016427-.2693847 0-.2001817-.068082-.3640442-.215095-.4537579-.407099-.0897136-.192003-.0975236-.4124-.0216269-.61031 1.1092312-3.020433 2.3293855-6.056763 3.5970783-9.013608.1750319-.403866.6432733-.588916 1.0458466-.413323.4025733.175594.587032.645338.4120002 1.049203-1.2676929 2.925051-2.4561549 5.929588-3.5653861 8.934124-.1366643.286889-.4278789.467152-.7447695.461013zm352.4027562-22.398896c-.302974.000608-.579768-.172172-.713077-.445117-1.410308-2.893257-2.915693-5.738823-4.484463-8.47311-.206297-.387784-.074016-.869716.301077-1.096894.381819-.205332.857114-.072103 1.077539.302043 1.584616 2.766081 3.169232 5.643441 4.532002 8.568492.09285.189665.1066.408613.038212.608468-.068387.199855-.213284.364168-.402674.456633-.106804.057896-.227359.085382-.348616.079485zm-337.8718273-8.059788c-.1451036.003101-.2880623-.035512-.4120002-.111279-.3686642-.226308-.4885196-.707268-.2693847-1.080997 1.584616-2.845566 3.3276936-5.643441 4.9756943-8.298243.2367667-.366265.720102-.478703 1.0933851-.254352.1788955.111481.3061888.289827.3537613.495642.0475725.205815.0115096.422162-.1002228.601252-1.584616 2.654802-3.3118475 5.420883-4.9598481 8.250552-.1429753.242139-.4008932.392573-.6813849.397425zM407.77737 136.386678c-.241625.00127-.470068-.11038-.618001-.302044-1.933231-2.495831-3.993232-4.991663-6.100771-7.423907-.186823-.215819-.244684-.515233-.151788-.785455.092896-.270222.322436-.470199.602154-.524601.279718-.054403.567119.045034.753942.260853 2.123385 2.464038 4.183386 4.975767 6.14831 7.503392.193913.237562.230624.567241.093747.841875-.136878.274634-.421804.442978-.727593.429887zm-301.409813-7.789539c-.172008.003686-.339983-.052486-.475385-.15897-.168107-.126484-.279243-.314783-.30896-.523472-.029718-.208688.024418-.420673.150498-.589319 1.964924-2.638905 3.96154-5.214221 5.94231-7.646465.280051-.342408.783766-.392229 1.125078-.111279.341312.28095.390974.786281.110923 1.128688-1.996616 2.416347-3.96154 5.00756-5.910618 7.582877-.151229.198217-.385042.315499-.633846.31794zm278.43288-16.898528c-.199093.00147-.391441-.072311-.538769-.206662-2.345232-2.1302-4.753848-4.244503-7.257541-6.358806-.252058-.167324-.387267-.463937-.348563-.764654.038704-.300718.244578-.553149.530734-.650757.286156-.097607.602738-.023386.816137.19134 2.503693 2.050715 4.959848 4.180916 7.320926 6.358807.149994.149246.234363.352407.234363.564344 0 .211937-.084369.415098-.234363.564344-.12659.167289-.315154.276205-.522924.302044zm-256.137333-8.409522c-.217673.001012-.425347-.091584-.570462-.254353-.149055-.146512-.233051-.347048-.233051-.556395 0-.209348.083996-.409883.233051-.556396 2.376924-2.2414791 4.753848-4.4034734 7.273388-6.3588065.337626-.2742545.832424-.2246159 1.109231.1112792.136333.1636626.201381.375426.180521.5876846-.02086.2122586-.125877.4072011-.291444.5410035-2.408616 1.9871271-4.753848 4.1332242-7.194157 6.3588072-.148744.101152-.328383.146206-.507077.127176zm229.4524-12.1612181c-.152802.0069861-.303503-.0378092-.427847-.1271762-2.741385-1.7327748-5.451079-3.4496526-8.192464-5.0393543-.275595-.1249528-.456244-.3964006-.465625-.6996581-.009382-.3032574.154142-.5854206.421482-.7272771.267341-.1418564.59186-.1186588.836451.0597918 2.773078 1.5897017 5.530309 3.3383735 8.224157 5.0870453.369024.2434527.474877.7390197.237692 1.1127912-.149545.2023512-.382898.3252551-.633846.3338374zm-202.371312-7.8213323c-.363575.001842-.681739-.2447989-.771683-.5982079-.089943-.353409.071421-.7228755.391375-.8961117 2.788924-1.5897016 5.672925-3.0522272 8.588619-4.4670617.257588-.1221083.560546-.0970781.794751.0656619.234205.1627401.364076.4384659.340692.7233143-.023384.2848484-.19647.535544-.454058.6576524-2.884001 1.3830404-5.73631 2.861463-8.493542 4.4034736-.119018.0736708-.256308.1122353-.396154.1112791zm172.612223-7.9485084c-.105081.015441-.211843.015441-.316923 0-2.915694-1.2081732-5.926464-2.3686555-8.953081-3.4496526-.199065-.0645533-.362838-.2085122-.452783-.398003s-.09812-.4077818-.022602-.6035091c.14249-.4104654.587201-.6299939.998308-.4928075 3.058309 1.0809972 6.100772 2.2414794 9.048158 3.4655497.396831.1811167.58436.6409915.427846 1.0492031-.157081.247506-.437303.388067-.728923.3656314v.063588zm-141.664672-5.2937065c-.347786.0021126-.656285-.2235563-.760616-.5563956-.063925-.2002582-.044432-.4179375.05405-.6035582.098482-.1856206.267586-.3234132.468873-.3820569 3.026617-.969718 6.14831-1.8599509 9.28585-2.6865958.423241-.1014153.850537.151569.966616.5722926.052907.2045001.022481.4217174-.084557.6036698-.107038.1819523-.28188.3136667-.485905.3660482-3.169232.8107479-6.195848 1.7009808-9.206619 2.6548018-.076402.0260652-.157152.0368665-.237692.0317941zm109.496967-4.7691051h-.158462c-3.169232-.6676747-6.338464-1.2717613-9.428465-1.8122599-.43758-.0702374-.735552-.483043-.665539-.9220269.070013-.438984.481498-.7379122.919077-.6676748 3.169232.5246016 6.338464 1.1445853 9.507696 1.828157.205189.0418122.384849.1649862.498223.3415792.113374.1765931.150852.3916359.103931.5963448-.075311.3701352-.399902.6359577-.776461.6358806zm-76.632031-2.5753167c-.43758.0307289-.817139-.3002273-.84777-.7392113-.03063-.438984.299267-.8197615.736847-.8504904 3.169232-.4451164 6.338464-.8266448 9.602773-1.1286881.437579-.0395086.824233.2843302.863616.7233142.039382.438984-.283421.8268789-.721001.8663874-3.169232.3020433-6.338464.6676747-9.507696 1.1127912l-.126769.015897zm43.244171-1.8440539c-3.169232-.1748672-6.338464-.2702493-9.507696-.2861463-.440131-.0086594-.792393-.3691196-.792308-.8107479.024804-.4317528.377135-.7713535.808154-.7789538 3.169232 0 6.465233.1112791 9.666158.2861463.431449.0256375.762814.3934306.744769.8266449-.015398.2245377-.123144.4325495-.297447.5742489-.174304.1416994-.399479.2043334-.62163.1729109v.015897zM252.716984 470h-1.423813c-.436862 0-.791008-.354163-.791008-.791044 0-.436882.354146-.791044.791008-.791044h9.492086c.212265-.013349.420399.062936.573767.210296s.237911.352288.23306.564927c.000334.433549-.341991.789863-.775187.806865-2.705244-.015821-5.394669 0-8.099913 0zm-25.138209-1.091641h-.079101c-3.164029-.284776-6.328058-.632835-9.492086-1.028358-.206252-.023688-.394383-.129121-.522252-.292683-.12787-.163562-.184792-.371583-.158015-.577465.057583-.43396.450685-.742841.885929-.696119 3.164028.395522 6.328057.743581 9.412985 1.028357.436861 0 .791007.354163.791007.791045 0 .436881-.354146.791044-.791007.791044l-.04746-.015821zm56.952518-.094925c-.436861 0-.791007-.354163-.791007-.791045 0-.436881.354146-.791044.791007-.791044 3.164029-.268955 6.328058-.569552 9.492087-.917611.208346-.02665.418589.032391.582606.163611.164016.13122.267766.323383.287502.532508.046293.432-.264481.820485-.696087.870148-3.053288.34806-6.248957.664478-9.492086.917612l-.174022.015821zm32.87426-4.746266c-.436862.048057-.829964-.267147-.878018-.704029-.048055-.436882.267135-.830002.703996-.878059 3.164029-.664477 6.201496-1.42388 9.191504-2.246566.203511-.052823.419678-.022445.60075.084422.181073.106867.31215.281431.364278.48513.11107.419079-.135869.849479-.553705.965074-3.021647.822686-6.138215 1.582088-9.254784 2.262386l-.174021.031642zm-122.685217-.379701h-.174022c-3.164029-.743582-6.201496-1.582088-9.238964-2.404774-.413637-.129418-.651137-.562525-.537885-.980895.054926-.203878.190634-.376529.375762-.478056.185128-.101526.403657-.123143.605087-.059854 3.005827.854327 6.090755 1.661193 9.159863 2.373132.425085.108972.685135.537722.585346.965074-.094061.349494-.41331.590572-.775187.585373zm154.246404-9.698202c-.315522.001098-.601519-.18543-.727727-.474627-.167031-.402034.014982-.86409.411324-1.044178 2.910907-1.265671 5.774353-2.642088 8.511238-4.081788.251513-.132829.554781-.121379.795565.030034s.382503.419788.371773.704029c-.010729.284242-.172278.541167-.423792.673995-2.784345 1.455522-5.679431 2.831939-8.621978 4.129251-.091432.03452-.187317.055829-.284763.063284h-.03164zm-185.807592-.617015c-.104297.022217-.212105.022217-.316403 0-2.910906-1.24985-5.821813-2.594625-8.653618-3.986863-.25434-.124349-.423023-.374948-.442508-.657398-.019485-.28245.113188-.55384.348043-.71194.234855-.1581.536211-.178891.790551-.054541 2.800165 1.392238 5.695252 2.721192 8.590338 3.955221.394229.173603.577079.63075.411324 1.028357-.137512.257984-.403809.421402-.696086.427164h-.031641zm-29.219806-15.820884c-.150837-.005116-.297867-.048682-.427144-.126568-2.673604-1.724476-5.331388-3.512236-7.910072-5.299996-.3575-.25231-.448737-.74361-.205661-1.107462.121082-.172802.306181-.290064.514142-.325717.207961-.035652.421546.013262.593268.135867 2.562863 1.771939 5.204827 3.543878 7.910072 5.252533.2868.19706.414957.555801.317939.889988-.097018.334188-.39735.568523-.745083.581355h-.047461zm243.630218-.458806c-.248395-.00243-.481825-.11915-.632805-.316418-.265621-.34537-.201962-.840519.142381-1.107462 2.467942-1.866864 4.935885-3.876116 7.340547-5.948652.214775-.183699.511234-.238856.777702-.144695.266467.09416.462462.323334.514154.601193.051692.277859-.048771.562191-.263547.745889-2.436302 2.104178-4.920065 4.11343-7.403827 6.011936-.132806.119161-.297975.196244-.474605.221492v-.063283zM107.2824 417.806901c-.186063-.000474-.365749-.067859-.506245-.18985-2.404662-2.056715-4.746043-4.192535-7.1190648-6.328354-.2295746-.186167-.3362116-.4848-.2764831-.774282.0597285-.289482.2758572-.521513.5603676-.601599.2845103-.080087.5899333.005134.7918853.220956 2.293921 2.13582 4.746043 4.255818 7.071604 6.328354.252842.216196.343403.567492.226597.878989-.116806.311497-.416015.516622-.748661.513249v-.047463zm294.539441-3.322385c-.193896.000612-.380682-.072974-.522065-.205672-.14881-.145811-.232669-.345386-.232669-.553731 0-.208344.083859-.40792.232669-.553731 2.056619-2.309849 4.129058-4.746265 6.154036-7.198502.130295-.164327.321605-.26885.530272-.289718.208667-.020867.416885.043701.577138.178972.164319.1303.268838.321619.289704.530296.020867.208677-.043699.416905-.178963.577166-2.040798 2.499699-4.129057 4.936116-6.185676 7.245965-.162572.195128-.411925.296061-.664446.268955zM83.7262051 394.439455c-.2290958-.002025-.4469693-.0995-.6011654-.268955-2.0724389-2.420596-4.1132375-4.904474-6.0432951-7.388353-.2345436-.345923-.159528-.814624.1712628-1.070057.3307908-.255432.8032023-.209449 1.0785286.104983 1.9142375 2.452237 3.9392159 4.920295 5.9958346 7.309248.2785196.338114.2363871.836706-.0949209 1.123283-.1404963.121991-.3201816.189376-.5062446.189851zm338.4403409-6.185966c-.156122-.003122-.308758-.046734-.442964-.126567-.175317-.118632-.295773-.302588-.334424-.510719-.038651-.208131.007728-.423071.128762-.596743 1.724396-2.547162 3.480432-5.205071 5.220648-7.910442.144979-.254167.418415-.407537.71088-.398733.292464.008804.556181.178344.68561.440771.12943.262426.103428.574869-.067598.812289-1.740216 2.705372-3.496252 5.379101-5.236468 7.910443-.152471.214334-.401503.338856-.664446.332238v.047463zM64.3148884 367.449026c-.2800311-.004829-.5375256-.154543-.6802662-.395523l-.9017482-1.582088c-1.2814317-2.214924-2.5470432-4.493131-3.733554-6.771339-.1567895-.250563-.1608128-.567641-.0104312-.822103.1503815-.254462.4300775-.403852.7251816-.387331.2951041.016521.5563797.196196.6774223.465853 1.1865108 2.262386 2.4363022 4.524773 3.7177338 6.723876.2847626.522089.5853454 1.028357.8859281 1.582088.1146342.178985.1507537.39719.099909.603569-.0508447.20638-.1841933.382829-.3688514.488072-.1280602.062639-.2687662.095112-.4113238.094926zm375.3329166-7.514921c-.139851.002743-.277411-.035775-.395503-.110746-.379512-.214509-.513942-.695648-.300583-1.07582 1.582015-2.816117 3.164029-5.600593 4.572022-8.305964.094422-.186661.260268-.327238.459868-.389803.199601-.062564.416013-.041804.600081.057564.187724.097584.328533.266308.390962.468468.062429.20216.041273.420904-.058739.607352-1.439633 2.705371-2.990007 5.521489-4.587841 8.337606-.138791.247067-.397013.403208-.680267.411343zM49.9818379 337.48427c-.3304253.007011-.628958-.196255-.7435467-.506268-1.1232303-2.942685-2.1831799-5.964474-3.1640288-8.986263-.1350973-.415012.0914415-.861031.5062446-.996715.1991933-.069417.4180723-.054657.6061431.040876.1880708.095532.3290902.263586.3905259.465392.980849 2.990147 2.0407986 5.996115 3.1640288 8.907158.07698.197107.0717822.416842-.0144316.610089-.0862138.193246-.2462553.343893-.4443525.418268l-.3005828.047463zm404.6001831-7.261786c-.104191.023206-.212211.023206-.316402 0-.192352-.080103-.34436-.234273-.421744-.427742-.077384-.193469-.073628-.409947.01042-.600616 1.265611-2.942684 2.483762-5.885369 3.591172-8.76477.101736-.265656.337463-.456854.618386-.501572.280922-.044718.56436.063838.743546.284776.179187.220938.226898.520692.125162.786348-1.13905 2.911043-2.357201 5.869548-3.638633 8.812233-.137508.265492-.41295.430765-.711907.427164v-.015821zM40.6954134 305.621008c-.3737954-.005871-.6946007-.267765-.7751871-.632835-.6486259-3.164177-1.2497914-6.328354-1.756036-9.365964-.0452159-.282613.0637679-.567881.2858985-.748348.2221305-.180466.5236607-.228713.7910072-.126567.2673464.102147.4598928.339168.5051087.621781.5220648 3.164177 1.1074101 6.217608 1.756036 9.286859.0793674.43013-.1916945.847167-.6169856.949253l-.1898417.015821zm424.8499676-6.755517h-.205662c-.417835-.115595-.664774-.545996-.553705-.965074.791008-3.069252 1.582015-6.170145 2.15154-9.207755.037911-.207773.15895-.391083.335131-.507548.176182-.116464.392253-.156.598257-.109467.205614.041921.386145.163829.501859.338892.115714.175064.157128.388934.115127.59454-.632806 3.069252-1.360532 6.185966-2.18318 9.28686-.093715.340754-.406018.574992-.759367.569552zM36.2183126 272.697747c-.4189785.000755-.7658691-.325337-.7910072-.743581-.1898417-3.164177-.3480431-6.328354-.4271439-9.492531-.0042379-.20981.0750622-.412706.2204469-.564032.1453847-.151326.3449383-.238679.5547402-.242833.4277033-.000741.7816689.332419.8068273.759402.0791008 3.164177.2214821 6.328354.4271439 9.492531.017413.208319-.0500401.414841-.187057.572715-.1370169.157875-.3319832.25372-.5406696.265792l-.0632806-.047463zm434.6584574-6.597309c-.211495-.00792-.410555-.101973-.550977-.260329-.140422-.158356-.209995-.367243-.19257-.578177.189842-3.164177.284763-6.328354.284763-9.492531v-.237313c0-.436882.354146-.791045.791007-.791045s.791007.354163.791007.791045v.221492c0 3.164177-.094921 6.328354-.284763 9.492531.018847.229042-.062842.454958-.223813.618974-.160971.164016-.385311.249917-.614654.235353zM36.5188954 239.48971c-.2102136-.019961-.4037202-.123147-.5374341-.286583-.1337139-.163435-.1965338-.373552-.1744724-.583565.3164029-3.164177.7277266-6.328354 1.2181511-9.492531.0728332-.428059.4713461-.721713.9017482-.664477.4280385.072836.7216796.471368.664446.90179-.4904244 3.164177-.9017482 6.328354-1.2023309 9.381785-.0161401.214247-.117059.413208-.2803901.552789-.1633312.13958-.3755843.208251-.5897178.190792zm433.1713636-6.818801c-.399693-.004057-.736165-.300167-.791007-.696119-.363864-3.164177-.822648-6.249249-1.328892-9.365963-.069898-.436882.227585-.847711.664446-.917612.436861-.069901.84767.227596.917568.664477.522065 3.164177.980849 6.328354 1.344712 9.492531.056109.432329-.248127.828562-.680266.88597l-.126561-.063284zM42.9260537 206.898688c-.073116.014494-.148366.014494-.221482 0-.2013967-.058743-.37121-.195089-.4720829-.379043-.100873-.183953-.1245427-.400446-.065802-.601852.8701079-3.005968 1.8351367-6.07522 2.863446-9.097008.0634509-.298409.2928389-.533731.5895188-.60477.2966799-.071039.6077667.034867.7994818.272177.1917151.237309.2298841.563719.098093.838861-1.0124892 3.005968-1.9616979 6.043578-2.8318058 9.033725-.1053863.328196-.41481.547382-.7593669.53791zm420.2621263-6.787159c-.353349.00544-.665652-.228798-.759367-.569552-.854288-3.021789-1.787676-6.059399-2.768525-9.049546-.136523-.410452.081944-.854454.490424-.996716.199193-.069417.418072-.054657.606143.040876.188071.095532.32909.263586.390526.465392.996669 3.005968 1.945878 6.07522 2.800166 9.11283.058337.199339.034248.413751-.066868.595174s-.270801.31468-.471017.3699c-.070794.025955-.146253.036735-.221482.031642zM54.5538596 175.779008c-.1149362-.003738-.2279347-.030644-.3322231-.079105-.3968906-.179735-.5737209-.646589-.3955036-1.044178 1.313072-2.847759 2.6894245-5.742981 4.1132375-8.59074.0920176-.189089.2555354-.333754.4544243-.402033.198889-.068278.4167782-.05455.6055253.038152.1894069.091574.3334613.256202.3990938.456092.0656325.19989.0472056.417873-.0510506.603908-1.4079928 2.847759-2.7843454 5.72716-4.0815972 8.559098-.1254074.280515-.4046517.460481-.7119064.458806zm397.2279964-6.850443c-.314315-.002939-.598311-.188162-.727727-.474627-1.281431-2.831938-2.641964-5.711339-4.065777-8.543277-.196587-.393194-.037222-.871313.355954-1.06791.393175-.196597.871272-.037224 1.067859.35597 1.423813 2.847759 2.800166 5.742981 4.081597 8.606561.090077.190378.09882.409214.024218.606173-.074602.196958-.226126.355084-.419721.438005-.098125.049968-.206309.077015-.316403.079105zM70.0417806 146.367983c-.1398511.002743-.2774114-.035775-.3955036-.110746-.3737568-.219919-.5007726-.699779-.2847626-1.07582 1.5820144-2.737013 3.3064101-5.458205 4.9991655-8.116114.1449788-.254166.4184146-.407536.7108796-.398732.2924649.008804.5561812.178344.6856107.44077.1294294.262427.1034282.574869-.0675982.81229-1.6769353 2.642088-3.3538706 5.347459-4.9675253 8.068651-.142072.239599-.4017644.38455-.6802661.379701zm365.9673914-6.644771c-.273807.002002-.529943-.135008-.680266-.363881-1.676935-2.657908-3.448791-5.299996-5.236468-7.910442-.179153-.23112-.216192-.542228-.096309-.808953.119883-.266725.377129-.44555.668899-.464988.29177-.019437.570461.123685.724662.372151 1.803497 2.594625 3.575353 5.252533 5.283928 7.910442.111549.178232.147553.393543.100059.598372-.047495.20483-.174579.382322-.353181.493269-.117545.096318-.260346.156737-.411324.17403zm-347.3945424-20.91521c-.1717254.003668-.3394245-.052234-.4746043-.158209-.3416118-.266742-.4114645-.755733-.1582014-1.107462 1.9458777-2.531341 3.9392158-5.031041 5.9483741-7.451636.2865635-.331324.7851321-.373458 1.1232303-.094926.1619951.132605.2634737.325094.2813519.533683.0178781.208588-.0493642.41554-.1864311.573779-1.9933381 2.404775-3.9866763 4.888654-5.9009137 7.404174-.1569654.187747-.3881138.297547-.6328058.300597zM416.202352 113.0492c-.233001.000251-.453757-.104323-.601165-.284776-2.072439-2.373132-4.208159-4.746265-6.328058-7.024472-.148811-.145811-.232669-.345387-.232669-.553731 0-.208345.083858-.40792.232669-.553731.148525-.149755.350703-.23399.561615-.23399s.41309.084235.561615.23399c2.15154 2.294028 4.303079 4.746265 6.328058 7.071935.138915.156207.20886.361898.193967.570412-.014893.208513-.113362.402175-.273068.53705-.113899.130323-.271372.214687-.442964.237313zM110.699551 94.0008551c-.320574-.0044484-.606758-.2019699-.724631-.5001337-.117874-.2981637-.04412-.6379926.186746-.8604624 2.309741-2.2149238 4.746043-4.382385 7.039964-6.4232792.209748-.2014744.513134-.2715938.790012-.18259.276878.0890038.482586.3227738.535661.6087339.053074.2859601-.055046.5779826-.281544.7604225-2.341381 2.0408941-4.746043 4.1767135-6.992503 6.3283538-.14281.1579326-.341288.2543407-.553705.2689551zM392.614517 89.61847c-.190769-.0008331-.375319-.0679453-.522064-.1898506-2.404662-2.0408941-4.856785-4.0501465-7.324727-5.9802944-.243546-.1651451-.375297-.4518366-.34201-.7442146.033288-.2923781.226112-.5421128.500547-.6482796s.585117-.0512164.806492.1426443c2.483762 1.9459688 4.967525 3.9710421 7.388007 6.0277571.331308.2865768.37344.7851688.094921 1.1232828-.154196.1694556-.37207.2669299-.601166.268955zm-255.96993-16.3429738c-.268194-.0033073-.517212-.1396804-.664446-.3638804-.235255-.3670978-.129118-.8553483.237302-1.091641 2.483763-1.5820885 5.046626-3.1641769 7.593669-4.7462654l.537885-.3164177c.380069-.2184408.865249-.0874006 1.08368.2926864.21843.380087.087396.8652897-.292673 1.0837306l-.537885.3164177c-2.515403 1.4555213-5.046626 3.005968-7.530388 4.6196983-.119633.1082215-.267943.1796336-.427144.2056715zm229.091506-3.164177c-.144866.0030858-.28759-.0353417-.411324-.1107461-1.313072-.8068652-2.641964-1.5820885-3.970856-2.3573119-1.328892-.7752233-2.800166-1.5820884-4.223979-2.3889535-.384438-.2097032-.526096-.6913643-.316403-1.0758202.209694-.3844559.691332-.5261209 1.07577-.3164177l4.255619 2.4047745c1.344712.7752233 2.673604 1.5820884 4.002496 2.3731327.178602.1109475.305686.2884394.353181.4932686.047494.2048293.011491.4201404-.100058.5983724-.136859.2370817-.390719.3821517-.664446.3797012zm-199.90334-12.6567077c-.3118.0038793-.596785-.1757933-.727727-.4588056-.169153-.3978145.005253-.8582693.395504-1.0441784 2.910906-1.3447752 5.853453-2.6262669 8.732719-3.8128332.406281-.1660151.870212.0287743 1.03622.4350743.166007.4062999-.028773.8702529-.435054 1.0362679-2.863446 1.1707455-5.774353 2.4522372-8.669439 3.7811915-.105164.0438768-.218295.0654266-.332223.0632835zm170.33549-2.4838789c-.104434.0208836-.211969.0208836-.316402 0-2.879267-1.234029-5.837634-2.4205953-8.78018-3.5280573-.198098-.074375-.358139-.225022-.444353-.4182688-.086214-.1932468-.091412-.4129811-.014432-.6100887.161755-.4063913.617847-.6098881 1.02831-.4588056 2.958367 1.1232828 5.932554 2.32567 8.84346 3.559699.436861.0873764.720178.5123715.632806.9492531s-.512347.7202117-.949209.6328354v-.1265671zM196.950976 45.731336c-.436861.0611634-.840588-.2434164-.901748-.6802981-.061161-.4368816.243405-.8406269.680266-.9017904 3.037468-.9017904 6.122396-1.7402973 9.191504-2.5155207.427332-.0997936.856062.1602678.965028.5853728.099037.4235416-.162445.8475874-.585345.9492531-3.037468.7594024-6.106576 1.5820884-9.128223 2.4996997l-.221482.0632836zm107.830102-1.5820885c-.062342.0154133-.1275.0154133-.189842 0-3.069108-.7910442-6.169856-1.5820885-9.207324-2.1832821-.2826-.0593487-.512072-.2649613-.601977-.5393856-.089904-.2744243-.026583-.5759687.166112-.7910443.192695-.2150756.485488-.3110073.768088-.2516585 3.069108.6644771 6.185676 1.4080587 9.270605 2.2149238.203689.0521307.378244.1832143.485107.3642953.106862.1810809.137238.3972579.084418.6007787-.091458.3738482-.4387.627614-.822648.6011936l.047461-.0158209zm-75.351346-5.3316381c-.39629-.0050668-.727661-.302638-.775187-.6961189-.031411-.2083724.023354-.4205539.151686-.5876919.128332-.1671381.319171-.2748289.52858-.2982777 3.164029-.3955221 6.328057-.7119398 9.492086-.9492531.436861-.0305817.815798.2987895.846378.7356712.03058.4368816-.298776.8158356-.735637.8464173-3.164029.2373133-6.328057.553731-9.397165.9492531h-.110741zm42.714389-.5379101c-3.164029-.3164177-6.328058-.5379101-9.492087-.6961189-.209926-.012217-.406349-.1075231-.545868-.2648605-.139519-.1573375-.210651-.3637555-.197679-.5736464.008117-.2085509.099979-.405019.254807-.5449665.154829-.1399476.359543-.2115511.567841-.1986151 3.164029.1582089 6.328057.3955221 9.492086.6961189.431606.0496634.74238.4381482.696087.8701487-.011513.2148006-.111754.4151606-.276751.5531648-.164998.1380043-.379915.2012441-.593357.1745959l.094921-.0158209zM250.375799 513c-3.160513 0-6.321025-.11071-9.481538-.268868-.432702-.033681-.761047-.404251-.74272-.838235.008108-.208484.099867-.404888.254524-.54479.154656-.139902.359143-.211483.567209-.198551 3.160513.158158 6.321025.237236 9.402525.268868.436375 0 .790128.354048.790128.790788 0 .43674-.353753.790788-.790128.790788zm23.530015-1.34434c-.399249-.004056-.735347-.300069-.790128-.695893-.046241-.431861.264186-.82022.695313-.869867 3.049894-.379578 6.178802-.854051 9.276104-1.391787.436376-.078613.853804.211706.932351.648446.078548.436741-.211529.854517-.647905.93313-3.160512.553552-6.321025 1.028025-9.370919 1.407603l-.094816-.031632zm-56.399345-1.281076h-.126421c-3.160512-.474473-6.242012-.996393-9.323511-1.581576-.428964-.087585-.709613-.501887-.632103-.93313.079968-.427084.489257-.709588.916549-.63263 3.081499.585183 6.194604 1.122918 9.276104 1.581576.436376.030571.765365.409403.734819.846143-.030546.43674-.409061.766004-.845437.735433v-.015816zm88.668178-5.503885c-.352957.005439-.664913-.228723-.758523-.569367-.058676-.201341-.035032-.417764.065729-.601657.10076-.183894.270385-.320196.471558-.37892 2.939276-.854051 5.957566-1.802997 8.960053-2.815206.274823-.131754.600855-.093596.837889.098066.237035.191662.342819.502663.271862.79926-.070957.296598-.306007.525923-.604069.589356-3.01829 1.028024-6.068184 1.97697-9.023263 2.846837-.070931.025079-.146127.035831-.221236.031631zm-120.905405-1.581576h-.221236c-3.01829-.869867-6.068184-1.802996-9.054868-2.783574-.398697-.146945-.609906-.583137-.478103-.987385.131802-.404249.559422-.631807.967982-.515112 2.970882.964762 6.004974 1.897891 9.007461 2.751942.385353.111306.630284.489272.574675.88681-.055609.397538-.394833.693653-.795911.694766v-.047447zm151.878427-9.805771c-.316416.005369-.604254-.182508-.726918-.474473-.084521-.192872-.088679-.411519-.011551-.60747.077128-.195951.22917-.353014.422418-.43637 2.781251-1.217814 5.67312-2.514706 8.564989-3.890677.392872-.180248.857545-.011135 1.042969.379578.091529.190645.102934.410043.031666.609165-.071268.199122-.219268.361371-.410928.450491-2.907671 1.375971-5.79954 2.688679-8.596594 3.906493-.100019.042171-.207519.063689-.316051.063263zm-182.97787-1.217814a1.02630299 1.02630299 0 0 1-.300249 0c-2.907671-1.249445-5.815343-2.546337-8.644001-3.859045-.19166-.08912-.339661-.251369-.410928-.450491-.071268-.199123-.059863-.41852.031666-.609165.085811-.19073.245013-.338643.441429-.410126.196416-.071484.413363-.060467.60154.030548 2.812856 1.312708 5.704725 2.6096 8.596594 3.843229.282286.056505.513009.25944.605258.532363.09225.272923.032011.574369-.158025.790788-.190036.216418-.480999.31493-.763284.258425v-.126526zm212.560267-13.395949c-.291953-.00576-.557954-.169125-.695313-.427025-.100419-.182073-.123505-.3969-.064068-.59618.059437-.19928.196409-.366289.380119-.463476 2.770716-1.518313 5.509827-3.052442 8.217333-4.602386.375605-.21595.854909-.08897 1.074574.284683.217261.380682.090935.865338-.284446 1.091288-2.718041 1.581576-5.467687 3.163152-8.248938 4.602386-.108512.08584-.24111.135605-.379261.142342v-.031632zm-242.474518-1.470865l.395064-.680078-.458274.648446c-2.702238-1.581576-5.372871-3.163152-7.996097-4.950333-.362524-.247261-.460852-.739313-.221235-1.107103.241133-.360817.7278-.459643 1.090376-.221421 2.591621 1.708102 5.246451 3.352941 7.901282 4.88707l-.316052.743341-.395064.680078zm270.650487-15.70505c-.346181.00266-.653777-.220532-.758892-.550653-.105116-.330122.016731-.690284.300617-.888581 2.544213-1.787181 5.104228-3.653441 7.58523-5.551332.351321-.253193.839747-.18336 1.10618.158157.265325.345259.201737.840247-.142223 1.107103-2.512608 1.897892-5.072623 3.779967-7.648441 5.582964-.126657.101198-.280858.161828-.442471.173973v-.031631zm-296.9301481-3.416205c-.1905575-.000832-.3749022-.067923-.5214845-.189789-2.3387793-2.040233-4.7407688-4.206992-6.9689301-6.405383-.2285417-.18874-.3323644-.489589-.2689226-.779262.0634418-.289672.2834834-.519473.5699537-.595231.2864703-.075758.5912124.015261.7893458.235759 2.2755689 2.182575 4.5985456 4.317702 6.9215223 6.326304.3030667.312857.3030667.810061 0 1.122919-.1322777.156656-.3182687.25819-.5214846.284683zm322.6725221-17.286625c-.320218-.004447-.606084-.201905-.723826-.499972-.117742-.298067-.044071-.637786.186539-.860184 2.275569-2.119312 4.56694-4.317702 6.779299-6.531909.307236-.301403.798943-.301403 1.106179 0 .149581.148484.233719.350606.233719.56146 0 .210853-.084138.412976-.233719.561459-2.228161 2.230022-4.519533 4.428413-6.810904 6.563541-.16648.153797-.390915.228672-.6163.205605h.079013zm-345.7126581-6.326305c-.2363702-.003593-.4602156-.106992-.6162999-.284683-1.9911229-2.356549-3.9980483-4.839623-5.9733686-7.338513-.2653251-.345259-.2017369-.840247.1422231-1.107103.1620836-.133471.3713619-.195369.5798991-.171516.2085372.023853.3984651.131412.5262802.298042 1.9595178 2.49889 3.9506406 4.950333 5.9417635 7.291065.1919205.238026.2328131.564217.1055962.842318-.127217.278101-.400655.460262-.7060936.47039zm368.3577301-17.68202c-.182453-.004415-.359079-.065181-.505682-.173973-.33094-.286484-.373026-.784914-.094816-1.122919 1.975321-2.38818 3.950641-4.871254 5.846948-7.354328.172195-.226018.451787-.342925.733457-.306684.28167.03624.522626.220123.632103.482381.109476.262257.07084.563047-.101355.789064-1.927912 2.49889-3.903233 4.99778-5.894355 7.401776-.165579.212057-.427551.325275-.695313.300499l.079013-.015816zm-388.2689587-8.714483c-.2614545.003536-.5062948-.127951-.6479051-.347947-1.7224793-2.530522-3.4607611-5.18757-5.199043-7.90788-.2349933-.366979-.1289748-.855072.2370384-1.091288.1748633-.117305.3899104-.158301.5956165-.113544.2057062.044756.3843391.171405.4947604.350781 1.7382818 2.688679 3.4765637 5.345727 5.1832404 7.90788.2396168.36779.1412887.859841-.2212358 1.107103-.1336462.077942-.2886499.111185-.4424718.094895zM462.572607 390.2697c-.284255-.010353-.542006-.169906-.678212-.419826-.136207-.24992-.130694-.553191.014504-.797987 1.659269-2.625416 3.318538-5.329911 4.898795-8.034406.12421-.275066.394045-.455369.695501-.464732.301455-.009363.581942.153847.722955.420674.141014.266828.117954.590725-.059436.834846-1.580256 2.72031-3.239525 5.440621-4.914597 8.081853-.148493.23265-.403708.375215-.67951.379578zM37.483678 380.195061c-.2606215.000922-.5017925-.137867-.6321025-.363762v-.094895c-1.5802562-2.720311-3.1605124-5.472253-4.5827431-8.160932-.2094603-.384332-.0679593-.865837.3160513-1.075472.3840106-.209635.8651139-.068016 1.0745742.316315 1.4538358 2.688679 2.9866843 5.424806 4.5669406 8.129301.2151256.387371.0984503.875069-.2686436 1.122919-.1244831.075332-.2656021.11879-.4108666.126526h-.0632103zm440.891491-18.884018a.82104855.82104855 0 0 1-.331854 0c-.19166-.089119-.33966-.251369-.410928-.450491-.071267-.199122-.059862-.418519.031667-.609165 1.327415-2.831021 2.59162-5.725305 3.792615-8.603773.110091-.262745.351876-.446749.634275-.4827.2824-.035951.562511.081613.734819.308407.172308.226794.210636.528363.100544.791107-1.216797 2.878469-2.496805 5.804384-3.82422 8.651221-.137409.238417-.388795.388177-.663708.395394h-.06321zM22.4554412 350.888457c-.3151714.001099-.6008505-.185369-.7269179-.474473-1.3116127-2.894284-2.5758177-5.804384-3.7610098-8.682852-.1658228-.406168.0287411-.869971.4345704-1.035932.4058294-.165961.8692451.028765 1.0350679.434933 1.1693896 2.846837 2.4335946 5.756937 3.7294047 8.635405.0899768.190317.09871.409082.024191.605977-.074519.196894-.2258754.354968-.4192551.437863-.0980158.049952-.2060798.07699-.3160512.079079zm467.7558468-20.386515h-.237038c-.414707-.136038-.645878-.577732-.521485-.996393.916549-2.973363 1.78569-6.009989 2.591621-9.046614.113457-.436741.559185-.698736.995561-.585183.436376.113552.698153.559652.584695.996392-.805931 3.036626-1.690874 6.104884-2.607423 9.109878-.089525.341392-.390429.584879-.74272.600999l-.063211-.079079zM10.6983347 320.031909c-.3502605.013042-.6638374-.215798-.75852295-.553552-.94815374-3.02081-1.81729467-6.089067-2.62322536-9.094062-.05276175-.203455-.02241957-.419562.0843241-.600584.10674367-.181022.28110489-.312063.48456815-.364177.20126585-.057811.41734518-.031578.59896369.072716.18161851.104295.31329153.277759.36499262.480835.79012812 2.989179 1.65926905 6.025805 2.59162025 9.046615.0637495.199235.0443093.415802-.0539017.600473-.0982111.184672-.2668495.321761-.4675829.380104-.0709303.02508-.1461263.035831-.2212359.031632zm487.0823813-21.667592h-.126421c-.207905-.034767-.393311-.151236-.514985-.323504s-.169528-.386052-.13292-.59381c.505682-3.052441.948154-6.199778 1.343218-9.299667.019413-.212212.125281-.40706.292706-.538717.167424-.131658.381629-.188507.592238-.157176.431658.057389.735556.453493.67951.885682-.395064 3.163152-.853339 6.326305-1.359021 9.378746-.068474.37453-.393898.64705-.774325.648446zM3.23952529 287.878468c-.39058756-.003971-.71966063-.292991-.77432555-.680077-.48987944-3.163152-.90074606-6.326304-1.24840243-9.378746-.04800133-.43674.26683831-.829733.70321402-.877775.43637571-.048041.82904089.267061.87704222.703801.33185381 3.163153.74272043 6.215594 1.2167973 9.315483.03641297.205918-.01186766.417823-.13387554.587586-.12200788.169762-.30738653.282971-.51402952.313913l-.1264205.015815zM501.020241 265.483352c-.432663-.025417-.767766-.388749-.758523-.82242.110618-3.163152.158026-6.326304.158026-9.489456v-.268868c0-.43674.353752-.790788.790128-.790788.436376 0 .790128.354048.790128.790788v.268868c0 3.163152 0 6.326304-.158026 9.489456.008757.222125-.074469.438019-.230023.596697-.155554.158678-.369644.24607-.59171.241539v-.015816zM.79012812 254.981687C.35375241 254.981687 0 254.627639 0 254.190899c0-3.163152.07901281-6.326304.22123587-9.489456.03309438-.429335.39148373-.760432.82173325-.759157.43266311.025418.76776588.388749.75852299.82242-.14222306 3.163152-.20543331 6.326304-.22123587 9.410377.00424644.212457-.07712053.417684-.22576105.569424-.14864052.15174-.35204514.237223-.56436707.23718zM500.625177 232.191176c-.421119-.007539-.76542-.338344-.790128-.759156-.142223-3.163152-.331854-6.326304-.55309-9.394562-.01976-.282521.112579-.554132.347165-.71252.234587-.158387.535782-.179489.790128-.055355.254347.124134.423204.374644.442964.657165.221235 3.052442.426669 6.23141.568892 9.489456.012957.209823-.058095.416174-.197459.573461-.139364.157286-.335569.252561-.545262.264775l-.06321-.063264zM3.16051248 222.053274h-.15802562c-.42526308-.065152-.72028727-.458846-.66370762-.885682.42666918-3.163152.91654862-6.326305 1.4696383-9.362931.04798855-.282521.24292937-.517958.51139013-.617625.26846077-.099667.56965591-.048421.79012812.134434.22047222.182855.32672654.469538.27873799.752059-.53728712 3.084074-1.02716656 6.215594-1.45383574 9.299667-.06075716.383759-.38624394.669629-.77432556.680078zM497.543677 199.310211c-.390587-.003972-.71966-.292991-.774325-.680078-.458274-3.163152-.963956-6.247225-1.580256-9.283851-.076894-.427649.205375-.83728.632102-.917314.430883-.077575.84484.203308.932351.63263.537287 3.052442 1.058772 6.199778 1.580257 9.347115.057169.430282-.236145.828685-.663708.901498h-.126421zM9.81339126 189.710044h-.22123588c-.2011728-.058724-.37079738-.195026-.47155827-.378919-.10076088-.183894-.12440425-.400317-.06572885-.601658.83753581-3.02081 1.75408444-6.073252 2.70223814-9.078246.1355274-.414688.5810301-.641164.9955615-.506104.2015723.061418.3694314.202399.4648533.390417.0954218.188019.1101651.406837.0408287.605975-.9481538 2.973363-1.8488998 6.009989-2.6864356 9.014984-.0995195.334363-.4100091.560951-.75852304.553551zm480.88777674-22.6798c-.352956.005439-.664912-.228723-.758523-.569367-.869141-3.036626-1.817295-6.041621-2.812856-8.967536-.137424-.414496.079721-.86317.489879-1.012209.414532-.13506.860034.091416.995562.506104 1.011364 2.941732 1.959517 5.978358 2.844461 9.0308.113126.418234-.12411.851201-.537287.980577l-.221236.031631zm-469.9682061-8.461432a1.02630095 1.02630095 0 0 1-.3002487 0c-.1960871-.080344-.3517159-.236143-.4319419-.432415-.080226-.196272-.0783262-.416568.0052727-.611425 1.2325999-2.894284 2.52841-5.788568 3.8716278-8.635405.1832778-.397433.6537685-.570917 1.0508704-.387486s.5704406.654315.3871628 1.051748c-1.3432178 2.831021-2.6390279 5.725305-3.8558253 8.587958-.1398798.270607-.4226502.43672-.7269178.427025zm458.0846791-22.316037c-.293973.001298-.563327-.164125-.695313-.427026-1.406428-2.815205-2.891869-5.582963-4.44052-8.271642-.17739-.244122-.20045-.568018-.059436-.834846.141013-.266827.4215-.430037.722956-.420674.301455.009363.57129.189666.695501.464732 1.580256 2.704495 3.081499 5.5197 4.487927 8.350721.195102.388794.039754.862294-.347656 1.059656-.112251.05746-.237504.084712-.363459.079079zM35.5873705 129.07242c-.1371903-.001108-.2723152-.033565-.395064-.094895-.3753811-.22595-.5017076-.710606-.2844461-1.091287 1.5802562-2.704495 3.2711304-5.40899 4.9936097-8.050222.2455697-.341171.7149634-.430347 1.0683665-.20297.3534031.227377.4672178.691786.2590487 1.057021-1.7224793 2.704495-3.3027355 5.314095-4.8829918 8.002774-.1578295.263114-.4535097.411078-.758523.379579zM461.513835 108.1798c-.251512-.003699-.486237-.127032-.632102-.332131-1.817295-2.49889-3.729405-5.029412-5.67312-7.512486-.22718-.3420547-.154895-.801234.166365-1.0568078.32126-.2555738.784535-.2224518 1.066235.0762308 1.97532 2.49889 3.88743 5.045228 5.720527 7.559933.122463.171674.17132.3852.135709.593103-.035611.207904-.152738.392951-.32534.514001-.132921.098538-.292918.153756-.458274.158157zm-407.0265998-6.152331c-.1793783.005959-.3543734-.056188-.4898795-.173973-.1641359-.130259-.2685384-.321516-.2893819-.530125-.0208435-.208609.0436505-.41677.178764-.576978 1.9753203-2.4198114 4.045456-4.8396227 6.1471968-7.196171.3125963-.3033199.8093856-.3033199 1.1219819 0 .1486453.1457637.2324106.3452743.2324106.5535516 0 .2082772-.0837653.4077879-.2324106.5535516-2.0859382 2.3407325-4.1402713 4.7447281-6.1155916 7.1487238-.1484387.1432-.3469235.22266-.5530897.22142zM440.385809 82.8113208c-.21426.0031096-.420229-.0827823-.568892-.2372364-2.164951-2.2616538-4.393112-4.5233075-6.621274-6.6900666-.149581-.1484836-.233718-.3506058-.233718-.5614595 0-.2108538.084137-.4129759.233718-.5614595.145642-.1487695.344987-.2326047.55309-.2326047.208103 0 .407448.0838352.55309.2326047 2.243964 2.1983907 4.487927 4.4600444 6.652878 6.7375139.149582.1484835.233719.3506057.233719.5614594 0 .2108538-.084137.412976-.233719.5614595-.155534.1387829-.361264.2074169-.568892.1897892zM77.1955174 78.0665927c-.2162417-.0028774-.4218541-.094337-.5688923-.2530522-.1495812-.1484836-.2337186-.3506057-.2337186-.5614595 0-.2108537.0841374-.4129759.2337186-.5614595 2.2913716-2.1034961 4.7407687-4.222808 7.079548-6.3263041.214537-.1836389.5106659-.2387785.7768376-.1446482.2661718.0941302.4619486.3232297.5135833.6009989.0516347.2777692-.0487173.5620082-.2632544.7456471-2.3861869 2.0402331-4.7407687 4.1279134-7.0479428 6.2314096-.1164009.1618848-.2929189.2701637-.4898794.3004994v-.0316315zM416.176284 60.3529412c-.211303.003699-.415603-.0758173-.568893-.2214207-2.401989-1.97697-4.882991-3.9381243-7.363994-5.8360155-.265266-.1531089-.418253-.4458309-.39262-.7512285.025633-.3053976.225271-.5684731.512341-.6751451.28707-.106672.609875-.0377305.828433.1769285 2.496805 1.8978913 4.99361 3.8748613 7.427204 5.8676471.263256.2113104.363363.56663.249184.8844553-.114179.3178252-.417438.5279936-.754866.5231474l.063211.0316315zm-313.301603-2.9891787c-.34618.0026605-.653776-.2205315-.758892-.5506532-.105115-.3301216.016732-.6902834.300618-.888581 2.544213-1.8029967 5.151635-3.6218091 7.790663-5.3615427.170959-.1202255.383209-.1662007.58854-.1274829.20533.0387177.386312.1588419.501837.3330878.239617.3677903.141289.8598417-.221236 1.1071032-2.607423 1.7397336-5.214845 3.5427303-7.743255 5.3457269-.135207.0920222-.294769.1415828-.458275.1423419zm286.563667-16.3218646c-.15067-.0051135-.297536-.0486659-.426669-.1265261-2.639028-1.6922863-5.341266-3.3371254-8.011899-4.9187014-.274836-.1243142-.454989-.3943745-.464344-.6960819-.009355-.3017073.153718-.5824283.420323-.7235596.266605-.1411313.590231-.1180524.834149.0594861 2.702238 1.581576 5.404476 3.2422308 8.075109 4.9345172.366013.2362162.472032.7243086.237039 1.0912874-.139065.23462-.391141.3787836-.663708.3795783zM130.718796 39.650111c-.289545.000791-.556331-.1569869-.695313-.4112098-.204112-.381087-.071674-.8554701.300249-1.0754717 2.718041-1.5604883 5.467687-3.0946171 8.248938-4.6023862.178974-.1062412.393699-.1342294.593892-.0774109.200193.0568186.368273.193454.464879.3779103.106768.181545.135092.398768.07845.6016555-.056642.2028876-.193368.3739552-.378698.4738162-2.765449 1.4708657-5.499292 3.0524418-8.169925 4.6340178-.137013.0678215-.290473.0952479-.442472.0790788zm229.800863-14.4872364c-.11569.0037821-.23028-.023524-.331854-.0790788-2.828659-1.3127081-5.720528-2.5779689-8.612397-3.7799667-.262525-.1101833-.446376-.3521696-.482297-.634805-.03592-.2826354.081546-.5629808.30815-.7354329.226605-.172452.527922-.2108112.790447-.1006278 2.891869 1.2178135 5.815343 2.4988901 8.659805 3.827414.436375.0917154.71584.5201133.624201.9568535-.091639.4367401-.51968.7164379-.956055.6247225v-.0790788zm-200.566122-.8224196c-.304605-.0060727-.579752-.1835376-.711116-.458657-.090938-.1883345-.101946-.4054629-.030522-.6020426.071424-.1965798.219214-.3559153.409784-.4417976 2.907671-1.3601554 5.79954-2.6728635 8.628199-3.890677.396928-.1505329.841772.0397081 1.007439.4308396.165667.3911315-.007043.8433805-.391139 1.0242103-2.797054 1.2019978-5.688923 2.5147059-8.564989 3.8590455-.107049.056152-.226873.0834076-.347656.0790788zm169.766928-11.0710321a.53685123.53685123 0 0 1-.221236 0c-2.970882-.9173141-6.004974-1.8029967-9.039066-2.6254162-.417371-.1155571-.664036-.5458183-.55309-.96476142.051701-.20307695.183374-.37654079.364993-.48083516.181619-.10429437.397698-.13052721.598964-.07271645 3.049894.82241954 6.099789 1.70810213 9.086473 2.64123193.436376.0655111.737065.4726661.671609.9094062-.065456.4367402-.472272.7376808-.908647.6721699v-.0790788zM190.578903 12.004162c-.282286.0452035-.567224-.0637502-.747482-.2858192-.180257-.2220689-.228448-.5235156-.12642-.790788.102028-.2672723.338775-.4597654.621061-.5049688 3.018289-.99639288 6.068184-1.92952274 9.039065-2.78357379.201206-.06326811.419493-.04165841.604415.05983533.184922.10149374.320479.27408888.375344.47790052.122185.41927055-.118366.85828989-.537287.98057713-2.955079.8382353-5.989171 1.77136511-8.991658 2.76775801-.070187.0534536-.151021.0912073-.237038.1107104v-.0316316zm107.078163-6.48446167h-.142224c-3.049894-.53773585-6.178801-1.02802441-9.276104-1.45504994-.436375-.05677622-.74414-.4568503-.687411-.89359046.056729-.43674016.456469-.74476179.892845-.68798557 3.160512.42702553 6.321025.9173141 9.355117 1.45504995.426727.08003441.708995.48966505.632102.91731409-.040669.3968572-.375725.69797527-.774325.69589345v-.03163152zm-75.093777-1.48668146c-.387928.00397944-.718925-.2799688-.774326-.66426193-.066632-.42724953.221987-.82883547.647905-.90149834 3.160513-.52192009 6.321025-.96476137 9.37092-1.3127081.209833-.02673629.421617.03185008.587944.16264524.166328.13079516.27331.32287626.296999.53324821.046668.43512281-.261855.82811638-.695312.88568258-3.065697.34794672-6.194605.77497225-9.30771 1.29689234h-.12642zm42.30346-2.16675916c-3.160513-.1581576-6.321025-.25305216-9.481538-.28468368-.212322.0000425-.415726-.08543997-.564367-.23717992-.148641-.15173995-.230007-.3569671-.225761-.56942386.016669-.4270199.363215-.76691868.790128-.77497225 3.160513 0 6.321025.12652608 9.481538.28468369.436375 0 .790128.35404785.790128.79078801s-.353753.79078801-.790128.79078801z"          
          fill="#FCC01A"
          fillRule="nonzero"
          opacity="0.6"
        />
        <circle fill="#FFF" cx="242.5" cy="279.5" r="193.5" />
        <path
          d="M422.999908 271.593176c.055324-56.40932-24.724076-109.988348-67.757062-146.507076-83.639539-61.0841809-200.661393-45.1137524-264.8388669 36.143592-64.1774736 81.257344-52.5093355 198.678941 26.4068319 265.743546 58.555335 42.72197 136.164548 48.968753 200.81042 16.163275s105.372624-99.103549 105.378677-171.543337z"
          fill="#B7B7ED"
        />
        <path
          d="M49.000043 280.123801c-.0417033 62.40765 30.2656128 120.937968 81.254464 156.920844l3.363888.94759c45.183483 12.081768 95.799724 12.160734 136.197959-11.418455 55.702817-32.497616 78.957324-101.063173 54.517086-160.74279-11.907845-29.043622-33.970525-52.922881-46.668016-81.619054-10.960271-24.747883-14.497881-52.117431-16.756265-79.076356-.442201-5.401261-.86861-10.8341082-1.405568-16.2669555-6.053945-.5685538-12.176325-.8580951-18.367141-.8686238-50.956291-.0041889-99.826979 20.2355183-135.859999 56.2661743-36.0330195 36.030655-56.2764082 84.900489-56.276408 135.857626z"
          fill="#6E69E2"
          opacity="0.3"
        />
        <path
          d="M275.673458 306.758311c-17.330532 9.121517-42.231093 6.74199-51.540617-10.327144-9.309524-17.069135 3.462885-37.073018 20.777311-46.194535 17.314426-9.121517 37.978992-6.726128 47.256303 10.343007 9.277312 17.069134.918068 37.073018-16.492997 46.178672zM169.501176 302.691169c5.483341 21.905583-4.263059 48.929293-26.212269 54.393878s-41.204293-14.425244-46.687634-36.330827c-5.4833405-21.905584 3.169561-44.189121 25.134619-49.637958 21.965058-5.448836 42.281944 9.685071 47.765284 31.574907z"
          fill="#B7B7ED"
        />
        <path
          d="M385.491164 271c-1.091715-.002498-2.182204-.075031-3.265049-.217173-5.15459-.619024-10.001602-2.833803-13.89278-6.348127-3.877501-3.473112-5.831985-8.679419-5.224077-13.915763 1.33867-10.858639 12.962241-19.762723 23.900153-18.376158 10.366528 1.353153 18.218969 12.395554 16.831324 23.638421C402.632667 265.086218 395.302634 271 385.491164 271zm-.848913-35.649746c-8.554426 0-17.321081 7.216818-18.349571 15.586323-.48598 4.166125 1.087118 8.306374 4.195587 11.0424 3.390571 3.048275 7.612305 4.960544 12.097004 5.479436 8.048344 1.052453 16.733372-2.271961 17.957765-12.078147 1.175418-9.48878-5.371004-18.777092-14.007057-19.896367-.62773-.086647-1.260317-.13129-1.893728-.133645z"
          fill="#D3D3F2"
          fillRule="nonzero"
        />
        <path
          d="M380.222694 181.860069c2.752147 7.392876-2.118319 14.442276-9.657533 17.124647-7.539215 2.682371-14.744836 0-17.496982-7.458299-2.752147-7.458299-.150117-17.124647 7.389097-19.823373 7.539214-2.698727 17.029951 2.731438 19.765418 10.157025z"
          fill="#D3D3F2"
        />
        <path
          d="M243.076615 190.735632c-6.251499 7.051843-19.457792 8.548624-26.568873 2.438055-7.111081-6.110568-5.094972-17.15897 1.094012-24.226244 6.188985-7.067274 16.050725-9.613344 23.193064-3.502775 7.142338 6.110568 8.408267 18.22369 2.281797 25.290964z"
          fill="#B7B7ED"
        />
        <path
          d="M245.412737 397.994504c-5.160418.0503-10.169395-1.751669-14.126183-5.081866-7.947011-6.925288-8.426145-19.5137-1.057399-28.083121 3.245055-3.953579 7.956498-6.402459 13.041809-6.778777 5.08531-.376317 10.102739 1.352618 13.888809 4.785888 7.798314 6.792429 11.119206 19.928886 3.651329 28.564736-3.947269 4.326187-9.560033 6.729412-15.398365 6.59314zm-.826093-36.718972c-4.600445.061731-8.940146 2.157761-11.862689 5.729555-6.179173 7.174399-5.848736 17.670278.726961 23.399833 7.021787 6.094917 19.09926 5.530265 24.865387-1.179126 6.179172-7.174399 3.30437-18.135286-3.304371-23.86484-2.864328-2.592287-6.571245-4.044939-10.425288-4.085422z"
          fill="#B7B7ED"
          fillRule="nonzero"
        />
        <path
          d="M497.367218 286.957898l2.559212-7.980545c.280914-.595301.89603-.977353 1.57357-.977353.67754 0 1.292656.382052 1.57357.977353l2.54192 7.980545c.172367.496058.575621.885407 1.089395 1.051829l8.282857 2.470964C515.604303 290.751918 516 291.345824 516 292s-.395697 1.248082-1.012258 1.519309l-8.282857 2.470964c-.509935.162952-.912485.545452-1.089395 1.035133l-2.54192 7.997241c-.280914.595301-.89603.977353-1.57357.977353-.67754 0-1.292656-.382052-1.57357-.977353l-2.559212-7.997241c-.159244-.500259-.568788-.889404-1.089395-1.035133l-8.265565-2.470964C487.395697 293.248082 487 292.654176 487 292s.395697-1.248082 1.012258-1.519309l8.265565-2.470964c.513774-.166422.917028-.555771 1.089395-1.051829zM337.959341 516.488798l-1.213258-3.948168c-.109149-.323124-.412118-.54063-.753056-.54063-.340937 0-.643906.217506-.753056.54063l-1.213257 3.948168c-.078833.250144-.277872.444024-.529928.516191l-3.946572 1.227699c-.32714.101212-.550214.40382-.550214.746385 0 .342565.223074.645173.550214.746385l3.946572 1.227699c.252056.072167.451095.266048.529928.516192l1.227203 3.990021c.109149.323124.412118.54063.753056.54063.340937 0 .643906-.217506.753056-.54063l1.213257-3.948168c.078224-.245542.27054-.437935.515983-.516191l3.960517-1.227699c.32714-.101212.550214-.40382.550214-.746385 0-.342565-.223074-.645173-.550214-.746385l-3.960517-1.227699c-.260859-.082402-.461037-.293201-.529928-.558045z"
          fill="#FEDE89"
        />
        <path
          d="M446.410145 84.3212823l2.53571-8.1941736C449.166517 75.4545727 449.793317 75 450.5 75c.706683 0 1.333483.4545727 1.554145 1.1271087l2.53571 8.1941736c.159566.5170125.563622.9217834 1.079722 1.0816309l8.179711 2.5401938c.684346.2129214 1.150712.8472275 1.150712 1.5650872 0 .7178596-.466366 1.3521658-1.150712 1.5650871l-8.179711 2.5238055c-.5161.1598475-.920156.5646184-1.079722 1.0816309l-2.53571 8.1941733C451.833483 103.545427 451.206683 104 450.5 104c-.706683 0-1.333483-.454573-1.554145-1.127109l-2.53571-8.1941733c-.159566-.5170125-.563622-.9217834-1.079722-1.0816309l-8.179711-2.5238055C436.466366 90.86036 436 90.2260538 436 89.5081942c0-.7178597.466366-1.3521658 1.150712-1.5650872l8.179711-2.5401938c.5161-.1598475.920156-.5646184 1.079722-1.0816309zM383.431812 532.269076l-3.047298-9.879662C380.128798 521.56327 379.364814 521 378.5 521s-1.628798.56327-1.884514 1.389414l-3.047298 9.879662c-.190181.622055-.677057 1.108931-1.299112 1.299112l-9.879662 3.047298C361.56327 536.871202 361 537.635186 361 538.5s.56327 1.628798 1.389414 1.884514l9.879662 3.047298c.622055.190181 1.108931.677057 1.299112 1.299112l3.047298 9.879662C376.871202 555.43673 377.635186 556 378.5 556s1.628798-.56327 1.884514-1.389414l3.047298-9.879662c.190181-.622055.677057-1.108931 1.299112-1.299112l9.879662-3.047298C395.43673 540.128798 396 539.364814 396 538.5s-.56327-1.628798-1.389414-1.884514l-9.879662-3.047298c-.622055-.190181-1.108931-.677057-1.299112-1.299112z"
          fill="#FCC01A"
        />
        <circle fill="#F9F9F9" cx="491" cy="90" r="1" />
        <circle fill="#F9F9F9" cx="492" cy="114" r="1" />
        <circle fill="#FCC01A" cx="478" cy="316" r="1" />
        <circle fill="#FCC01A" cx="523" cy="263" r="1" />
        <circle fill="#FCC01A" cx="531" cy="280" r="1" />
        <circle fill="#FCC01A" cx="491" cy="412" r="1" />
        <circle fill="#FCC01A" cx="390" cy="487" r="1" />
        <circle fill="#FCC01A" cx="273" cy="496" r="1" />
        <circle fill="#FCC01A" cx="455" cy="441" r="1" />
        <circle fill="#FCC01A" cx="462" cy="69" r="1" />
        <circle fill="#FCC01A" cx="455" cy="53" r="1" />
        <path
          d="M242.5 474C135.080616 474 48 386.919384 48 279.5S135.080616 85 242.5 85 437 172.080616 437 279.5c-.131066 107.365048-87.134952 194.368934-194.5 194.5zm0-385.8283734c-105.667743 0-191.3283734 85.6606304-191.3283734 191.3283734S136.832257 470.828373 242.5 470.828373 433.828373 385.167743 433.828373 279.5C433.70603 173.882975 348.117025 88.2939698 242.5 88.1716266z"
          fill="#0F0B56"
          fillRule="nonzero"
        />
      </g>
    </svg>