<svg class="css-13o7eu2" xmlns="http://www.w3.org/2000/svg" width="54" height="54"><defs><radialGradient id="a" cx="50%" cy="-50%" r="100.11%" fx="50%" fy="-50%" gradientTransform="matrix(0 .9989 -1 0 0 -1)"><stop offset="0%" stop-color="#20C6B7"/><stop offset="100%" stop-color="#4D9ABF"/></radialGradient></defs><path fill="url(#a)" d="m49.316 24.383-.024-.01c-.014-.006-.028-.01-.04-.023a.19.19 0 0 1-.048-.16l1.333-8.153 6.253 6.255-6.503 2.767a.143.143 0 0 1-.057.01h-.026a.18.18 0 0 1-.034-.029 2.96 2.96 0 0 0-.854-.657zm9.07-.497 6.686 6.686c1.389 1.39 2.084 2.084 2.338 2.888.037.119.069.238.093.36l-15.979-6.767a1.256 1.256 0 0 0-.026-.01c-.064-.026-.138-.055-.138-.12s.076-.098.14-.123l.02-.009 6.866-2.905zm8.844 12.08c-.345.649-1.018 1.322-2.156 2.462l-7.538 7.536-9.75-2.03-.052-.01c-.086-.014-.177-.03-.177-.107a2.943 2.943 0 0 0-1.13-2.058c-.04-.04-.03-.102-.018-.159 0-.009 0-.017.004-.024l1.834-11.257.006-.038c.01-.087.026-.187.104-.187a2.984 2.984 0 0 0 2-1.147c.016-.017.027-.036.048-.046.055-.026.12 0 .177.024l16.646 7.041h.002zM55.802 47.698 43.406 60.094l2.122-13.041.003-.017a.234.234 0 0 1 .01-.05c.018-.042.063-.06.106-.076l.02-.009a3.191 3.191 0 0 0 1.2-.892c.04-.048.091-.095.155-.103a.155.155 0 0 1 .05 0L55.8 47.7l.002-.002zm-15.02 15.02-1.397 1.397L23.938 41.79a.732.732 0 0 0-.017-.024c-.025-.033-.05-.066-.045-.104.001-.027.019-.052.038-.072l.017-.023c.046-.069.086-.138.13-.212l.034-.06.005-.005a.25.25 0 0 1 .088-.104c.036-.017.086-.01.126-.002l17.114 3.53a.283.283 0 0 1 .13.057c.023.022.028.046.033.074a3.03 3.03 0 0 0 1.774 2.027c.048.024.027.077.005.134a.41.41 0 0 0-.026.078c-.216 1.31-2.065 12.589-2.562 15.634zm-2.918 2.917c-1.03 1.019-1.637 1.559-2.324 1.776a3.45 3.45 0 0 1-2.08 0c-.804-.255-1.5-.948-2.888-2.339L15.06 49.56l4.052-6.284a.258.258 0 0 1 .07-.081c.042-.031.104-.017.156 0 .93.28 1.929.23 2.826-.143.046-.017.093-.03.13.003a.328.328 0 0 1 .047.055l15.524 22.527v-.001zm-24.3-17.571-3.559-3.559 7.028-2.998a.145.145 0 0 1 .057-.012c.058 0 .093.059.124.112a5.02 5.02 0 0 0 .224.317l.022.028c.021.03.007.059-.013.086l-3.882 6.026h-.001zM8.43 42.93l-4.502-4.502c-.766-.766-1.322-1.322-1.708-1.8l13.69 2.84a1.449 1.449 0 0 0 .051.009c.085.013.178.029.178.108 0 .087-.102.126-.188.159l-.04.017-7.48 3.17zm-6.997-8.616a3.45 3.45 0 0 1 .156-.854c.255-.804.948-1.497 2.339-2.888l5.761-5.761a3752.793 3752.793 0 0 0 7.98 11.535c.047.062.098.13.045.183-.252.277-.504.58-.681.91a.276.276 0 0 1-.087.107c-.022.014-.046.009-.072.004h-.004L1.433 34.312v.002zm9.798-11.045 7.747-7.747c.728.319 3.378 1.438 5.748 2.439 1.794.759 3.43 1.449 3.943 1.673.052.02.099.041.121.093.014.031.007.07 0 .104a3.455 3.455 0 0 0 .902 3.153c.052.052 0 .126-.044.19l-.025.036-7.866 12.184a.239.239 0 0 1-.074.086c-.041.026-.1.014-.148.002a3.923 3.923 0 0 0-.937-.128c-.283 0-.59.052-.9.109h-.002c-.034.005-.066.012-.093-.01a.362.362 0 0 1-.078-.087l-8.294-12.097zm9.312-9.312 10.03-10.03C31.96 2.54 32.655 1.845 33.46 1.59a3.45 3.45 0 0 1 2.08 0c.804.254 1.5.95 2.888 2.338L40.6 6.1l-7.133 11.047a.267.267 0 0 1-.07.083c-.043.03-.104.017-.156 0a3.617 3.617 0 0 0-3.312.638c-.046.049-.115.021-.174-.005-.931-.405-8.176-3.467-9.213-3.907zm21.573-6.341 6.586 6.586-1.587 9.829v.026a.233.233 0 0 1-.014.065c-.017.035-.052.042-.086.052-.34.103-.659.262-.945.471a.266.266 0 0 0-.035.03c-.019.02-.038.04-.069.043a.197.197 0 0 1-.074-.013l-10.036-4.264-.02-.008c-.063-.026-.139-.057-.139-.123a3.792 3.792 0 0 0-.535-1.578c-.048-.08-.101-.162-.06-.243l7.014-10.873zM35.333 22.46l9.408 3.985c.052.024.109.047.131.1a.183.183 0 0 1 0 .098 2.338 2.338 0 0 0-.051.454v.264c0 .065-.068.093-.13.119l-.019.007c-1.49.636-20.924 8.923-20.953 8.923-.03 0-.06 0-.09-.029-.052-.052 0-.124.047-.19a1.311 1.311 0 0 0 .024-.034l7.731-11.972.014-.02c.045-.073.097-.154.18-.154l.077.012c.176.024.331.047.488.047 1.173 0 2.26-.571 2.915-1.548a.276.276 0 0 1 .06-.069c.046-.034.115-.017.168.007zM24.56 38.305l21.183-9.033s.03 0 .06.029c.116.115.214.193.309.265l.047.03c.043.024.086.052.09.096 0 .018 0 .028-.004.044L44.43 40.882l-.007.045c-.012.087-.024.185-.105.185a2.983 2.983 0 0 0-2.368 1.461l-.01.014a.233.233 0 0 1-.085.098c-.037.017-.083.01-.121.002L24.84 39.202c-.017-.003-.262-.895-.281-.897z" transform="matrix(.78 0 0 .78 -1 -1)"/></svg>