<svg class="css-wj1b4c" width="16" height="16" xmlns="http://www.w3.org/2000/svg"><g fill="none"><path d="M8 0C3.564 0 0 3.564 0 8s3.564 8 8 8 8-3.564 8-8-3.564-8-8-8zm0 14.545A6.518 6.518 0 0 1 1.455 8 6.518 6.518 0 0 1 8 1.455 6.518 6.518 0 0 1 14.545 8 6.518 6.518 0 0 1 8 14.545z" fill="#190D33"/><path d="M8.835 3.816c-1.509-.514-3.162.295-3.665 1.766-.072.441.072.882.503.956.36.147.79-.074.934-.441.288-.736 1.078-1.177 1.869-.883.575.22.934.735.934 1.397 0 .736-1.222 1.324-1.653 1.545-.359.147-.575.515-.43.956.071.294.358.515.646.515.072 0 .144 0 .215-.073.288-.074 2.66-.957 2.66-2.869-.072-1.324-.863-2.427-2.013-2.869z" fill="#190D33"/><path d="M7.41 11.071a.677.677 0 0 0-.224.522c0 .224.075.373.224.522.15.15.298.224.522.224a.677.677 0 0 0 .522-.224.806.806 0 0 0 .224-.522.806.806 0 0 0-.224-.522.72.72 0 0 0-1.044 0z" fill="#000"/></g></svg>