<svg class="css-13o7eu2" width="62" height="54" xmlns="http://www.w3.org/2000/svg"><g fill="#00a7d4" fill-rule="evenodd"><path d="M62 27.006c0-4.017-5.143-7.824-13.03-10.184C50.79 8.96 49.983 2.707 46.419.705c-.822-.47-1.782-.693-2.831-.693V2.77c.581 0 1.049.11 1.44.321 1.72.964 2.465 4.635 1.884 9.356a37.288 37.288 0 0 1-.645 3.634c-2.477-.593-5.181-1.05-8.025-1.347-1.706-2.287-3.475-4.363-5.257-6.18 4.12-3.745 7.987-5.797 10.616-5.797V0c-3.476 0-8.025 2.423-12.625 6.625-4.6-4.178-9.15-6.576-12.625-6.576v2.757c2.616 0 6.495 2.039 10.615 5.76a58.687 58.687 0 0 0-5.219 6.167c-2.856.297-5.56.754-8.037 1.36a36.546 36.546 0 0 1-.658-3.585c-.594-4.721.14-8.392 1.845-9.369.38-.222.872-.321 1.454-.321V.062c-1.062 0-2.022.222-2.856.692-3.551 2.002-4.348 8.244-2.515 16.08C5.119 19.207 0 23.002 0 27.006c0 4.017 5.143 7.824 13.03 10.185-1.82 7.86-1.012 14.115 2.552 16.117.822.47 1.782.692 2.844.692 3.475 0 8.024-2.423 12.625-6.625 4.6 4.178 9.15 6.576 12.624 6.576 1.062 0 2.023-.223 2.857-.693 3.55-2.002 4.347-8.244 2.514-16.08C56.882 34.818 62 31.011 62 27.006zm-16.454-8.244a54.832 54.832 0 0 1-1.706 4.882 58.105 58.105 0 0 0-1.656-2.966 66.635 66.635 0 0 0-1.82-2.892c1.795.26 3.526.58 5.182.976zm-5.788 13.163a65.655 65.655 0 0 1-3.046 4.722c-1.883.16-3.791.247-5.712.247-1.908 0-3.817-.086-5.687-.235a67.952 67.952 0 0 1-3.058-4.697 63.89 63.89 0 0 1-2.629-4.919 63.95 63.95 0 0 1 2.616-4.931 65.655 65.655 0 0 1 3.046-4.722A67.224 67.224 0 0 1 31 17.143c1.908 0 3.817.087 5.687.235a67.952 67.952 0 0 1 3.058 4.697 63.89 63.89 0 0 1 2.629 4.919 68.664 68.664 0 0 1-2.616 4.931zm4.082-1.606a52.185 52.185 0 0 1 1.744 4.919c-1.656.395-3.4.729-5.207.989a68.012 68.012 0 0 0 1.82-2.93 69.72 69.72 0 0 0 1.643-2.978zM31.025 43.507a51.305 51.305 0 0 1-3.513-3.956c1.137.05 2.3.087 3.475.087 1.188 0 2.364-.025 3.514-.087a48.558 48.558 0 0 1-3.476 3.956zm-9.402-7.28a58.17 58.17 0 0 1-5.181-.977 54.832 54.832 0 0 1 1.706-4.882 58.105 58.105 0 0 0 1.655 2.966c.594.99 1.2 1.953 1.82 2.893zm9.34-25.721a51.305 51.305 0 0 1 3.512 3.955c-1.137-.05-2.3-.087-3.475-.087-1.188 0-2.363.025-3.513.087a48.558 48.558 0 0 1 3.475-3.955zm-9.353 7.28a68.012 68.012 0 0 0-3.462 5.895 52.185 52.185 0 0 1-1.744-4.919c1.655-.383 3.4-.717 5.206-.976zM10.173 33.26c-4.473-1.866-7.367-4.313-7.367-6.254 0-1.94 2.894-4.4 7.367-6.254 1.087-.457 2.275-.865 3.5-1.248a58.534 58.534 0 0 0 2.844 7.527 57.702 57.702 0 0 0-2.805 7.49 38.952 38.952 0 0 1-3.539-1.26zm6.8 17.662c-1.72-.964-2.465-4.635-1.884-9.356.14-1.162.367-2.385.645-3.634 2.477.594 5.181 1.05 8.025 1.347 1.706 2.287 3.475 4.363 5.257 6.18-4.12 3.745-7.987 5.797-10.616 5.797-.568-.012-1.049-.123-1.428-.334zm29.976-9.418c.594 4.722-.14 8.393-1.845 9.369-.38.222-.872.321-1.454.321-2.616 0-6.495-2.039-10.615-5.76a58.687 58.687 0 0 0 5.219-6.167c2.856-.297 5.56-.754 8.037-1.36.291 1.249.519 2.448.658 3.597zm4.865-8.244c-1.087.458-2.275.865-3.5 1.249a58.534 58.534 0 0 0-2.844-7.528 57.702 57.702 0 0 0 2.806-7.49 40.67 40.67 0 0 1 3.55 1.261c4.474 1.866 7.368 4.314 7.368 6.254-.012 1.94-2.906 4.4-7.38 6.254z" fill-rule="nonzero"/><ellipse cx="30.76" cy="27.235" rx="5.767" ry="5.635"/></g></svg>