<svg viewBox="0 0 613 651" xmlns="http://www.w3.org/2000/svg"><g fill="none"><path d="M236.381 405.962h-.131l-4.269-1.116a.55.55 0 0 1-.336-.257.566.566 0 0 1-.059-.423.546.546 0 0 1 .246-.342.53.53 0 0 1 .412-.06l4.27 1.116a.56.56 0 0 1 .482.625.555.555 0 0 1-.615.49v-.033zm-14.913-3.738h-.131l-4.27-1.116a.55.55 0 0 1-.336-.257.566.566 0 0 1-.058-.424c.03-.145.119-.27.244-.346a.52.52 0 0 1 .414-.056l4.269 1.116c.14.034.261.125.336.25a.55.55 0 0 1-.467.832zm-14.913-3.75h-.132l-4.268-1.116a.538.538 0 0 1-.336-.25.555.555 0 0 1-.06-.42.547.547 0 0 1 .244-.348.53.53 0 0 1 .415-.065l4.269 1.116a.57.57 0 0 1 .395.681.55.55 0 0 1-.527.39v.012zm-14.913-3.75h-.132l-4.269-1.116a.55.55 0 0 1-.336-.257.566.566 0 0 1-.059-.424.548.548 0 0 1 .659-.401l4.269 1.116a.56.56 0 0 1 .482.625.555.555 0 0 1-.614.49v-.033zm-14.913-3.76h-.132l-4.269-1.117a.55.55 0 0 1-.336-.257.566.566 0 0 1-.059-.424c.031-.144.12-.27.244-.345a.52.52 0 0 1 .415-.056l4.268 1.116a.56.56 0 0 1 .483.625.555.555 0 0 1-.614.49v-.033zm-14.914-3.75h-.131l-4.269-1.117a.527.527 0 0 1-.34-.248.544.544 0 0 1-.055-.421.548.548 0 0 1 .658-.413l4.27 1.116a.57.57 0 0 1 .394.68.55.55 0 0 1-.527.391v.011zm-33.4-22.217a.542.542 0 0 1-.486-.285l-2.045-3.877a.546.546 0 0 1 .221-.747.556.556 0 0 1 .752.23l2.077 3.878a.546.546 0 0 1-.232.746.511.511 0 0 1-.287.055zm-7.271-13.608a.553.553 0 0 1-.486-.297l-2.078-3.877a.546.546 0 0 1-.007-.57.553.553 0 0 1 .98.054l2.077 3.877a.546.546 0 0 1-.232.747.51.51 0 0 1-.254.066zm-7.271-13.575a.553.553 0 0 1-.487-.297l-2.077-3.877a.535.535 0 0 1 .22-.736.556.556 0 0 1 .752.22L114.36 337a.546.546 0 0 1-.232.747.51.51 0 0 1-.254.11v-.044zm-7.272-13.576a.542.542 0 0 1-.486-.285l-2.077-3.889a.535.535 0 0 1 .232-.735.544.544 0 0 1 .74.22l2.089 3.931a.535.535 0 0 1-.232.736.51.51 0 0 1-.266.066v-.044zm-7.238-13.487a.542.542 0 0 1-.486-.286l-2.077-3.877a.546.546 0 0 1 .232-.747.544.544 0 0 1 .74.23l2.078 3.878a.535.535 0 0 1-.221.736.589.589 0 0 1-.266.066zm-7.304-13.62a.542.542 0 0 1-.486-.285l-2.078-3.878a.546.546 0 0 1 .232-.746.565.565 0 0 1 .74.23l2.078 3.877a.558.558 0 0 1-.22.747.578.578 0 0 1-.266.055zm-7.271-13.564a.553.553 0 0 1-.486-.297l-2.078-3.877a.546.546 0 0 1-.007-.57.553.553 0 0 1 .98.054l2.077 3.877a.546.546 0 0 1-.221.747.589.589 0 0 1-.265.066zm-7.271-13.576a.564.564 0 0 1-.487-.296l-2.077-3.877a.548.548 0 0 1 .232-.736.565.565 0 0 1 .751.22l2.078 3.876a.57.57 0 0 1-.232.747.589.589 0 0 1-.265.066zm-7.26-13.575a.553.553 0 0 1-.498-.286l-2.077-3.877a.556.556 0 0 1 .983-.516l2.078 3.877a.548.548 0 0 1-.232.736.588.588 0 0 1-.255.066zm-7.272-13.576a.553.553 0 0 1-.497-.285l-2.077-3.877a.556.556 0 0 1 .983-.516l2.078 3.877c.139.27.036.601-.233.746a.51.51 0 0 1-.254.055zm-7.27-13.564a.553.553 0 0 1-.487-.297l-2.078-3.899a.546.546 0 0 1-.007-.57.553.553 0 0 1 .98.054l2.077 3.877a.546.546 0 0 1-.232.747.51.51 0 0 1-.254.088zM48.442 215.7a.553.553 0 0 1-.486-.296l-2.078-3.877a.548.548 0 0 1 .244-.71.554.554 0 0 1 .729.194l2.077 3.877a.546.546 0 0 1-.232.747.51.51 0 0 1-.254.065zm-7.271-13.575a.564.564 0 0 1-.486-.286l-2.1-3.877a.549.549 0 0 1 .22-.747.556.556 0 0 1 .752.22l2.078 3.877a.546.546 0 0 1-.232.747.51.51 0 0 1-.232.066zM33.9 188.55a.542.542 0 0 1-.487-.286l-2.077-3.822a.546.546 0 0 1 .22-.747.556.556 0 0 1 .752.23l2.078 3.812a.535.535 0 0 1-.232.736.51.51 0 0 1-.254.077zm-7.272-13.565a.553.553 0 0 1-.486-.296l-2.077-3.878a.546.546 0 0 1 .232-.746.544.544 0 0 1 .74.23l2.078 3.877a.558.558 0 0 1-.221.747.589.589 0 0 1-.266.066z" fill="#FCC01A" opacity=".8"/><path d="m133.81 379.636-3.582-4.933a1.162 1.162 0 0 1 1.325-1.783l5.767 2.073c.35.118.735.06 1.035-.156l4.928-3.617a1.169 1.169 0 0 1 1.791 1.327l-2.07 5.773c-.118.35-.06.736.155 1.036l3.613 4.934a1.162 1.162 0 0 1-1.325 1.782L139.68 384a1.148 1.148 0 0 0-1.035.155l-4.928 3.617a1.159 1.159 0 0 1-1.781-1.326l2.07-5.773c.101-.358.028-.741-.196-1.037zm190.27 248.692-6.294-2.647a1.306 1.306 0 0 1 .242-2.473l6.7-1.353c.422-.086.773-.377.937-.774l2.661-6.288a1.296 1.296 0 0 1 2.465.243l1.354 6.692c.09.422.379.775.775.948l6.294 2.647a1.306 1.306 0 0 1-.242 2.473l-6.7 1.352c-.42.083-.772.369-.937.763l-2.661 6.3a1.296 1.296 0 0 1-2.465-.255l-1.354-6.692a1.33 1.33 0 0 0-.775-.936zm-198.425-8.116-4.324-4.692a1.21 1.21 0 0 1 1.157-2.01l6.226 1.437c.387.083.79-.025 1.081-.292l4.692-4.324a1.21 1.21 0 0 1 2.01 1.157l-1.437 6.226a1.2 1.2 0 0 0 .303 1.081l4.324 4.692a1.222 1.222 0 0 1-1.168 2.01l-6.226-1.426a1.167 1.167 0 0 0-1.081.292l-4.692 4.324a1.222 1.222 0 0 1-2.01-1.168l1.437-6.226a1.222 1.222 0 0 0-.292-1.081z" fill="#FCC01A"/><path d="m250.739 407.599 4.587 1.186a.898.898 0 0 1 .082 1.713l-4.452 1.61a.898.898 0 0 0-.568.62l-1.178 4.581a.899.899 0 0 1-1.725.083l-1.601-4.448a.92.92 0 0 0-.63-.567l-4.587-1.177a.908.908 0 0 1-.083-1.723l4.453-1.6a.898.898 0 0 0 .568-.63l1.177-4.581a.909.909 0 0 1 1.726-.083l1.611 4.448c.097.282.33.496.62.568zm146.617 142.565 4.455-1.877a.87.87 0 0 1 1 .333c.235.328.252.78.043 1.128l-2.702 4.26c-.17.268-.205.61-.094.91l1.742 4.8c.12.395-.004.827-.31 1.08a.855.855 0 0 1-1.046.045l-3.954-2.912a.882.882 0 0 0-.846-.1l-4.455 1.877a.87.87 0 0 1-1-.334 1.04 1.04 0 0 1-.043-1.128l2.702-4.26c.165-.27.2-.608.094-.91l-1.753-4.8c-.11-.395.018-.823.322-1.073a.865.865 0 0 1 1.045-.052l3.954 2.912a.843.843 0 0 0 .846.1zm-240.65 91.745 3.725 1.024c.318.075.55.369.568.72.018.35-.184.67-.493.78l-3.617 1.42a.774.774 0 0 0-.453.547l-.95 4.015c-.083.33-.353.565-.67.584a.734.734 0 0 1-.723-.503l-1.318-3.898a.734.734 0 0 0-.507-.488l-3.725-1.024a.78.78 0 0 1-.542-.722.796.796 0 0 1 .466-.78l3.617-1.42a.751.751 0 0 0 .454-.546l.95-4.015c.077-.338.35-.583.674-.602.323-.019.62.193.73.521l1.306 3.898a.756.756 0 0 0 .508.489z" fill="#FEDE89"/><path fill="#FFCB64" d="M237.284 257.487 233.135 240l40.7-9.616 4.149 17.488z"/><path d="M235.703 259 231 239.866 274.297 230 279 249.134 235.703 259zm-2.034-17.54 3.691 14.982 38.916-8.881-3.68-14.982-38.927 8.882z" fill="#0F0B56"/><path fill="#FFCB64" d="m360.135 216.04-10.208-14.806 34.457-23.659 10.208 14.806z"/><path d="M359.51 218 348 201.16 384.49 176 396 192.784 359.51 218zm-8.436-16.23 9.012 13.146 32.807-22.63-9.012-13.135-32.807 22.62z" fill="#0F0B56"/><path fill="#FFF" d="m230.232 248.078 50.19-9.337.201 1.08-50.19 9.336zm123.405-38.666 42.394-30.11.638.895-42.394 30.11z"/><path d="M256 312.307C180.327 328.726 107.766 342.127 31.466 355 18.95 305.546 12.152 268.58 2 225.314 83.569 209.996 150.355 194.866 225.709 180c11.439 46.657 19.325 86.883 30.291 132.307z" fill="#B7B7ED"/><path d="M256 312.307C180.327 328.726 107.766 342.127 31.466 355 18.95 305.546 12.152 268.58 2 225.314 83.569 209.996 150.355 194.866 225.709 180c11.439 46.657 19.325 86.883 30.291 132.307z" fill="#B7B7ED"/><path d="M205.759 281.663 247 273.088c-.066-.274-.121-.538-.187-.812l-41.22 8.575a65810.553 65810.553 0 0 1-11.097-55.49l40.295-7.048c-.055-.264-.121-.527-.177-.802l-40.228 7.05c-2.752-13.79-5.361-26.89-7.475-37.561l-.815.165c2.114 10.672 4.723 23.748 7.476 37.538l-46.394 8.113a15264.49 15264.49 0 0 1-7.189-36.143l-.804.164c1.971 9.98 4.47 22.585 7.179 36.122l-47.88 8.377c-2.653-13.328-5.064-25.46-6.88-34.661l-.805.165c1.817 9.2 4.217 21.321 6.87 34.64l-51.887 9.079a11279.82 11279.82 0 0 1-6.605-33.344l-.815.165c1.63 8.278 3.963 20.015 6.606 33.322L9 257.004c.066.263.121.538.176.801l35.957-6.29c3.743 18.818 8.103 40.622 12.022 60.199l-34.503 7.136c.066.264.12.538.187.802l34.481-7.17c2.72 13.592 5.207 26.032 7.112 35.518l.815-.132c-1.872-9.343-4.404-21.827-7.123-35.55l51.567-10.727 7.42 37.066.815-.154c-1.739-8.685-4.403-21.959-7.43-37.077l47.537-9.881c3.303 16.282 6.034 30.127 7.619 37.999l.804-.154c-1.465-7.246-4.272-21.278-7.63-37.988l46.107-9.585c3.644 18.226 6.606 32.828 7.707 38.427l.815-.164c-.782-3.876-3.81-18.972-7.696-38.417zm-147.8 29.886a62733.639 62733.639 0 0 1-12.012-60.178l51.887-9.08c3.755 18.83 7.971 39.954 11.692 58.542L57.96 311.55zm52.426-10.892c-3.71-18.489-7.938-39.635-11.692-58.508l47.825-8.377c3.754 18.785 7.85 39.284 11.394 57.004l-47.527 9.881zm48.342-10.046c-3.534-17.632-7.64-38.153-11.395-56.982l46.394-8.125c3.732 18.665 7.706 38.614 11.097 55.511l-46.096 9.596z" fill="#FFF"/><path d="M256 313.164C244.943 267.807 237.038 227.62 225.55 181l-4.545.902 23.286 124.76L93 345c54.488-9.67 107.904-19.966 163-31.836z" fill="#FFF"/><path d="m29.855 355-.23-.999c-7.44-29.518-12.904-54.766-18.181-79.18-3.665-16.85-7.055-32.79-11.18-50.112L0 223.61l1.097-.241c47.63-8.947 90.728-17.926 132.411-26.61 29.284-6.103 59.578-12.415 90.739-18.562l1.031-.198.253 1.01c5.957 24.348 11.037 47.269 15.942 69.421 4.389 20.11 9.052 40.891 14.264 62.462l.263 1.097-1.097.242c-68.762 14.93-137.864 28.058-224.082 42.592l-.966.176zM2.666 225.324c3.95 16.905 7.33 32.537 10.906 49.058 5.212 24.15 10.6 49.058 17.918 78.115 85.253-14.38 153.784-27.443 221.877-42.164-5.102-21.198-9.634-41.638-14-61.408-4.84-21.845-9.875-44.415-15.69-68.356-30.788 6.081-60.731 12.316-89.697 18.354-41.354 8.617-84.112 17.52-131.314 26.4z" fill="#0F0B56"/><path d="M423.296 245C488.33 203.004 549.01 161.075 612 116.091 585.786 72.459 564.356 41.591 540.925 4 472.535 50.95 414.748 87.585 351 130.46c24.971 40.93 47.886 74.807 72.296 114.54z" fill="#B7B7ED"/><path d="M423.296 245C488.33 203.004 549.01 161.075 612 116.091 585.786 72.459 564.356 41.591 540.925 4 472.535 50.95 414.748 87.585 351 130.46c24.971 40.93 47.886 74.807 72.296 114.54z" fill="#B7B7ED"/><path d="M564.578 105.431 594 86.141c-.143-.231-.286-.461-.44-.692l-29.445 19.302a71607.564 71607.564 0 0 0-34.3-50.908l29.84-20.947-.45-.702-29.853 20.958C521.754 41.9 515.038 31.986 510.314 25l-.683.46c4.735 6.976 11.44 16.912 19.039 28.164l-43.066 30.235c-7.598-11.252-14.513-21.495-19.82-29.26l-.683.45c5.263 7.765 12.19 18.019 19.82 29.282l-39.695 27.878c-7.72-11.428-14.866-22.11-20.614-30.532l-.682.45c5.692 8.422 12.894 19.093 20.624 30.553l-38.54 27.023c-7.862-11.658-15.317-22.713-21.417-31.717l-.683.45a10710.62 10710.62 0 0 1 21.417 31.804L372 163.62c.143.23.297.46.44.702l33.409-23.458c10.692 15.847 22.023 32.714 31.614 46.927l-35.182 23.03.44.703 35.237-23.03A39661.193 39661.193 0 0 1 459.827 221l.693-.46-21.868-32.506 39.288-25.838 21.638 32.165.693-.471-21.648-32.155 40.566-26.595 21.12 31.442.682-.46c-5.109-7.6-12.619-18.765-21.108-31.366l44.045-28.842c7.83 11.614 14.931 22.175 20.25 30.07l.672-.47c-5.44-8.061-12.531-18.579-20.272-30.083zm-126.444 81.912-31.624-46.95 38.54-27.033 32.46 48.189-39.376 25.794zm40.038-26.244c-10.098-14.992-21.77-32.33-32.484-48.254l39.729-27.823a40494.673 40494.673 0 0 1 33.342 49.482L478.172 161.1zm41.248-27.044a67601.585 67601.585 0 0 0-33.353-49.516l43.065-30.225a87326.63 87326.63 0 0 1 34.3 50.854l-44.012 28.887z" fill="#FFF"/><path d="M534.868 6.988 603.88 113.84 455 223c53.3-35.054 104.35-70.415 157-107.907C585.72 71.46 564.227 40.59 540.727 3l-5.859 3.988z" fill="#FFF"/><path d="m422.451 247-.594-.956c-11.63-18.924-23.105-36.85-34.272-54.203-12.268-19.123-24.964-38.893-38.035-60.322l-.55-.89.87-.593c26.405-17.771 52.315-34.796 77.356-51.271 35.67-23.44 72.538-47.658 112.587-75.117l.946-.648.616.978c9.429 15.113 18.308 28.81 27.726 43.319 13.599 20.967 27.67 42.66 43.37 68.779l.529.868-.825.593c-71.317 50.865-129.53 90.614-188.778 128.848l-.946.615zm-70.48-115.723c12.872 21.056 25.37 40.53 37.473 59.388 11.003 17.058 22.258 34.686 33.7 53.27 58.665-37.893 116.394-77.313 186.918-127.65-15.469-25.702-29.365-47.131-42.81-67.857-9.208-14.202-17.922-27.624-27.142-42.375-39.696 27.25-76.28 51.283-111.673 74.546-24.767 16.289-50.369 33.126-76.466 50.678z" fill="#0F0B56"/><path d="M335.662 11c20.586 46.358-3.625 101.848-54.07 123.931C231.15 157.014 173.576 137.397 153 90.984" fill="#FFF"/><path fill="#FFCB64" d="m267.523 127.12 16.456-7.302 12.732 28.58-16.455 7.3z"/><path d="M280.606 158 267 126.446 285.438 118 299 149.543 280.606 158zm-10.707-30.4 11.827 27.411 14.419-6.612-11.816-27.41-14.43 6.612z" fill="#0F0B56"/><path d="M335.662 11c20.586 46.358-3.625 101.848-54.07 123.931C231.15 157.014 173.576 137.397 153 90.984L335.662 11z" fill="#FFF"/><path d="M329.237 13 152 90.684c7.824 17.497 21.29 31.909 38.276 40.963 25.485 12.801 57.454 14.277 86.967 1.355C326.628 111.39 348.05 58.631 329.237 13z" fill="#B7B7ED"/><path d="m327.364 97.824.208-.353-14.077-8.238a90.523 90.523 0 0 0 8.108-17.05 94.523 94.523 0 0 0 5.3-32.598L343 37.374v-.818l-16.02 2.211A97.65 97.65 0 0 0 323.754 16l-.768.343a96.213 96.213 0 0 1 3.171 22.535l-22.428 3.118c.797-5.79 1.087-11.64.867-17.482l-.812.354a97.835 97.835 0 0 1-.911 17.25L277.998 45.5a76.085 76.085 0 0 0 2.502-10.394l-.9.398a75.223 75.223 0 0 1-2.502 10.14l-29.494 4.091-1.844.818 21.781 12.783a36.766 36.766 0 0 1-12.64 9.642l-9.7-22.17-.746.331 9.732 22.148a36.424 36.424 0 0 1-15.471 2.886l5.376-24.89-1.843.818-23.043 19.273a73.963 73.963 0 0 1-9.14-4.987l-.9.398a74.325 74.325 0 0 0 9.327 5.186l-19.246 16.11a97.444 97.444 0 0 1-13.277-10.979l-.812.365a98.691 98.691 0 0 0 13.43 11.168l-17.424 14.584a96.044 96.044 0 0 1-14.396-17.592l-.768.343a97.15 97.15 0 0 0 14.528 17.791l-12.333 10.317.526.641 12.41-10.383a92.794 92.794 0 0 0 27.432 18.013 88.69 88.69 0 0 0 18.116 5.528l-3.446 15.945.801.177 3.457-15.978a84.1 84.1 0 0 0 15.021 1.393 82.367 82.367 0 0 0 33.149-6.977l5.958 13.756.373-.155.351-.166-6.024-13.767c15.127-6.797 27.892-17.994 36.66-32.154l14.078 8.237.307-.365zm-49.63-51.45 24.93-3.471a89.372 89.372 0 0 1-1.766 8.78 76.59 76.59 0 0 1-10.567 24.005l-21.528-12.595a52.863 52.863 0 0 0 8.932-16.718zm-30.295 4.213 29.385-4.09a51.648 51.648 0 0 1-8.778 16.176l-20.607-12.086zm20.848 13.148 21.616 12.65a59.684 59.684 0 0 1-24.458 20.632l-10.16-23.298a37.549 37.549 0 0 0 12.98-9.984h.022zm-28.529 13.268c5.07.025 10.091-.991 14.758-2.985l10.194 23.287a59.09 59.09 0 0 1-31.502 4.29l5.321-24.625 1.23.033zm3.215-24.458-5.135 23.618a50.313 50.313 0 0 1-17.809-4.423l22.944-19.195zm-23.657 19.814a51.438 51.438 0 0 0 18.346 4.633l-5.3 24.515a75.04 75.04 0 0 1-24.82-8.316 90.667 90.667 0 0 1-7.593-4.588l19.367-16.244zm7.527 54.712a87.994 87.994 0 0 1-17.973-5.528 92.1 92.1 0 0 1-27.102-17.748l17.556-14.673a89.839 89.839 0 0 0 7.867 4.766 75.784 75.784 0 0 0 25.051 8.448l-5.399 24.735zm.812.144L233 102.457c2.765.365 5.55.55 8.34.553a58.982 58.982 0 0 0 23.667-4.898l10.315 23.563a81.792 81.792 0 0 1-47.666 5.54zm48.412-5.872L265.763 97.77a60.467 60.467 0 0 0 24.832-21.009l21.747 12.76c-8.677 14.012-21.309 25.093-36.275 31.823zm36.714-32.575-21.737-12.66a77.1 77.1 0 0 0 10.644-24.216 89.77 89.77 0 0 0 1.876-9.111l22.571-3.14a93.398 93.398 0 0 1-5.256 32.21 89.02 89.02 0 0 1-8.098 16.917z" fill="#FFF"/><path d="M335.662 11c20.586 46.358-3.625 101.848-54.07 123.931C231.15 157.014 173.576 137.397 153 90.984" stroke="#FFF"/><path d="M238.411 146a101.487 101.487 0 0 1-33.097-5.514c-24.641-8.49-43.777-25.803-53.874-48.75L151 90.72 336.107 9l.44 1.003c10.097 22.948 9.91 48.773-.407 72.779-10.317 24.006-29.651 43.094-54.359 54.032a107.477 107.477 0 0 1-43.37 9.186zm-84.504-54.11c9.91 21.889 28.429 38.396 52.123 46.556 24.08 8.304 50.648 6.992 74.87-3.694 24.223-10.685 43.095-29.453 53.225-52.863 9.964-23.025 10.25-47.814.848-69.934L153.907 91.89z" fill="#0F0B56"/><path fill="#0F0B56" d="M185.924 78 184 76.949 223.934 6 304 24.794l-.517 2.113-78.438-18.425z"/><circle fill="#B7B7ED" cx="224.5" cy="6.5" r="5.5"/><path d="M224.488 13a6.52 6.52 0 0 1-6.184-4.539 6.506 6.506 0 0 1 4.238-8.16 6.509 6.509 0 0 1 8.153 4.236A6.493 6.493 0 0 1 224.488 13zm0-10.766a4.272 4.272 0 0 0-4.07 5.59 4.248 4.248 0 0 0 5.345 2.772 4.272 4.272 0 0 0 2.762-5.377 4.272 4.272 0 0 0-4.015-2.985h-.022z" fill="#0F0B56"/><path d="M411 356.111c-2.534 3.958-6.418 6.85-10.368 9.405a112.297 112.297 0 0 1-35.107 14.916 48.116 48.116 0 0 1-14.02 1.533l-9.71-20.102c-6.363-13.177-12.683-25.876-17.795-39.586A166.177 166.177 0 0 1 383.573 297c10.597 20.82 17.619 39.835 27.427 59.111z" fill="#FFCB64"/><path d="M354.139 384c-.76 0-1.5 0-2.205-.077h-.65l-11.97-24.825c-5.853-12.1-11.376-23.533-16.016-36.006l-.298-.81.705-.482a169.227 169.227 0 0 1 60.25-25.625l.827-.175.386.756c5.412 10.688 9.92 20.97 14.33 30.913 4.408 9.944 8.41 19.11 13.226 28.626l.276.558-.33.526c-2.734 4.27-6.967 7.348-10.748 9.855a113.261 113.261 0 0 1-35.592 15.178A52.493 52.493 0 0 1 354.14 384zm-1.455-2.19c4.424.093 8.84-.43 13.117-1.555a110.717 110.717 0 0 0 34.898-14.882c3.428-2.19 7.23-4.96 9.744-8.618-4.729-9.374-8.741-18.518-12.996-28.177-4.255-9.658-8.642-19.71-13.866-30.048a166.938 166.938 0 0 0-57.914 24.628c4.542 12.046 9.92 23.237 15.63 35.042l11.387 23.61z" fill="#0F0B56"/><path d="M358.425 375c-.618 0-1.226 0-1.834-.055h-.32l-9.857-20.33c-4.85-10.003-9.447-19.448-13.26-29.766l-.154-.393.354-.24a140.491 140.491 0 0 1 49.955-21.129l.42-.087.188.371c4.508 8.845 8.265 17.34 11.89 25.562 3.624 8.222 6.994 15.832 11.05 23.716l.143.273-.166.262c-2.21 3.483-5.712 5.994-8.84 8.003a94.048 94.048 0 0 1-29.502 12.503 43.58 43.58 0 0 1-10.067 1.31zm-1.447-1.092a39.684 39.684 0 0 0 11.237-1.277 92.702 92.702 0 0 0 29.15-12.36c2.939-1.89 6.21-4.248 8.331-7.415-3.967-7.807-7.337-15.428-10.895-23.487-3.558-8.058-7.282-16.455-11.702-25.19a139.347 139.347 0 0 0-48.817 20.648c3.8 10.111 8.331 19.425 13.116 29.274l9.58 19.807z" fill="#FFF"/><path d="M417 323.894c-3.666 13.206-14.003 23.772-25.97 30.397a173.592 173.592 0 0 1-43.098 16.167c-10.315 2.201-19.584-3.015-19.584-3.015C298.14 303.325 268.67 233.087 244 166.636A394.721 394.721 0 0 1 332.19 131c27.235 64.063 57.575 128.83 84.81 192.894z" stroke="#0F0B56" fill="#383884"/><path d="m322.864 261.35-33.972-84.325c-3.664-9.04-13.9-13.39-22.887-9.725L248 174.654c19.781 52.382 40.914 104.204 64.15 155.346 18.725-18.584 21.144-42.744 10.714-68.65z" fill="#222263"/><path d="M326 133.795 414.246 331a41.011 41.011 0 0 0 2.754-7.169c-27.147-63.71-57.39-128.12-84.493-191.831a401.138 401.138 0 0 0-6.507 1.795z" fill="#FFF"/><path d="M342.754 370.997a33.145 33.145 0 0 1-14.828-3.666l-.307-.164-.154-.317c-30.313-64.195-59.409-133.237-84.136-199.73l-.329-.886.823-.46a395.326 395.326 0 0 1 88.175-35.533l.922-.241.373.875c13.577 31.835 28.163 64.403 42.277 95.887 14.114 31.485 28.7 64.063 42.276 95.92l.154.361-.11.361c-3.402 12.246-13.038 23.496-26.417 30.894a174.184 174.184 0 0 1-43.264 16.207 26.415 26.415 0 0 1-5.455.492zm-13.434-5.417c1.646.821 9.724 4.553 18.471 2.725a171.744 171.744 0 0 0 42.65-15.922c12.742-7.037 21.95-17.663 25.243-29.198-13.521-31.736-28.052-64.161-42.112-95.525-14.059-31.364-28.437-63.473-41.914-95.055a392.82 392.82 0 0 0-85.925 34.636c24.573 66.044 53.46 134.605 83.587 198.34z" fill="#0F0B56"/><path d="m280.111 260-.111-1.129c.601-.068 60.07-6.537 92.22-38.871l.78.79c-32.43 32.64-92.287 39.154-92.889 39.21z" fill="#0F0B56"/><path d="m282.122 269-.122-1.129c.601-.068 60.063-6.537 92.21-38.871l.79.79c-32.448 32.64-92.276 39.154-92.878 39.21zm3.92-122.518 1.008-.44 43.747 100.07-1.008.438z" fill="#0F0B56"/><path fill="#0F0B56" d="m333.65 254.91 1.004-.45 46.699 104.036-1.004.449zm-26.384-42.702 1.007-.44 16.196 36.87-1.008.44zm12.476-5.188 1.008-.44 16.195 36.87-1.008.44zm7.98 50.82 1.007-.442 16.195 36.87-1.008.441zm12.475-5.178 1.008-.44 16.195 36.87-1.008.44zM271.23 240l-.056-1.088c7.36-.316 17.415-6.104 19.49-7.345l-19.827-51.142-20.422 7.868-.415-1.012L271.488 179 292 232.013l-.382.24c-.448.337-11.882 7.377-20.388 7.747z"/><path d="M277.506 211a2.5 2.5 0 1 1 2.49-2.657 2.5 2.5 0 0 1-2.333 2.647l-.157.01zm0-3.943h-.094a1.496 1.496 0 1 0 .094 0zM364.258 324l-.258-1.064c.269-.064 26.889-6.258 37.97-30.936l1.03.415c-11.35 25.21-38.473 31.521-38.742 31.585z" fill="#0F0B56"/><path fill="#FFCB64" d="m210.692 513.042 2.493-3.816 8.892 5.787-2.493 3.816z"/><path d="M220.415 520 210 512.817l3.596-5.817L224 514.183 220.415 520zm-7.47-7.838 6.84 4.72 1.249-2.044-6.83-4.72-1.259 2.044z" fill="#0F0B56"/><path fill="#FFCB64" d="m239.814 528.394.942-4.458 10.387 2.187-.942 4.458z"/><path d="M250.696 532 239 529.42l1.304-6.42L252 525.568 250.696 532zm-9.242-4.28 7.681 1.69.452-2.258-7.681-1.69-.452 2.257z" fill="#0F0B56"/><path d="M203.03 526c-16.215-10.839-31.342-21.677-47.03-33.34 6.894-10.773 12.482-18.371 18.663-27.66 17.06 12.226 31.452 21.688 47.337 32.82-6.565 10.069-12.559 18.425-18.97 28.18z" fill="#B7B7ED"/><path d="M203.03 526c-16.215-10.839-31.342-21.677-47.03-33.34 6.894-10.773 12.482-18.371 18.663-27.66 17.06 12.226 31.452 21.688 47.337 32.82-6.565 10.069-12.559 18.425-18.97 28.18z" fill="#B7B7ED"/><path d="M204.951 505.932A6358.22 6358.22 0 0 1 215 491.642l-.905-.631c-2.342 3.315-5.695 8.079-10.06 14.29l-15.858-11 10.06-14.312-.905-.632a7821.74 7821.74 0 0 0-10.071 14.312l-13.88-9.626c4.107-5.86 7.939-11.31 10.114-14.4l-.894-.643a6252.83 6252.83 0 0 0-10.137 14.4l-7.134-4.951-.618.908 7.122 4.94L163 496.872l.883.664 8.835-12.606 13.891 9.637-9.11 12.983.895.654 9.12-13.005 15.924 11.01-9.287 13.16.906.632 9.254-13.193 8.348 5.782.607-.92-8.315-5.737z" fill="#FFF"/><path d="M204.084 525c6.39-9.929 12.373-18.468 18.916-28.683-.614-.43-2.586-1.887-3.19-2.317l-17.534 29.786L170 500.73c11.2 8.285 22.357 16.294 34.084 24.27z" fill="#FFF"/><path d="m203.853 528-.934-.638c-14.798-10.063-29.32-20.5-47.106-33.853l-.813-.616.55-.857c4.13-6.6 7.832-11.989 11.402-17.246 2.461-3.63 4.79-7.05 7.262-10.822l.626-.968.934.67c9.985 7.216 19.18 13.584 28.079 19.798 6.25 4.322 12.71 8.798 19.29 13.462l.857.605-.56.89c-3.439 5.368-6.767 10.328-9.997 15.112-2.911 4.345-5.932 8.799-8.986 13.561l-.604.902zm-45.909-35.679c17.017 12.77 31.056 22.866 45.282 32.555 2.857-4.399 5.669-8.59 8.393-12.648 3.043-4.509 6.174-9.172 9.404-14.187-6.284-4.4-12.447-8.711-18.423-12.846-8.623-5.972-17.577-12.154-27.178-19.093-2.263 3.431-4.493 6.708-6.657 9.898-3.406 5.037-6.921 10.206-10.82 16.321z" fill="#0F0B56"/><path d="M245 545.026c19.116 4.55 37.439 8.327 56.786 11.974 3.457-12.333 5.395-21.564 8.214-32.362-20.624-4.354-37.439-8.48-56.554-12.638-3.139 11.658-5.407 21.694-8.446 33.026z" fill="#B7B7ED"/><path d="M245 545.026c19.116 4.55 37.439 8.327 56.786 11.974 3.457-12.333 5.395-21.564 8.214-32.362-20.624-4.354-37.439-8.48-56.554-12.638-3.139 11.658-5.407 21.694-8.446 33.026z" fill="#B7B7ED"/><path d="m307 539.537-8.63-1.709a2213.812 2213.812 0 0 0 3.341-15.029l-1.113-.242c-.735 3.308-1.993 8.898-3.34 15.062l-19.03-3.76a5509.766 5509.766 0 0 0 3.485-15.559l-1.113-.242c-.88 3.925-2.15 9.615-3.496 15.591l-16.702-3.308c1.573-6.961 2.78-12.324 3.619-16.087l-1.114-.254c-.946 4.267-2.227 10.122-3.619 16.132l-10.02-1.974-.268 1.103 10.021 1.973c-1.336 5.944-2.683 11.92-3.73 16.54l1.113.243a7997.884 7997.884 0 0 0 3.742-16.54l16.702 3.308-3.82 16.926 1.114.22a1539.486 1539.486 0 0 0 3.819-16.925l19.04 3.749-3.841 17.024 1.113.221c1.481-6.55 2.762-12.24 3.842-17.025l8.607 1.698.278-1.136z" fill="#FFF"/><path d="m306.167 523-7.378 33.42L254 546.975c15.9 3.676 31.467 6.884 47.711 10.026 3.489-12.622 5.445-22.069 8.289-33.12l-3.833-.88z" fill="#FFF"/><path d="m302.346 558-.992-.19c-21.647-4.276-38.999-8.09-56.264-12.343l-1.09-.27.283-1.122c1.44-5.554 2.714-10.906 3.946-16.09 1.363-5.722 2.78-11.647 4.425-17.953l.273-1.032 1.013.224c7.826 1.784 15.423 3.602 22.78 5.353 10.443 2.502 21.255 5.082 33.19 7.674l1.09.247-.283 1.122c-1.09 4.489-2.082 8.573-3.096 12.926-1.471 6.306-2.997 12.825-5.046 20.444l-.23 1.01zm-55.654-14.486c16.611 4.107 33.386 7.787 54.084 11.894 1.908-7.159 3.357-13.364 4.763-19.378.883-3.815 1.81-7.753 2.823-11.826-11.52-2.514-21.995-5.016-32.12-7.44-7.031-1.682-14.29-3.366-21.8-5.116-1.526 5.88-2.856 11.456-4.142 16.83-1.1 4.87-2.289 9.864-3.608 15.036z" fill="#0F0B56"/><path d="M275 487.807c-5.044 12.122-19.711 17.531-32.778 12.055-13.067-5.476-19.556-19.728-14.511-31.862" fill="#FFF"/><path stroke="#0F0B56" fill="#FFCB64" d="m239.962 495.839 4.219 1.74-3.04 7.335-4.219-1.74z"/><path d="M275 487.807c-5.044 12.122-19.711 17.531-32.778 12.055-13.067-5.476-19.556-19.728-14.511-31.862L275 487.807z" fill="#FFF"/><path d="M269 484.17 227.898 467c-1.917 4.563-2.669 9.623-.893 13.992 2.952 7.277 5.207 11.332 10.37 14.305 11.722 6.704 26.527.163 31.625-11.126z" fill="#B7B7ED"/><path d="M252.551 503a27.48 27.48 0 0 1-10.823-2.256c-6.39-2.679-11.558-7.735-14.472-14.157a24.75 24.75 0 0 1-.473-19.55l.418-1.037L276 486.891l-.429 1.038c-2.564 6.292-7.602 11.177-13.867 13.446a26.038 26.038 0 0 1-9.153 1.625zm-24.174-34.045a22.546 22.546 0 0 0 .846 16.684c5.65 12.153 19.31 17.988 31.69 13.537 5.323-1.904 9.702-5.883 12.186-11.078l-44.722-19.143z" fill="#0F0B56"/><path fill="#0F0B56" d="m267.076 484-10.089-16.54-19.42 4.803-.567-2.046L258.066 465 269 482.94z"/><path d="M223.642 564.909a8.453 8.453 0 0 1-3.66-.263 29.006 29.006 0 0 1-9.17-3.971 12.466 12.466 0 0 1-2.812-2.414l2.09-5.562c1.366-3.65 2.653-7.197 4.359-10.699A42.84 42.84 0 0 1 230 548.774c-2.078 5.86-4.45 10.71-6.358 16.135z" fill="#FFCB64"/><path d="M221.403 564c-.92-.017-1.836-.14-2.727-.367a29.586 29.586 0 0 1-9.268-3.905 13.332 13.332 0 0 1-2.99-2.47l-.418-.485 2.672-6.871c1.22-3.15 2.374-6.127 3.88-9.147l.374-.755.836.173a43.597 43.597 0 0 1 15.534 6.558l.704.464-.286.787c-1.033 2.837-2.199 5.393-3.232 7.928-1.034 2.535-2.056 4.79-2.957 7.28l-.21.573-.615.118a6.596 6.596 0 0 1-1.297.119zm-12.874-7.68c.63.61 1.327 1.148 2.078 1.607a27.377 27.377 0 0 0 8.575 3.603c.816.22 1.66.322 2.507.302.857-2.298 1.792-4.466 2.77-6.753.978-2.286 1.957-4.562 2.891-7.043a41.49 41.49 0 0 0-13.192-5.566c-1.287 2.675-2.331 5.393-3.42 8.198l-2.21 5.652z" fill="#0F0B56"/><path d="M228.871 557.702a12.572 12.572 0 0 1-9.855.543 42.01 42.01 0 0 1-10.22-5.14 8.015 8.015 0 0 1-2.796-4.154c6.331-16.869 13.873-34.68 21.575-50.951A95.968 95.968 0 0 1 249 508.046c-6.899 16.327-13.326 33.34-20.129 49.656z" stroke="#0F0B56" fill="#383884"/><path d="M245.64 507 225 559c.626-.185 3.844-.795 4.394-1.089 7.008-16.037 13.598-32.761 20.606-48.799-.461-.305-3.866-1.829-4.36-2.112z" fill="#FFF"/><path d="M241.921 531c-11.882-.325-23.436-9.754-23.921-10.133l.779-.867c.112.098 11.734 9.559 23.221 9.873l-.079 1.127zm-1.944 3c-11.915-.337-23.49-9.783-23.977-10.174l.735-.826c.124.098 11.768 9.587 23.265 9.913l-.023 1.087z" fill="#0F0B56"/><path d="M223.29 558.999c-1.7-.01-3.39-.272-5.008-.78a46.173 46.173 0 0 1-10.87-5.154 8.966 8.966 0 0 1-3.323-4.688l-.089-.336.133-.325c6.648-16.62 14.326-33.868 22.348-49.882l.42-.834.91.282a102.466 102.466 0 0 1 22.37 9.928l.819.488-.388.866c-3.523 7.958-7.002 16.241-10.37 24.232-3.369 7.99-6.87 16.306-10.404 24.286l-.155.347-.344.184a13.052 13.052 0 0 1-6.05 1.386zm-16.963-10.828a6.605 6.605 0 0 0 2.338 3.13 43.107 43.107 0 0 0 10.281 4.872 12.757 12.757 0 0 0 9.008-.282c3.468-7.86 6.903-16.014 10.227-23.896 3.246-7.72 6.648-15.69 9.972-23.41a100.856 100.856 0 0 0-20.143-8.932c-7.767 15.613-15.257 32.353-21.694 48.518h.01z" fill="#0F0B56"/><circle fill="#B7B7ED" cx="254.5" cy="466.5" r="2.5"/><path d="M254.973 470a4.003 4.003 0 0 1-1.182-7.817 4.019 4.019 0 0 1 5.023 2.61 3.982 3.982 0 0 1-2.624 5.018 3.82 3.82 0 0 1-1.217.189zm0-5.633c-.168 0-.335.025-.497.071a1.641 1.641 0 0 0-1.063 2.055 1.642 1.642 0 0 0 3.013.26 1.64 1.64 0 0 0-.697-2.208 1.691 1.691 0 0 0-.768-.119l.012-.059z" fill="#0F0B56"/><path d="M23.554 134.989a.66.66 0 0 1-.245 0 .563.563 0 0 1-.256-.742l1.914-3.996a.561.561 0 0 1 .746-.266c.28.132.4.464.267.742l-1.925 3.996a.546.546 0 0 1-.5.266zm6.677-13.992a.604.604 0 0 1-.245 0 .563.563 0 0 1-.267-.742l1.925-3.996a.556.556 0 1 1 1.001.476l-1.914 3.996a.557.557 0 0 1-.5.266zm6.676-13.981a.425.425 0 0 1-.233 0 .544.544 0 0 1-.267-.73l1.913-3.997a.56.56 0 0 1 1.013.476l-1.925 3.996a.535.535 0 0 1-.5.255zm6.677-13.981a.47.47 0 0 1-.245 0 .563.563 0 0 1-.267-.742l1.925-3.985a.556.556 0 1 1 1.002.476l-1.914 3.996a.557.557 0 0 1-.434.255h-.067zm6.676-13.981a.604.604 0 0 1-.233 0 .555.555 0 0 1-.267-.742l1.914-3.996a.561.561 0 0 1 .745-.266c.28.132.4.464.267.742l-1.825 3.94a.545.545 0 0 1-.5.322h-.1zm6.677-13.981a.554.554 0 0 1-.5-.797l1.913-3.996a.555.555 0 0 1 .746-.255.543.543 0 0 1 .256.73l-1.914 3.997a.566.566 0 0 1-.356.32h-.145zm6.676-13.992a.458.458 0 0 1-.233-.055.544.544 0 0 1-.267-.731l1.925-3.996a.558.558 0 0 1 1.024.05.55.55 0 0 1-.023.426l-1.925 3.996a.533.533 0 0 1-.323.31h-.178zM70.29 37.1a.492.492 0 0 1-.245 0 .543.543 0 0 1-.256-.73l2.137-4.019a.556.556 0 1 1 1.001.476l-1.914 3.952a.557.557 0 0 1-.5.321h-.223zM168.515 642l-.066-.502-.449-.291c.142-.191.142-.191 1.763-.332.3-.018.563.18.603.452a.474.474 0 0 1-.12.37.564.564 0 0 1-.373.183l-1.358.12zm12.245-1.094c-.302.013-.56-.2-.575-.477-.015-.278.218-.514.52-.528l4.294-.381.143.492v.502l-4.294.392h-.088zm15.335-1.376c-.28-.003-.515-.197-.548-.452a.474.474 0 0 1 .12-.37.564.564 0 0 1 .373-.182l4.381-.392c.303-.027.572.175.603.452.03.277-.19.525-.493.552l-4.382.402-.054-.01zm15.28-1.386c-.281.001-.515-.196-.538-.452a.474.474 0 0 1 .121-.37.564.564 0 0 1 .372-.182l4.382-.401a.583.583 0 0 1 .404.11.491.491 0 0 1 .198.341.474.474 0 0 1-.12.37.564.564 0 0 1-.373.183l-4.381.401h-.066zm15.333-1.395c-.28-.004-.514-.197-.547-.452a.474.474 0 0 1 .12-.37.564.564 0 0 1 .373-.182l4.38-.402a.57.57 0 0 1 .4.111.48.48 0 0 1 .192.34.474.474 0 0 1-.12.371.564.564 0 0 1-.373.182l-4.38.392-.045.01zm15.203-1.416c-.302 0-.547-.225-.547-.502s.245-.502.547-.502l4.382-.412a.57.57 0 0 1 .4.111.48.48 0 0 1 .191.341c.032.274-.183.52-.482.552l-4.381.402-.11.01zm15.335-1.426c-.277-.002-.51-.19-.548-.442a.474.474 0 0 1 .12-.37.564.564 0 0 1 .373-.182l4.381-.412a.573.573 0 0 1 .504.204.47.47 0 0 1 .06.502.549.549 0 0 1-.443.298l-4.382.412-.065-.01zm15.28-1.446c-.303.017-.563-.194-.581-.472-.019-.277.212-.515.514-.532l4.382-.412c.302-.027.572.175.602.452.03.278-.19.525-.493.553l-4.381.421-.044-.01zm15.268-1.476c-.28.001-.514-.196-.537-.452-.032-.274.183-.52.482-.552l4.381-.432a.583.583 0 0 1 .404.111.491.491 0 0 1 .199.341c.032.274-.184.52-.482.552l-4.382.432h-.065zm15.268-1.526c-.302.014-.56-.2-.575-.477-.015-.277.218-.513.52-.527l4.382-.452c.302-.03.574.17.608.447.033.277-.185.527-.488.557l-4.381.452h-.066zm41.516-16.46a.546.546 0 0 1-.413-.178.56.56 0 0 1 0-.794c1.115-.973 2.164-1.98 3.346-3.03a.546.546 0 0 1 .78 0 .56.56 0 0 1 0 .793 136.602 136.602 0 0 1-3.345 3.031.557.557 0 0 1-.368.179zm11.398-10.724a.558.558 0 0 1-.38-.961l3.213-3.11a.557.557 0 0 1 .757.045.56.56 0 0 1 .012.76l-3.212 3.166a.523.523 0 0 1-.39.1zm11.153-10.948a.546.546 0 0 1-.39-.168.56.56 0 0 1 0-.794l3.156-3.164a.557.557 0 0 1 .792 0 .571.571 0 0 1 0 .794l-3.157 3.164a.568.568 0 0 1-.379.168h-.022zm10.986-11.183a.58.58 0 0 1-.39-.157.56.56 0 0 1 0-.794c1.115-1.118 2.107-2.236 3.089-3.231a.557.557 0 0 1 .792 0 .549.549 0 0 1 0 .782l-3.09 3.243a.568.568 0 0 1-.379.18l-.022-.023zm10.64-11.485a.546.546 0 0 1-.357-.134.571.571 0 0 1-.067-.794c1-1.005 1.869-2.132 2.587-3.355a.568.568 0 0 1 .714-.347.56.56 0 0 1 .335.716c-.123.369-.547 1.118-2.789 3.746a.546.546 0 0 1-.401.19l-.022-.022z" fill="#FCC01A" opacity=".8"/><path d="m44.278 32.28 2.98-.806a.585.585 0 0 1 .596.951l-2.008 2.332a.606.606 0 0 0-.115.543l.795 2.97a.585.585 0 0 1-.941.595l-2.342-2.007a.575.575 0 0 0-.533-.115l-2.98.794a.585.585 0 0 1-.595-.94l2.007-2.342a.575.575 0 0 0 .115-.533l-.794-2.98a.585.585 0 0 1 .95-.596l2.332 2.008c.148.122.346.169.533.125z" fill="#FDCC46"/><path d="m17.994 149.952 5.241-2.81a1.13 1.13 0 0 1 1.542 1.52l-2.741 5.279c-.176.33-.176.727 0 1.058l2.822 5.237a1.128 1.128 0 0 1-1.522 1.541l-5.282-2.74a1.15 1.15 0 0 0-1.058 0l-5.241 2.821a1.13 1.13 0 0 1-1.542-1.52l2.741-5.279c.159-.317.159-.69 0-1.007l-2.812-5.238a1.128 1.128 0 0 1 1.522-1.541l5.282 2.74c.338.153.73.13 1.048-.06z" fill="#FEDE89"/><path d="m82.234 13.651 8.102-.491a1.55 1.55 0 0 1 1.067 2.768l-6.404 4.98c-.407.31-.631.803-.598 1.314l.491 8.112a1.547 1.547 0 0 1-2.765 1.069l-4.974-6.413a1.526 1.526 0 0 0-1.387-.641l-8.102.491a1.55 1.55 0 0 1-1.067-2.768l6.404-4.98c.419-.303.656-.797.63-1.314l-.49-8.112a1.547 1.547 0 0 1 2.765-1.069l4.973 6.413c.308.436.822.68 1.355.641z" fill="#FCC01A"/><circle fill="#FEDE89" cx="310.5" cy="643.5" r="1.5"/><circle fill="#FEDE89" cx="325.5" cy="647.5" r="1.5"/><circle fill="#FEDE89" cx="338.5" cy="601.5" r="1.5"/><circle fill="#FEDE89" cx="405.5" cy="573.5" r="1.5"/><circle fill="#FEDE89" cx="416.5" cy="562.5" r="1.5"/><circle fill="#FEDE89" cx="112.5" cy="377.5" r="1.5"/><circle fill="#FEDE89" cx="128.5" cy="401.5" r="1.5"/><circle fill="#FEDE89" cx="116.5" cy="400.5" r="1.5"/><circle fill="#FEDE89" cx="258.5" cy="396.5" r="1.5"/><circle fill="#FEDE89" cx="273.5" cy="402.5" r="1.5"/><circle fill="#FEDE89" cx="4.5" cy="130.5" r="1.5"/><circle fill="#FEDE89" cx="3.5" cy="142.5" r="1.5"/><circle fill="#FEDE89" cx="41.5" cy="169.5" r="1.5"/><circle fill="#FEDE89" cx="43" cy="61" r="1"/><circle fill="#FEDE89" cx="103.5" cy="12.5" r="1.5"/><circle fill="#FEDE89" cx="101.5" cy="23.5" r="1.5"/><circle fill="#FEDE89" cx="111.5" cy="34.5" r="1.5"/></g></svg>