<svg xmlns="http://www.w3.org/2000/svg" viewBox="0 0 435.41 577.17"><defs><style>.cls-1{fill:#544d77}.cls-2{fill:#b7b7ed}.cls-3{fill:#fff}.cls-4{fill:#383884}.cls-5{fill:#222263}.cls-8{fill:#090419}</style></defs><g id="Calque_2" data-name="Calque 2"><g id="_10_ANTENNE" data-name="10/ ANTENNE"><g id="antenne_GROUPE"><path id="onde1" class="cls-1" d="M80.32 140.6h-2a.5.5 0 0 1 0-1h2a.5.5 0 0 1 .5.5.5.5 0 0 1-.5.5Zm6-.39a.5.5 0 0 1-.49-.43.51.51 0 0 1 .43-.57c.66-.08 1.31-.18 2-.29a.48.48 0 0 1 .57.4.49.49 0 0 1-.4.58c-.66.12-1.33.22-2 .31Zm-13.93-.31h-.09c-.66-.12-1.32-.25-2-.4a.5.5 0 1 1 .21-1c.65.14 1.29.27 1.94.38a.5.5 0 0 1-.08 1Zm21.74-1.41a.5.5 0 0 1-.15-1c.63-.19 1.25-.41 1.87-.63a.5.5 0 0 1 .34.94c-.63.23-1.27.45-1.91.65Zm-29.46-.65a.47.47 0 0 1-.17 0c-.64-.24-1.27-.48-1.89-.74a.5.5 0 1 1 .38-.92c.61.25 1.23.49 1.85.72a.5.5 0 0 1 .3.64.52.52 0 0 1-.49.3Zm36.84-2.4a.51.51 0 0 1-.45-.27.51.51 0 0 1 .21-.68c.59-.3 1.17-.62 1.73-1a.51.51 0 0 1 .69.18.51.51 0 0 1-.18.69c-.59.33-1.18.66-1.77 1a.53.53 0 0 1-.25.08Zm-44.08-1a.43.43 0 0 1-.25-.07c-.59-.34-1.17-.69-1.73-1a.5.5 0 0 1-.15-.69.49.49 0 0 1 .69-.15c.55.35 1.11.69 1.69 1a.5.5 0 0 1-.25.93Zm50.81-3.31a.5.5 0 0 1-.31-.89c.52-.41 1-.82 1.54-1.24a.51.51 0 0 1 .71.06.52.52 0 0 1-.06.71c-.52.43-1 .85-1.58 1.26a.49.49 0 0 1-.32.11Zm-57.35-1.29a.51.51 0 0 1-.33-.11c-.51-.44-1-.88-1.51-1.34a.5.5 0 1 1 .67-.73c.49.44 1 .88 1.49 1.3a.51.51 0 0 1 .06.71.52.52 0 0 1-.4.18Zm63.23-4.1a.46.46 0 0 1-.33-.13.5.5 0 0 1 0-.71c.44-.49.88-1 1.3-1.49a.52.52 0 0 1 .71-.06.51.51 0 0 1 .06.71c-.44.51-.88 1-1.34 1.52a.52.52 0 0 1-.42.17Zm-68.9-1.54a.49.49 0 0 1-.38-.18c-.43-.51-.85-1-1.26-1.57a.5.5 0 0 1 .79-.61c.4.52.81 1 1.24 1.54a.49.49 0 0 1-.07.7.47.47 0 0 1-.32.12Zm73.78-4.78a.51.51 0 0 1-.43-.77c.36-.56.7-1.12 1-1.7a.5.5 0 0 1 .87.51c-.34.58-.69 1.16-1 1.72a.52.52 0 0 1-.44.24Zm-78.34-1.76a.5.5 0 0 1-.43-.25c-.34-.58-.66-1.17-1-1.77a.5.5 0 0 1 .89-.46c.3.58.62 1.16.95 1.73a.5.5 0 0 1-.19.68.45.45 0 0 1-.24.07Zm82-5.33a.43.43 0 0 1-.19 0 .51.51 0 0 1-.27-.65c.25-.61.5-1.23.72-1.85a.5.5 0 0 1 .64-.3.5.5 0 0 1 .3.64c-.23.64-.48 1.27-.73 1.89a.51.51 0 0 1-.46.27Zm-85.4-1.91a.49.49 0 0 1-.47-.33c-.23-.63-.44-1.27-.65-1.91a.5.5 0 0 1 1-.3c.19.63.41 1.25.63 1.87a.5.5 0 0 1-.3.64.51.51 0 0 1-.2.03Zm87.81-5.72H125a.5.5 0 0 1-.38-.6c.14-.64.27-1.28.38-1.93a.5.5 0 0 1 .58-.41.51.51 0 0 1 .41.58q-.18 1-.39 2a.51.51 0 0 1-.52.36Zm-89.87-2a.5.5 0 0 1-.49-.42c-.11-.66-.22-1.33-.3-2a.5.5 0 0 1 .43-.56.5.5 0 0 1 .56.44c.09.65.18 1.3.3 2a.51.51 0 0 1-.41.58Zm90.9-5.93a.5.5 0 0 1-.48-.52v-2a.51.51 0 0 1 .5-.5.5.5 0 0 1 .5.5v2a.5.5 0 0 1-.51.53Zm-91.58-2a.5.5 0 0 1-.5-.5v-2a.48.48 0 0 1 .52-.48.5.5 0 0 1 .48.52v2a.5.5 0 0 1-.49.44Zm91.25-5.87a.51.51 0 0 1-.5-.44c-.08-.66-.18-1.31-.29-2a.48.48 0 0 1 .4-.57.5.5 0 0 1 .58.4c.11.67.22 1.33.3 2a.49.49 0 0 1-.43.56Zm-90.54-2.11h-.09a.51.51 0 0 1-.41-.58c.12-.66.25-1.32.4-2a.5.5 0 1 1 1 .22c-.14.64-.27 1.29-.38 1.94a.5.5 0 0 1-.52.42Zm88.84-5.72a.49.49 0 0 1-.48-.35c-.2-.63-.41-1.25-.63-1.87a.49.49 0 0 1 .3-.64.5.5 0 0 1 .64.3c.23.63.44 1.27.64 1.91a.49.49 0 0 1-.32.63.39.39 0 0 1-.15.02Zm-86.77-2a.47.47 0 0 1-.17 0 .49.49 0 0 1-.3-.64c.23-.64.47-1.27.73-1.89a.5.5 0 0 1 .93.38c-.26.61-.5 1.23-.72 1.85a.52.52 0 0 1-.47.3Zm83.7-5.38a.5.5 0 0 1-.44-.27c-.31-.58-.62-1.16-1-1.73a.5.5 0 1 1 .86-.5c.34.58.66 1.17 1 1.77a.49.49 0 0 1-.21.67.46.46 0 0 1-.21.06Zm-80.31-1.86a.45.45 0 0 1-.25-.07.5.5 0 0 1-.19-.68c.34-.58.7-1.16 1.06-1.73a.5.5 0 1 1 .84.54c-.36.56-.7 1.12-1 1.69a.5.5 0 0 1-.46.25ZM116.74 67a.48.48 0 0 1-.4-.19c-.4-.53-.81-1-1.24-1.54a.51.51 0 0 1 .07-.71.49.49 0 0 1 .7.06c.43.52.85 1.05 1.26 1.58a.49.49 0 0 1-.39.8Zm-71.46-1.71a.5.5 0 0 1-.32-.11.51.51 0 0 1-.06-.71c.44-.51.88-1 1.34-1.52a.51.51 0 0 1 .71 0 .5.5 0 0 1 0 .71c-.44.49-.88 1-1.3 1.49a.52.52 0 0 1-.37.14Zm66.07-4.23a.5.5 0 0 1-.34-.13c-.49-.45-1-.88-1.48-1.31a.49.49 0 0 1-.06-.7.49.49 0 0 1 .7-.06c.52.43 1 .88 1.52 1.33a.51.51 0 0 1 0 .71.5.5 0 0 1-.34.16Zm-60.41-1.41a.5.5 0 0 1-.32-.88c.51-.43 1-.85 1.58-1.27a.5.5 0 1 1 .6.8c-.52.4-1 .81-1.54 1.24a.54.54 0 0 1-.32.11ZM105 56.18a.45.45 0 0 1-.27-.08c-.55-.35-1.12-.7-1.69-1a.5.5 0 1 1 .5-.86c.59.33 1.16.69 1.73 1a.5.5 0 0 1 .15.69.49.49 0 0 1-.42.25Zm-47.54-1.1a.5.5 0 0 1-.43-.25.51.51 0 0 1 .18-.69c.58-.33 1.17-.66 1.77-1a.52.52 0 0 1 .68.21.51.51 0 0 1-.22.68c-.58.3-1.16.62-1.73.95a.55.55 0 0 1-.23.1Zm40.46-2.61a.41.41 0 0 1-.19 0c-.61-.25-1.23-.49-1.85-.72a.5.5 0 0 1 .34-.94c.64.24 1.27.48 1.89.74a.5.5 0 0 1-.19 1Zm-33.22-.76a.5.5 0 0 1-.17-1c.63-.23 1.27-.45 1.91-.65a.5.5 0 0 1 .63.33.49.49 0 0 1-.33.62c-.63.2-1.25.41-1.87.64a.51.51 0 0 1-.15.06Zm25.6-1.65h-.11c-.65-.14-1.29-.27-1.94-.39a.5.5 0 1 1 .17-1q1 .18 2 .39a.5.5 0 0 1-.1 1Zm-17.88-.41a.5.5 0 0 1-.08-1c.66-.12 1.32-.22 2-.3a.49.49 0 0 1 .56.43.5.5 0 0 1-.43.56c-.65.08-1.31.18-2 .29Zm10-.63c-.66 0-1.32-.05-2-.05a.5.5 0 0 1-.5-.5.5.5 0 0 1 .5-.5c.68 0 1.35 0 2 .05a.5.5 0 0 1 0 1Z"/><path id="ondes2" class="cls-1" d="m77.81 174.59-2-.09a.5.5 0 0 1-.47-.52.48.48 0 0 1 .53-.47l2 .08a.5.5 0 0 1 0 1Zm6 0a.5.5 0 0 1 0-1c.66 0 1.32-.06 2-.11a.5.5 0 0 1 .07 1l-2 .11Zm-14-.61h-.06l-2-.29a.5.5 0 1 1 .15-1c.65.1 1.31.2 2 .28a.5.5 0 0 1-.07 1Zm21.93-.13a.51.51 0 0 1-.5-.43.49.49 0 0 1 .43-.56l2-.31a.51.51 0 0 1 .58.41.51.51 0 0 1-.41.58l-2 .31ZM62 172.51h-.11l-2-.49a.5.5 0 0 1-.35-.61.49.49 0 0 1 .61-.35l1.92.48a.5.5 0 0 1-.11 1Zm37.63-.22a.5.5 0 0 1-.48-.38.49.49 0 0 1 .36-.6c.65-.16 1.29-.33 1.93-.51a.5.5 0 0 1 .26 1q-1 .27-2 .51Zm-45.31-2a.45.45 0 0 1-.16 0l-1.9-.68a.5.5 0 1 1 .35-.94c.62.24 1.24.46 1.87.68a.5.5 0 0 1-.16 1Zm53-.31a.5.5 0 0 1-.17-1c.62-.22 1.24-.46 1.86-.7a.51.51 0 0 1 .65.29.5.5 0 0 1-.29.65l-1.88.7Zm-60.4-2.68a.41.41 0 0 1-.21-.05c-.61-.28-1.21-.57-1.82-.87a.5.5 0 0 1-.22-.67.5.5 0 0 1 .67-.22l1.79.86a.5.5 0 0 1 .25.66.52.52 0 0 1-.51.29Zm67.77-.39a.5.5 0 0 1-.21-.95c.6-.28 1.19-.58 1.78-.87a.5.5 0 0 1 .67.21.51.51 0 0 1-.22.68l-1.8.88a.42.42 0 0 1-.27.05Zm-74.85-3.33a.48.48 0 0 1-.26-.07c-.58-.34-1.15-.69-1.72-1a.5.5 0 1 1 .53-.84c.56.35 1.13.69 1.7 1a.5.5 0 0 1 .18.68.51.51 0 0 1-.48.23Zm81.88-.46a.52.52 0 0 1-.43-.24.5.5 0 0 1 .17-.69q.86-.51 1.68-1.05a.51.51 0 0 1 .7.15.5.5 0 0 1-.16.69l-1.7 1.07a.48.48 0 0 1-.31.07Zm-88.56-4a.55.55 0 0 1-.3-.09c-.54-.4-1.07-.81-1.6-1.22a.5.5 0 1 1 .61-.79q.78.62 1.59 1.2a.5.5 0 0 1-.3.9Zm95.18-.53a.51.51 0 0 1-.4-.2.5.5 0 0 1 .1-.7l1.57-1.21a.5.5 0 1 1 .62.78l-1.59 1.23a.49.49 0 0 1-.35.15Zm-101.43-4.47a.5.5 0 0 1-.34-.13c-.49-.45-1-.9-1.47-1.36a.5.5 0 0 1 0-.71.49.49 0 0 1 .7 0c.49.46 1 .91 1.46 1.35a.5.5 0 0 1 0 .71.52.52 0 0 1-.35.14Zm107.52-.59a.52.52 0 0 1-.37-.16.5.5 0 0 1 0-.71c.49-.45 1-.9 1.44-1.37a.5.5 0 0 1 .71 0 .49.49 0 0 1 0 .7c-.48.47-1 .93-1.46 1.39a.55.55 0 0 1-.32.15Zm-113.19-5.05a.54.54 0 0 1-.37-.16c-.45-.5-.89-1-1.33-1.51a.49.49 0 0 1 .05-.7.51.51 0 0 1 .71 0c.43.5.87 1 1.31 1.48a.5.5 0 0 1-.37.84Zm118.76-.66a.49.49 0 0 1-.37-.83c.44-.49.87-1 1.3-1.5a.5.5 0 1 1 .76.65c-.43.51-.87 1-1.32 1.52a.47.47 0 0 1-.37.16ZM16.17 142.3a.47.47 0 0 1-.4-.2c-.4-.53-.79-1.08-1.18-1.63a.49.49 0 0 1 .12-.69.5.5 0 0 1 .7.12c.38.54.77 1.08 1.16 1.61a.51.51 0 0 1-.1.7.55.55 0 0 1-.3.09Zm128.83-.71a.52.52 0 0 1-.29-.09.49.49 0 0 1-.11-.7c.39-.54.77-1.08 1.14-1.63a.52.52 0 0 1 .7-.13.51.51 0 0 1 .13.7c-.38.55-.77 1.1-1.16 1.64a.49.49 0 0 1-.41.21Zm-133.3-5.93a.51.51 0 0 1-.43-.24c-.35-.58-.68-1.16-1-1.74a.5.5 0 0 1 .87-.49c.32.57.66 1.14 1 1.71a.51.51 0 0 1-.18.69.47.47 0 0 1-.22.07Zm137.67-.78a.58.58 0 0 1-.26-.06.51.51 0 0 1-.18-.69c.34-.57.66-1.15 1-1.73a.5.5 0 0 1 .88.48c-.32.59-.65 1.18-1 1.76a.49.49 0 0 1-.4.24ZM8 128.6a.48.48 0 0 1-.45-.28c-.29-.61-.56-1.22-.83-1.83a.5.5 0 0 1 .25-.66.49.49 0 0 1 .66.26c.27.6.54 1.2.82 1.8a.5.5 0 0 1-.24.67.52.52 0 0 1-.21.04Zm145.09-.82a.54.54 0 0 1-.21 0 .5.5 0 0 1-.25-.66c.28-.6.54-1.21.8-1.82a.5.5 0 1 1 .92.39c-.26.62-.53 1.23-.81 1.84a.49.49 0 0 1-.46.25ZM5 121.21a.49.49 0 0 1-.47-.33c-.22-.63-.44-1.27-.64-1.91a.5.5 0 0 1 .32-.63.51.51 0 0 1 .63.33c.2.63.42 1.25.63 1.88a.48.48 0 0 1-.47.66Zm151-.88a.41.41 0 0 1-.16 0 .51.51 0 0 1-.32-.63c.21-.63.42-1.26.62-1.9a.49.49 0 0 1 .62-.33.5.5 0 0 1 .33.63c-.2.64-.4 1.28-.62 1.92a.49.49 0 0 1-.47.31ZM2.71 113.55a.52.52 0 0 1-.49-.39c-.15-.65-.3-1.3-.44-2a.5.5 0 1 1 1-.21c.15.65.29 1.3.45 1.94a.5.5 0 0 1-.37.6Zm155.48-.92h-.11a.51.51 0 0 1-.38-.6q.23-1 .42-2a.5.5 0 0 1 1 .2c-.13.66-.27 1.32-.42 2a.51.51 0 0 1-.51.4Zm-157-6.94a.5.5 0 0 1-.49-.43c-.09-.66-.17-1.33-.25-2a.5.5 0 0 1 .44-.55.51.51 0 0 1 .56.44c.07.66.15 1.32.24 2a.51.51 0 0 1-.43.57Zm158.35-.94h-.07a.49.49 0 0 1-.43-.56c.08-.65.15-1.31.22-2a.5.5 0 0 1 .55-.45.5.5 0 0 1 .44.55c-.06.67-.14 1.33-.22 2a.5.5 0 0 1-.45.46Zm-159-7a.5.5 0 0 1-.5-.48v-2a.5.5 0 0 1 .49-.51.5.5 0 0 1 .5.5c0 .66 0 1.32.05 2a.5.5 0 0 1-.48.52Zm159.62-1a.49.49 0 0 1-.48-.51v-2a.51.51 0 0 1 .5-.5.5.5 0 0 1 .5.5v2a.5.5 0 0 1-.51.54Zm-.07-5.89a.49.49 0 0 1-.5-.47c0-.67-.07-1.33-.12-2a.5.5 0 0 1 1-.07l.12 2a.5.5 0 0 1-.48.52ZM.65 89.74a.5.5 0 0 1-.47-.53c0-.68.09-1.34.15-2a.51.51 0 0 1 .54-.46.51.51 0 0 1 .46.55q-.09 1-.15 2a.51.51 0 0 1-.53.44Zm158.67-6.8a.51.51 0 0 1-.5-.43c-.09-.65-.2-1.31-.31-2a.5.5 0 0 1 .4-.58.51.51 0 0 1 .58.41c.12.66.22 1.32.32 2a.49.49 0 0 1-.42.56ZM1.55 81.79h-.08a.51.51 0 0 1-.42-.58c.11-.66.23-1.32.35-2a.51.51 0 0 1 .59-.4.49.49 0 0 1 .39.59c-.12.65-.23 1.3-.34 2a.49.49 0 0 1-.49.39Zm156.2-6.69a.5.5 0 0 1-.49-.38q-.24-1-.51-1.92a.5.5 0 0 1 .35-.61.49.49 0 0 1 .61.34c.18.65.36 1.3.52 2a.48.48 0 0 1-.36.6.25.25 0 0 1-.12-.03ZM3.23 74H3.1a.49.49 0 0 1-.35-.61c.17-.65.36-1.3.55-1.94a.5.5 0 0 1 .62-.33.49.49 0 0 1 .33.62l-.54 1.91a.5.5 0 0 1-.48.35Zm152.16-6.52a.52.52 0 0 1-.47-.33c-.22-.62-.46-1.24-.7-1.86a.5.5 0 0 1 .28-.64.49.49 0 0 1 .65.28c.25.62.48 1.25.71 1.88a.49.49 0 0 1-.3.64.47.47 0 0 1-.17.01ZM5.7 66.37a.57.57 0 0 1-.18 0 .5.5 0 0 1-.29-.64c.24-.63.49-1.26.74-1.88a.49.49 0 0 1 .65-.27.5.5 0 0 1 .28.65c-.26.61-.5 1.23-.74 1.85a.48.48 0 0 1-.46.29Zm146.59-6.27a.48.48 0 0 1-.45-.28c-.29-.6-.59-1.19-.89-1.78a.5.5 0 0 1 .89-.45c.31.59.61 1.19.9 1.79a.5.5 0 0 1-.24.67.54.54 0 0 1-.21.05ZM8.92 59.05a.49.49 0 0 1-.23-.05.5.5 0 0 1-.22-.67c.3-.6.61-1.2.93-1.79a.51.51 0 0 1 .67-.21.5.5 0 0 1 .21.68c-.31.59-.62 1.18-.91 1.77a.5.5 0 0 1-.45.27Zm139.54-6a.5.5 0 0 1-.43-.23c-.35-.57-.7-1.13-1.06-1.68a.5.5 0 0 1 .84-.55c.36.56.72 1.13 1.07 1.7a.5.5 0 0 1-.16.69.48.48 0 0 1-.26.11Zm-135.6-1a.56.56 0 0 1-.27-.08.5.5 0 0 1-.15-.69l1.1-1.69a.5.5 0 0 1 .83.56c-.37.55-.73 1.11-1.09 1.67a.48.48 0 0 1-.42.26Zm131.08-5.55a.47.47 0 0 1-.39-.2c-.4-.52-.81-1-1.22-1.56a.51.51 0 0 1 .07-.71.52.52 0 0 1 .71.08c.41.52.83 1 1.23 1.59a.49.49 0 0 1-.4.8Zm-126.46-1a.51.51 0 0 1-.31-.11.5.5 0 0 1-.09-.7c.42-.53.84-1.05 1.27-1.57a.5.5 0 0 1 .7-.07.52.52 0 0 1 .07.71c-.42.51-.84 1-1.25 1.55a.51.51 0 0 1-.39.24Zm121.32-5.11a.52.52 0 0 1-.37-.16c-.45-.49-.91-1-1.37-1.44a.5.5 0 0 1 0-.71.49.49 0 0 1 .7 0c.47.48.94 1 1.39 1.46a.49.49 0 0 1 0 .7.51.51 0 0 1-.35.15Zm-116.08-.88a.52.52 0 0 1-.35-.14.5.5 0 0 1 0-.71c.46-.48.93-1 1.41-1.43a.5.5 0 1 1 .7.71c-.47.47-.93.94-1.39 1.42a.51.51 0 0 1-.37.15Zm110.34-4.7a.54.54 0 0 1-.33-.12c-.49-.44-1-.87-1.5-1.29a.5.5 0 1 1 .64-.77l1.52 1.31a.49.49 0 0 1 .05.7.48.48 0 0 1-.38.17ZM28.53 34a.52.52 0 0 1-.38-.17.51.51 0 0 1 .06-.71c.51-.43 1-.86 1.54-1.28a.5.5 0 0 1 .71.07.5.5 0 0 1-.07.7c-.52.42-1 .84-1.53 1.27a.52.52 0 0 1-.33.12Zm98.27-4.18a.46.46 0 0 1-.29-.1l-1.63-1.14a.5.5 0 1 1 .56-.82c.56.38 1.11.76 1.65 1.15a.5.5 0 0 1 .12.7.52.52 0 0 1-.41.23Zm-91.93-.7a.5.5 0 0 1-.29-.91l1.66-1.12a.51.51 0 0 1 .7.14.49.49 0 0 1-.15.69c-.55.37-1.1.74-1.64 1.12a.5.5 0 0 1-.28.1Zm85.21-3.63a.45.45 0 0 1-.25-.07l-1.74-1a.5.5 0 0 1 .48-.88c.59.32 1.17.65 1.76 1a.5.5 0 0 1-.25.93Zm-78.43-.59a.49.49 0 0 1-.44-.26.51.51 0 0 1 .19-.64l1.77-1a.52.52 0 0 1 .68.21.51.51 0 0 1-.22.68l-1.74.94a.53.53 0 0 1-.24.09ZM113 21.87a.52.52 0 0 1-.21 0c-.6-.27-1.21-.54-1.83-.79a.5.5 0 0 1-.26-.66.49.49 0 0 1 .65-.26c.62.26 1.24.52 1.85.8a.5.5 0 0 1-.2.95Zm-64.19-.47a.5.5 0 0 1-.19-1l1.85-.77a.51.51 0 0 1 .65.28.5.5 0 0 1-.28.65l-1.84.8a.45.45 0 0 1-.19.04Zm56.67-2.4a.39.39 0 0 1-.15 0l-1.91-.61a.5.5 0 0 1-.33-.62.51.51 0 0 1 .63-.33c.64.19 1.28.4 1.92.61a.5.5 0 0 1-.16 1Zm-49.18-.38a.51.51 0 0 1-.48-.35.51.51 0 0 1 .33-.63l1.93-.58a.5.5 0 1 1 .27 1l-1.9.57a.4.4 0 0 1-.15-.01Zm41.47-1.78h-.11l-1.94-.41a.5.5 0 1 1 .19-1l2 .41a.51.51 0 0 1 .38.6.5.5 0 0 1-.52.4ZM64 16.6a.5.5 0 0 1-.11-1l2-.38a.51.51 0 0 1 .58.4.5.5 0 0 1-.4.58l-2 .38Zm25.85-1.1h-.06c-.65-.08-1.31-.15-2-.21a.5.5 0 0 1-.45-.55.52.52 0 0 1 .54-.45c.67.06 1.34.13 2 .21a.5.5 0 0 1-.06 1Zm-18-.13a.5.5 0 0 1-.05-1c.67-.08 1.33-.14 2-.19a.51.51 0 0 1 .53.46.5.5 0 0 1-.46.54c-.66.05-1.32.11-2 .18Zm10-.42h-2a.5.5 0 0 1-.5-.5.49.49 0 0 1 .49-.5h2a.52.52 0 0 1 .49.51.51.51 0 0 1-.41.54Z"/><g id="socle"><path id="connecteur" class="cls-2" d="M331.31 351.67h39.92v84.83h-39.92z"/><path id="rainure_connecteur" class="cls-3" d="M350.77 366.7h1v45.69h-1z"/><path id="corps" class="cls-4" d="M393.92 412.39h-85.3L280.68 563.9H421.85l-27.93-151.51z"/><g id="ombre"><path class="cls-5" d="M372.92 488.77a67.76 67.76 0 0 0-26.14-39.3V563.9h43.86ZM306.89 436.5h-2.72l-23.49 127.4h33.16v-127a66.68 66.68 0 0 0-6.95-.4ZM318.84 437.56V563.9h22.94V446.16a67.77 67.77 0 0 0-22.94-8.6Z"/></g><rect id="pied" class="cls-2" x="268.12" y="563.9" width="166.3" height="12.27" rx="2.25"/></g><g id="sommet"><circle id="boule_antenne" class="cls-2" cx="80.34" cy="94.28" r="12"/><path id="antenne" d="m262.14 61.21-.37-2L92.88 90.92a12.88 12.88 0 0 0-3.81-6.27 13 13 0 1 0-10.85 22.45l-15 171.17 2 .17 15-171.16H81a13 13 0 0 0 12.25-14.4ZM88.49 101.67a11 11 0 1 1-.76-15.54 10.92 10.92 0 0 1 .76 15.54Z" style="fill:#e0e0e0"/><rect id="ombre_blanche_bout" class="cls-3" x="256.73" y="315.29" width="169.43" height="34.6" rx="17.3" transform="rotate(42.43 341.43 332.568)"/><path id="bout" class="cls-4" d="m398.36 366.59-99.52-91a17.3 17.3 0 0 0-14.1-4.34 17.26 17.26 0 0 0-4.72 28.6l99.51 91a17.34 17.34 0 0 0 14.1 4.34 17.05 17.05 0 0 0 5.82-4.16 17.35 17.35 0 0 0-1.09-24.44Z"/><path id="ombre_blanche_milieu" class="cls-3" d="M372.19 308.16a39.12 39.12 0 1 1-52.55 58L272 323l52.55-58Z"/><path id="milieu" d="m367.57 309.88-46-41.66L272 323l47.64 43.18a39.07 39.07 0 0 0 37.86 8.35 39.14 39.14 0 0 0 10.07-64.6Z" style="fill:#ffcb64"/><circle id="rond_milieu" class="cls-3" cx="351.04" cy="341.79" r="10.21"/><path id="ombre_blanche_corps" class="cls-3" d="M315.26 1.41c85.8 77.77 87.23 216 3.2 308.7S96.74 414.94 10.93 337.17"/><path id="corps-2" data-name="corps" class="cls-2" d="M312.4 4.57 10.93 337.17c33.56 30.41 75.05 47 118.16 50.49 65.14 3.2 133.24-23.41 182.73-78 82.76-91.33 82.56-226.72.58-305.09Z"/><path id="rainures" class="cls-3" d="m377.5 189-37.19-4a202.73 202.73 0 0 0 1.15-43.1 210.87 210.87 0 0 0-19-72.26L354.11 50c-.08-.15-.16-.29-.25-.43l-.26-.43L322 68.73a218 218 0 0 0-27.74-44.2l-.67.75a217.18 217.18 0 0 1 27.55 44L276.56 97a224.5 224.5 0 0 0-14.29-37.14l-.72.79a223.7 223.7 0 0 1 14.13 36.9l-49.06 30.52a169 169 0 0 0-4.37-24.07l-.8.89a168.28 168.28 0 0 1 4.23 23.76l-59.08 36.77-1.6 1.81 57.22 6.13a83.89 83.89 0 0 1-17.92 32.57l-40.83-37-.12.14-.55.6 40.83 37a83.75 83.75 0 0 1-30.41 20.91l-11.66-56.12-.07-.35-1.64 1.81-30.9 62.63a166.42 166.42 0 0 1-24.17-1.88l-.8.89a168.18 168.18 0 0 0 24.47 2l-25.65 51.9A221.77 221.77 0 0 1 64.58 278l-.73.79a222.44 222.44 0 0 0 38.49 10.61l-23.16 46.93a216.94 216.94 0 0 1-46.59-23.05l-.68.75a218.11 218.11 0 0 0 46.82 23.21l-16.36 33.17.89.44 16.42-33.28a212.23 212.23 0 0 0 69.63 11.86 202.55 202.55 0 0 0 47-5.51l7.59 36.57 1-.2-7.6-36.6a188.71 188.71 0 0 0 95.36-56.28l25.44 23.06.35-.36.33-.38-25.45-23.06A188.55 188.55 0 0 0 340.18 186l37.19 4c0-.17.05-.34.08-.5Zm-150.76-59.81L276 98.58c7.56 27.28 9.22 54.66 4.6 80l-57.08-6.12c3.63-13.04 4.74-27.6 3.22-43.27Zm-59.86 37.24 58.91-36.65c1.45 15.42.32 29.75-3.33 42.61Zm56.31 7 57.18 6.13c-4.66 24.65-15.28 47.35-32.18 66.14L205 206.6a85 85 0 0 0 18.19-33.13Zm-18.85 33.87 43.18 39.14c-16.72 18.31-38 31.33-62.4 38.54l-11.73-56.44a84.86 84.86 0 0 0 30.95-21.2Zm-43.5-34.25 11.4 54.95c-12.47 4.94-26.67 7.5-42.22 7.59Zm-31.32 63.47c15.81 0 30.25-2.6 42.93-7.59l11.71 56.33a172.15 172.15 0 0 1-59.75 5.85 206 206 0 0 1-20.58-2.51Zm19.79 111.87a211.15 211.15 0 0 1-69.18-11.77l23.24-47.09a205.16 205.16 0 0 0 21 2.58q6.82.47 13.5.47a167.64 167.64 0 0 0 46.52-6.34l11.77 56.66a201.29 201.29 0 0 1-46.85 5.53Zm47.8-5.72L185.32 286c24.61-7.26 46.07-20.39 62.94-38.86l43.67 39.59a187.69 187.69 0 0 1-94.82 55.98ZM292.6 286l-43.67-39.59c17.05-18.95 27.75-41.85 32.43-66.71l57.82 6.2A187.55 187.55 0 0 1 292.6 286Zm46.71-101.1-57.77-6.19c4.64-25.57 2.95-53.19-4.71-80.68l44.77-27.85A210.23 210.23 0 0 1 340.47 142a201.6 201.6 0 0 1-1.16 42.9Z"/></g><g id="contours"><path class="cls-8" d="M432.16 562.9h-9.48L394.9 412.21l-.15-.82h-22.52v-25.87l6.63 6.06a18.12 18.12 0 0 0 12.32 4.78h.85a18.3 18.3 0 0 0 11.52-31.77l-18.82-17.21a40.21 40.21 0 0 0-11.87-39.95l-30-27.19c25.61-39 39.17-84.09 38.7-130.08-.62-58.6-23.92-111.69-65.63-149.49l-.74-.67-305 336.5-.67.74.74.67c37 33.57 84.65 51.52 135.72 51.52q9.66 0 19.46-.86c44.76-3.94 87.31-21.13 123.13-49.25L319 366.87a40 40 0 0 0 11.34 7.25v37.27h-22.56L279.85 562.9h-9.48a3.26 3.26 0 0 0-3.25 3.25v7.76a3.26 3.26 0 0 0 3.25 3.26h161.79a3.26 3.26 0 0 0 3.25-3.26v-7.76a3.26 3.26 0 0 0-3.25-3.25ZM402.2 366a16.3 16.3 0 0 1-22 24.07l-17.88-16.34a40.21 40.21 0 0 0 21.78-24.23Zm-236.93 20.57c-57.46 5.07-111.72-12.5-152.92-49.47l303-334.27c40.8 37.38 63.65 89.66 64.2 147.33.6 58.06-21.36 114.62-61.84 159.27s-94.61 72.06-152.44 77.14Zm124.9-48.5a248.89 248.89 0 0 0 51.56-56.17l29.79 27a38.12 38.12 0 1 1-51.21 56.49Zm42.14 36.83a39.72 39.72 0 0 0 13.56 2.37h2a40.11 40.11 0 0 0 12.41-2.61l9.94 9.08v27.7h-37.91Zm-22.86 38.49h83.64l27.56 149.51H281.88Zm124 160.52a1.25 1.25 0 0 1-1.25 1.26H270.37a1.25 1.25 0 0 1-1.25-1.26v-7.76a1.25 1.25 0 0 1 1.25-1.25h161.79a1.25 1.25 0 0 1 1.25 1.25Z"/><path class="cls-8" d="M359.34 349.32A11.22 11.22 0 1 0 351 353a11.23 11.23 0 0 0 8.34-3.68Zm-14.48-.71a9.2 9.2 0 0 1 5.73-16h.46a9.2 9.2 0 0 1 6.81 15.39 9.21 9.21 0 0 1-13 .61Z"/></g></g></g></g></svg>