<svg viewBox="0 0 613 651" xmlns="http://www.w3.org/2000/svg">
  <g fill="none" fillRule="evenodd">
    <path
      d="M236.381484 405.96246h-.131684l-4.268754-1.116019c-.141289-.036773-.26237-.129241-.336495-.256977-.074125-.127736-.095196-.280229-.058557-.423794.033658-.142846.122406-.265915.246257-.341489.123852-.075573.272391-.097297.412163-.060278l4.268754 1.116019c.303029.036981.519204.31679.482841.624971-.036364.30818-.311496.52803-.614525.491048v-.033481zm-14.913204-3.738664h-.131684l-4.268754-1.116019c-.14129-.036773-.26237-.129241-.336495-.256977-.074126-.127736-.095196-.280229-.058557-.423795.03084-.144523.119057-.26965.24375-.345738.124693-.076087.274767-.096365.41467-.056029l4.268753 1.11602c.140458.034229.26147.124486.335781.250443.074311.125956.095671.27702.059271.419168-.064202.242509-.279792.411518-.526735.412927zm-14.913205-3.749824h-.131684l-4.268754-1.116019c-.140457-.03423-.261469-.124487-.33578-.250443-.074311-.125957-.095672-.277021-.059271-.419169.031177-.144903.118897-.27071.243043-.348568.124146-.077858.274065-.101087.415376-.064359l4.268754 1.116019c.290424.081753.465059.38269.395052.680772-.072251.233663-.28589.39209-.526736.390607v.01116zm-14.913204-3.749825h-.131684l-4.268754-1.116019c-.141289-.036773-.26237-.129241-.336495-.256977-.074125-.127736-.095196-.280229-.058557-.423794.075426-.293809.368016-.472347.65842-.401767l4.268754 1.116019c.303029.036981.519204.31679.482841.624971-.036364.30818-.311496.52803-.614525.491048v-.033481zm-14.913204-3.760984h-.131684l-4.268754-1.116019c-.14129-.036774-.26237-.129241-.336495-.256977-.074126-.127737-.095196-.28023-.058557-.423795.030841-.144523.119057-.269651.24375-.345738.124693-.076087.274767-.096365.41467-.056029l4.268753 1.116019c.30303.036982.519205.316791.482842.624971-.036364.30818-.311496.52803-.614525.491048v-.03348zm-14.913205-3.749825h-.131684l-4.268754-1.116019c-.142107-.031365-.265143-.12108-.339959-.247893-.074816-.126812-.094754-.279438-.055092-.421718.070517-.298331.364643-.482792.658419-.412927l4.268754 1.116019c.290424.081752.465059.38269.395052.680771-.072251.233664-.28589.39209-.526736.390607v.01116zM128.414998 364.997377c-.203139.003011-.390881-.107254-.48622-.285567l-2.044333-3.877128c-.070699-.128097-.087128-.278915-.04565-.419084.041478-.140168.137442-.25813.266659-.327785.130229-.069435.283016-.084122.424219-.04078.141203.043342.259052.141101.327212.271431l2.077484 3.877128c.069859.129438.084636.281297.041029.421643-.043607.140346-.141963.257479-.273089.325226-.088286.045896-.188196.064993-.287311.054916zm-7.271194-13.60839c-.204853-.001616-.391991-.115754-.48622-.296551l-2.077484-3.877128c-.109518-.17395-.112328-.394075-.007286-.570731.105042-.176655.300411-.280367.506543-.268897.206131.011469.388634.136205.473183.32341l2.077484 3.877128c.069858.129438.084636.281298.041029.421643-.043607.140346-.141963.25748-.273089.325226-.077448.043719-.165094.066444-.25416.0659zm-7.271194-13.57544c-.204852-.001616-.391991-.115754-.48622-.296551l-2.077483-3.877128c-.070221-.126442-.086365-.27563-.044802-.414022.041563-.138391.137345-.254372.26581-.321864.12888-.07027.280619-.086599.421644-.045373.141024.041226.259707.136608.329787.26504l2.077484 3.877129c.069859.129438.084636.281297.041029.421643-.043607.140346-.141963.257479-.273089.325225-.072849.059303-.16084.097328-.25416.109834v-.043933zm-7.271194-13.575441c-.203139.003011-.39088-.107254-.486219-.285567l-2.077484-3.888112c-.069406-.127792-.083906-.278039-.040207-.416615.0437-.138575.141889-.253717.272266-.31927.127214-.069795.277313-.085841.41655-.04453s.255925.136512.32383.264197l2.088534 3.932045c.069406.127792.083906.27804.040207.416615-.043699.138576-.141889.253717-.272266.319271-.080691.045625-.172411.068416-.265211.0659v-.043934zm-7.2380422-13.487573c-.2031391.00301-.3908806-.107254-.4862196-.285568l-2.077484-3.877128c-.0698588-.129438-.0846359-.281298-.0410291-.421643.0436067-.140346.1419625-.257479.2730885-.325226.1285727-.068984.2797376-.083396.4191595-.039962.139422.043434.2552663.141027.3212204.270613l2.077484 3.877128c.0702209.126442.0863646.27563.0448014.414022-.0415632.138391-.1373451.254371-.2658103.321864-.0819357.042453-.1728147.065035-.2652108.0659zm-7.3043451-13.619374c-.2031392.00301-.3908806-.107254-.4862197-.285567l-2.0774839-3.877129c-.0698589-.129438-.084636-.281297-.0410292-.421643.0436068-.140346.1419626-.257479.2730886-.325225.2692325-.131088.5945948-.029728.7403799.23065l2.0774839 3.877128c.1408656.267474.0431211.597788-.2210089.746869-.0827367.039053-.1736671.057881-.2652107.054917zm-7.2711938-13.564457c-.2048525-.001616-.391991-.115754-.4862197-.296551l-2.0774839-3.877128c-.1095183-.173949-.1123285-.394075-.0072863-.570731.1050422-.176655.3004112-.280366.5065428-.268897.2061317.011469.388634.136205.4731828.32341l2.0774839 3.877128c.0706997.128097.0871281.278915.0456504.419084-.0414778.140168-.1374422.25813-.2666593.327785-.0819356.042453-.1728147.065035-.2652107.0659zm-7.2711938-13.57544c-.204157-.004001-.3901668-.11745-.4862197-.296551l-2.0774839-3.877128c-.1380867-.2671-.0347123-.594911.2320594-.735886.2691076-.14001.601439-.042859.7514303.219668l2.077484 3.877128c.1330109.270819.0314287.597755-.2320594.746869-.0819356.042453-.1728147.065034-.2652107.0659zm-7.2601434-13.575441c-.2064192.004637-.3982162-.105507-.4972701-.285567l-2.0774839-3.877128c-.1390777-.270324-.0361581-.601564.2320594-.746869.1302288-.069435.2830157-.084122.4242186-.04078.1412029.043342.2590517.141101.3272117.271431l2.077484 3.877128c.1380866.2671.0347123.594911-.2320594.735885-.0786075.04081-.165513.063343-.2541603.0659zm-7.2711938-13.57544c-.2064192.004636-.3982162-.105507-.4972701-.285567l-2.0774839-3.877129c-.1390778-.270323-.0361581-.601564.2320594-.746869.1302288-.069434.2830157-.084122.4242186-.04078.1412029.043342.2590517.141101.3272117.271431l2.077484 3.877128c.1390777.270324.0361581.601564-.2320594.746869-.0784949.039904-.1660822.058829-.2541603.054917zm-7.2711938-13.564457c-.2048524-.001616-.391991-.115754-.4862196-.296551l-2.077484-3.899095c-.1095182-.173949-.1123285-.394075-.0072863-.57073.1050423-.176656.3004112-.280367.5065429-.268898.2061316.011469.3886339.136206.4731827.32341l2.077484 3.877128c.0698588.129439.0846359.281298.0410291.421644-.0436067.140346-.1419625.257479-.2730885.325225-.0752403.051451-.163037.081803-.2541603.087867zm-7.2711938-13.57544c-.2048524-.001616-.391991-.115754-.4862196-.296551l-2.077484-3.877128c-.1189467-.263367-.0124305-.573306.2437669-.709308.2561973-.136002.5745977-.05163.7286724.193089l2.077484 3.877129c.0698588.129438.0846359.281297.0410291.421643-.0436067.140346-.1419625.257479-.2730885.325226-.0774483.043719-.1650946.066444-.2541603.0659zm-7.2711938-13.575441c-.2018285-.001783-.3872882-.110707-.4862196-.285567l-2.0995849-3.877128c-.1464718-.266902-.0475227-.601286.221009-.746869.2685316-.145583.6049585-.047234.7514303.219667l2.077484 3.877128c.0698588.129439.0846359.281298.0410291.421644-.0436067.140346-.1419625.257479-.2730885.325225-.0709088.040165-.1505052.062769-.2320594.0659zm-7.2711938-13.57544c-.2031392.00301-.3908806-.107254-.4862197-.285567l-2.0774839-3.822212c-.0706996-.128097-.0871281-.278915-.0456503-.419083.0414777-.140169.1374421-.258131.2666592-.327786.1302289-.069434.2830158-.084122.4242187-.04078.1412029.043342.2590517.141101.3272117.271431l2.0774839 3.811228c.069406.127792.083906.278039.0402066.416615-.0436994.138576-.1418889.253717-.2722659.319271-.076365.047568-.164081.074102-.2541603.076883zm-7.2711938-13.564457c-.2048525-.001616-.391991-.115754-.4862197-.296551l-2.0774839-3.877128c-.0698589-.129438-.084636-.281298-.0410292-.421643.0436068-.140346.1419626-.25748.2730886-.325226.1285726-.068985.2797376-.083397.4191595-.039962.1394219.043434.2552663.141027.3212204.270613l2.0774839 3.877128c.1408656.267474.0431211.597788-.2210089.746869-.0819356.042453-.1728147.065035-.2652107.0659z"
      fill="#FCC01A"
      fillRule="nonzero"
      opacity="0.8"
    />
    <path
      d="M133.809873 379.636188l-3.582304-4.933424c-.304075-.41121-.30336-.97322.001759-1.383654.30512-.410434.84269-.572504 1.323486-.399012l5.766889 2.072867c.350025.117687.73522.059847 1.035348-.155465l4.928257-3.617153c.412831-.297203.970163-.293429 1.37894.009336.408778.302765.575383.835183.412212 1.317299l-2.070696 5.772936c-.117563.350392-.059784.735991.155302 1.036433l3.613365 4.933424c.304075.411211.30336.97322-.001759 1.383654-.30512.410434-.84269.572504-1.323486.399012l-5.766889-2.072867c-.350025-.117686-.73522-.059847-1.035348.155465l-4.928257 3.617154c-.41078.304393-.972201.303677-1.382205-.001762-.410004-.305439-.571904-.843573-.398594-1.324873l2.070696-5.772936c.100696-.357231.027844-.741066-.196716-1.036434zM324.079984 628.327844l-6.294472-2.64683c-.519901-.226152-.834606-.761286-.779226-1.325021.05538-.563735.468219-1.027552 1.022211-1.148436l6.699448-1.352311c.421806-.086556.773022-.376754.937228-.7744l2.661266-6.287666c.220172-.523532.756201-.842612 1.321925-.786896.565725.055715 1.029055.473216 1.142639 1.029618l1.353774 6.692204c.090564.422187.379126.774971.775239.947773l6.294472 2.64683c.519901.226152.834606.761286.779226 1.325021-.05538.563735-.468219 1.027552-1.022211 1.148436l-6.699448 1.352311c-.420175.082324-.771647.368399-.937228.762842l-2.661266 6.299224c-.222093.523513-.760159.840982-1.326344.782566-.566185-.058416-1.027934-.47904-1.13822-1.036847l-1.353774-6.692203c-.092155-.418692-.380808-.767283-.775239-.936215zM125.65526 620.211573l-4.323979-4.691517c-.367595-.388516-.436703-.972201-.169999-1.435817.266703-.463616.806016-.697296 1.326663-.574833l6.22653 1.437723c.386331.083311.789096-.025436 1.080995-.291869l4.691517-4.323979c.388516-.367595.972201-.436703 1.435817-.169999.463616.266703.697296.806016.574834 1.326663l-1.437723 6.22653c-.084275.38822.029059.792985.302678 1.080995l4.323979 4.691517c.354554.394104.41444.971909.148249 1.430349-.266192.458441-.797692.69286-1.315723.580302l-6.22653-1.426914c-.386523-.093123-.793867.01686-1.080995.291869l-4.691517 4.323979c-.394104.354554-.971909.41444-1.430349.148249-.458441-.266192-.69286-.797692-.580301-1.315723l1.437723-6.22653c.083311-.38633-.025436-.789096-.291869-1.080995z"
      fill="#FCC01A"
    />
    <path
      d="M250.739037 407.598725l4.586766 1.186736c.381337.098299.654189.433148.673147.826098.018958.39295-.220396.752456-.590503.88693l-4.452468 1.609834c-.280324.099706-.493073.331547-.568181.619166l-1.177683 4.581834c-.092394.389267-.431478.670498-.831508.68964-.400031.019143-.764474-.228423-.893694-.607084l-1.601236-4.447681c-.104881-.280489-.340051-.492299-.630164-.56757l-4.586766-1.176416c-.37844-.104562-.64691-.440017-.665698-.831796-.018788-.391779.216352-.751333.583054-.891552l4.452469-1.599514c.282867-.101698.4961-.337938.56818-.629486l1.177683-4.581833c.104674-.378034.440491-.646215.832691-.664983.392201-.018768.752142.216119.892512.582427l1.611566 4.447681c.096607.282132.330078.495917.619833.567569zM397.355575 550.163844l4.455248-1.877271c.365532-.128423.766512.005181 1.000931.333506.234419.328324.251426.780146.042453 1.127843l-2.702364 4.260391c-.169475.26797-.204648.609018-.093905.910533l1.742451 4.799966c.119201.393814-.004808.825819-.309554 1.078377-.304745.252557-.724118.27088-1.046845.045737l-3.954424-2.911455c-.25059-.177084-.564582-.214672-.845141-.10117l-4.455248 1.87727c-.365532.128424-.766512-.005181-1.000931-.333505-.234419-.328325-.251426-.780146-.042453-1.127843l2.702364-4.260392c.164367-.269979.199255-.608266.093905-.910532l-1.752885-4.799967c-.110717-.394794.017528-.822168.321808-1.072415.30428-.250247.720739-.27085 1.045025-.051699l3.954424 2.911455c.248057.184524.565537.222529.845141.101171zM156.705574 641.908866l3.725021 1.023981c.318087.074696.550694.369174.568334.719506.017639.350332-.184034.670207-.492754.781558l-3.617049 1.419611c-.225165.091232-.39458.295546-.453481.546899l-.950151 4.014474c-.082618.329929-.352439.565418-.669066.583934-.316627.018517-.608508-.184124-.723768-.502481l-1.317254-3.898112c-.081382-.245056-.272395-.429012-.507466-.488718l-3.725022-1.023982c-.306141-.089038-.524651-.379825-.541832-.721056-.017181-.34123.170849-.655792.466252-.780008l3.61705-1.419611c.227386-.087706.398079-.293562.453481-.546899l.95015-4.014473c.076821-.338893.350519-.583578.673756-.602336.323237-.018757.619732.19284.729875.520883l1.306457 3.898111c.084654.242662.274237.425241.507467.488719z"
      fill="#FEDE89"
    />
    <path
      fill="#FFCB64"
      d="M237.2839688 257.48708l-4.14893017-17.48766355 40.69994433-9.61614342 4.14893018 17.48766355z"
    />
    <path
      d="M235.703266 259L231 239.866421 274.296734 230 279 249.133579 235.703266 259zm-2.034746-17.539114l3.691452 14.981549 38.915914-8.881918-3.680334-14.98155-38.927032 8.881919z"
      fill="#0F0B56"
      fillRule="nonzero"
    />
    <path
      fill="#FFCB64"
      d="M360.13529978 216.03962399l-10.20780302-14.80513337 34.45675203-23.65903979 10.20780301 14.80513338z"
    />
    <path
      d="M359.510712 218L348 201.160063 384.489288 176 396 192.784469 359.510712 218zm-8.436766-16.229794l9.011749 13.1458 32.807187-22.630745-9.011749-13.134706-32.807187 22.619651z"
      fill="#0F0B56"
      fillRule="nonzero"
    />
    <path
      fill="#FFF"
      d="M230.2316553 248.07813869l50.19009752-9.33722015.20160686 1.07921459-50.1900985 9.33722033zM353.63746768 209.41180885l42.39319055-30.10947302.6378829.89440874-42.39319078 30.10947441z"
    />
    <path
      d="M256 312.307136C180.326852 328.725774 107.766423 342.127171 31.4663318 355 18.9494652 305.545872 12.1520807 268.579159 2 225.31368 83.5686139 209.996225 150.354566 194.86597 225.708743 180 237.147707 226.657123 245.033993 266.883338 256 312.307136z"
      fill="#B7B7ED"
    />
    <path
      d="M256 312.307136C180.326852 328.725774 107.766423 342.127171 31.4663318 355 18.9494652 305.545872 12.1520807 268.579159 2 225.31368 83.5686139 209.996225 150.354566 194.86597 225.708743 180 237.147707 226.657123 245.033993 266.883338 256 312.307136z"
      fill="#B7B7ED"
    />
    <path
      d="M205.758997 281.663257L247 273.088448c-.066056-.274482-.121103-.537984-.187159-.812466l-41.218984 8.574809c-3.368859-16.798281-7.354242-36.736634-11.097419-55.489225l40.294199-7.048691c-.055046-.263502-.121102-.527005-.176149-.801487l-40.228143 7.048691C191.634009 210.770117 189.024794 197.671849 186.911 187l-.814691.164689c2.113794 10.671849 4.723008 23.748159 7.475344 37.538121l-46.393376 8.113679c-2.708298-13.537438-5.218429-26.163598-7.189101-36.143753l-.803682.164689c1.970672 9.980155 4.469793 22.584356 7.178092 36.121795l-47.8796374 8.377182c-2.653252-13.328832-5.0642983-25.460925-6.8808401-34.661552l-.8036821.164689c1.8165418 9.200627 4.2165788 21.32174 6.8698307 34.639594l-51.8870386 9.079855c-2.6532519-13.317853-4.9872328-25.07665-6.6056064-33.34404l-.8146915.164689c1.6293829 8.278369 3.9633639 20.015208 6.6056065 33.322081L9 257.003819c.06605606.263502.12110278.537984.17614951.801487l35.95651769-6.291122c3.743177 18.818467 8.1028773 40.623296 12.0222037 60.199332l-34.5032843 7.136525c.0660561.263502.1211028.537984.1871589.801487l34.4812656-7.169463C60.0393191 326.0744 62.5274308 338.513912 64.4320474 348l.8146914-.131751c-1.8715885-9.343358-4.4037376-21.826787-7.1230456-35.550873l51.5677678-10.726746 7.420298 37.066012.814691-.15371c-1.739476-8.684601-4.403737-21.958538-7.431307-37.076991l47.538348-9.881342c3.302803 16.282256 6.03312 30.127114 7.618466 37.99925l.803682-.15371c-1.464243-7.246317-4.271626-21.277823-7.629476-37.98827l46.107133-9.584902c3.644093 18.225586 6.605607 32.828014 7.706541 38.427441l.814692-.164689c-.781664-3.875682-3.809233-18.972177-7.695532-38.416462zm-147.8004439 29.88557c-3.8973078-19.466244-8.2570081-41.325968-12.0111944-60.177373l51.8870386-9.079856c3.7541867 18.829447 7.9707647 39.95356 11.6919237 58.541463l-51.5677679 10.715766zm52.4264959-10.891435c-3.710148-18.489089-7.937737-39.635161-11.6919229-58.508524l47.8245909-8.377182c3.754186 18.785529 7.849662 39.283824 11.394671 57.004364l-47.527339 9.881342zm48.34203-10.046031c-3.533999-17.632706-7.640484-38.152959-11.394671-56.982406l46.393376-8.124659c3.732168 18.664757 7.706541 38.614089 11.097419 55.511184l-46.096124 9.595881z"
      fill="#FFF"
      fillRule="nonzero"
    />
    <path
      d="M256 313.163671C244.943156 267.807352 237.037512 227.621411 225.549451 181l-4.544363.902066 23.285714 124.760129L93 345c54.488129-9.669708 107.903744-19.966461 163-31.836329z"
      fill="#FFF"
    />
    <path
      d="M29.8549631 355l-.2304131-.998946c-7.4390537-29.518295-12.9031373-54.766373-18.1806961-79.180166C7.77918738 257.970541 4.38882222 242.03132.26332933 224.708943L0 223.611201l1.09720555-.241504c47.62969315-8.946601 90.72792735-17.926135 132.41076645-26.609278 29.284416-6.103448 59.578261-12.415467 90.738899-18.562825L225.278244 178l.252358 1.009923c5.957826 24.347929 11.037888 47.268792 15.942396 69.421236 4.388823 20.110642 9.051946 40.890907 14.263673 62.461548L256 311.990449l-1.097206.241503c-68.761872 14.929298-137.863877 28.058299-224.08229 42.592409L29.8549631 355zM2.6662095 225.323679c3.94993999 16.905234 7.3293331 32.537088 10.9062232 49.058112 5.2117264 24.150335 10.5990057 49.058112 17.9173667 78.115356C116.742671 338.11672 185.27413 325.053585 253.366707 310.332858c-5.102006-21.197408-9.633465-41.637373-14.000343-61.407715-4.838677-21.845076-9.87485-44.414662-15.69004-68.356426-30.787588 6.081494-60.730327 12.316671-89.696554 18.354255-41.3536771 8.617279-84.1117775 17.51997-131.3135605 26.400707z"
      fill="#0F0B56"
      fillRule="nonzero"
    />
    <path
      d="M423.295878 245C488.331366 203.00433 549.010621 161.07457 612 116.09098 585.785594 72.4585441 564.356444 41.5906833 540.925188 4 472.534519 50.9499066 414.748419 87.5848945 351 130.459365 375.971339 171.389489 398.885569 205.267241 423.295878 245z"
      fill="#B7B7ED"
    />
    <path
      d="M423.295878 245C488.331366 203.00433 549.010621 161.07457 612 116.09098 585.785594 72.4585441 564.356444 41.5906833 540.925188 4 472.534519 50.9499066 414.748419 87.5848945 351 130.459365 375.971339 171.389489 398.885569 205.267241 423.295878 245z"
      fill="#B7B7ED"
    />
    <path
      d="M564.57765 105.431065L594 86.1403312c-.143148-.2303043-.286295-.4606087-.440454-.6909131l-29.444373 19.3017009c-11.132484-16.5380483-23.575319-35.0062667-34.300382-50.9082363l29.840782-20.9467323-.451466-.70188-29.851793 20.9576992C521.754476 41.8999552 515.037548 31.9858997 510.313675 25l-.682704.4606088c4.734884 6.9749328 11.440801 16.9109221 19.038639 28.1629364l-43.065424 30.2356759c-7.597837-11.2520143-14.51297-21.4950761-19.820445-29.259624l-.682704.4496419c5.263429 7.7645479 12.189574 18.0185766 19.820445 29.2815578l-39.695948 27.8777972c-7.718962-11.427484-14.865334-22.1092207-20.613263-30.5317811l-.682704.4496419c5.692872 8.4225604 12.894301 19.0933302 20.624275 30.5537152l-38.539755 27.022381c-7.86211-11.657788-15.3168-22.712399-21.417093-31.716204l-.682704.449642c6.089281 9.014772 13.565994 20.091316 21.417092 31.803939L372 163.621307c.143148.230304.297307.460609.440454.70188l33.408462-23.458147c10.692029 15.847135 22.022717 32.71419 31.613611 46.927261l-35.181291 23.030438.440454.701881 35.236348-23.030439C449.035465 204.944494 457.624324 217.720904 459.826596 221l.693715-.460609-21.868558-32.505819 39.288528-25.837959 21.637319 32.165846.693716-.471575-21.648331-32.15488 40.565845-26.594673 21.119786 31.442032.682704-.460608c-5.10927-7.600045-12.619017-18.764324-21.108774-31.365264l44.045434-28.842883c7.829076 11.613921 14.931402 22.175022 20.249888 30.071173l.671693-.471576c-5.439611-8.060654-12.530926-18.577887-20.271911-30.08214zm-126.44343 81.911594l-31.624622-46.949194 38.539755-27.033349 32.461485 48.188452-39.376618 25.794091zm40.037299-26.243733c-10.097416-14.991719-21.769456-32.330349-32.483507-48.254253l39.728981-27.8229631c10.769109 15.9568041 22.815535 33.8328111 33.342394 49.4825421l-40.587868 26.594674zm41.248549-27.044315c-10.581915-15.7265-22.61733-33.59154-33.353405-49.5154436l43.065424-30.224709c10.758097 15.9348702 23.211944 34.4030886 34.300382 50.8534016l-44.012401 28.886751z"
      fill="#FFF"
      fillRule="nonzero"
    />
    <path
      d="M534.868096 6.98761672L603.879691 113.840366 455 223c53.300562-35.053678 104.350387-70.41494 157-107.907325C585.719325 71.4595796 564.226985 40.5912518 540.726634 3l-5.858538 3.98761672z"
      fill="#FFF"
    />
    <path
      d="M422.451302 247l-.594123-.955571c-11.629423-18.92469-23.104814-36.849876-34.27214-54.203916-12.267556-19.122395-24.964201-38.89282-38.034924-60.321764L349 130.629079l.869181-.593112c26.405501-17.771416 52.315899-34.795949 77.357116-51.2713035 35.669431-23.4389376 72.538112-47.6577087 112.586456-75.11663289L540.75895 3l.616128.9775377c9.428965 15.1133919 18.307814 28.8099032 27.725776 43.3191987 13.598833 20.9676345 27.670765 42.6601846 43.371036 68.7791136l.52811.867702-.825172.593112c-71.316858 50.864912-129.529985 90.61445-188.777329 128.848256l-.946197.61508zm-70.480683-115.72289c12.872682 21.055503 25.371286 40.529372 37.473807 59.388161 11.002292 17.057484 22.257637 34.686113 33.700021 53.270313 58.664221-37.893315 116.393248-77.313347 186.917941-127.651047-15.469223-25.7015525-29.365118-47.1304969-42.809919-67.8564929-9.208918-14.2017556-17.922734-27.6236777-27.142654-42.37461173C500.413544 33.3036687 463.830923 57.3357191 428.436549 80.5989196c-24.766159 16.2886339-50.368493 33.1264464-76.46593 50.6781904z"
      fill="#0F0B56"
      fillRule="nonzero"
    />
    <path
      d="M335.661849 11c20.586258 46.3581879-3.625115 101.848361-54.069138 123.930962C231.148688 157.013563 173.575273 137.396707 153 90.9839669"
      fill="#FFF"
    />
    <path
      fill="#FFCB64"
      d="M267.5233414 127.1194124l16.45526602-7.30091282 12.73267159 28.57920094-16.45526602 7.30091282z"
    />
    <path
      d="M280.60604 158L267 126.44608 285.437886 118 299 149.542598 280.60604 158zm-10.706932-30.399094l11.827042 27.410133 14.418668-6.611945-11.81606-27.410133-14.42965 6.611945z"
      fill="#0F0B56"
      fillRule="nonzero"
    />
    <path
      d="M335.661849 11c20.586258 46.3581879-3.625115 101.848361-54.069138 123.930962C231.148688 157.013563 173.575273 137.396707 153 90.9839669L335.661849 11z"
      fill="#FFF"
    />
    <path
      d="M329.23652 13L152 90.6839617c7.823669 17.4968433 21.290664 31.9089853 38.276483 40.9628203 25.48463 12.801565 57.453255 14.277407 86.966988 1.355589C326.62751 111.389481 348.050011 58.6308551 329.23652 13z"
      fill="#B7B7ED"
    />
    <path
      d="M327.363958 97.8244644l.20848-.3538355-14.077924-8.2377333c3.288103-5.3815846 6.005958-11.0964442 8.108796-17.0504492 3.664818-10.4645762 5.459194-21.5011257 5.299796-32.5970974L343 37.373877V36.5556323l-16.020086 2.2114721C326.80478 31.0759689 325.721842 23.4331759 323.753952 16l-.768086.3427782c1.944461 7.357436 3.009049 14.9227565 3.171099 22.5348998l-22.42812 3.1181755c.796836-5.7903635 1.0869-11.640118.86684-17.4816863l-.811977.3538356c.205585 5.7656745-.099197 11.5383407-.910731 17.2494817l-24.875023 3.3835521c1.076382-3.4007756 1.912396-6.8741049 2.501767-10.3939184l-.899758.3980649c-.598204 3.434534-1.434167 6.8226754-2.501767 10.1395992l-29.494514 4.0912232-1.843407.8182447 21.780733 12.7823082c-3.466898 4.1027958-7.780838 7.3934145-12.640506 9.642018l-9.699832-22.1700069-.746141.3317208 9.73275 22.1478921c-4.889192 2.0787223-10.167835 3.0633752-15.471452 2.885971l5.376604-24.8901175-1.843407.8182447-23.042589 19.2729786c-3.158758-1.4447704-6.213003-3.1111538-9.140227-4.9868694l-.899758.3980649c2.982132 1.9507046 6.09902 3.6837683 9.326762 5.1859019l-19.246048 16.1105736c-4.738223-3.2583685-9.181174-6.9326707-13.27692-10.9799585l-.811977.3648928c4.14099 4.1147924 8.635384 7.8520288 13.430537 11.1679337l-17.424586 14.5846578c-5.473847-5.2682047-10.306499-11.1737672-14.396132-17.5922597L166 85.9709744c4.126311 6.4892957 9.003091 12.4615833 14.527804 17.7912926l-12.333272 10.316517.526688.641327 12.41008-10.382862c8.013056 7.594004 17.301281 13.692929 27.431653 18.01244 5.826938 2.485177 11.899744 4.338503 18.115864 5.52868l-3.445415 15.944713.801004.176918 3.456388-15.977885c4.956127.913547 9.983236 1.379803 15.021573 1.393227 11.408141-.002787 22.692962-2.378056 33.14841-6.977194l5.958155 13.755356.373071-.154803.351125-.165861-6.023991-13.766413c15.126405-6.797675 27.892288-17.994844 36.659662-32.154803l14.077924 8.2377333.307235-.3648929zM277.73461 46.3745681l24.929887-3.4720111c-.441862 2.9546111-1.031478 5.884856-1.766599 8.7795439-2.118899 8.5571472-5.694073 16.6792809-10.566672 24.0055287l-21.528362-12.5943331c3.956568-4.9824027 6.982866-10.6471241 8.931746-16.7187284zm-30.295518 4.2128542l29.384787-4.0912233c-1.93711 5.8802813-4.910748 11.3602976-8.778129 16.1769178l-20.606658-12.0856945zm20.848057 13.1472011l21.616143 12.6496199c-6.139924 8.9902288-14.595755 16.1236414-24.458062 20.6330338l-10.160685-23.2978576c5.001946-2.3273841 9.433814-5.7364022 12.980659-9.9847961h.021945zm-28.52892 13.268832c5.069458.02412 10.09076-.9916544 14.75823-2.9854872l10.193602 23.2868003c-9.920454 4.2824785-20.809894 5.7654865-31.50251 4.2902555l5.32174-24.6247407 1.228938.0331721zm3.21499-24.4588804l-5.135205 23.6185211c-6.153923-.3693924-12.189153-1.8682998-17.80863-4.4229441l22.943835-19.195577zm-23.657058 19.8147892c5.781137 2.6667783 12.000384 4.2373402 18.34629 4.6330339l-5.299795 24.5141669c-8.690738-1.29418-17.090354-4.10818-24.82016-8.3151345-2.589548-1.3932273-5.124233-2.9302004-7.593082-4.5888044l19.366747-16.2432619zm7.527246 54.7118178c-6.168814-1.194837-12.193849-3.048177-17.973219-5.52868-10.000964-4.260798-19.176167-10.268845-27.102474-17.747063l17.556258-14.673117c2.540293 1.7224328 5.166175 3.3130763 7.867399 4.7657222 7.798325 4.2644521 16.275937 7.1233618 25.050585 8.4478228l-5.398549 24.735315zm.811977.143745l5.343686-24.757429c2.765098.364328 5.550592.548999 8.339223.552868 8.139125.019243 16.195259-1.64808 23.66803-4.8984102l10.314302 23.5632342c-14.990866 6.572171-31.583341 8.500578-47.665241 5.539737zm48.411382-5.871458l-10.303329-23.5742914c10.023792-4.5893737 18.610751-11.8545799 24.831132-21.0089841l21.747815 12.7601935c-8.6775 14.011161-21.308921 25.092179-36.275618 31.823082zm36.714525-32.5749825l-21.736842-12.6606772c4.91254-7.389901 8.513899-15.5835684 10.643481-24.2156186.782383-3.0021083 1.408678-6.0433368 1.876325-9.1112646l22.570765-3.1402903c.151446 10.9653866-1.628076 21.8709466-5.255905 32.2100898-2.097657 5.9121047-4.812139 11.5831286-8.097824 16.9177609z"
      fill="#FFF"
      fillRule="nonzero"
    />
    <path
      d="M335.661849 11c20.586258 46.3581879-3.625115 101.848361-54.069138 123.930962C231.148688 157.013563 173.575273 137.396707 153 90.9839669"
      stroke="#FFF"
      strokeWidth="0.75"
    />
    <path
      d="M238.411488 145.999948c-11.261228.01139-22.44604-1.851838-33.097233-5.51352-24.641254-8.490821-43.777312-25.803274-53.873839-48.750545L151 90.7213953 336.106679 9l.440416 1.0034607c10.096528 22.9472707 9.909351 48.772599-.407384 72.7784656-10.316736 24.0058667-29.650981 43.0936737-54.358297 54.0324977-13.6635 6.042976-28.433447 9.171174-43.369926 9.185524zm-84.504745-54.1096864c9.909351 21.8886744 28.428827 38.3961544 52.123187 46.5561644 24.079723 8.303361 50.647795 6.991143 74.870653-3.694059 24.222858-10.685202 43.094667-29.453224 53.224226-52.8636309 9.964403-23.0244601 10.250673-47.8132466.8478-69.9334893L153.906743 91.8902616z"
      fill="#0F0B56"
      fillRule="nonzero"
    />
    <path
      fill="#0F0B56"
      d="M185.924134 78L184 76.9486678 223.93403 6 304 24.7939184l-.516767 2.1135029L225.04453 8.48201114z"
    />
    <circle fill="#B7B7ED" cx="224.5" cy="6.5" r="5.5" />
    <path
      d="M224.488047 12.9999837c-2.827951-.0120423-5.325691-1.8451794-6.184245-4.5387315-1.081338-3.42329718.815335-7.07523357 4.238389-8.1607734 3.42105-1.07371157 7.066436.82082097 8.152468 4.23689468.6286 1.97688032.274805 4.13499592-.952129 5.80790022-1.226934 1.6729044-3.179409 2.6593488-5.254483 2.65471zm0-10.76551339c-1.36872-.00244334-2.655733.65087368-3.461303 1.75703603-.805571 1.10616234-1.03214 2.53121006-.609339 3.83253479.339082 1.0776353 1.093583 1.97587665 2.096695 2.49613597 1.003111.5202594 2.172207.6196835 3.248819.2762912 1.080207-.3460221 1.978401-1.1072959 2.49656-2.11598702.518159-1.00869113.613737-2.18197385.265661-3.26118015-.554427-1.75622263-2.172654-2.95932658-4.014727-2.98483082h-.022366z"
      fill="#0F0B56"
      fillRule="nonzero"
    />
    <path
      d="M411 356.111246c-2.5343 3.95742-6.418033 6.849381-10.367591 9.404309-10.751909 6.931774-22.627722 11.977599-35.107188 14.916429-4.571157 1.196739-9.296454 1.713372-14.020933 1.532957l-9.709332-20.10239C335.431778 348.685647 329.112484 335.987112 324 322.277478 341.981146 310.041093 362.227233 301.450385 383.572509 297c10.597983 20.819944 17.61942 39.83513 27.427491 59.111246z"
      fill="#FFCB64"
    />
    <path
      d="M354.139008 384c-.760563 0-1.499081 0-2.204532-.076655h-.650336l-11.970607-24.825286c-5.853031-12.100548-11.375382-23.533101-16.015921-36.005973L323 322.281732l.70545-.481832c18.203385-12.373553 38.673125-21.079479 60.249847-25.624688L384.781996 296l.385793.7556c5.412125 10.687904 9.920392 20.970632 14.329455 30.913887 4.409063 9.943256 8.410288 19.10901 13.22719 28.625187l.275566.558487-.33068.525634c-2.733619 4.270782-6.966319 7.347935-10.747091 9.85565-10.895153 7.058859-22.936456 12.193677-35.592162 15.1777-3.986481 1.004834-8.078579 1.537819-12.191059 1.587855zm-1.454991-2.190144c4.423991.093363 8.839304-.430068 13.116963-1.555003 12.410925-2.919596 24.218362-7.954841 34.897734-14.882031 3.428047-2.190144 7.230863-4.960677 9.744029-8.618218-4.72872-9.373818-8.740967-18.51767-12.995713-28.176207-4.254746-9.658536-8.641764-19.711299-13.866503-30.04878-20.706952 4.4703-40.363634 12.829525-57.913044 24.628173 4.541335 12.045794 9.920392 23.237432 15.630129 35.04231l11.386405 23.609756z"
      fill="#0F0B56"
      fillRule="nonzero"
    />
    <path
      d="M358.425414 375c-.618784 0-1.226519 0-1.834254-.054595h-.320442l-9.856353-20.33121c-4.850829-10.00182-9.447514-19.44677-13.259669-29.765241L333 324.455869l.353591-.240218c15.090862-10.20793 32.064228-17.386643 49.955801-21.128299l.41989-.087352.187845.371247c4.508287 8.844404 8.265193 17.339399 11.889503 25.561419 3.624309 8.22202 6.994475 15.832575 11.049724 23.716106l.143646.272975-.165746.262056c-2.209945 3.483167-5.712707 5.994541-8.839779 8.00364-9.030948 5.817683-19.01241 10.047489-29.502762 12.502275-3.29146.827206-6.670339 1.267019-10.066299 1.310282zm-1.447513-1.091902c3.788637.112749 7.573818-.317563 11.237569-1.277525 10.36652-2.423683 20.22908-6.605774 29.149171-12.360327 2.939226-1.88899 6.209945-4.247498 8.331492-7.414013-3.966851-7.807097-7.337017-15.428571-10.895028-23.486806-3.558011-8.058235-7.281768-16.454959-11.701657-25.190173-17.468141 3.706167-34.045442 10.71768-48.81768 20.647862 3.801105 10.11101 8.331492 19.424931 13.116022 29.273885l9.580111 19.807097z"
      fill="#FFF"
      fillRule="nonzero"
    />
    <path
      d="M417 323.893827c-3.665861 13.20663-14.002927 23.771933-25.969265 30.397259-13.584466 7.278188-28.078122 12.715033-43.098632 16.167115-10.315049 2.201105-19.584282-3.015513-19.584282-3.015513-30.207573-64.118186-59.67757-134.355443-84.347821-200.8068C271.85195 151.246119 301.463583 139.280602 332.189819 131 359.425072 195.063158 389.764747 259.830669 417 323.893827z"
      stroke="#0F0B56"
      fill="#383884"
    />
    <path
      d="M322.86421 261.350144L288.892491 177.0252c-3.664444-9.040477-13.900924-13.390245-22.887588-9.725579L248 174.654179C267.781415 227.036193 288.914288 278.858382 312.150639 330c18.724227-18.583979 21.143772-42.74425 10.713571-68.649856z"
      fill="#222263"
    />
    <path
      d="M326 133.794962L414.245749 331c1.140452-2.298631 2.062562-4.698746 2.754251-7.168903C389.852526 260.120889 359.610635 195.710208 332.507054 132c-2.187306.583727-4.356324 1.182048-6.507054 1.794962z"
      fill="#FFF"
    />
    <path
      d="M342.753841 370.997479c-5.161733-.051327-10.239734-1.306849-14.827532-3.666069l-.307306-.164152-.153653-.317361c-30.313578-64.194497-59.408906-133.236959-84.136093-199.729588L243 166.233887l.823142-.459627c27.847743-15.345147 57.454301-27.27625 88.174977-35.533503L332.920038 130l.373157.875479c13.576357 31.834605 28.162434 64.402423 42.276576 95.886836 14.114142 31.484413 28.70022 64.063175 42.276576 95.919667l.153653.361135-.109752.361135c-3.402321 12.245762-13.03857 23.495667-26.417372 30.893465-13.633882 7.298047-28.183841 12.748623-43.264347 16.207305-1.796127.352704-3.624236.517748-5.454688.492457zm-13.433678-5.417027c1.646284.820762 9.724051 4.552491 18.471308 2.724929 14.863487-3.392735 29.206592-8.747564 42.649733-15.922774 12.742239-7.036663 21.950455-17.662789 25.243023-29.197225-13.52148-31.736113-28.052681-64.161666-42.111947-95.525701-14.059267-31.364035-28.436814-63.472226-41.914394-95.055131-29.914027 8.11827-58.757082 19.744821-85.925054 34.636137 24.573534 66.043947 53.460332 134.604895 83.587331 198.339765z"
      fill="#0F0B56"
      fillRule="nonzero"
    />
    <path
      d="M280.111364 260L280 258.871013c.601365-.067739 60.069692-6.536833 92.220453-38.871013l.779547.790291C340.57083 253.429297 280.712729 259.943551 280.111364 260z"
      fill="#0F0B56"
    />
    <path
      d="M282.122486 269L282 267.871013c.601293-.067739 60.0625-6.536833 92.209411-38.871013l.790589.790291C342.552443 262.429297 282.723779 268.943551 282.122486 269zM286.04212344 146.48186512l1.00830446-.4389789 43.74693158 100.06858826-1.00830407.43897982z"
      fill="#0F0B56"
    />
    <path
      fill="#0F0B56"
      d="M333.6497281 254.90937229l1.00395607-.44879306L381.3528739 358.4959637l-1.00395699.44879347zM307.26589682 212.20817653l1.00753574-.44073542 16.19522621 36.86993944-1.00753482.44073502zM319.74199782 207.02040853l1.00753483-.44073502 16.19522712 36.86993904-1.00753482.44073502zM327.72111382 257.83913453l1.00753615-.4407345 16.1952262 36.86993944-1.00753482.44073502zM340.19721523 252.66234545l1.00753482-.44073502 16.19522713 36.86993904-1.00753483.44073502zM271.230029 240l-.056104-1.08812c7.36094-.315555 17.414907-6.104352 19.490782-7.344809l-19.827411-51.141634-20.422121 7.867107L250 187.280592 271.488111 179 292 232.0132l-.381512.239387c-.448838.337317-11.882982 7.377452-20.388459 7.747413z"
    />
    <path
      d="M277.505657 210.999994c-1.361092.003011-2.474517-1.083273-2.505017-2.443954-.0305-1.360681 1.033134-2.495758 2.392994-2.553731 1.35986-.057972 2.516248.982463 2.601676 2.340803.08355 1.373857-.959193 2.556816-2.332742 2.646422l-.156911.01046zm0-3.943483h-.094146c-.816571.025708-1.461482.701771-1.448626 1.518601.012856.816831.678723 1.472266 1.495699 1.472266.816976 0 1.482843-.655435 1.495699-1.472266.012856-.81683-.632055-1.492893-1.448626-1.518601z"
      fill="#0F0B56"
      fillRule="nonzero"
    />
    <path
      d="M364.257685 324L364 322.935816c.268888-.063851 26.888825-6.257399 37.969262-30.935816L403 292.415032C391.650675 317.62554 364.526573 323.936149 364.257685 324z"
      fill="#0F0B56"
    />
    <path
      fill="#FFCB64"
      d="M210.69151595 513.042188l2.49380819-3.81613012 8.89203191 5.78686811-2.49380819 3.81613013z"
    />
    <path
      d="M220.414634 520L210 512.816681 213.596037 507 224 514.183319 220.414634 520zm-7.469512-7.838401l6.839939 4.721112 1.248476-2.04431-6.829269-4.721112-1.259146 2.04431z"
      fill="#0F0B56"
      fillRule="nonzero"
    />
    <path
      fill="#FFCB64"
      d="M239.81387071 528.39427895l.94217107-4.45782721 10.3872613 2.1863043-.94217204 4.457827z"
    />
    <path
      d="M250.695893 532L239 529.420927 240.304107 523 252 525.568371 250.695893 532zm-9.241707-4.280618l7.680885 1.690844.451817-2.258026-7.680885-1.690844-.451817 2.258026z"
      fill="#0F0B56"
      fillRule="nonzero"
    />
    <path
      d="M203.02994 526C186.815369 515.161336 171.687625 504.322672 156 492.66027c6.894212-10.773632 12.482036-18.371535 18.662675-27.66027C191.722555 477.226013 206.11477 486.688166 222 497.819474 215.43513 507.888593 209.441118 516.245203 203.02994 526z"
      fill="#B7B7ED"
    />
    <path
      d="M203.02994 526C186.815369 515.161336 171.687625 504.322672 156 492.66027c6.894212-10.773632 12.482036-18.371535 18.662675-27.66027C191.722555 477.226013 206.11477 486.688166 222 497.819474 215.43513 507.888593 209.441118 516.245203 203.02994 526z"
      fill="#B7B7ED"
    />
    <path
      d="M204.951157 505.931798c3.721385-5.306038 7.398599-10.534535 10.048843-14.289748l-.9055-.631407c-2.341049 3.315812-5.694344 8.079062-10.059885 14.289748l-15.857295-10.999783 10.059885-14.311903-.9055-.631407c-2.341049 3.315812-5.698025 8.086447-10.070928 14.311903l-13.880654-9.626195c4.107879-5.859904 7.93969-11.309948 10.115099-14.400521L182.600764 469c-1.943512 2.747176-5.322573 7.54735-10.137184 14.400521l-7.133574-4.951564-.61839.908341 7.122531 4.940487L163 496.870547l.883415.66464 8.834147-12.605995 13.891697 9.637272-9.110215 12.982624.894458.653562 9.121257-13.004779 15.923551 11.010861-9.286898 13.159861.9055.631407 9.25377-13.193093 8.348269 5.782363.607348-.919418-8.315142-5.738054z"
      fill="#FFF"
    />
    <path
      d="M204.083954 525c6.389371-9.928826 12.373242-18.467616 18.916046-28.683274-.61373-.430249-2.586435-1.886477-3.189206-2.316726l-17.535153 29.786477L170 500.729537c11.200579 8.285054 22.35732 16.294306 34.083954 24.270463z"
      fill="#FFF"
    />
    <path
      d="M203.852571 528l-.933768-.637902c-14.797485-10.063452-29.320331-20.500846-47.105875-33.852792L155 492.893401l.549276-.857868c4.130552-6.598985 7.83267-11.988156 11.402961-17.245347 2.460755-3.629441 4.789683-7.049915 7.261423-10.822335L174.839834 463l.933769.670897c9.98583 7.21489 19.180704 13.58291 28.078968 19.796954 6.250756 4.322335 12.710237 8.798646 19.290559 13.461929l.85687.604907-.560261.890863c-3.438465 5.367174-6.767075 10.327411-9.996816 15.111675-2.911161 4.344332-5.932176 8.798646-8.986149 13.560914L203.852571 528zm-45.908454-35.678511c17.016558 12.769036 31.056042 22.865482 45.28228 32.554992 2.856233-4.399324 5.668524-8.589679 8.392931-12.648055 3.042987-4.509306 6.173858-9.172588 9.403598-14.187817-6.283712-4.399323-12.446585-8.71066-18.422703-12.846024-8.623627-5.972081-17.576819-12.15313-27.178156-19.093062-2.263016 3.431472-4.493075 6.708968-6.657221 9.898477-3.405508 5.037225-6.920872 10.20643-10.820729 16.321489z"
      fill="#0F0B56"
      fillRule="nonzero"
    />
    <path
      d="M245 545.026125c19.115704 4.550072 37.438591 8.327286 56.785533 11.973875 3.457564-12.333091 5.395561-21.563861 8.214467-32.362119C289.375741 520.283745 272.561409 516.1582 253.445706 512c-3.138235 11.6582-5.406573 21.694485-8.445706 33.026125z"
      fill="#B7B7ED"
    />
    <path
      d="M245 545.026125c19.115704 4.550072 37.438591 8.327286 56.785533 11.973875 3.457564-12.333091 5.395561-21.563861 8.214467-32.362119C289.375741 520.283745 272.561409 516.1582 253.445706 512c-3.138235 11.6582-5.406573 21.694485-8.445706 33.026125z"
      fill="#B7B7ED"
    />
    <path
      d="M307 539.537411l-8.629295-1.70911c1.581109-7.034917 2.694567-12.044631 3.340372-15.029141l-1.113457-.242583c-.734882 3.307954-1.993089 8.898398-3.340373 15.062221l-19.028988-3.760042c1.543994-6.858493 2.705701-12.044632 3.485122-15.558415l-1.113458-.242583c-.879631 3.92544-2.148973 9.615122-3.496256 15.591494l-16.701862-3.307955c1.573686-6.961407 2.779932-12.32397 3.618736-16.087687L262.907084 514c-.946439 4.267262-2.226915 10.122342-3.618737 16.131793l-10.021117-1.973746L249 529.260698l10.021117 1.973747c-1.336149 5.943292-2.683432 11.919664-3.730082 16.539774l1.113457.242583c1.417803-6.241008 2.664875-11.754266 3.741217-16.539774l16.701863 3.307955-3.81916 16.925702 1.113458.220531c1.48461-6.432135 2.757663-12.074036 3.819159-16.925703l19.040123 3.749016-3.841428 17.024941 1.113457.22053c1.480898-6.549751 2.761375-12.239433 3.841428-17.024941l8.607027 1.698084L307 539.537411z"
      fill="#FFF"
    />
    <path
      d="M306.166667 523l-7.377778 33.420708L254 546.973788c15.9 3.676278 31.466667 6.884665 47.711111 10.026212C305.2 544.378113 307.155556 534.931193 310 523.880079L306.166667 523z"
      fill="#FFF"
    />
    <path
      d="M302.345697 558l-.991866-.190749c-21.646657-4.275017-38.998861-8.089993-56.263868-12.342569L244 545.19739l.28339-1.122052c1.438751-5.554156 2.714007-10.906343 3.945665-16.090222 1.362453-5.722464 2.779404-11.646898 4.425248-17.952828L252.926794 509l1.013665.22441c7.825931 1.784063 15.42297 3.601786 22.780218 5.352187 10.441841 2.502176 21.25427 5.082895 33.18936 7.674834L311 522.498283l-.28339 1.122051c-1.089963 4.488207-2.081829 8.572476-3.095494 12.926037-1.471449 6.30593-2.997397 12.825051-5.046527 20.443782L302.345697 558zm-55.653489-14.485688c16.611029 4.106709 33.385554 7.787039 54.083943 11.893748 1.907434-7.15869 3.357085-13.363636 4.763136-19.377833.88287-3.814976 1.809338-7.753378 2.823004-11.826426-11.520905-2.513396-21.995445-5.015571-32.121198-7.439203-7.030258-1.683078-14.289409-3.366155-21.799251-5.116556-1.525948 5.879551-2.855702 11.456149-4.141858 16.830776-1.100862 4.869705-2.288922 9.862835-3.607776 15.035494z"
      fill="#0F0B56"
      fillRule="nonzero"
    />
    <path
      d="M275 487.806565c-5.044495 12.122598-19.711308 17.531486-32.778106 12.055684-13.066797-5.475801-19.555751-19.728498-14.511256-31.862249"
      fill="#FFF"
    />
    <path
      stroke="#0F0B56"
      strokeWidth="2"
      fill="#FFCB64"
      d="M239.96203585 495.83857431l4.21873702 1.7412639-3.03985872 7.33455948-4.21873702-1.7412639z"
    />
    <path
      d="M275 487.806565c-5.044495 12.122598-19.711308 17.531486-32.778106 12.055684-13.066797-5.475801-19.555751-19.728498-14.511256-31.862249L275 487.806565z"
      fill="#FFF"
    />
    <path
      d="M269 484.17087L227.898406 467c-1.917276 4.56304-2.668935 9.623472-.893276 13.99188 2.952168 7.277075 5.207146 11.331909 10.370717 14.305454 11.721526 6.703992 26.525943.162193 31.624153-11.126464z"
      fill="#B7B7ED"
    />
    <path
      d="M252.551005 502.999787c-3.717653-.009824-7.396476-.776652-10.823459-2.256084-6.38931-2.678214-11.557886-7.734416-14.471568-14.156931-2.833775-6.156856-3.005346-13.255418-.472496-19.548973L227.201036 466 276 486.891343l-.428543 1.037799c-2.564496 6.29192-7.602022 11.176528-13.867213 13.446264-2.934965 1.08721-6.033069 1.637016-9.153239 1.624381zm-24.174222-34.044316c-1.864954 5.459253-1.560997 11.452817.846097 16.683745 5.650558 12.153196 19.309676 17.987703 31.690208 13.536508 5.323194-1.903231 9.701445-5.883167 12.186005-11.077376l-44.72231-19.142877z"
      fill="#0F0B56"
      fillRule="nonzero"
    />
    <path
      fill="#0F0B56"
      d="M267.075773 484l-10.088286-16.540179-19.420229 4.803014L237 470.216518 258.066389 465 269 482.939732z"
    />
    <path
      d="M223.641684 564.908896c-1.224153.181202-2.472524.091411-3.659138-.263189-3.258882-.78107-6.360907-2.124222-9.170431-3.970723-1.050652-.658661-1.998454-1.472442-2.812115-2.414474l2.089322-5.5613c1.36653-3.650319 2.654004-7.19765 4.359343-10.69921 5.574519 1.195092 10.860078 3.497515 15.551335 6.774259-2.078029 5.858819-4.449692 10.710653-6.358316 16.134637z"
      fill="#FFCB64"
    />
    <path
      d="M221.402657 563.999806c-.920351-.016966-1.835477-.140058-2.726523-.366739-3.296232-.765931-6.43205-2.08708-9.26798-3.904687-1.114579-.675417-2.122106-1.507647-2.99038-2.470093L206 556.772898l2.671553-6.870956c1.220339-3.149637 2.374714-6.126692 3.880898-9.146892l.373797-.75505.835548.172583c5.568309 1.159641 10.847825 3.388465 15.534585 6.558149l.703619.463816-.285845.78741c-1.03344 2.836831-2.198809 5.393215-3.232249 7.928025-1.033441 2.534811-2.055887 4.789175-2.957398 7.28084l-.208887.571681-.615667.118651c-.427267.082241-.861899.121992-1.297297.118651zm-12.874027-7.679938c.630154.609202 1.32701 1.148201 2.077875 1.607178 2.624717 1.678168 5.526144 2.897111 8.575355 3.602667.815901.220876 1.660513.322641 2.506642.30202.857536-2.297509 1.792029-4.465582 2.770499-6.752305.97847-2.286723 1.95694-4.562659 2.891434-7.043538-4.030354-2.600986-8.496217-4.485043-13.192854-5.565798-1.286303 2.675035-2.330737 5.393215-3.419148 8.197687l-2.209803 5.652089z"
      fill="#0F0B56"
      fillRule="nonzero"
    />
    <path
      d="M228.871201 557.701834c-3.087419 1.517594-6.62965 1.712665-9.855506.542744-3.613362-1.233326-7.050542-2.961867-10.219731-5.139452-1.341709-1.03567-2.322698-2.493015-2.795964-4.153653 6.331091-16.869368 13.872696-34.680231 21.574988-50.951473 7.507712 2.442219 14.701754 5.815543 21.425012 10.046301-6.898854 16.326624-13.326358 33.339986-20.128799 49.655533z"
      stroke="#0F0B56"
      strokeWidth="2"
      fill="#383884"
    />
    <path
      d="M245.639279 507L225 559c.626098-.185092 3.844464-.794807 4.393673-1.088777 7.007909-16.037689 13.598418-32.761307 20.606327-48.798995-.461336-.304858-3.866432-1.829146-4.360721-2.112228z"
      fill="#FFF"
    />
    <path
      d="M241.921016 531c-11.881524-.325123-23.435826-9.753695-23.921016-10.133005L218.778561 520c.112835.097537 11.734838 9.558621 23.221439 9.872906L241.921016 531zM239.97739 534c-11.915214-.336957-23.491285-9.782609-23.97739-10.173913L216.734809 523c.124353.097826 11.768253 9.586957 23.265191 9.913043L239.97739 534z"
      fill="#0F0B56"
    />
    <path
      d="M223.289722 558.998642c-1.700232-.008999-3.38907-.271896-5.008015-.779585-3.840416-1.240507-7.495379-2.973611-10.869166-5.153921-1.600683-1.167502-2.767736-2.81362-3.323904-4.688336L204 548.041145l.132956-.324827c6.647808-16.620313 14.326026-33.868626 22.347713-49.882595L226.901697 497l.908534.281517c7.841182 2.410529 15.353029 5.744665 22.369873 9.928878l.819896.48724-.387789.866205c-3.523338 7.958261-7.002357 16.241349-10.37058 24.232092-3.368222 7.990744-6.869401 16.306314-10.403819 24.28623l-.155115.346483-.34347.184068c-1.86953.940216-3.947165 1.416197-6.049505 1.385929zm-16.962989-10.827566c.441045 1.248298 1.25548 2.33842 2.337812 3.129166 3.188324 2.067201 6.646629 3.706021 10.281943 4.872405 2.933759 1.005264 6.145741.904881 9.007779-.281517 3.46794-7.860813 6.90264-16.01397 10.226544-23.896437 3.246346-7.720055 6.647808-15.689143 9.971711-23.409198-6.35452-3.698374-13.11036-6.694383-20.142857-8.932741-7.766855 15.613349-15.256718 32.352766-21.694012 48.518322h.01108z"
      fill="#0F0B56"
      fillRule="nonzero"
    />
    <circle fill="#B7B7ED" cx="254.5" cy="466.5" r="2.5" />
    <path
      d="M254.972801 469.999879c-1.968664-.016705-3.633466-1.459987-3.927522-3.404921-.294056-1.944934.86978-3.815126 2.745667-4.412067 2.107503-.656267 4.350253.508935 5.022887 2.609599.318905 1.010014.225451 2.105014-.260008 3.0465-.49142.947362-1.343057 1.657852-2.363712 1.971959-.392857.128408-.803979.192216-1.217312.18893zm0-5.632482c-.167961.000315-.335048.024164-.496379.070849-.85942.276469-1.334461 1.194071-1.06367 2.054616.204277.626497.763733 1.070215 1.420778 1.126851.657044.056636 1.284298-.284789 1.592954-.867072.200173-.386623.238434-.836856.106367-1.251663-.128957-.413441-.418441-.757963-.803662-.956459-.243409-.098455-.506433-.138885-.768206-.118081l.011818-.059041z"
      fill="#0F0B56"
      fillRule="nonzero"
    />
    <path
      d="M23.5541935 134.988549c-.0808804.015268-.1639261.015268-.2448066 0-.2721404-.13834-.3852849-.466217-.2559341-.741664l1.9139424-3.996128c.1321302-.278168.4659231-.397112.7455474-.265671.2796243.131442.3991919.463496.2670617.741664l-1.92507 3.996128c-.1037839.174798-.297002.277311-.5007408.265671zm6.6765435-13.991983c-.0807376.016711-.1640689.016711-.2448066 0-.2763624-.134366-.3948058-.463298-.2670617-.741664l1.92507-3.996128c.0761384-.192852.2541763-.32725.4613773-.348288.2072009-.021037.4088616.07481.5225947.248384.113733.173574.1204897.395803.0175096.575897l-1.9139425 3.996128c-.1055539.172949-.2975606.274819-.5007408.265671zm6.6765435-13.980913c-.0763466.021836-.1573324.021836-.233679 0-.1341925-.06011-.2382604-.17163-.2885545-.309218-.050294-.137589-.0425426-.289559.0214928-.421376l1.9139424-3.996128c.0854732-.179943.2609549-.300855.4603427-.31719.1993877-.016335.3923899.074388.5063045.237996.1139146.163608.1314352.375244.0459619.555187l-1.92507 3.996128c-.1048555.172483-.2987934.271091-.5007408.254601zM43.583824 93.03474c-.0801527.0216383-.1646539.0216383-.2448066 0-.2763624-.1343656-.3948058-.4632976-.2670617-.7416637l1.92507-3.9850583c.0761384-.1928519.2541763-.3272506.4613773-.3482881.2072009-.0210376.4088616.0748095.5225947.2483834.113733.1735739.1204897.3958034.0175095.5758978l-1.9139424 3.9961279c-.0955316.1488934-.2567652.2434846-.4339753.254601h-.0667655zm6.6765435-13.980913c-.0771425.0152121-.1565365.0152121-.233679 0-.1349598-.0623757-.239176-.1759356-.2893601-.3153032-.0501842-.1393676-.0421532-.2929259.0222983-.4263605l1.9139425-3.9961279c.1321302-.2781677.4659231-.3971124.7455474-.2656706.2796242.1314419.3991919.463496.2670617.7416637l-1.8249219 3.9407799c-.088209.1962716-.2846239.3221907-.5007407.3210186h-.1001482zm6.6765435-13.980913c-.0846094-.0010967-.168032-.0199576-.2448066-.0553481-.1329948-.0643861-.2347447-.1788021-.2827682-.3179679-.0480235-.1391658-.0383677-.2916263.026834-.4236957l1.9139425-3.9961279c.0647234-.1323021.1797385-.2335219.319633-.2812952.1398945-.0477734.2931534-.0381678.4259144.0266942.1322245.0621546.2338077.1745432.2819328.3119218.0481251.1373786.0387575.2882305-.0259987.4186722l-1.9139424 3.996128c-.0650472.1541847-.1954556.2717516-.3560823.3210186h-.1446585zm6.6765435-13.9919826c-.0814645.0026471-.1621545-.0164647-.233679-.0553481-.1341925-.0601098-.2382604-.1716303-.2885545-.3092184-.050294-.1375881-.0425426-.2895584.0214927-.4213756l1.9250701-3.9961279c.1305684-.2734639.4577737-.3918278.7344198-.2656706.1349598.0623757.2391759.1759356.2893601.3153032.0501841.1393676.0421531.2929259-.0222984.4263604l-1.92507 3.996128c-.0566304.1454201-.1746215.2587492-.3226996.309949h-.1780412zm6.6765435-13.980913c-.0802857.0206217-.1645209.0206217-.2448066 0-.1322245-.0621546-.2338078-.1745432-.2819328-.3119218-.0481251-.1373786-.0387575-.2882305.0259986-.4186723l2.136494-4.0182671c.0761384-.192852.2541763-.3272506.4613772-.3482882.207201-.0210375.4088617.0748096.5225947.2483835.113733.1735739.1204897.3958034.0175096.5758978l-1.9139425 3.9518495c-.0904186.1943722-.2854499.3194043-.5007407.3210186h-.2225515zM168.514794 642l-.065718-.502042L168 641.206774c.14239-.190776.14239-.190776 1.763444-.331348.299259-.018283.562708.179315.602419.451838.015274.133286-.028219.266638-.120796.370364-.092577.103726-.226551.169213-.372092.181882L168.514794 642zm12.245531-1.094451c-.30246.013863-.559913-.19967-.575036-.47694-.015123-.27727.21781-.513281.520271-.527144l4.293603-.381552.14239.492001v.502042l-4.293603.391593h-.087625zm15.334296-1.375595c-.280385-.003258-.514686-.196566-.547653-.451838-.015274-.133286.028219-.266638.120796-.370364.092577-.103726.226551-.169213.372092-.181882l4.381228-.391593c.30246-.027727.572172.174568.602418.451838.030246.27727-.190427.524519-.492888.552246l-4.381227.401634-.054766-.010041zm15.279531-1.385636c-.280111.000857-.513835-.19591-.5367-.451837-.015274-.133287.028219-.266639.120796-.370365.092577-.103725.226551-.169213.372092-.181882l4.381228-.401633c.145395-.014002.290863.025869.404012.110735.113149.084867.184587.207683.198406.341103.015275.133286-.028219.266638-.120795.370364-.092577.103725-.226551.169213-.372093.181882l-4.381227.401633h-.065719zm15.334297-1.395676c-.280386-.003258-.514687-.196566-.547654-.451838-.015274-.133286.028219-.266638.120796-.370364.092577-.103726.226551-.169213.372092-.181882l4.381228-.401633c.144235-.013953.28849.026202.399909.111318.11142.085117.180518.207948.191557.340519.015274.133287-.02822.266639-.120796.370364-.092577.103726-.226551.169214-.372092.181882l-4.381228.391593-.043812.010041zm15.202859-1.415758c-.30246 0-.547653-.224772-.547653-.502042s.245193-.502042.547653-.502042l4.381228-.411674c.144235-.013953.288489.026202.399909.111318.11142.085117.180518.207948.191556.340519.032051.274172-.183112.520727-.481935.552246l-4.381227.401634-.109531.010041zm15.334297-1.425799c-.276728-.002575-.509684-.190503-.547654-.441797-.015274-.133287.028219-.266639.120796-.370364.092577-.103726.226551-.169214.372092-.181882l4.381228-.411675c.195657-.019729.387935.057728.504402.203195.116468.145468.139432.336845.060242.502042-.07919.165198-.248503.279117-.444161.298847l-4.381227.411675-.065718-.010041zm15.279531-1.445881c-.302461.016636-.562365-.194649-.580513-.471919-.018148-.27727.212334-.515528.514794-.532165l4.381228-.411674c.30246-.027727.572172.174568.602418.451838.030246.27727-.190427.524519-.492888.552246l-4.381227.421715-.043812-.010041zm15.268577-1.476003c-.280111.000857-.513835-.195911-.5367-.451838-.032051-.274172.183113-.520727.481935-.552246l4.381228-.431756c.145395-.014002.290863.025869.404012.110735.113149.084867.184587.207683.198406.341103.032051.274172-.183112.520727-.481935.552246l-4.381227.431756h-.065719zm15.268578-1.526207c-.30246.013863-.559913-.19967-.575036-.47694-.015123-.27727.21781-.513281.520271-.527144l4.381227-.451838c.302461-.0305.574625.169547.607896.446817.03327.27727-.184951.526767-.487412.557267l-4.381227.451838h-.065719zM344.577613 612.999932c-.156785.00248-.307078-.062687-.412661-.17893-.10557-.10499-.164952-.247908-.164952-.397 0-.149091.059382-.292009.164952-.396999 1.115299-.97293 2.16368-1.979408 3.345897-3.030619.10279-.105193.243482-.164471.390355-.164471.146874 0 .287565.059278.390355.164471.10557.104991.164952.247908.164952.397 0 .149091-.059382.292009-.164952.397-1.115299 1.040027-2.230599 2.057689-3.345898 3.030618-.095652.104233-.227192.168182-.368048.17893zm11.398357-10.724588c-.226-.003144-.427756-.142763-.510855-.353522-.083099-.210759-.031104-.45097.131654-.608224l3.212061-3.1089c.225175-.186307.555543-.166943.757536.044401.201993.211344.207235.543128.012021.760782l-3.212062 3.164816c-.111541.084372-.252059.120603-.390355.100647zm11.152992-10.948249c-.147351-.00086-.288112-.061349-.390354-.167746-.105571-.104991-.164952-.247908-.164952-.397 0-.149092.059381-.292009.164952-.397l3.156296-3.164816c.104708-.105855.247241-.165397.395931-.165397.148691 0 .291224.059542.395932.165397.213895.221217.213895.572783 0 .794l-3.156297 3.164816c-.100862.101745-.23626.16164-.379202.167746h-.022306zm10.985697-11.183094c-.145067-.001396-.284345-.057258-.390354-.156563-.105571-.104991-.164952-.247909-.164952-.397 0-.149092.059381-.29201.164952-.397 1.115299-1.11831 2.107915-2.236619 3.089378-3.231914.104708-.105855.247241-.165397.395932-.165397.14869 0 .291223.059542.395931.165397.104909.103067.164028.244138.164028.391408 0 .14727-.059119.288341-.164028.391408l-3.089379 3.243098c-.099082.105862-.234696.169853-.379202.178929l-.022306-.022366zm10.639955-11.485038c-.131172-.000335-.257848-.047967-.356896-.134197-.233568-.202569-.263271-.555002-.066918-.794.999415-1.005067 1.868741-2.132229 2.587494-3.354928.1051-.290259.421497-.443927.713792-.346676.289412.105095.43917.42544.334589.715718-.122683.369042-.546496 1.11831-2.788248 3.746337-.100973.117489-.246871.186571-.401507.190112l-.022306-.022366z"
      fill="#FCC01A"
      fillRule="nonzero"
      opacity="0.8"
    />
    <path
      d="M44.2782606 32.2790721l2.9794215-.8049665c.2497354-.0694643.5154186.0335716.6530198.2532508.1376012.2196791.1143555.5036925-.0571355.6980733l-2.0071892 2.3312666c-.123989.1519447-.166832.3544752-.1149952.5436138l.7945124 2.9689674c.0629638.2457698-.0395429.5041255-.2538794.6398719-.2143366.1357465-.4917169.117986-.6869906-.0439876l-2.3417207-2.0071892c-.1470753-.1255482-.3474096-.1687575-.5331597-.1149953l-2.9794215.7945125c-.2457698.0629638-.5041255-.0395429-.6398719-.2538795-.1357465-.2143365-.117986-.4917168.0439876-.6869905l2.0071892-2.3417208c.1255482-.1470753.1687575-.3474095.1149953-.5331596l-.7945125-2.9794215c-.0694642-.2497354.0335717-.5154186.2532508-.6530198.2196792-.1376012.5036926-.1143555.6980733.0571355l2.3312667 2.0071892c.1483889.1227593.3456008.1691621.5331596.1254493z"
      fill="#FDCC46"
    />
    <path
      d="M17.9938911 149.952202l5.2412933-2.810267c.4381821-.243209.9843645-.168565 1.3411134.183284.3567489.351849.4386231.896635.2010364 1.337685l-2.7415996 5.278064c-.1756094.330703-.1756094.726925 0 1.057628l2.8222348 5.237773c.2433731.437888.1686788.983704-.1834067 1.340213-.3520856.35651-.8972379.438329-1.3385842.200902l-5.2816109-2.739759c-.3317817-.172018-.7265564-.172018-1.0583381 0l-5.2412933 2.82034c-.4381821.243209-.9843645.168565-1.3411134-.183284-.3567489-.351849-.43862307-.896635-.2010364-1.337685l2.7415996-5.278064c.1583172-.317117.1583172-.690147 0-1.007265l-2.8121554-5.237773c-.24337311-.437888-.1686788-.983704.1834067-1.340213.3520856-.356509.8972379-.438329 1.3385842-.200901l5.2816109 2.739758c.3381028.153353.7300469.130756 1.0482587-.060436z"
      fill="#FEDE89"
    />
    <path
      d="M82.2341725 13.6511572l8.101442-.491602c.6806161-.0514757 1.3145571.349536 1.5604036.9870637.2458465.6375277.0455487 1.3610365-.4930199 1.780869l-6.404302 4.9801414c-.4065205.3103065-.6309066.8037624-.5977349 1.3145008l.4909965 8.111432c.0514123.6814554-.3491055 1.3161781-.985848 1.5623278-.6367425.2461497-1.3593603.0456048-1.7786757-.4936279l-4.9740078-6.4121992c-.3146624-.4468835-.8438034-.6914036-1.3875988-.64122l-8.101442.491602c-.6806161.0514757-1.3145571-.349536-1.5604036-.9870637-.2458465-.6375277-.0455487-1.3610365.4930199-1.780869l6.404302-4.9801414c.4185858-.3032153.6555619-.7978593.6297564-1.3145008l-.4909965-8.11143201c-.0514123-.68145543.3491055-1.31617807.985848-1.56232777.6367426-.24614969 1.3593603-.04560483 1.7786757.4936279l4.9740078 6.41219918c.3086632.4365123.8227832.6797031 1.3555773.64122z"
      fill="#FCC01A"
    />
    <circle fill="#FEDE89" cx="310.5" cy="643.5" r="1.5" />
    <circle fill="#FEDE89" cx="325.5" cy="647.5" r="1.5" />
    <circle fill="#FEDE89" cx="338.5" cy="601.5" r="1.5" />
    <circle fill="#FEDE89" cx="405.5" cy="573.5" r="1.5" />
    <circle fill="#FEDE89" cx="416.5" cy="562.5" r="1.5" />
    <circle fill="#FEDE89" cx="112.5" cy="377.5" r="1.5" />
    <circle fill="#FEDE89" cx="128.5" cy="401.5" r="1.5" />
    <circle fill="#FEDE89" cx="116.5" cy="400.5" r="1.5" />
    <circle fill="#FEDE89" cx="258.5" cy="396.5" r="1.5" />
    <circle fill="#FEDE89" cx="273.5" cy="402.5" r="1.5" />
    <circle fill="#FEDE89" cx="4.5" cy="130.5" r="1.5" />
    <circle fill="#FEDE89" cx="3.5" cy="142.5" r="1.5" />
    <circle fill="#FEDE89" cx="41.5" cy="169.5" r="1.5" />
    <circle fill="#FEDE89" cx="43" cy="61" r="1" />
    <circle fill="#FEDE89" cx="103.5" cy="12.5" r="1.5" />
    <circle fill="#FEDE89" cx="101.5" cy="23.5" r="1.5" />
    <circle fill="#FEDE89" cx="111.5" cy="34.5" r="1.5" />
  </g>
</svg>
