<svg height="148" viewBox="0 0 739 148" width="739" xmlns="http://www.w3.org/2000/svg"><g fill="#ffb200"><g transform="translate(166 54)"><path d="m11.2603084 11.5694778c-5.3093372 5.4762636-10.0939403 9.424753-10.68671008 8.819198-.59276979-.6055549 3.23076361-5.535843 8.54010085-11.01210651 5.30933723-5.47626354 10.09394033-9.42475298 10.68671013-8.819198.5927698.60555497-3.2307636 5.53584301-8.5401009 11.01210651z"/><path d="m9.72076576 11.5694778c-5.30933725-5.4762635-9.13287064-10.40655154-8.54010086-11.01210651.59276978-.60555498 5.37737288 3.34293446 10.6867101 8.819198 5.3093373 5.47626351 9.1328707 10.40655161 8.5401009 11.01210651-.5927698.605555-5.3773729-3.3429344-10.68671014-8.819198z"/></g><g transform="matrix(.45402984 -.89098648 .89098648 .45402984 535 8.909865)"><path d="m5.78230633 5.86237196c-2.46971578 2.74445407-4.69534381 4.72325724-4.97107933 4.41978074-.27573552-.30347665 1.50283689-2.77431264 3.97255267-5.51876671 2.46971578-2.74445408 4.6953438-4.72325729 4.97107933-4.4197807.2757355.3034766-1.50283689 2.7743126-3.97255267 5.51876667z"/><path d="m4.78377967 5.86237196c-2.46971578-2.74445407-4.24828819-5.21529007-3.97255267-5.51876667.27573552-.30347659 2.50136355 1.67532662 4.97107933 4.4197807 2.46971578 2.74445407 4.24828817 5.21529006 3.97255267 5.51876671-.27573553.3034765-2.50136355-1.67532667-4.97107933-4.41978074z"/></g><g transform="matrix(.87232002 -.48893536 .48893536 .87232002 638 123.69019)"><path d="m14.8898856 15.9284802c-7.13473443 7.410026-13.5643265 12.7527947-14.36089579 11.9334079s4.34152879-7.490644 11.47626329-14.90067c7.1347344-7.410026 13.5643265-12.75279469 14.3608958-11.93340788s-4.3415288 7.49064401-11.4762633 14.90066998z"/><path d="m13.3665084 15.5450956c-7.13473443-7.41002603-12.2728325-14.08128323-11.47626321-14.90067004.79656929-.81938681 7.22616136 4.52338189 14.36089581 11.93340784 7.1347345 7.410026 12.2728326 14.0812832 11.4762633 14.90067s-7.2261614-4.5233818-14.3608959-11.9334078z"/></g><g transform="matrix(.95490497 -.29691159 .29691159 .95490497 535 72.266027)"><path d="m5.88704527 5.77740024c-2.74412864 2.74445407-5.21704867 4.72325726-5.52342147 4.41978066-.30637281-.30347656 1.66981876-2.77431256 4.41394741-5.51876663 2.74412864-2.74445407 5.21704867-4.72325729 5.52342149-4.41978069.3063728.30347659-1.66981878 2.77431259-4.41394743 5.51876666z"/><path d="m4.77757121 5.77740024c-2.74412865-2.74445407-4.72032022-5.21529007-4.41394741-5.51876666.3063728-.3034766 2.77929283 1.67532662 5.52342147 4.41978069 2.74412865 2.74445407 4.72032023 5.21529007 4.41394743 5.51876663-.30637282.3034766-2.77929285-1.67532659-5.52342149-4.41978066z"/></g><g transform="matrix(.86682035 -.49862058 .49862058 .86682035 0 123.462756)"><path d="m14.99779 15.5385804c-7.40914735 7.6844714-14.08603143 13.2251204-14.913238 12.3753859s4.50851067-7.7680753 11.917658-15.4525467c7.4091473-7.68447136 14.0860314-13.22512037 14.913238-12.3753859s-4.5085107 7.76807526-11.917658 15.4525467z"/><path d="m12.00221 15.5385804c-7.40914733-7.68447144-12.74486457-14.60281223-11.917658-15.4525467s7.50409065 4.69091454 14.913238 12.3753859c7.4091473 7.6844714 12.7448646 14.6028122 11.917658 15.4525467s-7.5040907-4.6909145-14.913238-12.3753859z"/></g><g transform="translate(37 35)"><path d="m5.55473703 5.54949299c-2.74412864 2.74445407-5.21704867 4.72325731-5.52342147 4.41978069-.30637281-.3034766 1.66981876-2.77431259 4.41394741-5.51876667 2.74412864-2.74445407 5.21704867-4.72325729 5.52342147-4.41978069.30637276.3034766-1.66981876 2.77431259-4.41394741 5.51876667z"/><path d="m5.44526297 5.54949299c-2.74412865-2.74445408-4.72032022-5.21529007-4.41394741-5.51876667.3063728-.3034766 2.77929283 1.67532662 5.52342147 4.41978069 2.74412865 2.74445408 4.72032017 5.21529007 4.41394737 5.51876667-.3063728.30347662-2.77929279-1.67532662-5.52342143-4.41978069z"/></g><g transform="matrix(.63917881 -.76905815 .76905815 .63917881 724 86.459639)"><path d="m5.73402562 6.51030161c-2.74412864 2.74445407-5.21704867 4.72325729-5.52342148 4.41978069-.3063728-.3034766 1.66981877-2.77431259 4.41394741-5.51876666 2.74412865-2.74445407 5.21704868-4.72325729 5.52342145-4.41978069.3063728.30347659-1.66981873 2.77431259-4.41394738 5.51876666z"/><path d="m5.39360971 5.8711228c-2.74412865-2.74445407-4.72032022-5.21529007-4.41394741-5.51876667.3063728-.30347659 2.77929283 1.67532663 5.52342147 4.4197807 2.74412865 2.74445407 4.72032023 5.21529007 4.41394743 5.51876667s-2.77929285-1.67532663-5.52342149-4.4197807z"/></g></g></svg>