<svg class="css-13o7eu2" width="112" height="54" xmlns="http://www.w3.org/2000/svg"><path d="M112 29.893c0-8.374-3.97-14.981-11.558-14.981-7.62 0-12.23 6.607-12.23 14.916 0 9.846 5.443 14.818 13.255 14.818 3.81 0 6.691-.883 8.868-2.126v-6.542c-2.177 1.112-4.674 1.799-7.844 1.799-3.105 0-5.859-1.113-6.21-4.972h15.655c0-.426.064-2.127.064-2.912zm-15.816-3.107c0-3.697 2.21-5.234 4.226-5.234 1.953 0 4.034 1.537 4.034 5.234h-8.26zM76.687 14.912c-3.028 0-4.974 1.427-6.055 2.42l-.402-1.924h-6.796v36.176l7.723-1.644.03-8.78c1.113.806 2.75 1.954 5.469 1.954 5.53 0 10.565-4.468 10.565-14.303-.03-8.997-5.128-13.9-10.534-13.9zm-1.854 21.376c-1.823 0-2.904-.651-3.645-1.458l-.031-11.51c.803-.9 1.915-1.52 3.676-1.52 2.811 0 4.758 3.164 4.758 7.228 0 4.158-1.916 7.26-4.758 7.26zM52.531 12.93l7.93-1.666V5l-7.93 1.635zm0 2.974h7.93v26.76h-7.93zm-7.55 1.652-.505-2.32h-6.812v27.429h7.884V24.075c1.86-2.413 5.014-1.975 5.992-1.63v-7.21c-1.01-.376-4.7-1.065-6.56 2.32zm-16.334-8.59-7.8 1.671-.033 25.749c0 4.757 3.55 8.261 8.281 8.261 2.622 0 4.54-.482 5.595-1.06V37.06c-1.023.418-6.075 1.896-6.075-2.861V22.787h6.075V15.94h-6.075l.032-6.975zM7.898 23.767c0-1.275.999-1.765 2.653-1.765 2.373 0 5.37.752 7.742 2.091v-7.678c-2.59-1.079-5.15-1.503-7.742-1.503C4.214 14.912 0 18.375 0 24.159c0 9.018 11.863 7.58 11.863 11.469 0 1.503-1.25 1.993-2.997 1.993-2.591 0-5.9-1.111-8.523-2.614v7.777c2.904 1.307 5.838 1.862 8.523 1.862 6.493 0 10.957-3.366 10.957-9.214-.031-9.738-11.925-8.006-11.925-11.665z" fill="#6772E5" fill-rule="evenodd"/></svg>