<svg viewBox="0 0 313.82 449.06" xmlns="http://www.w3.org/2000/svg"><path d="m137.17 81.93-135.99 200.95 35.39 58.97h79.97z" fill="#2929a3"/><path d="m178.06 80.7 134.49 202.18-35.39 58.97h-80.12z" fill="#2929a3"/><path d="m11.9 266.77-10.72 16.11 35.39 59h42.52l-13.33-32.88s-1.45-3.82-7.7-8.14-46.16-34.09-46.16-34.09z" fill="#1a1a89"/><path d="m301.79 266.66 10.76 16.22-35.39 59h-43.16l15-36.41s.08.36 7.6-5.45 45.19-33.36 45.19-33.36z" fill="#1a1a89"/><path d="m122.41 161.56-7.07 5.7s-2.64 2.11-3.38 7.29-10.13 45.18-10.13 45.18a8.66 8.66 0 0 0 .84 6.36c1.82 3.39 4.61 8.31 4.61 8.31z" fill="#1a1a89"/><path d="m192.28 161.56 7.06 5.7s2.65 2.11 3.38 7.29 10.13 45.18 10.13 45.18a8.66 8.66 0 0 1 -.84 6.36c-1.82 3.39-4.16 9.44-4.16 9.44z" fill="#1a1a89"/><g fill="#fff"><path d="m301.19 265.85-30.71 22.67-9.7-11.52a7.48 7.48 0 0 0 -5.55-2.58h-46.8v1h46.8a6.59 6.59 0 0 1 4.78 2.22l9.66 11.44-17.43 12.92a13.49 13.49 0 0 0 -5.39 6.52c-1.88 5.14-14 33.34-14.09 33.63l.92.39c.12-.28 12.22-28.51 14.11-33.67a12.77 12.77 0 0 1 5-6l49-36.15z"/><path d="m52.1 277-9.62 11.4-30-22.17-.53.52 48.42 36.06a14.92 14.92 0 0 1 5 6c2.13 5.05 13.75 32.89 13.87 33.17h1.08c-.11-.28-11.9-28.51-14-33.56a15.73 15.73 0 0 0 -5.43-6.42l-17.6-13 9.61-11.39a6 6 0 0 1 4.75-2.18h47.71v-1h-47.71a7 7 0 0 0 -5.55 2.57z"/><circle cx="59.25" cy="283.9" r="1.2"/><circle cx="72.55" cy="283.9" r="1.2"/><circle cx="85.84" cy="283.9" r="1.2"/><circle cx="99.13" cy="283.9" r="1.2"/><circle cx="216.45" cy="283.9" r="1.2"/><circle cx="229.74" cy="283.9" r="1.2"/><circle cx="243.03" cy="283.9" r="1.2"/><circle cx="256.32" cy="283.9" r="1.2"/><path d="m115.13 166.83c-.08 0-1.85 1.21-2.68 5.37-.87 4.36-9.86 42.84-9.94 43.18s-2.26 6.61-1.09 9.22c1.11 2.45 5.25 9.74 5.43 10.05l.87-.49c0-.08-4.3-7.57-5.38-10-.84-1.87.52-6.76 1.13-8.53.09-.39 9.08-38.89 10-43.27.73-3.68 2.22-4.7 2.28-4.74l7.06-5.7-.63-.78z"/><path d="m212.09 215.43c-.09-.39-9-38.9-10-43.25-.87-3.89-2.56-5.26-2.63-5.31l-6.71-5.41-.63.77 6.72 5.42s1.49 1.25 2.28 4.75c1 4.35 9.86 42.87 10 43.31.59 1.72 2 6.61 1.12 8.48-1.09 2.41-5.59 10.46-5.64 10.54l.87.49c.19-.33 4.58-8.18 5.68-10.62 1.19-2.6-.99-8.95-1.06-9.17z"/></g><path d="m153.48.53h9.59l48.65 260.23-16.95 93.62h-75.94l-16.95-93.62z" fill="#e1e1f4"/><path d="m118.85 354.59h75.93l10.34-57.08-16.51-42.46h-64l-16.14 42.22z" fill="#c0c0e2"/><path d="m164.13 82.17c-1.19-4.17-3.77-5.25-5.44-5.5a4.65 4.65 0 0 0 -.78 0 4.84 4.84 0 0 0 -.79 0c-1.67.25-4.24 1.33-5.44 5.5-1.84 6.45-17.5 74.09-15.66 86.62s11.26 21.57 11.26 21.57.75 1.32 9.84 1.46h1.57c9.09-.14 9.84-1.46 9.84-1.46s9.42-9 11.26-21.57-13.79-80.17-15.66-86.62z" fill="#c0c0e2"/><path d="m158.94 202.57h-2.57c-10.16-.14-12.35-1.15-12.82-1.57-.66-.49-12.65-9.56-15-21.85l1-.19c2.36 12.19 14.54 21.16 14.67 21.25l.1.11s1.55 1.13 12.61 1.26h2.05c11.08-.13 12.6-1.27 12.66-1.32s12.36-9.11 14.72-21.3l1 .19c-2.39 12.29-14.37 21.36-15 21.85-.47.42-2.65 1.43-12.82 1.57h-.5z" fill="#8a8ace"/><path d="m144.3 46.83-.29 1.46 13.89 23.05 14.1-23.05-.28-1.47-13.81 22.59z" fill="#8a8ace"/><path d="m188.95 254.55h-64.69l-15.9 42.02.18.96.47.18 15.94-42.16h63.31l16.46 42.41.28-.11.24-1.32z" fill="#8a8ace"/><path d="m140.74 307.71a3 3 0 1 1 3-3 3 3 0 0 1 -3 3zm0-5a2 2 0 1 0 2 2 2 2 0 0 0 -2-2.05z" fill="#8a8ace"/><path d="m172.64 307.71a3 3 0 1 1 3-3 3 3 0 0 1 -3 3zm0-5a2 2 0 1 0 2 2 2 2 0 0 0 -2-2.05z" fill="#8a8ace"/><path d="m164.61 82c-1.19-4.17-3.75-5.42-5.42-5.79l-.42-.1a5.48 5.48 0 0 0 -.85-.05 5.55 5.55 0 0 0 -.88.05l-.42.1c-1.67.37-4.23 1.62-5.42 5.79-1.58 5.54-17.55 74.11-15.68 86.83 1.8 12.22 10.82 21.26 11.39 21.82.36.44 2 1.46 9.71 1.62h2.57c7.68-.16 9.36-1.18 9.72-1.62.56-.56 9.58-9.6 11.38-21.82 1.87-12.67-14.1-81.25-15.68-86.83zm3.53 108s-1.21 1.14-9.46 1.27h-1.55c-8.2-.13-9.4-1.21-9.42-1.21l-.09-.11a43.75 43.75 0 0 1 -6-7.77h32.53a43.52 43.52 0 0 1 -6.01 7.87zm11.16-21.33a35.74 35.74 0 0 1 -4.54 12.51h-33.71a35.87 35.87 0 0 1 -4.54-12.51c-1.85-12.59 14.08-80.89 15.66-86.41 1.08-3.8 3.33-4.9 5-5.15h.24a3.5 3.5 0 0 1 .48 0h.31l.38.06c1.7.25 3.95 1.35 5 5.15 1.65 5.51 17.57 73.83 15.72 86.4z" fill="#8a8ace"/><path d="m179.84 260.46a23.69 23.69 0 0 0 -28.45-28.46 23.24 23.24 0 0 0 -17.62 17.62 23.69 23.69 0 0 0 28.45 28.45 23.24 23.24 0 0 0 17.62-17.61z" fill="#5c47d3"/><path d="m159.71 262.19 12.9-5.25-.24-3.2-8.11 3.3a7.42 7.42 0 0 0 .18-.94l1.9-13.79-2.89-1.4-1.2 8.69a7.41 7.41 0 0 0 -.72-.65l-11-8.54-2.66 1.81 6.92 5.38a6.92 6.92 0 0 0 -.91.3l-12.88 5.25.24 3.2 8.11-3.3a7.42 7.42 0 0 0 -.18.94l-1.9 13.79 2.89 1.4 1.2-8.69a7.41 7.41 0 0 0 .72.65l11 8.54 2.66-1.81-6.93-5.38a7.07 7.07 0 0 0 .9-.3zm-2.91-11.67a4.53 4.53 0 1 1 -4.52 4.53 4.53 4.53 0 0 1 4.52-4.53z" fill="#fff"/><path d="m136.86 368.86c-4.62 6-4.91 13.21-4.19 20 2.21 20.9 12.8 40.86 24.26 60.16 7.06-15.82 9.94-26.74 16.69-44.13 1.49-3.85 2.59-9.37 3.65-13.3a53.83 53.83 0 0 0 1.65-11.15c0-4.46.33-10.06-3-13.81-4.63-5.15-10-5.93-18.09-6.66-8.58-.74-17.06 3.79-20.97 8.89z" fill="#ffcb64"/><path d="m138.37 389.39c2 5.34 5 10.5 6.8 15.86a33.52 33.52 0 0 1 1.6-11.31q4.29 13.49 7.86 27.06c12.24-13.62 18.66-29.23 18.42-44.77a10 10 0 0 0 -1.42-5.8 13.35 13.35 0 0 0 -4.63-3.78c-6.95-3.81-16-3.3-23.38 0-5.32 2.4-6.37 6.95-7 10.73a24.27 24.27 0 0 0 1.75 12.01z" fill="#ffa73e"/><path d="m127.5 321.39 3.68 54.61s5.16 3.68 25.62 3.68 24.33-2.95 24.33-2.95l4.79-55.29s-9.58-3.5-29.12-3.5-29.3 3.45-29.3 3.45z" fill="#2929a3"/><path d="m181.63 370.87 3.26-37.57c-32.18-7.13-56.59 0-56.59 0l2.54 37.58 11.08-1.35v-37.8c12.16-2.16 29 1 29 1v36.83z" fill="#1a1a89"/><path d="m184.77 334.65.09-1c-3.18-.91-12.55-3.15-28.06-3.15-15.93 0-25.51 2.36-28.47 3.22l.07 1a77.17 77.17 0 0 1 13.07-2.43v36.83l-10.66 1.3v.5l.06.5 11.6-1.42v-37.82a140 140 0 0 1 14.33-.7c5.3 0 9.85.27 13.69.65v37.87l11.1 1.36.09-1-10.19-1.24v-36.89a77.43 77.43 0 0 1 13.28 2.42z" fill="#fff"/><path d="m313.82 283.32-134.73-202.53-15-80-.09-.79h-11.25l-16 80.78-136.4 202.01-.35.53 36.47 60h79.35l2.12 11.68.15.83h10.79l1.42 21.17.39.27c.22.16 5.66 3.87 26.2 3.87 20.21 0 24.51-2.83 24.93-3.15l.35-.27 1.89-21.82h11.63l2.31-12.58h79.85zm-276.22 58-35.23-57.94 133.34-197.45-34.71 175.07v.18l14.5 80.1zm142.66 35.22c-1.35.62-6.92 2.56-23.37 2.56-16.82 0-23.15-2.53-24.66-3.29l-3.6-53.23c2.57-.77 12-3.22 28.26-3.22s25.49 2.44 28.05 3.21zm13.74-22.68h-9.78l2.83-32.67-.72-.26c-.4-.15-10-3.57-29.46-3.57s-29.24 3.42-29.65 3.56l-.71.26 2.21 32.68h-9l-16.72-92.62 51.39-259.24h7.93l48.47 259.23zm4.3-12.54 14.47-79.91v-.18l-32.77-175.42 131.45 197.57-34.77 57.94z" fill="#201c68"/></svg>